G04 #@! TF.GenerationSoftware,KiCad,Pcbnew,(5.99.0-562-g7b80b2dc7)*
G04 #@! TF.CreationDate,2019-12-24T23:11:14-08:00*
G04 #@! TF.ProjectId,arch_40,61726368-5f34-4302-9e6b-696361645f70,rev?*
G04 #@! TF.SameCoordinates,Original*
G04 #@! TF.FileFunction,Copper,L2,Bot*
G04 #@! TF.FilePolarity,Positive*
%FSLAX46Y46*%
G04 Gerber Fmt 4.6, Leading zero omitted, Abs format (unit mm)*
G04 Created by KiCad (PCBNEW (5.99.0-562-g7b80b2dc7)) date 2019-12-24 23:11:14*
%MOMM*%
%LPD*%
G04 APERTURE LIST*
%ADD10C,2.000000*%
%ADD11C,2.250000*%
%ADD12C,2.250000*%
%ADD13C,1.752600*%
%ADD14R,1.752600X1.752600*%
%ADD15C,1.651000*%
%ADD16C,0.800000*%
%ADD17C,0.250000*%
G04 APERTURE END LIST*
D10*
X127722519Y-150298786D03*
X122305813Y-150035533D03*
D11*
X129421912Y-147658320D03*
D12*
X130153560Y-145838323D02*
X129421924Y-147658325D01*
D11*
X125055243Y-150396970D03*
D12*
X124894459Y-149838267D02*
X125055683Y-150396843D01*
D10*
X109369368Y-78038162D03*
X105083258Y-74715623D03*
D11*
X112275938Y-76849951D03*
D12*
X113919177Y-75778752D02*
X112275945Y-76849962D01*
D11*
X107128148Y-76588703D03*
D12*
X107316900Y-76038819D02*
X107128582Y-76588853D01*
D10*
X67510168Y-86699562D03*
X63224058Y-83377023D03*
D11*
X70416738Y-85511351D03*
D12*
X72059977Y-84440152D02*
X70416745Y-85511362D01*
D11*
X65268948Y-85250103D03*
D12*
X65457700Y-84700219D02*
X65269382Y-85250253D01*
D10*
X238966232Y-53704962D03*
X233593083Y-52970613D03*
D11*
X240889291Y-51222656D03*
D12*
X241776778Y-49473351D02*
X240889302Y-51222661D01*
D11*
X236300549Y-53570304D03*
D12*
X236189071Y-52999714D02*
X236300999Y-53570216D01*
X273958871Y-102021714D02*
X274070799Y-102592216D01*
D11*
X274070349Y-102592304D03*
D12*
X279546578Y-98495351D02*
X278659102Y-100244661D01*
D11*
X278659091Y-100244656D03*
D10*
X271362883Y-101992613D03*
X276736032Y-102726962D03*
D12*
X269005871Y-83606714D02*
X269117799Y-84177216D01*
D11*
X269117349Y-84177304D03*
D12*
X274593578Y-80080351D02*
X273706102Y-81829661D01*
D11*
X273706091Y-81829656D03*
D10*
X266409883Y-83577613D03*
X271783032Y-84311962D03*
D12*
X264230671Y-65273763D02*
X264342599Y-65844265D01*
D11*
X264342149Y-65844353D03*
D12*
X269818378Y-61747400D02*
X268930902Y-63496710D01*
D11*
X268930891Y-63496705D03*
D10*
X261634683Y-65244662D03*
X267007832Y-65979011D03*
D12*
X259226871Y-46802114D02*
X259338799Y-47372616D01*
D11*
X259338349Y-47372704D03*
D12*
X264814578Y-43275751D02*
X263927102Y-45025061D01*
D11*
X263927091Y-45025056D03*
D10*
X256630883Y-46773013D03*
X262004032Y-47507362D03*
X18742168Y-103107962D03*
X14456058Y-99785423D03*
D11*
X21648738Y-101919751D03*
D12*
X23291977Y-100848552D02*
X21648745Y-101919762D01*
D11*
X16500948Y-101658503D03*
D12*
X16689700Y-101108619D02*
X16501382Y-101658653D01*
D10*
X23695168Y-84718362D03*
X19409058Y-81395823D03*
D11*
X26601738Y-83530151D03*
D12*
X28244977Y-82458952D02*
X26601745Y-83530162D01*
D11*
X21453948Y-83268903D03*
D12*
X21642700Y-82719019D02*
X21454382Y-83269053D01*
D10*
X28597368Y-66328762D03*
X24311258Y-63006223D03*
D11*
X31503938Y-65140551D03*
D12*
X33147177Y-64069352D02*
X31503945Y-65140562D01*
D11*
X26356148Y-64879303D03*
D12*
X26544900Y-64329419D02*
X26356582Y-64879453D01*
D10*
X33524968Y-47888362D03*
X29238858Y-44565823D03*
D11*
X36431538Y-46700151D03*
D12*
X38074777Y-45628952D02*
X36431545Y-46700162D01*
D11*
X31283748Y-46438903D03*
D12*
X31472500Y-45889019D02*
X31284182Y-46439053D01*
D10*
X213286832Y-105012962D03*
X207913683Y-104278613D03*
D11*
X215209891Y-102530656D03*
D12*
X216097378Y-100781351D02*
X215209902Y-102530661D01*
D11*
X210621149Y-104878304D03*
D12*
X210509671Y-104307714D02*
X210621599Y-104878216D01*
D10*
X208308432Y-86496362D03*
X202935283Y-85762013D03*
D11*
X210231491Y-84014056D03*
D12*
X211118978Y-82264751D02*
X210231502Y-84014061D01*
D11*
X205642749Y-86361704D03*
D12*
X205531271Y-85791114D02*
X205643199Y-86361616D01*
D10*
X203380832Y-68182962D03*
X198007683Y-67448613D03*
D11*
X205303891Y-65700656D03*
D12*
X206191378Y-63951351D02*
X205303902Y-65700661D01*
D11*
X200715149Y-68048304D03*
D12*
X200603671Y-67477714D02*
X200715599Y-68048216D01*
D10*
X198402432Y-49894962D03*
X193029283Y-49160613D03*
D11*
X200325491Y-47412656D03*
D12*
X201212978Y-45663351D02*
X200325502Y-47412661D01*
D11*
X195736749Y-49760304D03*
D12*
X195625271Y-49189714D02*
X195737199Y-49760216D01*
D10*
X196091032Y-114537962D03*
X190717883Y-113803613D03*
D11*
X198014091Y-112055656D03*
D12*
X198901578Y-110306351D02*
X198014102Y-112055661D01*
D11*
X193425349Y-114403304D03*
D12*
X193313871Y-113832714D02*
X193425799Y-114403216D01*
D10*
X191163432Y-96199162D03*
X185790283Y-95464813D03*
D11*
X193086491Y-93716856D03*
D12*
X193973978Y-91967551D02*
X193086502Y-93716861D01*
D11*
X188497749Y-96064504D03*
D12*
X188386271Y-95493914D02*
X188498199Y-96064416D01*
D10*
X186210432Y-77733362D03*
X180837283Y-76999013D03*
D11*
X188133491Y-75251056D03*
D12*
X189020978Y-73501751D02*
X188133502Y-75251061D01*
D11*
X183544749Y-77598704D03*
D12*
X183433271Y-77028114D02*
X183545199Y-77598616D01*
D10*
X181282832Y-59343762D03*
X175909683Y-58609413D03*
D11*
X183205891Y-56861456D03*
D12*
X184093378Y-55112151D02*
X183205902Y-56861461D01*
D11*
X178617149Y-59209104D03*
D12*
X178505671Y-58638514D02*
X178617599Y-59209016D01*
D10*
X178946032Y-124113762D03*
X173572883Y-123379413D03*
D11*
X180869091Y-121631456D03*
D12*
X181756578Y-119882151D02*
X180869102Y-121631461D01*
D11*
X176280349Y-123979104D03*
D12*
X176168871Y-123408514D02*
X176280799Y-123979016D01*
D10*
X174018432Y-105647962D03*
X168645283Y-104913613D03*
D11*
X175941491Y-103165656D03*
D12*
X176828978Y-101416351D02*
X175941502Y-103165661D01*
D11*
X171352749Y-105513304D03*
D12*
X171241271Y-104942714D02*
X171353199Y-105513216D01*
D10*
X169065432Y-87182162D03*
X163692283Y-86447813D03*
D11*
X170988491Y-84699856D03*
D12*
X171875978Y-82950551D02*
X170988502Y-84699861D01*
D11*
X166399749Y-87047504D03*
D12*
X166288271Y-86476914D02*
X166400199Y-87047416D01*
D10*
X164137832Y-68792562D03*
X158764683Y-68058213D03*
D11*
X166060891Y-66310256D03*
D12*
X166948378Y-64560951D02*
X166060902Y-66310261D01*
D11*
X161472149Y-68657904D03*
D12*
X161360671Y-68087314D02*
X161472599Y-68657816D01*
D10*
X156884481Y-147555586D03*
X152904260Y-143872131D03*
D11*
X159883551Y-146625221D03*
D12*
X161613898Y-145701316D02*
X159883556Y-146625232D01*
D11*
X154778118Y-145916307D03*
D12*
X155014078Y-145384966D02*
X154778538Y-145916494D01*
D10*
X174893081Y-154083386D03*
X170912860Y-150399931D03*
D11*
X177892151Y-153153021D03*
D12*
X179622498Y-152229116D02*
X177892156Y-153153032D01*
D11*
X172786718Y-152444107D03*
D12*
X173022678Y-151912766D02*
X172787138Y-152444294D01*
D10*
X116684568Y-124469362D03*
X112398458Y-121146823D03*
D11*
X119591138Y-123281151D03*
D12*
X121234377Y-122209952D02*
X119591145Y-123281162D01*
D11*
X114443348Y-123019903D03*
D12*
X114632100Y-122470019D02*
X114443782Y-123020053D01*
D10*
X121510568Y-106003562D03*
X117224458Y-102681023D03*
D11*
X124417138Y-104815351D03*
D12*
X126060377Y-103744152D02*
X124417145Y-104815362D01*
D11*
X119269348Y-104554103D03*
D12*
X119458100Y-104004219D02*
X119269782Y-104554253D01*
D10*
X126514368Y-87537762D03*
X122228258Y-84215223D03*
D11*
X129420938Y-86349551D03*
D12*
X131064177Y-85278352D02*
X129420945Y-86349562D01*
D11*
X124273148Y-86088303D03*
D12*
X124461900Y-85538419D02*
X124273582Y-86088453D01*
D10*
X131391168Y-69198962D03*
X127105058Y-65876423D03*
D11*
X134297738Y-68010751D03*
D12*
X135940977Y-66939552D02*
X134297745Y-68010762D01*
D11*
X129149948Y-67749503D03*
D12*
X129338700Y-67199619D02*
X129150382Y-67749653D01*
D10*
X99437968Y-114918962D03*
X95151858Y-111596423D03*
D11*
X102344538Y-113730751D03*
D12*
X103987777Y-112659552D02*
X102344545Y-113730762D01*
D11*
X97196748Y-113469503D03*
D12*
X97385500Y-112919619D02*
X97197182Y-113469653D01*
D10*
X104467168Y-96453162D03*
X100181058Y-93130623D03*
D11*
X107373738Y-95264951D03*
D12*
X109016977Y-94193752D02*
X107373745Y-95264962D01*
D11*
X102225948Y-95003703D03*
D12*
X102414700Y-94453819D02*
X102226382Y-95003853D01*
D10*
X114246168Y-59623162D03*
X109960058Y-56300623D03*
D11*
X117152738Y-58434951D03*
D12*
X118795977Y-57363752D02*
X117152745Y-58434962D01*
D11*
X112004948Y-58173703D03*
D12*
X112193700Y-57623819D02*
X112005382Y-58173853D01*
D10*
X82242168Y-105292362D03*
X77956058Y-101969823D03*
D11*
X85148738Y-104104151D03*
D12*
X86791977Y-103032952D02*
X85148745Y-104104162D01*
D11*
X80000948Y-103842903D03*
D12*
X80189700Y-103293019D02*
X80001382Y-103843053D01*
D10*
X87271368Y-86877362D03*
X82985258Y-83554823D03*
D11*
X90177938Y-85689151D03*
D12*
X91821177Y-84617952D02*
X90177945Y-85689162D01*
D11*
X85030148Y-85427903D03*
D12*
X85218900Y-84878019D02*
X85030582Y-85428053D01*
D10*
X92173568Y-68487762D03*
X87887458Y-65165223D03*
D11*
X95080138Y-67299551D03*
D12*
X96723377Y-66228352D02*
X95080145Y-67299562D01*
D11*
X89932348Y-67038303D03*
D12*
X90121100Y-66488419D02*
X89932782Y-67038453D01*
D10*
X97050368Y-50148962D03*
X92764258Y-46826423D03*
D11*
X99956938Y-48960751D03*
D12*
X101600177Y-47889552D02*
X99956945Y-48960762D01*
D11*
X94809148Y-48699503D03*
D12*
X94997900Y-48149619D02*
X94809582Y-48699653D01*
D10*
X62633368Y-105012962D03*
X58347258Y-101690423D03*
D11*
X65539938Y-103824751D03*
D12*
X67183177Y-102753552D02*
X65539945Y-103824762D01*
D11*
X60392148Y-103563503D03*
D12*
X60580900Y-103013619D02*
X60392582Y-103563653D01*
D10*
X72564768Y-68208362D03*
X68278658Y-64885823D03*
D11*
X75471338Y-67020151D03*
D12*
X77114577Y-65948952D02*
X75471345Y-67020162D01*
D11*
X70323548Y-66758903D03*
D12*
X70512300Y-66209019D02*
X70323982Y-66759053D01*
D10*
X77466968Y-49818762D03*
X73180858Y-46496223D03*
D11*
X80373538Y-48630551D03*
D12*
X82016777Y-47559352D02*
X80373545Y-48630562D01*
D11*
X75225748Y-48369303D03*
D12*
X75414500Y-47819419D02*
X75226182Y-48369453D01*
D10*
X248846832Y-90560362D03*
X243473683Y-89826013D03*
D11*
X250769891Y-88078056D03*
D12*
X251657378Y-86328751D02*
X250769902Y-88078061D01*
D11*
X246181149Y-90425704D03*
D12*
X246069671Y-89855114D02*
X246181599Y-90425616D01*
D10*
X243893832Y-72170762D03*
X238520683Y-71436413D03*
D11*
X245816891Y-69688456D03*
D12*
X246704378Y-67939151D02*
X245816902Y-69688461D01*
D11*
X241228149Y-72036104D03*
D12*
X241116671Y-71465514D02*
X241228599Y-72036016D01*
D10*
X232844832Y-104555762D03*
X227471683Y-103821413D03*
D11*
X234767891Y-102073456D03*
D12*
X235655378Y-100324151D02*
X234767902Y-102073461D01*
D11*
X230179149Y-104421104D03*
D12*
X230067671Y-103850514D02*
X230179599Y-104421016D01*
D10*
X227993432Y-86242362D03*
X222620283Y-85508013D03*
D11*
X229916491Y-83760056D03*
D12*
X230803978Y-82010751D02*
X229916502Y-83760061D01*
D11*
X225327749Y-86107704D03*
D12*
X225216271Y-85537114D02*
X225328199Y-86107616D01*
D10*
X223065832Y-67827362D03*
X217692683Y-67093013D03*
D11*
X224988891Y-65345056D03*
D12*
X225876378Y-63595751D02*
X224988902Y-65345061D01*
D11*
X220400149Y-67692704D03*
D12*
X220288671Y-67122114D02*
X220400599Y-67692616D01*
D10*
X218087432Y-49463162D03*
X212714283Y-48728813D03*
D11*
X220010491Y-46980856D03*
D12*
X220897978Y-45231551D02*
X220010502Y-46980861D01*
D11*
X215421749Y-49328504D03*
D12*
X215310271Y-48757914D02*
X215422199Y-49328416D01*
D10*
X46732968Y-90890562D03*
X42446858Y-87568023D03*
D11*
X49639538Y-89702351D03*
D12*
X51282777Y-88631152D02*
X49639545Y-89702362D01*
D11*
X44491748Y-89441103D03*
D12*
X44680500Y-88891219D02*
X44492182Y-89441253D01*
D10*
X51584368Y-72500962D03*
X47298258Y-69178423D03*
D11*
X54490938Y-71312751D03*
D12*
X56134177Y-70241552D02*
X54490945Y-71312762D01*
D11*
X49343148Y-71051503D03*
D12*
X49531900Y-70501619D02*
X49343582Y-71051653D01*
D10*
X56562768Y-54009762D03*
X52276658Y-50687223D03*
D11*
X59469338Y-52821551D03*
D12*
X61112577Y-51750352D02*
X59469345Y-52821562D01*
D11*
X54321548Y-52560303D03*
D12*
X54510300Y-52010419D02*
X54321982Y-52560453D01*
D13*
X141046200Y-91363800D03*
X156286200Y-119303800D03*
X141046200Y-93903800D03*
X141046200Y-96443800D03*
X141046200Y-98983800D03*
X141046200Y-101523800D03*
X141046200Y-104063800D03*
X141046200Y-106603800D03*
X141046200Y-109143800D03*
X141046200Y-111683800D03*
X141046200Y-114223800D03*
X141046200Y-116763800D03*
X141046200Y-119303800D03*
X156286200Y-116763800D03*
X156286200Y-114223800D03*
X156286200Y-111683800D03*
X156286200Y-109143800D03*
X156286200Y-106603800D03*
X156286200Y-104063800D03*
X156286200Y-101523800D03*
X156286200Y-98983800D03*
X156286200Y-96443800D03*
X156286200Y-93903800D03*
D14*
X156286200Y-91363800D03*
G04 #@! TA.AperFunction,ComponentPad*
G36*
X133812182Y-100713150D02*
G01*
X135406926Y-101140460D01*
X134979616Y-102735204D01*
X133384872Y-102307894D01*
X133812182Y-100713150D01*
G37*
G04 #@! TD.AperFunction*
D15*
X136368101Y-94363823D03*
G04 #@! TA.AperFunction,ComponentPad*
G36*
X216755897Y-107212345D02*
G01*
X216328587Y-105617601D01*
X217923331Y-105190291D01*
X218350641Y-106785035D01*
X216755897Y-107212345D01*
G37*
G04 #@! TD.AperFunction*
X209979260Y-108173520D03*
G04 #@! TA.AperFunction,ComponentPad*
G36*
X211808260Y-88823326D02*
G01*
X211380950Y-87228582D01*
X212975694Y-86801272D01*
X213403004Y-88396016D01*
X211808260Y-88823326D01*
G37*
G04 #@! TD.AperFunction*
X205031623Y-89784501D03*
G04 #@! TA.AperFunction,ComponentPad*
G36*
X206652060Y-70814726D02*
G01*
X206224750Y-69219982D01*
X207819494Y-68792672D01*
X208246804Y-70387416D01*
X206652060Y-70814726D01*
G37*
G04 #@! TD.AperFunction*
X199875423Y-71775901D03*
G04 #@! TA.AperFunction,ComponentPad*
G36*
X202105460Y-51993326D02*
G01*
X201678150Y-50398582D01*
X203272894Y-49971272D01*
X203700204Y-51566016D01*
X202105460Y-51993326D01*
G37*
G04 #@! TD.AperFunction*
X195328823Y-52954501D03*
G04 #@! TA.AperFunction,ComponentPad*
G36*
X200454460Y-116356926D02*
G01*
X200027150Y-114762182D01*
X201621894Y-114334872D01*
X202049204Y-115929616D01*
X200454460Y-116356926D01*
G37*
G04 #@! TD.AperFunction*
X193677823Y-117318101D03*
G04 #@! TA.AperFunction,ComponentPad*
G36*
X196393283Y-98166027D02*
G01*
X195965973Y-96571283D01*
X197560717Y-96143973D01*
X197988027Y-97738717D01*
X196393283Y-98166027D01*
G37*
G04 #@! TD.AperFunction*
X189616646Y-99127202D03*
G04 #@! TA.AperFunction,ComponentPad*
G36*
X190573860Y-79704726D02*
G01*
X190146550Y-78109982D01*
X191741294Y-77682672D01*
X192168604Y-79277416D01*
X190573860Y-79704726D01*
G37*
G04 #@! TD.AperFunction*
X183797223Y-80665901D03*
G04 #@! TA.AperFunction,ComponentPad*
G36*
X185443060Y-61670726D02*
G01*
X185015750Y-60075982D01*
X186610494Y-59648672D01*
X187037804Y-61243416D01*
X185443060Y-61670726D01*
G37*
G04 #@! TD.AperFunction*
X178666423Y-62631901D03*
G04 #@! TA.AperFunction,ComponentPad*
G36*
X182496660Y-126339126D02*
G01*
X182069350Y-124744382D01*
X183664094Y-124317072D01*
X184091404Y-125911816D01*
X182496660Y-126339126D01*
G37*
G04 #@! TD.AperFunction*
X175720023Y-127300301D03*
G04 #@! TA.AperFunction,ComponentPad*
G36*
X178686660Y-107771726D02*
G01*
X178259350Y-106176982D01*
X179854094Y-105749672D01*
X180281404Y-107344416D01*
X178686660Y-107771726D01*
G37*
G04 #@! TD.AperFunction*
X171910023Y-108732901D03*
G04 #@! TA.AperFunction,ComponentPad*
G36*
X173352660Y-89305926D02*
G01*
X172925350Y-87711182D01*
X174520094Y-87283872D01*
X174947404Y-88878616D01*
X173352660Y-89305926D01*
G37*
G04 #@! TD.AperFunction*
X166576023Y-90267101D03*
G04 #@! TA.AperFunction,ComponentPad*
G36*
X168602860Y-70789326D02*
G01*
X168175550Y-69194582D01*
X169770294Y-68767272D01*
X170197604Y-70362016D01*
X168602860Y-70789326D01*
G37*
G04 #@! TD.AperFunction*
X161826223Y-71750501D03*
G04 #@! TA.AperFunction,ComponentPad*
G36*
X132151870Y-151913657D02*
G01*
X131587195Y-150362224D01*
X133138628Y-149797549D01*
X133703303Y-151348982D01*
X132151870Y-151913657D01*
G37*
G04 #@! TD.AperFunction*
X125484791Y-153461797D03*
G04 #@! TA.AperFunction,ComponentPad*
G36*
X157716175Y-151351676D02*
G01*
X158280850Y-149800243D01*
X159832283Y-150364918D01*
X159267608Y-151916351D01*
X157716175Y-151351676D01*
G37*
G04 #@! TD.AperFunction*
X151613771Y-148252103D03*
G04 #@! TA.AperFunction,ComponentPad*
G36*
X175568466Y-157533959D02*
G01*
X176133141Y-155982526D01*
X177684574Y-156547201D01*
X177119899Y-158098634D01*
X175568466Y-157533959D01*
G37*
G04 #@! TD.AperFunction*
X169466062Y-154434386D03*
G04 #@! TA.AperFunction,ComponentPad*
G36*
X118315350Y-128417418D02*
G01*
X118742660Y-126822674D01*
X120337404Y-127249984D01*
X119910094Y-128844728D01*
X118315350Y-128417418D01*
G37*
G04 #@! TD.AperFunction*
X111966023Y-125861499D03*
G04 #@! TA.AperFunction,ComponentPad*
G36*
X123700150Y-109875418D02*
G01*
X124127460Y-108280674D01*
X125722204Y-108707984D01*
X125294894Y-110302728D01*
X123700150Y-109875418D01*
G37*
G04 #@! TD.AperFunction*
X117350823Y-107319499D03*
G04 #@! TA.AperFunction,ComponentPad*
G36*
X129034150Y-91435018D02*
G01*
X129461460Y-89840274D01*
X131056204Y-90267584D01*
X130628894Y-91862328D01*
X129034150Y-91435018D01*
G37*
G04 #@! TD.AperFunction*
X122684823Y-88879099D03*
G04 #@! TA.AperFunction,ComponentPad*
G36*
X133352150Y-72969218D02*
G01*
X133779460Y-71374474D01*
X135374204Y-71801784D01*
X134946894Y-73396528D01*
X133352150Y-72969218D01*
G37*
G04 #@! TD.AperFunction*
X127002823Y-70413299D03*
G04 #@! TA.AperFunction,ComponentPad*
G36*
X101602150Y-118663818D02*
G01*
X102029460Y-117069074D01*
X103624204Y-117496384D01*
X103196894Y-119091128D01*
X101602150Y-118663818D01*
G37*
G04 #@! TD.AperFunction*
X95252823Y-116107899D03*
G04 #@! TA.AperFunction,ComponentPad*
G36*
X106478950Y-100172618D02*
G01*
X106906260Y-98577874D01*
X108501004Y-99005184D01*
X108073694Y-100599928D01*
X106478950Y-100172618D01*
G37*
G04 #@! TD.AperFunction*
X100129623Y-97616699D03*
G04 #@! TA.AperFunction,ComponentPad*
G36*
X111254150Y-81833818D02*
G01*
X111681460Y-80239074D01*
X113276204Y-80666384D01*
X112848894Y-82261128D01*
X111254150Y-81833818D01*
G37*
G04 #@! TD.AperFunction*
X104904823Y-79277899D03*
G04 #@! TA.AperFunction,ComponentPad*
G36*
X115902350Y-63241018D02*
G01*
X116329660Y-61646274D01*
X117924404Y-62073584D01*
X117497094Y-63668328D01*
X115902350Y-63241018D01*
G37*
G04 #@! TD.AperFunction*
X109553023Y-60685099D03*
G04 #@! TA.AperFunction,ComponentPad*
G36*
X83822150Y-109011818D02*
G01*
X84249460Y-107417074D01*
X85844204Y-107844384D01*
X85416894Y-109439128D01*
X83822150Y-109011818D01*
G37*
G04 #@! TD.AperFunction*
X77472823Y-106455899D03*
G04 #@! TA.AperFunction,ComponentPad*
G36*
X88952950Y-90825418D02*
G01*
X89380260Y-89230674D01*
X90975004Y-89657984D01*
X90547694Y-91252728D01*
X88952950Y-90825418D01*
G37*
G04 #@! TD.AperFunction*
X82603623Y-88269499D03*
G04 #@! TA.AperFunction,ComponentPad*
G36*
X93728150Y-72181818D02*
G01*
X94155460Y-70587074D01*
X95750204Y-71014384D01*
X95322894Y-72609128D01*
X93728150Y-72181818D01*
G37*
G04 #@! TD.AperFunction*
X87378823Y-69625899D03*
G04 #@! TA.AperFunction,ComponentPad*
G36*
X99138350Y-54020818D02*
G01*
X99565660Y-52426074D01*
X101160404Y-52853384D01*
X100733094Y-54448128D01*
X99138350Y-54020818D01*
G37*
G04 #@! TD.AperFunction*
X92789023Y-51464899D03*
G04 #@! TA.AperFunction,ComponentPad*
G36*
X65079773Y-108813117D02*
G01*
X65507083Y-107218373D01*
X67101827Y-107645683D01*
X66674517Y-109240427D01*
X65079773Y-108813117D01*
G37*
G04 #@! TD.AperFunction*
X58730446Y-106257198D03*
G04 #@! TA.AperFunction,ComponentPad*
G36*
X68937750Y-90495218D02*
G01*
X69365060Y-88900474D01*
X70959804Y-89327784D01*
X70532494Y-90922528D01*
X68937750Y-90495218D01*
G37*
G04 #@! TD.AperFunction*
X62588423Y-87939299D03*
G04 #@! TA.AperFunction,ComponentPad*
G36*
X73839950Y-72080218D02*
G01*
X74267260Y-70485474D01*
X75862004Y-70912784D01*
X75434694Y-72507528D01*
X73839950Y-72080218D01*
G37*
G04 #@! TD.AperFunction*
X67490623Y-69524299D03*
G04 #@! TA.AperFunction,ComponentPad*
G36*
X78691350Y-53817618D02*
G01*
X79118660Y-52222874D01*
X80713404Y-52650184D01*
X80286094Y-54244928D01*
X78691350Y-53817618D01*
G37*
G04 #@! TD.AperFunction*
X72342023Y-51261699D03*
G04 #@! TA.AperFunction,ComponentPad*
G36*
X280227957Y-104954285D02*
G01*
X279800647Y-103359541D01*
X281395391Y-102932231D01*
X281822701Y-104526975D01*
X280227957Y-104954285D01*
G37*
G04 #@! TD.AperFunction*
X273451320Y-105915460D03*
G04 #@! TA.AperFunction,ComponentPad*
G36*
X275867060Y-86689726D02*
G01*
X275439750Y-85094982D01*
X277034494Y-84667672D01*
X277461804Y-86262416D01*
X275867060Y-86689726D01*
G37*
G04 #@! TD.AperFunction*
X269090423Y-87650901D03*
G04 #@! TA.AperFunction,ComponentPad*
G36*
X270482260Y-68452526D02*
G01*
X270054950Y-66857782D01*
X271649694Y-66430472D01*
X272077004Y-68025216D01*
X270482260Y-68452526D01*
G37*
G04 #@! TD.AperFunction*
X263705623Y-69413701D03*
G04 #@! TA.AperFunction,ComponentPad*
G36*
X266672260Y-49656526D02*
G01*
X266244950Y-48061782D01*
X267839694Y-47634472D01*
X268267004Y-49229216D01*
X266672260Y-49656526D01*
G37*
G04 #@! TD.AperFunction*
X259895623Y-50617701D03*
G04 #@! TA.AperFunction,ComponentPad*
G36*
X252596460Y-92634926D02*
G01*
X252169150Y-91040182D01*
X253763894Y-90612872D01*
X254191204Y-92207616D01*
X252596460Y-92634926D01*
G37*
G04 #@! TD.AperFunction*
X245819823Y-93596101D03*
G04 #@! TA.AperFunction,ComponentPad*
G36*
X248562060Y-74192926D02*
G01*
X248134750Y-72598182D01*
X249729494Y-72170872D01*
X250156804Y-73765616D01*
X248562060Y-74192926D01*
G37*
G04 #@! TD.AperFunction*
X241785423Y-75154101D03*
G04 #@! TA.AperFunction,ComponentPad*
G36*
X243786860Y-55854126D02*
G01*
X243359550Y-54259382D01*
X244954294Y-53832072D01*
X245381604Y-55426816D01*
X243786860Y-55854126D01*
G37*
G04 #@! TD.AperFunction*
X237010223Y-56815301D03*
G04 #@! TA.AperFunction,ComponentPad*
G36*
X237688037Y-106463045D02*
G01*
X237260727Y-104868301D01*
X238855471Y-104440991D01*
X239282781Y-106035735D01*
X237688037Y-106463045D01*
G37*
G04 #@! TD.AperFunction*
X230911400Y-107424220D03*
G04 #@! TA.AperFunction,ComponentPad*
G36*
X232433060Y-88239126D02*
G01*
X232005750Y-86644382D01*
X233600494Y-86217072D01*
X234027804Y-87811816D01*
X232433060Y-88239126D01*
G37*
G04 #@! TD.AperFunction*
X225656423Y-89200301D03*
G04 #@! TA.AperFunction,ComponentPad*
G36*
X227454660Y-70154326D02*
G01*
X227027350Y-68559582D01*
X228622094Y-68132272D01*
X229049404Y-69727016D01*
X227454660Y-70154326D01*
G37*
G04 #@! TD.AperFunction*
X220678023Y-71115501D03*
G04 #@! TA.AperFunction,ComponentPad*
G36*
X222196860Y-51485326D02*
G01*
X221769550Y-49890582D01*
X223364294Y-49463272D01*
X223791604Y-51058016D01*
X222196860Y-51485326D01*
G37*
G04 #@! TD.AperFunction*
X215420223Y-52446501D03*
G04 #@! TA.AperFunction,ComponentPad*
G36*
X47764593Y-94335117D02*
G01*
X48191903Y-92740373D01*
X49786647Y-93167683D01*
X49359337Y-94762427D01*
X47764593Y-94335117D01*
G37*
G04 #@! TD.AperFunction*
X41415266Y-91779198D03*
G04 #@! TA.AperFunction,ComponentPad*
G36*
X53164350Y-76322018D02*
G01*
X53591660Y-74727274D01*
X55186404Y-75154584D01*
X54759094Y-76749328D01*
X53164350Y-76322018D01*
G37*
G04 #@! TD.AperFunction*
X46815023Y-73766099D03*
G04 #@! TA.AperFunction,ComponentPad*
G36*
X58523750Y-58059418D02*
G01*
X58951060Y-56464674D01*
X60545804Y-56891984D01*
X60118494Y-58486728D01*
X58523750Y-58059418D01*
G37*
G04 #@! TD.AperFunction*
X52174423Y-55503499D03*
G04 #@! TA.AperFunction,ComponentPad*
G36*
X19499473Y-106486477D02*
G01*
X19926783Y-104891733D01*
X21521527Y-105319043D01*
X21094217Y-106913787D01*
X19499473Y-106486477D01*
G37*
G04 #@! TD.AperFunction*
X13150146Y-103930558D03*
G04 #@! TA.AperFunction,ComponentPad*
G36*
X25478350Y-88514018D02*
G01*
X25905660Y-86919274D01*
X27500404Y-87346584D01*
X27073094Y-88941328D01*
X25478350Y-88514018D01*
G37*
G04 #@! TD.AperFunction*
X19129023Y-85958099D03*
G04 #@! TA.AperFunction,ComponentPad*
G36*
X30126550Y-70302218D02*
G01*
X30553860Y-68707474D01*
X32148604Y-69134784D01*
X31721294Y-70729528D01*
X30126550Y-70302218D01*
G37*
G04 #@! TD.AperFunction*
X23777223Y-67746299D03*
G04 #@! TA.AperFunction,ComponentPad*
G36*
X34571550Y-51658618D02*
G01*
X34998860Y-50063874D01*
X36593604Y-50491184D01*
X36166294Y-52085928D01*
X34571550Y-51658618D01*
G37*
G04 #@! TD.AperFunction*
X28222223Y-49102699D03*
D16*
X169650000Y-113550000D03*
X159330000Y-121190000D03*
X156960000Y-122400000D03*
X159230000Y-87010000D03*
X156420000Y-80770000D03*
X197490000Y-83580000D03*
X209460000Y-74170000D03*
X231630000Y-73960000D03*
X253560000Y-76300000D03*
X274700000Y-71320000D03*
X239710000Y-88990000D03*
X240750000Y-83230000D03*
X167150000Y-147460000D03*
X168950000Y-145650000D03*
X115600000Y-85090000D03*
X98080000Y-75230000D03*
X78720000Y-74820000D03*
X61140000Y-74760000D03*
X34920000Y-77520000D03*
X41370000Y-80540000D03*
X38360000Y-90700000D03*
D17*
X169620000Y-113580000D02*
X169650000Y-113550000D01*
X169620000Y-117390000D02*
X169620000Y-113580000D01*
X167110000Y-119900000D02*
X169620000Y-117390000D01*
X160620000Y-119900000D02*
X167110000Y-119900000D01*
X159330000Y-121190000D02*
X160620000Y-119900000D01*
X157980000Y-104518325D02*
X157980000Y-121210000D01*
X157980000Y-121380000D02*
X156960000Y-122400000D01*
X157980000Y-121210000D02*
X157980000Y-134470000D01*
X157980000Y-121210000D02*
X157980000Y-121380000D01*
X167868600Y-137908600D02*
X167868600Y-147355671D01*
X159960000Y-136150000D02*
X166110000Y-136150000D01*
X166110000Y-136150000D02*
X167868600Y-137908600D01*
X158430010Y-134620010D02*
X159960000Y-136150000D01*
X158430010Y-102440010D02*
X158430010Y-134620010D01*
X157525475Y-101535475D02*
X158430010Y-102440010D01*
X157525475Y-101523800D02*
X157525475Y-101535475D01*
X156200000Y-136250000D02*
X152820000Y-136250000D01*
X157980000Y-134470000D02*
X156200000Y-136250000D01*
X156286200Y-104063800D02*
X157525475Y-104063800D01*
X157525475Y-104063800D02*
X157980000Y-104518325D01*
X253180177Y-91623899D02*
X253180177Y-90769279D01*
X253180177Y-90769279D02*
X255096699Y-88852757D01*
X255096699Y-88852757D02*
X255096699Y-81257423D01*
X158690010Y-87549990D02*
X159230000Y-87010000D01*
X158690010Y-100359265D02*
X158690010Y-87549990D01*
X157525475Y-101523800D02*
X158690010Y-100359265D01*
X156286200Y-101523800D02*
X157525475Y-101523800D01*
X156286200Y-91363800D02*
X157412500Y-91363800D01*
X157412500Y-91363800D02*
X158240000Y-90536300D01*
X158240000Y-90536300D02*
X158240000Y-82024315D01*
X156420000Y-80770000D02*
X156985685Y-80770000D01*
X156985685Y-80770000D02*
X158240000Y-82024315D01*
X198590000Y-81600000D02*
X198590000Y-83570000D01*
X198590000Y-83570000D02*
X198590000Y-95542000D01*
X198590000Y-83570000D02*
X197500000Y-83570000D01*
X197500000Y-83570000D02*
X197490000Y-83580000D01*
X213136705Y-75704627D02*
X211451039Y-74018961D01*
X211451039Y-74018961D02*
X207980505Y-70548427D01*
X211451039Y-74018961D02*
X209611039Y-74018961D01*
X209611039Y-74018961D02*
X209460000Y-74170000D01*
X233016777Y-87228099D02*
X233016777Y-74803223D01*
X233016777Y-74803223D02*
X233016777Y-74121699D01*
X233016777Y-74803223D02*
X232473223Y-74803223D01*
X232473223Y-74803223D02*
X231630000Y-73960000D01*
X255096699Y-77683301D02*
X255096699Y-81257423D01*
X253560000Y-76300000D02*
X254943301Y-77683301D01*
X255096699Y-75833301D02*
X255096699Y-77683301D01*
X254943301Y-77683301D02*
X255096699Y-77683301D01*
X278160000Y-69660000D02*
X278160000Y-73230000D01*
X276610000Y-73230000D02*
X274700000Y-71320000D01*
X278160000Y-73230000D02*
X278160000Y-83969476D01*
X278160000Y-73230000D02*
X276610000Y-73230000D01*
X240170000Y-88530000D02*
X239710000Y-88990000D01*
X240170000Y-84375685D02*
X240170000Y-88530000D01*
X240750000Y-83230000D02*
X240750000Y-83795685D01*
X240750000Y-83795685D02*
X240170000Y-84375685D01*
X282810000Y-87260000D02*
X282810000Y-101944932D01*
X282810000Y-101944932D02*
X280811674Y-103943258D01*
X281228699Y-85678699D02*
X282810000Y-87260000D01*
X276450777Y-85678699D02*
X281228699Y-85678699D01*
X278160000Y-83969476D02*
X276450777Y-85678699D01*
X275941499Y-67441499D02*
X278160000Y-69660000D01*
X271065977Y-67441499D02*
X275941499Y-67441499D01*
X272980000Y-50090000D02*
X272980000Y-65527476D01*
X272980000Y-65527476D02*
X271065977Y-67441499D01*
X271535499Y-48645499D02*
X272980000Y-50090000D01*
X267255977Y-48645499D02*
X271535499Y-48645499D01*
X255130000Y-75800000D02*
X255096699Y-75833301D01*
X252511899Y-73181899D02*
X255130000Y-75800000D01*
X249145777Y-73181899D02*
X252511899Y-73181899D01*
X250760000Y-57720000D02*
X250760000Y-71567676D01*
X250760000Y-71567676D02*
X249145777Y-73181899D01*
X247890000Y-54850000D02*
X250760000Y-57720000D01*
X245232098Y-54850000D02*
X247890000Y-54850000D01*
X244370577Y-54843099D02*
X245225197Y-54843099D01*
X245225197Y-54843099D02*
X245232098Y-54850000D01*
X175840000Y-72880000D02*
X175840000Y-86391276D01*
X175840000Y-86391276D02*
X173936377Y-88294899D01*
X202910000Y-99510000D02*
X202910000Y-113474076D01*
X202910000Y-113474076D02*
X201038177Y-115345899D01*
X200555000Y-97155000D02*
X202910000Y-99510000D01*
X196977000Y-97155000D02*
X200555000Y-97155000D01*
X198590000Y-95542000D02*
X196977000Y-97155000D01*
X195683699Y-78693699D02*
X198590000Y-81600000D01*
X191157577Y-78693699D02*
X195683699Y-78693699D01*
X192670000Y-62770000D02*
X192670000Y-77181276D01*
X192670000Y-77181276D02*
X191157577Y-78693699D01*
X190559699Y-60659699D02*
X192670000Y-62770000D01*
X186026777Y-60659699D02*
X190559699Y-60659699D01*
X170912860Y-150399931D02*
X167868600Y-147355671D01*
X172738299Y-69778299D02*
X175840000Y-72880000D01*
X174610395Y-87620881D02*
X174899119Y-87620881D01*
X169186577Y-69778299D02*
X172738299Y-69778299D01*
X174899119Y-87620881D02*
X177160881Y-87620881D01*
X180270000Y-90730000D02*
X180270000Y-105761076D01*
X180270000Y-105761076D02*
X179270377Y-106760699D01*
X177160881Y-87620881D02*
X180270000Y-90730000D01*
X173936377Y-88294899D02*
X174610395Y-87620881D01*
X184460000Y-123948476D02*
X184460000Y-108670000D01*
X184460000Y-108670000D02*
X182550699Y-106760699D01*
X183080377Y-125328099D02*
X184460000Y-123948476D01*
X179270377Y-106760699D02*
X182550699Y-106760699D01*
X152820000Y-136250000D02*
X150760000Y-138310000D01*
X150760000Y-138310000D02*
X150760000Y-141727871D01*
X150760000Y-141727871D02*
X152904260Y-143872131D01*
X171320000Y-129410000D02*
X179853096Y-129410000D01*
X179853096Y-129410000D02*
X183080377Y-126182719D01*
X168318610Y-132411390D02*
X171320000Y-129410000D01*
X168950000Y-145650000D02*
X168318610Y-145018610D01*
X168318610Y-145018610D02*
X168318610Y-132411390D01*
X183080377Y-126182719D02*
X183080377Y-125328099D01*
X138557000Y-140717410D02*
X143440000Y-145600410D01*
X138557000Y-119253000D02*
X138557000Y-140717410D01*
X142080000Y-149870000D02*
X144840000Y-149870000D01*
X141046200Y-116763800D02*
X138557000Y-119253000D01*
X144840000Y-149870000D02*
X157785932Y-149870000D01*
X143440000Y-148470000D02*
X144840000Y-149870000D01*
X143440000Y-145600410D02*
X143440000Y-148470000D01*
X154310010Y-149419990D02*
X145129990Y-149419990D01*
X145129990Y-149419990D02*
X143890010Y-148180010D01*
X139007010Y-121342990D02*
X141046200Y-119303800D01*
X167150000Y-147460000D02*
X165210000Y-149400000D01*
X154330000Y-149400000D02*
X154310010Y-149419990D01*
X165210000Y-149400000D02*
X154330000Y-149400000D01*
X143890010Y-148180010D02*
X143890010Y-145414010D01*
X143890010Y-145414010D02*
X139007010Y-140531010D01*
X139007010Y-140531010D02*
X139007010Y-121342990D01*
X133630852Y-149870000D02*
X142080000Y-149870000D01*
X173200000Y-156030000D02*
X175615940Y-156030000D01*
X175615940Y-156030000D02*
X176626520Y-157040580D01*
X168028297Y-150858297D02*
X173200000Y-156030000D01*
X158774229Y-150858297D02*
X168028297Y-150858297D01*
X157785932Y-149870000D02*
X158774229Y-150858297D01*
X132645249Y-150855603D02*
X133630852Y-149870000D01*
X114380000Y-95770000D02*
X114380000Y-86590000D01*
X114380000Y-86590000D02*
X114380000Y-86310000D01*
X114380000Y-86590000D02*
X114380000Y-83364924D01*
X114380000Y-86310000D02*
X115600000Y-85090000D01*
X96710000Y-86720000D02*
X96710000Y-75960000D01*
X96710000Y-75960000D02*
X96710000Y-73568924D01*
X96710000Y-75960000D02*
X97350000Y-75960000D01*
X97350000Y-75960000D02*
X98080000Y-75230000D01*
X77060000Y-88140000D02*
X77060000Y-75510000D01*
X77060000Y-75510000D02*
X77060000Y-73705524D01*
X78030000Y-75510000D02*
X78720000Y-74820000D01*
X77060000Y-75510000D02*
X78030000Y-75510000D01*
X56420000Y-77940000D02*
X59115000Y-75245000D01*
X59115000Y-75245000D02*
X60655000Y-75245000D01*
X59115000Y-75245000D02*
X61550000Y-72810000D01*
X60655000Y-75245000D02*
X61140000Y-74760000D01*
X33310000Y-84920000D02*
X33310000Y-78720000D01*
X33310000Y-78720000D02*
X33310000Y-71890924D01*
X33720000Y-78720000D02*
X34920000Y-77520000D01*
X33310000Y-78720000D02*
X33720000Y-78720000D01*
X126049476Y-110430524D02*
X125850000Y-110430524D01*
X125850000Y-110430524D02*
X124711177Y-109291701D01*
X126049476Y-110430524D02*
X126049476Y-124737926D01*
X126049476Y-124737926D02*
X122953701Y-127833701D01*
X122953701Y-127833701D02*
X119326377Y-127833701D01*
X130940000Y-105540000D02*
X126049476Y-110430524D01*
X131733876Y-91846124D02*
X131040000Y-91846124D01*
X131040000Y-91846124D02*
X130045177Y-90851301D01*
X130940000Y-105540000D02*
X131040000Y-105440000D01*
X131733876Y-91846124D02*
X131733876Y-104746124D01*
X131733876Y-104746124D02*
X130940000Y-105540000D01*
X135670000Y-87910000D02*
X135670000Y-73692324D01*
X135670000Y-73692324D02*
X134363177Y-72385501D01*
X131733876Y-91846124D02*
X135670000Y-87910000D01*
X101500000Y-68780000D02*
X101500000Y-54787724D01*
X101500000Y-54787724D02*
X100149377Y-53437101D01*
X96711076Y-73568924D02*
X101500000Y-68780000D01*
X96710000Y-73568924D02*
X96711076Y-73568924D01*
X96710000Y-73568924D02*
X95483905Y-72342829D01*
X91582276Y-91847724D02*
X96710000Y-86720000D01*
X91570000Y-91847724D02*
X91582276Y-91847724D01*
X91570000Y-105440000D02*
X91570000Y-91847724D01*
X91570000Y-91847724D02*
X89963977Y-90241701D01*
X88570000Y-108440000D02*
X91570000Y-105440000D01*
X85699696Y-108440000D02*
X88570000Y-108440000D01*
X84833177Y-108428101D02*
X85687797Y-108428101D01*
X85687797Y-108428101D02*
X85699696Y-108440000D01*
X118700000Y-79030000D02*
X118700000Y-64443924D01*
X118700000Y-64443924D02*
X116913377Y-62657301D01*
X114380000Y-83350000D02*
X118700000Y-79030000D01*
X114380000Y-83364924D02*
X114380000Y-83350000D01*
X114380000Y-83364924D02*
X112265177Y-81250101D01*
X109031076Y-101118924D02*
X114380000Y-95770000D01*
X109020000Y-101118924D02*
X109031076Y-101118924D01*
X109020000Y-115470000D02*
X109020000Y-101118924D01*
X109020000Y-101118924D02*
X107489977Y-99588901D01*
X106410000Y-118080000D02*
X109020000Y-115470000D01*
X103467898Y-118080000D02*
X106410000Y-118080000D01*
X102613177Y-118080101D02*
X103467797Y-118080101D01*
X103467797Y-118080101D02*
X103467898Y-118080000D01*
X79702377Y-53233901D02*
X81830000Y-55361524D01*
X81830000Y-55361524D02*
X81830000Y-68880000D01*
X77060000Y-73650000D02*
X81830000Y-68880000D01*
X77060000Y-73705524D02*
X77060000Y-73650000D01*
X77060000Y-73705524D02*
X74850977Y-71496501D01*
X72650000Y-92550000D02*
X77060000Y-88140000D01*
X72650000Y-92612724D02*
X72650000Y-92550000D01*
X72650000Y-101670200D02*
X72650000Y-92612724D01*
X66090800Y-108229400D02*
X72650000Y-101670200D01*
X72650000Y-92612724D02*
X69948777Y-89911501D01*
X61550000Y-72810000D02*
X61550000Y-59490924D01*
X61550000Y-59490924D02*
X59534777Y-57475701D01*
X56420000Y-77982924D02*
X56420000Y-77940000D01*
X53018600Y-93751400D02*
X56420000Y-90350000D01*
X48775620Y-93751400D02*
X53018600Y-93751400D01*
X56420000Y-90350000D02*
X56420000Y-77982924D01*
X56420000Y-77982924D02*
X54175377Y-75738301D01*
X33310000Y-71840000D02*
X38227000Y-66923000D01*
X38227000Y-66923000D02*
X38227000Y-54673944D01*
X33310000Y-71890924D02*
X33310000Y-71840000D01*
X33310000Y-71890924D02*
X31137577Y-69718501D01*
X28420000Y-89810000D02*
X33310000Y-84920000D01*
X28420000Y-89860924D02*
X28420000Y-89810000D01*
X24597240Y-105902760D02*
X28420000Y-102080000D01*
X28420000Y-102080000D02*
X28420000Y-89860924D01*
X20510500Y-105902760D02*
X24597240Y-105902760D01*
X28420000Y-89860924D02*
X26489377Y-87930301D01*
X39750000Y-82160000D02*
X41370000Y-80540000D01*
X39750000Y-88744315D02*
X39750000Y-82160000D01*
X38360000Y-90700000D02*
X38360000Y-90134315D01*
X38360000Y-90134315D02*
X39750000Y-88744315D01*
X35582577Y-52029521D02*
X38227000Y-54673944D01*
X35582577Y-51074901D02*
X35582577Y-52029521D01*
X233761505Y-87972827D02*
X233016777Y-87228099D01*
X238562105Y-92773427D02*
X233761505Y-87972827D01*
X238562105Y-104974571D02*
X238562105Y-92773427D01*
X237817377Y-105719299D02*
X238562105Y-104974571D01*
X233016777Y-74121699D02*
X228038377Y-69143299D01*
X223525305Y-51219027D02*
X222780577Y-50474299D01*
X228783105Y-56476827D02*
X223525305Y-51219027D01*
X228783105Y-68398571D02*
X228783105Y-56476827D01*
X228038377Y-69143299D02*
X228783105Y-68398571D01*
X65630777Y-108529701D02*
X66585397Y-108529701D01*
X95483905Y-72342829D02*
X94739177Y-71598101D01*
X132612229Y-151452503D02*
X133326999Y-150737733D01*
X175829751Y-157386097D02*
X176808229Y-157386097D01*
X203433905Y-51727027D02*
X202689177Y-50982299D01*
X207980505Y-56273627D02*
X203433905Y-51727027D01*
X207980505Y-69058971D02*
X207980505Y-56273627D01*
X207235777Y-69803699D02*
X207980505Y-69058971D01*
X207980505Y-70548427D02*
X207235777Y-69803699D01*
X213136705Y-87067571D02*
X213136705Y-75704627D01*
X212391977Y-87812299D02*
X213136705Y-87067571D01*
X213136705Y-88557027D02*
X212391977Y-87812299D01*
X218821000Y-94241322D02*
X213136705Y-88557027D01*
X218821000Y-105208476D02*
X218821000Y-94241322D01*
X217725977Y-106303499D02*
X218821000Y-105208476D01*
X140910500Y-96443800D02*
X141046200Y-96443800D01*
X139676276Y-96443800D02*
X141046200Y-96443800D01*
X134395899Y-101724177D02*
X139676276Y-96443800D01*
X140792200Y-94157800D02*
X141046200Y-93903800D01*
X153746200Y-93903800D02*
X156286200Y-96443800D01*
X141046200Y-93903800D02*
X153746200Y-93903800D01*
X156286200Y-96443800D02*
X156286200Y-98983800D01*
X136828124Y-93903800D02*
X136368101Y-94363823D01*
X141046200Y-93903800D02*
X136828124Y-93903800D01*
X166948378Y-64560951D02*
X165823379Y-65685950D01*
X170750979Y-84075550D02*
X170750979Y-84392021D01*
X171875978Y-82950551D02*
X170750979Y-84075550D01*
X170750979Y-84392021D02*
X170180000Y-84963000D01*
M02*
