M48
; DRILL file {KiCad (5.99.0-562-g7b80b2dc7)} date Tue 24 Dec 2019 11:11:11 PM PST
; FORMAT={-:-/ absolute / inch / decimal}
; #@! TF.CreationDate,2019-12-24T23:11:11-08:00
; #@! TF.GenerationSoftware,Kicad,Pcbnew,(5.99.0-562-g7b80b2dc7)
; #@! TF.FileFunction,Plated,1,2,PTH
FMAT,2
INCH
T1C0.0157
T2C0.0390
T3C0.0430
T4C0.0472
T5C0.0579
%
G90
G05
T1
X1.3748Y-3.052
X1.5102Y-3.5709
X1.6287Y-3.1709
X2.4071Y-2.9433
X3.0992Y-2.9457
X3.8614Y-2.9618
X4.5512Y-3.35
X6.1583Y-3.1799
X6.1795Y-4.8189
X6.2689Y-3.4256
X6.2728Y-4.7713
X6.5807Y-5.8055
X6.6516Y-5.7343
X6.6791Y-4.4705
X7.7752Y-3.2906
X8.2465Y-2.9201
X9.1193Y-2.9118
X9.4374Y-3.5035
X9.4783Y-3.2768
X9.9827Y-3.0039
X10.815Y-2.8079
T2
X6.3711Y-2.8248
X6.6609Y-2.7472
X3.4401Y-2.7412
X3.7299Y-2.8188
X9.091Y-4.2293
X9.3808Y-4.1517
X5.969Y-5.8367
X6.251Y-5.9393
X3.9421Y-3.8432
X4.2319Y-3.9208
X2.3122Y-4.1834
X2.602Y-4.261
X8.2669Y-4.2588
X8.5567Y-4.1812
X6.9181Y-5.0118
X7.2079Y-4.9342
X8.6881Y-2.7998
X8.9779Y-2.7222
X4.3131Y-2.3892
X4.6029Y-2.4668
X2.6571Y-2.7372
X2.9469Y-2.8148
X1.6305Y-3.6134
X1.9203Y-3.691
X8.0721Y-3.5348
X8.3619Y-3.4572
X4.4081Y-4.9552
X4.6979Y-5.0328
X7.6901Y-2.0848
X7.9799Y-2.0072
X4.8301Y-3.4992
X5.1199Y-3.5768
X10.7658Y-4.1699
X11.0556Y-4.0923
X7.4652Y-3.9026
X7.755Y-3.825
X2.0541Y-2.1852
X2.3439Y-2.2628
X10.3821Y-2.7328
X10.6719Y-2.6552
X3.2521Y-3.4752
X3.5419Y-3.5528
X7.0341Y-2.4658
X7.3239Y-2.3882
X0.7531Y-3.3842
X1.0429Y-3.4618
X9.6779Y-3.6849
X9.9677Y-3.6072
X6.5581Y-3.5538
X6.8479Y-3.4762
X1.1111Y-1.9332
X1.4009Y-2.0108
X9.3311Y-2.2368
X9.6209Y-2.1592
X4.9403Y-6.0418
X5.2223Y-5.9392
X3.7501Y-4.5712
X4.0399Y-4.6488
X3.6531Y-2.0262
X3.9429Y-2.1038
X8.8841Y-3.5118
X9.1739Y-3.4342
X6.6719Y-6.0801
X6.9538Y-6.1827
X4.1301Y-3.1212
X4.4199Y-3.1988
X2.4641Y-3.4622
X2.7539Y-3.5398
X8.4811Y-2.0648
X8.7709Y-1.9872
X3.0501Y-4.1912
X3.3399Y-4.2688
X2.8481Y-2.0182
X3.1379Y-2.0958
X7.8691Y-2.8258
X8.1589Y-2.7482
X4.6201Y-4.2252
X4.9099Y-4.3028
X7.6251Y-4.6188
X7.9149Y-4.5412
X1.8431Y-2.9042
X2.1329Y-2.9818
X5.2912Y-4.0049
X5.3688Y-3.7151
X5.0001Y-2.7722
X5.2899Y-2.8498
X10.5941Y-3.4508
X10.8839Y-3.3732
X7.2361Y-3.1758
X7.5259Y-3.0982
X0.5177Y-4.0918
X0.8075Y-4.1694
X10.2321Y-1.9928
X10.5219Y-1.9152
X6.7681Y-4.2808
X7.0579Y-4.2032
X0.9361Y-2.6672
X1.2259Y-2.7448
X9.5191Y-2.9588
X9.8089Y-2.8812
T3
X5.553Y-3.597
X5.553Y-3.697
X5.553Y-3.797
X5.553Y-3.897
X5.553Y-3.997
X5.553Y-4.097
X5.553Y-4.197
X5.553Y-4.297
X5.553Y-4.397
X5.553Y-4.497
X5.553Y-4.597
X5.553Y-4.697
X6.153Y-3.597
X6.153Y-3.697
X6.153Y-3.797
X6.153Y-3.897
X6.153Y-3.997
X6.153Y-4.097
X6.153Y-4.197
X6.153Y-4.297
X6.153Y-4.397
X6.153Y-4.497
X6.153Y-4.597
X6.153Y-4.697
T4
X6.7289Y-5.9213
X6.8856Y-6.0663
X1.8621Y-2.7236
X2.0309Y-2.8544
X4.3291Y-2.2166
X4.4979Y-2.3474
X9.1966Y-2.0855
X9.4081Y-2.1144
X7.1196Y-3.0315
X7.3311Y-3.0604
X9.3906Y-2.8125
X9.6021Y-2.8414
X7.5086Y-4.4805
X7.7201Y-4.5094
X2.8811Y-1.8306
X3.0499Y-1.9614
X4.1371Y-2.9416
X4.3059Y-3.0724
X7.7956Y-2.6555
X8.0071Y-2.6844
X2.2971Y-4.0036
X2.4659Y-4.1344
X8.1856Y-4.1055
X8.3971Y-4.1344
X6.2506Y-2.6795
X6.4621Y-2.7084
X8.7646Y-3.3665
X8.9761Y-3.3954
X8.3746Y-1.9185
X8.5861Y-1.9474
X6.8336Y-4.8575
X7.0451Y-4.8864
X0.7641Y-3.2046
X0.9329Y-3.3354
X3.4601Y-2.5656
X3.6289Y-2.6964
X3.7461Y-4.3936
X3.9149Y-4.5244
X10.3006Y-2.5687
X10.5121Y-2.5976
X2.4891Y-3.2826
X2.6579Y-3.4134
X8.9556Y-4.0875
X9.1671Y-4.1164
X4.8152Y-5.9069
X5.0284Y-5.9173
X4.8121Y-3.3156
X4.9809Y-3.4464
X4.4251Y-4.7696
X4.5939Y-4.9004
X2.0581Y-1.9956
X2.2269Y-2.1264
X10.1036Y-1.8415
X10.3151Y-1.8704
X6.0199Y-5.6643
X6.1766Y-5.8093
X1.6711Y-3.4476
X1.8399Y-3.5784
X3.0691Y-4.0146
X3.2379Y-4.1454
X8.5706Y-2.6415
X8.7821Y-2.6704
X6.6396Y-4.1305
X6.8511Y-4.1594
X7.5996Y-1.9355
X7.8111Y-1.9644
X2.6881Y-2.5546
X2.8569Y-2.6854
X7.9896Y-3.3765
X8.2011Y-3.4054
X3.6521Y-1.8436
X3.8209Y-1.9744
X10.6836Y-4.0155
X10.8951Y-4.0444
X3.2671Y-3.2896
X3.4359Y-3.4204
X3.9441Y-3.6666
X4.1129Y-3.7974
X0.9571Y-2.4806
X1.1259Y-2.6114
X7.3146Y-3.7585
X7.5261Y-3.7874
X9.5856Y-3.5365
X9.7971Y-3.5654
X0.5691Y-3.9286
X0.7379Y-4.0594
X1.1511Y-1.7546
X1.3199Y-1.8854
X6.4446Y-3.4035
X6.6561Y-3.4324
X6.9256Y-2.3075
X7.1371Y-2.3364
X10.4886Y-3.2905
X10.7001Y-3.3194
X5.0041Y-2.5936
X5.1729Y-2.7244
X4.6151Y-4.0426
X4.7839Y-4.1734
T5
X4.4096Y-2.2903
X4.4171Y-2.2687
X4.6123Y-2.3006
X4.677Y-2.2584
X9.2988Y-2.0866
X9.3032Y-2.1091
X9.4838Y-2.0166
X9.5188Y-1.9478
X7.2218Y-3.0326
X7.2262Y-3.0551
X7.4068Y-2.9626
X7.4418Y-2.8938
X9.4928Y-2.8136
X9.4972Y-2.8361
X9.6778Y-2.7436
X9.7128Y-2.6748
X7.6108Y-4.4816
X7.6152Y-4.5041
X7.7958Y-4.4116
X7.8308Y-4.3428
X2.9616Y-1.9043
X2.9691Y-1.8827
X3.1643Y-1.9146
X3.229Y-1.8724
X4.2176Y-3.0153
X4.2251Y-2.9937
X4.4203Y-3.0256
X4.485Y-2.9834
X7.8978Y-2.6566
X7.9022Y-2.6791
X8.0828Y-2.5866
X8.1178Y-2.5178
X2.3776Y-4.0773
X2.3851Y-4.0557
X2.5803Y-4.0876
X2.645Y-4.0454
X8.2878Y-4.1066
X8.2922Y-4.1291
X8.4728Y-4.0366
X8.5078Y-3.9678
X6.3528Y-2.6806
X6.3572Y-2.7031
X6.5378Y-2.6106
X6.5728Y-2.5418
X8.8668Y-3.3676
X8.8712Y-3.3901
X9.0518Y-3.2976
X9.0868Y-3.2288
X8.4768Y-1.9196
X8.4812Y-1.9421
X8.6618Y-1.8496
X8.6968Y-1.7808
X6.9358Y-4.8586
X6.9402Y-4.8811
X7.1208Y-4.7886
X7.1558Y-4.7198
X0.8446Y-3.2783
X0.8521Y-3.2567
X1.0473Y-3.2886
X1.112Y-3.2464
X3.5406Y-2.6393
X3.5481Y-2.6177
X3.7433Y-2.6496
X3.808Y-2.6074
X3.8266Y-4.4673
X3.8341Y-4.4457
X4.0293Y-4.4776
X4.094Y-4.4354
X10.4028Y-2.5698
X10.4072Y-2.5923
X10.5878Y-2.4999
X10.6228Y-2.431
X2.5696Y-3.3563
X2.5771Y-3.3347
X2.7723Y-3.3666
X2.837Y-3.3244
X9.0578Y-4.0886
X9.0622Y-4.1111
X9.2428Y-4.0186
X9.2778Y-3.9498
X4.9171Y-5.8991
X4.9234Y-5.9211
X5.0954Y-5.8133
X5.1242Y-5.7417
X4.8926Y-3.3893
X4.9001Y-3.3677
X5.0953Y-3.3996
X5.16Y-3.3574
X4.5056Y-4.8433
X4.5131Y-4.8217
X4.7083Y-4.8536
X4.773Y-4.8114
X2.1386Y-2.0693
X2.1461Y-2.0477
X2.3413Y-2.0796
X2.406Y-2.0374
X10.2058Y-1.8426
X10.2102Y-1.8651
X10.3908Y-1.7726
X10.4258Y-1.7038
X6.0936Y-5.7447
X6.1029Y-5.7238
X6.2946Y-5.7726
X6.3628Y-5.7363
X1.7516Y-3.5213
X1.7591Y-3.4997
X1.9543Y-3.5316
X2.019Y-3.4894
X3.1496Y-4.0883
X3.1571Y-4.0667
X3.3523Y-4.0986
X3.417Y-4.0564
X8.6728Y-2.6426
X8.6772Y-2.6651
X8.8578Y-2.5726
X8.8928Y-2.5038
X6.7418Y-4.1316
X6.7462Y-4.1541
X6.9268Y-4.0616
X6.9618Y-3.9928
X7.7018Y-1.9366
X7.7062Y-1.9591
X7.8868Y-1.8666
X7.9218Y-1.7978
X2.7686Y-2.6283
X2.7761Y-2.6067
X2.9713Y-2.6386
X3.036Y-2.5964
X8.0918Y-3.3776
X8.0962Y-3.4001
X8.2768Y-3.3076
X8.3118Y-3.2388
X3.7326Y-1.9173
X3.7401Y-1.8957
X3.9353Y-1.9276
X4.0Y-1.8854
X10.7858Y-4.0166
X10.7902Y-4.0391
X10.9708Y-3.9466
X11.0058Y-3.8778
X3.3476Y-3.3633
X3.3551Y-3.3417
X3.5503Y-3.3736
X3.615Y-3.3314
X4.0246Y-3.7403
X4.0321Y-3.7187
X4.2273Y-3.7506
X4.292Y-3.7084
X1.0376Y-2.5543
X1.0451Y-2.5327
X1.2403Y-2.5646
X1.305Y-2.5224
X7.4168Y-3.7596
X7.4212Y-3.7821
X7.6018Y-3.6896
X7.6368Y-3.6208
X9.6878Y-3.5376
X9.6922Y-3.5601
X9.8728Y-3.4676
X9.9078Y-3.3988
X0.6496Y-4.0023
X0.6571Y-3.9807
X0.8523Y-4.0126
X0.917Y-3.9704
X1.2316Y-1.8283
X1.2391Y-1.8067
X1.4343Y-1.8386
X1.499Y-1.7964
X6.5468Y-3.4046
X6.5512Y-3.4271
X6.7318Y-3.3346
X6.7668Y-3.2658
X7.0278Y-2.3086
X7.0322Y-2.3311
X7.2128Y-2.2386
X7.2478Y-2.1698
X10.5908Y-3.2916
X10.5952Y-3.3141
X10.7758Y-3.2216
X10.8108Y-3.1528
X5.0846Y-2.6673
X5.0921Y-2.6457
X5.2873Y-2.6776
X5.352Y-2.6354
X4.6956Y-4.1163
X4.7031Y-4.0947
X4.8983Y-4.1266
X4.963Y-4.0844
X6.8026Y-6.0017
X6.8119Y-5.9808
X7.0036Y-6.0296
X7.0718Y-5.9933
X1.9426Y-2.7973
X1.9501Y-2.7757
X2.1453Y-2.8076
X2.21Y-2.7654
T0
M30
