G04 #@! TF.GenerationSoftware,KiCad,Pcbnew,(5.99.0-562-g7b80b2dc7)*
G04 #@! TF.CreationDate,2019-12-24T23:11:14-08:00*
G04 #@! TF.ProjectId,arch_40,61726368-5f34-4302-9e6b-696361645f70,rev?*
G04 #@! TF.SameCoordinates,Original*
G04 #@! TF.FileFunction,Legend,Top*
G04 #@! TF.FilePolarity,Positive*
%FSLAX46Y46*%
G04 Gerber Fmt 4.6, Leading zero omitted, Abs format (unit mm)*
G04 Created by KiCad (PCBNEW (5.99.0-562-g7b80b2dc7)) date 2019-12-24 23:11:14*
%MOMM*%
%LPD*%
G04 APERTURE LIST*
%ADD10C,0.150000*%
%ADD11C,0.381000*%
%ADD12C,0.203200*%
G04 APERTURE END LIST*
D10*
X145839047Y-123901666D02*
X146315238Y-123901666D01*
X145743809Y-124187380D02*
X146077142Y-123187380D01*
X146410476Y-124187380D01*
X146743809Y-124187380D02*
X146743809Y-123520714D01*
X146743809Y-123711190D02*
X146791428Y-123615952D01*
X146839047Y-123568333D01*
X146934285Y-123520714D01*
X147029523Y-123520714D01*
X147791428Y-124139761D02*
X147696190Y-124187380D01*
X147505714Y-124187380D01*
X147410476Y-124139761D01*
X147362857Y-124092142D01*
X147315238Y-123996904D01*
X147315238Y-123711190D01*
X147362857Y-123615952D01*
X147410476Y-123568333D01*
X147505714Y-123520714D01*
X147696190Y-123520714D01*
X147791428Y-123568333D01*
X148220000Y-124187380D02*
X148220000Y-123187380D01*
X148648571Y-124187380D02*
X148648571Y-123663571D01*
X148600952Y-123568333D01*
X148505714Y-123520714D01*
X148362857Y-123520714D01*
X148267619Y-123568333D01*
X148220000Y-123615952D01*
X149553333Y-123520714D02*
X149553333Y-124187380D01*
X149315238Y-123139761D02*
X149077142Y-123854047D01*
X149696190Y-123854047D01*
X150267619Y-123187380D02*
X150362857Y-123187380D01*
X150458095Y-123235000D01*
X150505714Y-123282619D01*
X150553333Y-123377857D01*
X150600952Y-123568333D01*
X150600952Y-123806428D01*
X150553333Y-123996904D01*
X150505714Y-124092142D01*
X150458095Y-124139761D01*
X150362857Y-124187380D01*
X150267619Y-124187380D01*
X150172380Y-124139761D01*
X150124761Y-124092142D01*
X150077142Y-123996904D01*
X150029523Y-123806428D01*
X150029523Y-123568333D01*
X150077142Y-123377857D01*
X150124761Y-123282619D01*
X150172380Y-123235000D01*
X150267619Y-123187380D01*
X145767619Y-125797380D02*
X145767619Y-125130714D01*
X145767619Y-125321190D02*
X145815238Y-125225952D01*
X145862857Y-125178333D01*
X145958095Y-125130714D01*
X146053333Y-125130714D01*
X146767619Y-125749761D02*
X146672380Y-125797380D01*
X146481904Y-125797380D01*
X146386666Y-125749761D01*
X146339047Y-125654523D01*
X146339047Y-125273571D01*
X146386666Y-125178333D01*
X146481904Y-125130714D01*
X146672380Y-125130714D01*
X146767619Y-125178333D01*
X146815238Y-125273571D01*
X146815238Y-125368809D01*
X146339047Y-125464047D01*
X147148571Y-125130714D02*
X147386666Y-125797380D01*
X147624761Y-125130714D01*
X149291428Y-125797380D02*
X148720000Y-125797380D01*
X149005714Y-125797380D02*
X149005714Y-124797380D01*
X148910476Y-124940238D01*
X148815238Y-125035476D01*
X148720000Y-125083095D01*
X149720000Y-125702142D02*
X149767619Y-125749761D01*
X149720000Y-125797380D01*
X149672380Y-125749761D01*
X149720000Y-125702142D01*
X149720000Y-125797380D01*
X150720000Y-125797380D02*
X150148571Y-125797380D01*
X150434285Y-125797380D02*
X150434285Y-124797380D01*
X150339047Y-124940238D01*
X150243809Y-125035476D01*
X150148571Y-125083095D01*
D11*
X155016200Y-90093800D02*
X157556200Y-90093800D01*
X139776200Y-87553800D02*
X157556200Y-87553800D01*
X157556200Y-87553800D02*
X157556200Y-120573800D01*
X157556200Y-120573800D02*
X139776200Y-120573800D01*
X139776200Y-120573800D02*
X139776200Y-87553800D01*
G36*
X142821565Y-96082830D02*
G01*
X142321565Y-96082830D01*
X142321565Y-95982830D01*
X142821565Y-95982830D01*
X142821565Y-96082830D01*
G37*
D10*
X142821565Y-96082830D02*
X142321565Y-96082830D01*
X142321565Y-95982830D01*
X142821565Y-95982830D01*
X142821565Y-96082830D01*
G36*
X142821565Y-96282830D02*
G01*
X142721565Y-96282830D01*
X142721565Y-95982830D01*
X142821565Y-95982830D01*
X142821565Y-96282830D01*
G37*
X142821565Y-96282830D02*
X142721565Y-96282830D01*
X142721565Y-95982830D01*
X142821565Y-95982830D01*
X142821565Y-96282830D01*
G36*
X142821565Y-96782830D02*
G01*
X142721565Y-96782830D01*
X142721565Y-96582830D01*
X142821565Y-96582830D01*
X142821565Y-96782830D01*
G37*
X142821565Y-96782830D02*
X142721565Y-96782830D01*
X142721565Y-96582830D01*
X142821565Y-96582830D01*
X142821565Y-96782830D01*
G36*
X142421565Y-96782830D02*
G01*
X142321565Y-96782830D01*
X142321565Y-95982830D01*
X142421565Y-95982830D01*
X142421565Y-96782830D01*
G37*
X142421565Y-96782830D02*
X142321565Y-96782830D01*
X142321565Y-95982830D01*
X142421565Y-95982830D01*
X142421565Y-96782830D01*
G36*
X142621565Y-96482830D02*
G01*
X142521565Y-96482830D01*
X142521565Y-96382830D01*
X142621565Y-96382830D01*
X142621565Y-96482830D01*
G37*
X142621565Y-96482830D02*
X142521565Y-96482830D01*
X142521565Y-96382830D01*
X142621565Y-96382830D01*
X142621565Y-96482830D01*
D11*
X155016200Y-90093800D02*
X155016200Y-92633800D01*
X155016200Y-92633800D02*
X157556200Y-92633800D01*
D12*
X134672387Y-96276099D02*
X136880493Y-96867759D01*
X133883507Y-99220241D02*
X134672387Y-96276099D01*
X136091613Y-99811901D02*
X133883507Y-99220241D01*
X136880493Y-96867759D02*
X136091613Y-99811901D01*
D10*
X133983017Y-99015003D02*
X136011461Y-99558523D01*
X136108054Y-99584405D02*
X136011461Y-99558523D01*
X136011461Y-99558523D02*
X136108054Y-99584405D01*
X136159817Y-99391219D02*
X134034781Y-98821817D01*
X134086544Y-98628632D02*
X136211581Y-99198034D01*
D12*
X212483196Y-108685912D02*
X211891536Y-106477806D01*
X215427338Y-107897032D02*
X212483196Y-108685912D01*
X214835678Y-105688926D02*
X215427338Y-107897032D01*
X211891536Y-106477806D02*
X214835678Y-105688926D01*
D10*
X215199842Y-107913473D02*
X214656322Y-105885028D01*
X214630440Y-105788436D02*
X214656322Y-105885028D01*
X214656322Y-105885028D02*
X214630440Y-105788436D01*
X214437254Y-105840200D02*
X215006656Y-107965236D01*
X214813471Y-108017000D02*
X214244069Y-105891963D01*
D12*
X207535559Y-90296893D02*
X206943899Y-88088787D01*
X210479701Y-89508013D02*
X207535559Y-90296893D01*
X209888041Y-87299907D02*
X210479701Y-89508013D01*
X206943899Y-88088787D02*
X209888041Y-87299907D01*
D10*
X210252205Y-89524454D02*
X209708685Y-87496009D01*
X209682803Y-87399417D02*
X209708685Y-87496009D01*
X209708685Y-87496009D02*
X209682803Y-87399417D01*
X209489617Y-87451181D02*
X210059019Y-89576217D01*
X209865834Y-89627981D02*
X209296432Y-87502944D01*
D12*
X202379359Y-72288293D02*
X201787699Y-70080187D01*
X205323501Y-71499413D02*
X202379359Y-72288293D01*
X204731841Y-69291307D02*
X205323501Y-71499413D01*
X201787699Y-70080187D02*
X204731841Y-69291307D01*
D10*
X205096005Y-71515854D02*
X204552485Y-69487409D01*
X204526603Y-69390817D02*
X204552485Y-69487409D01*
X204552485Y-69487409D02*
X204526603Y-69390817D01*
X204333417Y-69442581D02*
X204902819Y-71567617D01*
X204709634Y-71619381D02*
X204140232Y-69494344D01*
D12*
X197832759Y-53466893D02*
X197241099Y-51258787D01*
X200776901Y-52678013D02*
X197832759Y-53466893D01*
X200185241Y-50469907D02*
X200776901Y-52678013D01*
X197241099Y-51258787D02*
X200185241Y-50469907D01*
D10*
X200549405Y-52694454D02*
X200005885Y-50666009D01*
X199980003Y-50569417D02*
X200005885Y-50666009D01*
X200005885Y-50666009D02*
X199980003Y-50569417D01*
X199786817Y-50621181D02*
X200356219Y-52746217D01*
X200163034Y-52797981D02*
X199593632Y-50672944D01*
D12*
X196181759Y-117830493D02*
X195590099Y-115622387D01*
X199125901Y-117041613D02*
X196181759Y-117830493D01*
X198534241Y-114833507D02*
X199125901Y-117041613D01*
X195590099Y-115622387D02*
X198534241Y-114833507D01*
D10*
X198898405Y-117058054D02*
X198354885Y-115029609D01*
X198329003Y-114933017D02*
X198354885Y-115029609D01*
X198354885Y-115029609D02*
X198329003Y-114933017D01*
X198135817Y-114984781D02*
X198705219Y-117109817D01*
X198512034Y-117161581D02*
X197942632Y-115036544D01*
D12*
X192120582Y-99639594D02*
X191528922Y-97431488D01*
X195064724Y-98850714D02*
X192120582Y-99639594D01*
X194473064Y-96642608D02*
X195064724Y-98850714D01*
X191528922Y-97431488D02*
X194473064Y-96642608D01*
D10*
X194837228Y-98867155D02*
X194293708Y-96838710D01*
X194267826Y-96742118D02*
X194293708Y-96838710D01*
X194293708Y-96838710D02*
X194267826Y-96742118D01*
X194074640Y-96793882D02*
X194644042Y-98918918D01*
X194450857Y-98970682D02*
X193881455Y-96845645D01*
D12*
X186301159Y-81178293D02*
X185709499Y-78970187D01*
X189245301Y-80389413D02*
X186301159Y-81178293D01*
X188653641Y-78181307D02*
X189245301Y-80389413D01*
X185709499Y-78970187D02*
X188653641Y-78181307D01*
D10*
X189017805Y-80405854D02*
X188474285Y-78377409D01*
X188448403Y-78280817D02*
X188474285Y-78377409D01*
X188474285Y-78377409D02*
X188448403Y-78280817D01*
X188255217Y-78332581D02*
X188824619Y-80457617D01*
X188631434Y-80509381D02*
X188062032Y-78384344D01*
D12*
X181170359Y-63144293D02*
X180578699Y-60936187D01*
X184114501Y-62355413D02*
X181170359Y-63144293D01*
X183522841Y-60147307D02*
X184114501Y-62355413D01*
X180578699Y-60936187D02*
X183522841Y-60147307D01*
D10*
X183887005Y-62371854D02*
X183343485Y-60343409D01*
X183317603Y-60246817D02*
X183343485Y-60343409D01*
X183343485Y-60343409D02*
X183317603Y-60246817D01*
X183124417Y-60298581D02*
X183693819Y-62423617D01*
X183500634Y-62475381D02*
X182931232Y-60350344D01*
D12*
X178223959Y-127812693D02*
X177632299Y-125604587D01*
X181168101Y-127023813D02*
X178223959Y-127812693D01*
X180576441Y-124815707D02*
X181168101Y-127023813D01*
X177632299Y-125604587D02*
X180576441Y-124815707D01*
D10*
X180940605Y-127040254D02*
X180397085Y-125011809D01*
X180371203Y-124915217D02*
X180397085Y-125011809D01*
X180397085Y-125011809D02*
X180371203Y-124915217D01*
X180178017Y-124966981D02*
X180747419Y-127092017D01*
X180554234Y-127143781D02*
X179984832Y-125018744D01*
D12*
X174413959Y-109245293D02*
X173822299Y-107037187D01*
X177358101Y-108456413D02*
X174413959Y-109245293D01*
X176766441Y-106248307D02*
X177358101Y-108456413D01*
X173822299Y-107037187D02*
X176766441Y-106248307D01*
D10*
X177130605Y-108472854D02*
X176587085Y-106444409D01*
X176561203Y-106347817D02*
X176587085Y-106444409D01*
X176587085Y-106444409D02*
X176561203Y-106347817D01*
X176368017Y-106399581D02*
X176937419Y-108524617D01*
X176744234Y-108576381D02*
X176174832Y-106451344D01*
D12*
X169079959Y-90779493D02*
X168488299Y-88571387D01*
X172024101Y-89990613D02*
X169079959Y-90779493D01*
X171432441Y-87782507D02*
X172024101Y-89990613D01*
X168488299Y-88571387D02*
X171432441Y-87782507D01*
D10*
X171796605Y-90007054D02*
X171253085Y-87978609D01*
X171227203Y-87882017D02*
X171253085Y-87978609D01*
X171253085Y-87978609D02*
X171227203Y-87882017D01*
X171034017Y-87933781D02*
X171603419Y-90058817D01*
X171410234Y-90110581D02*
X170840832Y-87985544D01*
D12*
X164330159Y-72262893D02*
X163738499Y-70054787D01*
X167274301Y-71474013D02*
X164330159Y-72262893D01*
X166682641Y-69265907D02*
X167274301Y-71474013D01*
X163738499Y-70054787D02*
X166682641Y-69265907D01*
D10*
X167046805Y-71490454D02*
X166503285Y-69462009D01*
X166477403Y-69365417D02*
X166503285Y-69462009D01*
X166503285Y-69462009D02*
X166477403Y-69365417D01*
X166284217Y-69417181D02*
X166853619Y-71542217D01*
X166660434Y-71593981D02*
X166091032Y-69468944D01*
D12*
X128023857Y-153754007D02*
X127241999Y-151605870D01*
X130888041Y-152711530D02*
X128023857Y-153754007D01*
X130106183Y-150563393D02*
X130888041Y-152711530D01*
X127241999Y-151605870D02*
X130106183Y-150563393D01*
D10*
X130662843Y-152747736D02*
X129944600Y-150774381D01*
X129910398Y-150680412D02*
X129944600Y-150774381D01*
X129944600Y-150774381D02*
X129910398Y-150680412D01*
X129722460Y-150748816D02*
X130474904Y-152816140D01*
X130286966Y-152884544D02*
X129534521Y-150817220D01*
D12*
X153370979Y-150108030D02*
X154152837Y-147959893D01*
X156235163Y-151150507D02*
X153370979Y-150108030D01*
X157017021Y-149002370D02*
X156235163Y-151150507D01*
X154152837Y-147959893D02*
X157017021Y-149002370D01*
D10*
X156039378Y-151033488D02*
X156757621Y-149060134D01*
X156791823Y-148966164D02*
X156757621Y-149060134D01*
X156757621Y-149060134D02*
X156791823Y-148966164D01*
X156603884Y-148897760D02*
X155851440Y-150965084D01*
X155663501Y-150896680D02*
X156415946Y-148829356D01*
D12*
X171223270Y-156290313D02*
X172005128Y-154142176D01*
X174087454Y-157332790D02*
X171223270Y-156290313D01*
X174869312Y-155184653D02*
X174087454Y-157332790D01*
X172005128Y-154142176D02*
X174869312Y-155184653D01*
D10*
X173891669Y-157215771D02*
X174609912Y-155242417D01*
X174644114Y-155148447D02*
X174609912Y-155242417D01*
X174609912Y-155242417D02*
X174644114Y-155148447D01*
X174456175Y-155080043D02*
X173703731Y-157147367D01*
X173515792Y-157078963D02*
X174268237Y-155011639D01*
D12*
X113878299Y-127557213D02*
X114469959Y-125349107D01*
X116822441Y-128346093D02*
X113878299Y-127557213D01*
X117414101Y-126137987D02*
X116822441Y-128346093D01*
X114469959Y-125349107D02*
X117414101Y-126137987D01*
D10*
X116617203Y-128246583D02*
X117160723Y-126218139D01*
X117186605Y-126121546D02*
X117160723Y-126218139D01*
X117160723Y-126218139D02*
X117186605Y-126121546D01*
X116993419Y-126069783D02*
X116424017Y-128194819D01*
X116230832Y-128143056D02*
X116800234Y-126018019D01*
D12*
X119263099Y-109015213D02*
X119854759Y-106807107D01*
X122207241Y-109804093D02*
X119263099Y-109015213D01*
X122798901Y-107595987D02*
X122207241Y-109804093D01*
X119854759Y-106807107D02*
X122798901Y-107595987D01*
D10*
X122002003Y-109704583D02*
X122545523Y-107676139D01*
X122571405Y-107579546D02*
X122545523Y-107676139D01*
X122545523Y-107676139D02*
X122571405Y-107579546D01*
X122378219Y-107527783D02*
X121808817Y-109652819D01*
X121615632Y-109601056D02*
X122185034Y-107476019D01*
D12*
X124597099Y-90574813D02*
X125188759Y-88366707D01*
X127541241Y-91363693D02*
X124597099Y-90574813D01*
X128132901Y-89155587D02*
X127541241Y-91363693D01*
X125188759Y-88366707D02*
X128132901Y-89155587D01*
D10*
X127336003Y-91264183D02*
X127879523Y-89235739D01*
X127905405Y-89139146D02*
X127879523Y-89235739D01*
X127879523Y-89235739D02*
X127905405Y-89139146D01*
X127712219Y-89087383D02*
X127142817Y-91212419D01*
X126949632Y-91160656D02*
X127519034Y-89035619D01*
D12*
X128915099Y-72109013D02*
X129506759Y-69900907D01*
X131859241Y-72897893D02*
X128915099Y-72109013D01*
X132450901Y-70689787D02*
X131859241Y-72897893D01*
X129506759Y-69900907D02*
X132450901Y-70689787D01*
D10*
X131654003Y-72798383D02*
X132197523Y-70769939D01*
X132223405Y-70673346D02*
X132197523Y-70769939D01*
X132197523Y-70769939D02*
X132223405Y-70673346D01*
X132030219Y-70621583D02*
X131460817Y-72746619D01*
X131267632Y-72694856D02*
X131837034Y-70569819D01*
D12*
X97165099Y-117803613D02*
X97756759Y-115595507D01*
X100109241Y-118592493D02*
X97165099Y-117803613D01*
X100700901Y-116384387D02*
X100109241Y-118592493D01*
X97756759Y-115595507D02*
X100700901Y-116384387D01*
D10*
X99904003Y-118492983D02*
X100447523Y-116464539D01*
X100473405Y-116367946D02*
X100447523Y-116464539D01*
X100447523Y-116464539D02*
X100473405Y-116367946D01*
X100280219Y-116316183D02*
X99710817Y-118441219D01*
X99517632Y-118389456D02*
X100087034Y-116264419D01*
D12*
X102041899Y-99312413D02*
X102633559Y-97104307D01*
X104986041Y-100101293D02*
X102041899Y-99312413D01*
X105577701Y-97893187D02*
X104986041Y-100101293D01*
X102633559Y-97104307D02*
X105577701Y-97893187D01*
D10*
X104780803Y-100001783D02*
X105324323Y-97973339D01*
X105350205Y-97876746D02*
X105324323Y-97973339D01*
X105324323Y-97973339D02*
X105350205Y-97876746D01*
X105157019Y-97824983D02*
X104587617Y-99950019D01*
X104394432Y-99898256D02*
X104963834Y-97773219D01*
D12*
X106817099Y-80973613D02*
X107408759Y-78765507D01*
X109761241Y-81762493D02*
X106817099Y-80973613D01*
X110352901Y-79554387D02*
X109761241Y-81762493D01*
X107408759Y-78765507D02*
X110352901Y-79554387D01*
D10*
X109556003Y-81662983D02*
X110099523Y-79634539D01*
X110125405Y-79537946D02*
X110099523Y-79634539D01*
X110099523Y-79634539D02*
X110125405Y-79537946D01*
X109932219Y-79486183D02*
X109362817Y-81611219D01*
X109169632Y-81559456D02*
X109739034Y-79434419D01*
D12*
X111465299Y-62380813D02*
X112056959Y-60172707D01*
X114409441Y-63169693D02*
X111465299Y-62380813D01*
X115001101Y-60961587D02*
X114409441Y-63169693D01*
X112056959Y-60172707D02*
X115001101Y-60961587D01*
D10*
X114204203Y-63070183D02*
X114747723Y-61041739D01*
X114773605Y-60945146D02*
X114747723Y-61041739D01*
X114747723Y-61041739D02*
X114773605Y-60945146D01*
X114580419Y-60893383D02*
X114011017Y-63018419D01*
X113817832Y-62966656D02*
X114387234Y-60841619D01*
D12*
X79385099Y-108151613D02*
X79976759Y-105943507D01*
X82329241Y-108940493D02*
X79385099Y-108151613D01*
X82920901Y-106732387D02*
X82329241Y-108940493D01*
X79976759Y-105943507D02*
X82920901Y-106732387D01*
D10*
X82124003Y-108840983D02*
X82667523Y-106812539D01*
X82693405Y-106715946D02*
X82667523Y-106812539D01*
X82667523Y-106812539D02*
X82693405Y-106715946D01*
X82500219Y-106664183D02*
X81930817Y-108789219D01*
X81737632Y-108737456D02*
X82307034Y-106612419D01*
D12*
X84515899Y-89965213D02*
X85107559Y-87757107D01*
X87460041Y-90754093D02*
X84515899Y-89965213D01*
X88051701Y-88545987D02*
X87460041Y-90754093D01*
X85107559Y-87757107D02*
X88051701Y-88545987D01*
D10*
X87254803Y-90654583D02*
X87798323Y-88626139D01*
X87824205Y-88529546D02*
X87798323Y-88626139D01*
X87798323Y-88626139D02*
X87824205Y-88529546D01*
X87631019Y-88477783D02*
X87061617Y-90602819D01*
X86868432Y-90551056D02*
X87437834Y-88426019D01*
D12*
X89291099Y-71321613D02*
X89882759Y-69113507D01*
X92235241Y-72110493D02*
X89291099Y-71321613D01*
X92826901Y-69902387D02*
X92235241Y-72110493D01*
X89882759Y-69113507D02*
X92826901Y-69902387D01*
D10*
X92030003Y-72010983D02*
X92573523Y-69982539D01*
X92599405Y-69885946D02*
X92573523Y-69982539D01*
X92573523Y-69982539D02*
X92599405Y-69885946D01*
X92406219Y-69834183D02*
X91836817Y-71959219D01*
X91643632Y-71907456D02*
X92213034Y-69782419D01*
D12*
X94701299Y-53160613D02*
X95292959Y-50952507D01*
X97645441Y-53949493D02*
X94701299Y-53160613D01*
X98237101Y-51741387D02*
X97645441Y-53949493D01*
X95292959Y-50952507D02*
X98237101Y-51741387D01*
D10*
X97440203Y-53849983D02*
X97983723Y-51821539D01*
X98009605Y-51724946D02*
X97983723Y-51821539D01*
X97983723Y-51821539D02*
X98009605Y-51724946D01*
X97816419Y-51673183D02*
X97247017Y-53798219D01*
X97053832Y-53746456D02*
X97623234Y-51621419D01*
D12*
X60642722Y-107952912D02*
X61234382Y-105744806D01*
X63586864Y-108741792D02*
X60642722Y-107952912D01*
X64178524Y-106533686D02*
X63586864Y-108741792D01*
X61234382Y-105744806D02*
X64178524Y-106533686D01*
D10*
X63381626Y-108642282D02*
X63925146Y-106613838D01*
X63951028Y-106517245D02*
X63925146Y-106613838D01*
X63925146Y-106613838D02*
X63951028Y-106517245D01*
X63757842Y-106465482D02*
X63188440Y-108590518D01*
X62995255Y-108538755D02*
X63564657Y-106413718D01*
D12*
X64500699Y-89635013D02*
X65092359Y-87426907D01*
X67444841Y-90423893D02*
X64500699Y-89635013D01*
X68036501Y-88215787D02*
X67444841Y-90423893D01*
X65092359Y-87426907D02*
X68036501Y-88215787D01*
D10*
X67239603Y-90324383D02*
X67783123Y-88295939D01*
X67809005Y-88199346D02*
X67783123Y-88295939D01*
X67783123Y-88295939D02*
X67809005Y-88199346D01*
X67615819Y-88147583D02*
X67046417Y-90272619D01*
X66853232Y-90220856D02*
X67422634Y-88095819D01*
D12*
X69402899Y-71220013D02*
X69994559Y-69011907D01*
X72347041Y-72008893D02*
X69402899Y-71220013D01*
X72938701Y-69800787D02*
X72347041Y-72008893D01*
X69994559Y-69011907D02*
X72938701Y-69800787D01*
D10*
X72141803Y-71909383D02*
X72685323Y-69880939D01*
X72711205Y-69784346D02*
X72685323Y-69880939D01*
X72685323Y-69880939D02*
X72711205Y-69784346D01*
X72518019Y-69732583D02*
X71948617Y-71857619D01*
X71755432Y-71805856D02*
X72324834Y-69680819D01*
D12*
X74254299Y-52957413D02*
X74845959Y-50749307D01*
X77198441Y-53746293D02*
X74254299Y-52957413D01*
X77790101Y-51538187D02*
X77198441Y-53746293D01*
X74845959Y-50749307D02*
X77790101Y-51538187D01*
D10*
X76993203Y-53646783D02*
X77536723Y-51618339D01*
X77562605Y-51521746D02*
X77536723Y-51618339D01*
X77536723Y-51618339D02*
X77562605Y-51521746D01*
X77369419Y-51469983D02*
X76800017Y-53595019D01*
X76606832Y-53543256D02*
X77176234Y-51418219D01*
D12*
X275955256Y-106427852D02*
X275363596Y-104219746D01*
X278899398Y-105638972D02*
X275955256Y-106427852D01*
X278307738Y-103430866D02*
X278899398Y-105638972D01*
X275363596Y-104219746D02*
X278307738Y-103430866D01*
D10*
X278671902Y-105655413D02*
X278128382Y-103626968D01*
X278102500Y-103530376D02*
X278128382Y-103626968D01*
X278128382Y-103626968D02*
X278102500Y-103530376D01*
X277909314Y-103582140D02*
X278478716Y-105707176D01*
X278285531Y-105758940D02*
X277716129Y-103633903D01*
D12*
X271594359Y-88163293D02*
X271002699Y-85955187D01*
X274538501Y-87374413D02*
X271594359Y-88163293D01*
X273946841Y-85166307D02*
X274538501Y-87374413D01*
X271002699Y-85955187D02*
X273946841Y-85166307D01*
D10*
X274311005Y-87390854D02*
X273767485Y-85362409D01*
X273741603Y-85265817D02*
X273767485Y-85362409D01*
X273767485Y-85362409D02*
X273741603Y-85265817D01*
X273548417Y-85317581D02*
X274117819Y-87442617D01*
X273924634Y-87494381D02*
X273355232Y-85369344D01*
D12*
X266209559Y-69926093D02*
X265617899Y-67717987D01*
X269153701Y-69137213D02*
X266209559Y-69926093D01*
X268562041Y-66929107D02*
X269153701Y-69137213D01*
X265617899Y-67717987D02*
X268562041Y-66929107D01*
D10*
X268926205Y-69153654D02*
X268382685Y-67125209D01*
X268356803Y-67028617D02*
X268382685Y-67125209D01*
X268382685Y-67125209D02*
X268356803Y-67028617D01*
X268163617Y-67080381D02*
X268733019Y-69205417D01*
X268539834Y-69257181D02*
X267970432Y-67132144D01*
D12*
X262399559Y-51130093D02*
X261807899Y-48921987D01*
X265343701Y-50341213D02*
X262399559Y-51130093D01*
X264752041Y-48133107D02*
X265343701Y-50341213D01*
X261807899Y-48921987D02*
X264752041Y-48133107D01*
D10*
X265116205Y-50357654D02*
X264572685Y-48329209D01*
X264546803Y-48232617D02*
X264572685Y-48329209D01*
X264572685Y-48329209D02*
X264546803Y-48232617D01*
X264353617Y-48284381D02*
X264923019Y-50409417D01*
X264729834Y-50461181D02*
X264160432Y-48336144D01*
D12*
X248323759Y-94108493D02*
X247732099Y-91900387D01*
X251267901Y-93319613D02*
X248323759Y-94108493D01*
X250676241Y-91111507D02*
X251267901Y-93319613D01*
X247732099Y-91900387D02*
X250676241Y-91111507D01*
D10*
X251040405Y-93336054D02*
X250496885Y-91307609D01*
X250471003Y-91211017D02*
X250496885Y-91307609D01*
X250496885Y-91307609D02*
X250471003Y-91211017D01*
X250277817Y-91262781D02*
X250847219Y-93387817D01*
X250654034Y-93439581D02*
X250084632Y-91314544D01*
D12*
X244289359Y-75666493D02*
X243697699Y-73458387D01*
X247233501Y-74877613D02*
X244289359Y-75666493D01*
X246641841Y-72669507D02*
X247233501Y-74877613D01*
X243697699Y-73458387D02*
X246641841Y-72669507D01*
D10*
X247006005Y-74894054D02*
X246462485Y-72865609D01*
X246436603Y-72769017D02*
X246462485Y-72865609D01*
X246462485Y-72865609D02*
X246436603Y-72769017D01*
X246243417Y-72820781D02*
X246812819Y-74945817D01*
X246619634Y-74997581D02*
X246050232Y-72872544D01*
D12*
X239514159Y-57327693D02*
X238922499Y-55119587D01*
X242458301Y-56538813D02*
X239514159Y-57327693D01*
X241866641Y-54330707D02*
X242458301Y-56538813D01*
X238922499Y-55119587D02*
X241866641Y-54330707D01*
D10*
X242230805Y-56555254D02*
X241687285Y-54526809D01*
X241661403Y-54430217D02*
X241687285Y-54526809D01*
X241687285Y-54526809D02*
X241661403Y-54430217D01*
X241468217Y-54481981D02*
X242037619Y-56607017D01*
X241844434Y-56658781D02*
X241275032Y-54533744D01*
D12*
X233415336Y-107936612D02*
X232823676Y-105728506D01*
X236359478Y-107147732D02*
X233415336Y-107936612D01*
X235767818Y-104939626D02*
X236359478Y-107147732D01*
X232823676Y-105728506D02*
X235767818Y-104939626D01*
D10*
X236131982Y-107164173D02*
X235588462Y-105135728D01*
X235562580Y-105039136D02*
X235588462Y-105135728D01*
X235588462Y-105135728D02*
X235562580Y-105039136D01*
X235369394Y-105090900D02*
X235938796Y-107215936D01*
X235745611Y-107267700D02*
X235176209Y-105142663D01*
D12*
X228160359Y-89712693D02*
X227568699Y-87504587D01*
X231104501Y-88923813D02*
X228160359Y-89712693D01*
X230512841Y-86715707D02*
X231104501Y-88923813D01*
X227568699Y-87504587D02*
X230512841Y-86715707D01*
D10*
X230877005Y-88940254D02*
X230333485Y-86911809D01*
X230307603Y-86815217D02*
X230333485Y-86911809D01*
X230333485Y-86911809D02*
X230307603Y-86815217D01*
X230114417Y-86866981D02*
X230683819Y-88992017D01*
X230490634Y-89043781D02*
X229921232Y-86918744D01*
D12*
X223181959Y-71627893D02*
X222590299Y-69419787D01*
X226126101Y-70839013D02*
X223181959Y-71627893D01*
X225534441Y-68630907D02*
X226126101Y-70839013D01*
X222590299Y-69419787D02*
X225534441Y-68630907D01*
D10*
X225898605Y-70855454D02*
X225355085Y-68827009D01*
X225329203Y-68730417D02*
X225355085Y-68827009D01*
X225355085Y-68827009D02*
X225329203Y-68730417D01*
X225136017Y-68782181D02*
X225705419Y-70907217D01*
X225512234Y-70958981D02*
X224942832Y-68833944D01*
D12*
X217924159Y-52958893D02*
X217332499Y-50750787D01*
X220868301Y-52170013D02*
X217924159Y-52958893D01*
X220276641Y-49961907D02*
X220868301Y-52170013D01*
X217332499Y-50750787D02*
X220276641Y-49961907D01*
D10*
X220640805Y-52186454D02*
X220097285Y-50158009D01*
X220071403Y-50061417D02*
X220097285Y-50158009D01*
X220097285Y-50158009D02*
X220071403Y-50061417D01*
X219878217Y-50113181D02*
X220447619Y-52238217D01*
X220254434Y-52289981D02*
X219685032Y-50164944D01*
D12*
X43327542Y-93474912D02*
X43919202Y-91266806D01*
X46271684Y-94263792D02*
X43327542Y-93474912D01*
X46863344Y-92055686D02*
X46271684Y-94263792D01*
X43919202Y-91266806D02*
X46863344Y-92055686D01*
D10*
X46066446Y-94164282D02*
X46609966Y-92135838D01*
X46635848Y-92039245D02*
X46609966Y-92135838D01*
X46609966Y-92135838D02*
X46635848Y-92039245D01*
X46442662Y-91987482D02*
X45873260Y-94112518D01*
X45680075Y-94060755D02*
X46249477Y-91935718D01*
D12*
X48727299Y-75461813D02*
X49318959Y-73253707D01*
X51671441Y-76250693D02*
X48727299Y-75461813D01*
X52263101Y-74042587D02*
X51671441Y-76250693D01*
X49318959Y-73253707D02*
X52263101Y-74042587D01*
D10*
X51466203Y-76151183D02*
X52009723Y-74122739D01*
X52035605Y-74026146D02*
X52009723Y-74122739D01*
X52009723Y-74122739D02*
X52035605Y-74026146D01*
X51842419Y-73974383D02*
X51273017Y-76099419D01*
X51079832Y-76047656D02*
X51649234Y-73922619D01*
D12*
X54086699Y-57199213D02*
X54678359Y-54991107D01*
X57030841Y-57988093D02*
X54086699Y-57199213D01*
X57622501Y-55779987D02*
X57030841Y-57988093D01*
X54678359Y-54991107D02*
X57622501Y-55779987D01*
D10*
X56825603Y-57888583D02*
X57369123Y-55860139D01*
X57395005Y-55763546D02*
X57369123Y-55860139D01*
X57369123Y-55860139D02*
X57395005Y-55763546D01*
X57201819Y-55711783D02*
X56632417Y-57836819D01*
X56439232Y-57785056D02*
X57008634Y-55660019D01*
D12*
X15062422Y-105626272D02*
X15654082Y-103418166D01*
X18006564Y-106415152D02*
X15062422Y-105626272D01*
X18598224Y-104207046D02*
X18006564Y-106415152D01*
X15654082Y-103418166D02*
X18598224Y-104207046D01*
D10*
X17801326Y-106315642D02*
X18344846Y-104287198D01*
X18370728Y-104190605D02*
X18344846Y-104287198D01*
X18344846Y-104287198D02*
X18370728Y-104190605D01*
X18177542Y-104138842D02*
X17608140Y-106263878D01*
X17414955Y-106212115D02*
X17984357Y-104087078D01*
D12*
X21041299Y-87653813D02*
X21632959Y-85445707D01*
X23985441Y-88442693D02*
X21041299Y-87653813D01*
X24577101Y-86234587D02*
X23985441Y-88442693D01*
X21632959Y-85445707D02*
X24577101Y-86234587D01*
D10*
X23780203Y-88343183D02*
X24323723Y-86314739D01*
X24349605Y-86218146D02*
X24323723Y-86314739D01*
X24323723Y-86314739D02*
X24349605Y-86218146D01*
X24156419Y-86166383D02*
X23587017Y-88291419D01*
X23393832Y-88239656D02*
X23963234Y-86114619D01*
D12*
X25689499Y-69442013D02*
X26281159Y-67233907D01*
X28633641Y-70230893D02*
X25689499Y-69442013D01*
X29225301Y-68022787D02*
X28633641Y-70230893D01*
X26281159Y-67233907D02*
X29225301Y-68022787D01*
D10*
X28428403Y-70131383D02*
X28971923Y-68102939D01*
X28997805Y-68006346D02*
X28971923Y-68102939D01*
X28971923Y-68102939D02*
X28997805Y-68006346D01*
X28804619Y-67954583D02*
X28235217Y-70079619D01*
X28042032Y-70027856D02*
X28611434Y-67902819D01*
D12*
X30134499Y-50798413D02*
X30726159Y-48590307D01*
X33078641Y-51587293D02*
X30134499Y-50798413D01*
X33670301Y-49379187D02*
X33078641Y-51587293D01*
X30726159Y-48590307D02*
X33670301Y-49379187D01*
D10*
X32873403Y-51487783D02*
X33416923Y-49459339D01*
X33442805Y-49362746D02*
X33416923Y-49459339D01*
X33416923Y-49459339D02*
X33442805Y-49362746D01*
X33249619Y-49310983D02*
X32680217Y-51436019D01*
X32487032Y-51384256D02*
X33056434Y-49259219D01*
X122980571Y-142097455D02*
X123696528Y-141836868D01*
X125367390Y-141228724D02*
X126083347Y-140968137D01*
X125855662Y-141456409D02*
X125595075Y-140740452D01*
X143092866Y-96747609D02*
X143207152Y-96785704D01*
X143397628Y-96785704D01*
X143473819Y-96747609D01*
X143511914Y-96709514D01*
X143550009Y-96633323D01*
X143550009Y-96557133D01*
X143511914Y-96480942D01*
X143473819Y-96442847D01*
X143397628Y-96404752D01*
X143245247Y-96366657D01*
X143169057Y-96328561D01*
X143130961Y-96290466D01*
X143092866Y-96214276D01*
X143092866Y-96138085D01*
X143130961Y-96061895D01*
X143169057Y-96023800D01*
X143245247Y-95985704D01*
X143435723Y-95985704D01*
X143550009Y-96023800D01*
X143778580Y-95985704D02*
X144235723Y-95985704D01*
X144007152Y-96785704D02*
X144007152Y-95985704D01*
X150047595Y-90925704D02*
X150504738Y-90925704D01*
X150276167Y-91725704D02*
X150276167Y-90925704D01*
X150695214Y-90925704D02*
X151228548Y-91725704D01*
X151228548Y-90925704D02*
X150695214Y-91725704D01*
X151685691Y-90925704D02*
X151761881Y-90925704D01*
X151838072Y-90963800D01*
X151876167Y-91001895D01*
X151914262Y-91078085D01*
X151952357Y-91230466D01*
X151952357Y-91420942D01*
X151914262Y-91573323D01*
X151876167Y-91649514D01*
X151838072Y-91687609D01*
X151761881Y-91725704D01*
X151685691Y-91725704D01*
X151609500Y-91687609D01*
X151571405Y-91649514D01*
X151533310Y-91573323D01*
X151495214Y-91420942D01*
X151495214Y-91230466D01*
X151533310Y-91078085D01*
X151571405Y-91001895D01*
X151609500Y-90963800D01*
X151685691Y-90925704D01*
X152866643Y-90887609D02*
X152180929Y-91916180D01*
X153133310Y-91725704D02*
X153133310Y-90925704D01*
X153323786Y-90925704D01*
X153438072Y-90963800D01*
X153514262Y-91039990D01*
X153552357Y-91116180D01*
X153590452Y-91268561D01*
X153590452Y-91382847D01*
X153552357Y-91535228D01*
X153514262Y-91611419D01*
X153438072Y-91687609D01*
X153323786Y-91725704D01*
X153133310Y-91725704D01*
X153857119Y-90925704D02*
X154352357Y-90925704D01*
X154085691Y-91230466D01*
X154199976Y-91230466D01*
X154276167Y-91268561D01*
X154314262Y-91306657D01*
X154352357Y-91382847D01*
X154352357Y-91573323D01*
X154314262Y-91649514D01*
X154276167Y-91687609D01*
X154199976Y-91725704D01*
X153971405Y-91725704D01*
X153895214Y-91687609D01*
X153857119Y-91649514D01*
X142881390Y-116706657D02*
X142995676Y-116744752D01*
X143033771Y-116782847D01*
X143071866Y-116859038D01*
X143071866Y-116973323D01*
X143033771Y-117049514D01*
X142995676Y-117087609D01*
X142919485Y-117125704D01*
X142614723Y-117125704D01*
X142614723Y-116325704D01*
X142881390Y-116325704D01*
X142957580Y-116363800D01*
X142995676Y-116401895D01*
X143033771Y-116478085D01*
X143033771Y-116554276D01*
X142995676Y-116630466D01*
X142957580Y-116668561D01*
X142881390Y-116706657D01*
X142614723Y-116706657D01*
X143376628Y-116401895D02*
X143414723Y-116363800D01*
X143490914Y-116325704D01*
X143681390Y-116325704D01*
X143757580Y-116363800D01*
X143795676Y-116401895D01*
X143833771Y-116478085D01*
X143833771Y-116554276D01*
X143795676Y-116668561D01*
X143338533Y-117125704D01*
X143833771Y-117125704D01*
X142938533Y-109086657D02*
X142671866Y-109086657D01*
X142671866Y-109505704D02*
X142671866Y-108705704D01*
X143052819Y-108705704D01*
X143281390Y-108705704D02*
X143814723Y-108705704D01*
X143471866Y-109505704D01*
X142938533Y-106546657D02*
X142671866Y-106546657D01*
X142671866Y-106965704D02*
X142671866Y-106165704D01*
X143052819Y-106165704D01*
X143700438Y-106165704D02*
X143548057Y-106165704D01*
X143471866Y-106203800D01*
X143433771Y-106241895D01*
X143357580Y-106356180D01*
X143319485Y-106508561D01*
X143319485Y-106813323D01*
X143357580Y-106889514D01*
X143395676Y-106927609D01*
X143471866Y-106965704D01*
X143624247Y-106965704D01*
X143700438Y-106927609D01*
X143738533Y-106889514D01*
X143776628Y-106813323D01*
X143776628Y-106622847D01*
X143738533Y-106546657D01*
X143700438Y-106508561D01*
X143624247Y-106470466D01*
X143471866Y-106470466D01*
X143395676Y-106508561D01*
X143357580Y-106546657D01*
X143319485Y-106622847D01*
X142938533Y-104006657D02*
X142671866Y-104006657D01*
X142671866Y-104425704D02*
X142671866Y-103625704D01*
X143052819Y-103625704D01*
X143738533Y-103625704D02*
X143357580Y-103625704D01*
X143319485Y-104006657D01*
X143357580Y-103968561D01*
X143433771Y-103930466D01*
X143624247Y-103930466D01*
X143700438Y-103968561D01*
X143738533Y-104006657D01*
X143776628Y-104082847D01*
X143776628Y-104273323D01*
X143738533Y-104349514D01*
X143700438Y-104387609D01*
X143624247Y-104425704D01*
X143433771Y-104425704D01*
X143357580Y-104387609D01*
X143319485Y-104349514D01*
X142652819Y-91725704D02*
X142386152Y-91344752D01*
X142195676Y-91725704D02*
X142195676Y-90925704D01*
X142500438Y-90925704D01*
X142576628Y-90963800D01*
X142614723Y-91001895D01*
X142652819Y-91078085D01*
X142652819Y-91192371D01*
X142614723Y-91268561D01*
X142576628Y-91306657D01*
X142500438Y-91344752D01*
X142195676Y-91344752D01*
X142957580Y-91497133D02*
X143338533Y-91497133D01*
X142881390Y-91725704D02*
X143148057Y-90925704D01*
X143414723Y-91725704D01*
X143605200Y-90925704D02*
X143795676Y-91725704D01*
X143948057Y-91154276D01*
X144100438Y-91725704D01*
X144290914Y-90925704D01*
X142595676Y-93503800D02*
X142519485Y-93465704D01*
X142405200Y-93465704D01*
X142290914Y-93503800D01*
X142214723Y-93579990D01*
X142176628Y-93656180D01*
X142138533Y-93808561D01*
X142138533Y-93922847D01*
X142176628Y-94075228D01*
X142214723Y-94151419D01*
X142290914Y-94227609D01*
X142405200Y-94265704D01*
X142481390Y-94265704D01*
X142595676Y-94227609D01*
X142633771Y-94189514D01*
X142633771Y-93922847D01*
X142481390Y-93922847D01*
X142976628Y-94265704D02*
X142976628Y-93465704D01*
X143433771Y-94265704D01*
X143433771Y-93465704D01*
X143814723Y-94265704D02*
X143814723Y-93465704D01*
X144005200Y-93465704D01*
X144119485Y-93503800D01*
X144195676Y-93579990D01*
X144233771Y-93656180D01*
X144271866Y-93808561D01*
X144271866Y-93922847D01*
X144233771Y-94075228D01*
X144195676Y-94151419D01*
X144119485Y-94227609D01*
X144005200Y-94265704D01*
X143814723Y-94265704D01*
X142138533Y-98545704D02*
X142405200Y-99345704D01*
X142671866Y-98545704D01*
X143395676Y-99269514D02*
X143357580Y-99307609D01*
X143243295Y-99345704D01*
X143167104Y-99345704D01*
X143052819Y-99307609D01*
X142976628Y-99231419D01*
X142938533Y-99155228D01*
X142900438Y-99002847D01*
X142900438Y-98888561D01*
X142938533Y-98736180D01*
X142976628Y-98659990D01*
X143052819Y-98583800D01*
X143167104Y-98545704D01*
X143243295Y-98545704D01*
X143357580Y-98583800D01*
X143395676Y-98621895D01*
X144195676Y-99269514D02*
X144157580Y-99307609D01*
X144043295Y-99345704D01*
X143967104Y-99345704D01*
X143852819Y-99307609D01*
X143776628Y-99231419D01*
X143738533Y-99155228D01*
X143700438Y-99002847D01*
X143700438Y-98888561D01*
X143738533Y-98736180D01*
X143776628Y-98659990D01*
X143852819Y-98583800D01*
X143967104Y-98545704D01*
X144043295Y-98545704D01*
X144157580Y-98583800D01*
X144195676Y-98621895D01*
X142938533Y-101466657D02*
X142671866Y-101466657D01*
X142671866Y-101885704D02*
X142671866Y-101085704D01*
X143052819Y-101085704D01*
X143700438Y-101352371D02*
X143700438Y-101885704D01*
X143509961Y-101047609D02*
X143319485Y-101619038D01*
X143814723Y-101619038D01*
X142881390Y-111626657D02*
X142995676Y-111664752D01*
X143033771Y-111702847D01*
X143071866Y-111779038D01*
X143071866Y-111893323D01*
X143033771Y-111969514D01*
X142995676Y-112007609D01*
X142919485Y-112045704D01*
X142614723Y-112045704D01*
X142614723Y-111245704D01*
X142881390Y-111245704D01*
X142957580Y-111283800D01*
X142995676Y-111321895D01*
X143033771Y-111398085D01*
X143033771Y-111474276D01*
X142995676Y-111550466D01*
X142957580Y-111588561D01*
X142881390Y-111626657D01*
X142614723Y-111626657D01*
X143833771Y-112045704D02*
X143376628Y-112045704D01*
X143605200Y-112045704D02*
X143605200Y-111245704D01*
X143529009Y-111359990D01*
X143452819Y-111436180D01*
X143376628Y-111474276D01*
X142881390Y-114166657D02*
X142995676Y-114204752D01*
X143033771Y-114242847D01*
X143071866Y-114319038D01*
X143071866Y-114433323D01*
X143033771Y-114509514D01*
X142995676Y-114547609D01*
X142919485Y-114585704D01*
X142614723Y-114585704D01*
X142614723Y-113785704D01*
X142881390Y-113785704D01*
X142957580Y-113823800D01*
X142995676Y-113861895D01*
X143033771Y-113938085D01*
X143033771Y-114014276D01*
X142995676Y-114090466D01*
X142957580Y-114128561D01*
X142881390Y-114166657D01*
X142614723Y-114166657D01*
X143338533Y-113785704D02*
X143833771Y-113785704D01*
X143567104Y-114090466D01*
X143681390Y-114090466D01*
X143757580Y-114128561D01*
X143795676Y-114166657D01*
X143833771Y-114242847D01*
X143833771Y-114433323D01*
X143795676Y-114509514D01*
X143757580Y-114547609D01*
X143681390Y-114585704D01*
X143452819Y-114585704D01*
X143376628Y-114547609D01*
X143338533Y-114509514D01*
X142881390Y-119246657D02*
X142995676Y-119284752D01*
X143033771Y-119322847D01*
X143071866Y-119399038D01*
X143071866Y-119513323D01*
X143033771Y-119589514D01*
X142995676Y-119627609D01*
X142919485Y-119665704D01*
X142614723Y-119665704D01*
X142614723Y-118865704D01*
X142881390Y-118865704D01*
X142957580Y-118903800D01*
X142995676Y-118941895D01*
X143033771Y-119018085D01*
X143033771Y-119094276D01*
X142995676Y-119170466D01*
X142957580Y-119208561D01*
X142881390Y-119246657D01*
X142614723Y-119246657D01*
X143757580Y-118865704D02*
X143605200Y-118865704D01*
X143529009Y-118903800D01*
X143490914Y-118941895D01*
X143414723Y-119056180D01*
X143376628Y-119208561D01*
X143376628Y-119513323D01*
X143414723Y-119589514D01*
X143452819Y-119627609D01*
X143529009Y-119665704D01*
X143681390Y-119665704D01*
X143757580Y-119627609D01*
X143795676Y-119589514D01*
X143833771Y-119513323D01*
X143833771Y-119322847D01*
X143795676Y-119246657D01*
X143757580Y-119208561D01*
X143681390Y-119170466D01*
X143529009Y-119170466D01*
X143452819Y-119208561D01*
X143414723Y-119246657D01*
X143376628Y-119322847D01*
X153803390Y-119246657D02*
X153917676Y-119284752D01*
X153955771Y-119322847D01*
X153993866Y-119399038D01*
X153993866Y-119513323D01*
X153955771Y-119589514D01*
X153917676Y-119627609D01*
X153841485Y-119665704D01*
X153536723Y-119665704D01*
X153536723Y-118865704D01*
X153803390Y-118865704D01*
X153879580Y-118903800D01*
X153917676Y-118941895D01*
X153955771Y-119018085D01*
X153955771Y-119094276D01*
X153917676Y-119170466D01*
X153879580Y-119208561D01*
X153803390Y-119246657D01*
X153536723Y-119246657D01*
X154717676Y-118865704D02*
X154336723Y-118865704D01*
X154298628Y-119246657D01*
X154336723Y-119208561D01*
X154412914Y-119170466D01*
X154603390Y-119170466D01*
X154679580Y-119208561D01*
X154717676Y-119246657D01*
X154755771Y-119322847D01*
X154755771Y-119513323D01*
X154717676Y-119589514D01*
X154679580Y-119627609D01*
X154603390Y-119665704D01*
X154412914Y-119665704D01*
X154336723Y-119627609D01*
X154298628Y-119589514D01*
X153803390Y-116706657D02*
X153917676Y-116744752D01*
X153955771Y-116782847D01*
X153993866Y-116859038D01*
X153993866Y-116973323D01*
X153955771Y-117049514D01*
X153917676Y-117087609D01*
X153841485Y-117125704D01*
X153536723Y-117125704D01*
X153536723Y-116325704D01*
X153803390Y-116325704D01*
X153879580Y-116363800D01*
X153917676Y-116401895D01*
X153955771Y-116478085D01*
X153955771Y-116554276D01*
X153917676Y-116630466D01*
X153879580Y-116668561D01*
X153803390Y-116706657D01*
X153536723Y-116706657D01*
X154679580Y-116592371D02*
X154679580Y-117125704D01*
X154489104Y-116287609D02*
X154298628Y-116859038D01*
X154793866Y-116859038D01*
X153574819Y-114166657D02*
X153841485Y-114166657D01*
X153955771Y-114585704D02*
X153574819Y-114585704D01*
X153574819Y-113785704D01*
X153955771Y-113785704D01*
X154641485Y-113785704D02*
X154489104Y-113785704D01*
X154412914Y-113823800D01*
X154374819Y-113861895D01*
X154298628Y-113976180D01*
X154260533Y-114128561D01*
X154260533Y-114433323D01*
X154298628Y-114509514D01*
X154336723Y-114547609D01*
X154412914Y-114585704D01*
X154565295Y-114585704D01*
X154641485Y-114547609D01*
X154679580Y-114509514D01*
X154717676Y-114433323D01*
X154717676Y-114242847D01*
X154679580Y-114166657D01*
X154641485Y-114128561D01*
X154565295Y-114090466D01*
X154412914Y-114090466D01*
X154336723Y-114128561D01*
X154298628Y-114166657D01*
X154260533Y-114242847D01*
X153536723Y-112045704D02*
X153536723Y-111245704D01*
X153727200Y-111245704D01*
X153841485Y-111283800D01*
X153917676Y-111359990D01*
X153955771Y-111436180D01*
X153993866Y-111588561D01*
X153993866Y-111702847D01*
X153955771Y-111855228D01*
X153917676Y-111931419D01*
X153841485Y-112007609D01*
X153727200Y-112045704D01*
X153536723Y-112045704D01*
X154260533Y-111245704D02*
X154793866Y-111245704D01*
X154451009Y-112045704D01*
X153993866Y-109429514D02*
X153955771Y-109467609D01*
X153841485Y-109505704D01*
X153765295Y-109505704D01*
X153651009Y-109467609D01*
X153574819Y-109391419D01*
X153536723Y-109315228D01*
X153498628Y-109162847D01*
X153498628Y-109048561D01*
X153536723Y-108896180D01*
X153574819Y-108819990D01*
X153651009Y-108743800D01*
X153765295Y-108705704D01*
X153841485Y-108705704D01*
X153955771Y-108743800D01*
X153993866Y-108781895D01*
X154679580Y-108705704D02*
X154527200Y-108705704D01*
X154451009Y-108743800D01*
X154412914Y-108781895D01*
X154336723Y-108896180D01*
X154298628Y-109048561D01*
X154298628Y-109353323D01*
X154336723Y-109429514D01*
X154374819Y-109467609D01*
X154451009Y-109505704D01*
X154603390Y-109505704D01*
X154679580Y-109467609D01*
X154717676Y-109429514D01*
X154755771Y-109353323D01*
X154755771Y-109162847D01*
X154717676Y-109086657D01*
X154679580Y-109048561D01*
X154603390Y-109010466D01*
X154451009Y-109010466D01*
X154374819Y-109048561D01*
X154336723Y-109086657D01*
X154298628Y-109162847D01*
X153536723Y-106965704D02*
X153536723Y-106165704D01*
X153727200Y-106165704D01*
X153841485Y-106203800D01*
X153917676Y-106279990D01*
X153955771Y-106356180D01*
X153993866Y-106508561D01*
X153993866Y-106622847D01*
X153955771Y-106775228D01*
X153917676Y-106851419D01*
X153841485Y-106927609D01*
X153727200Y-106965704D01*
X153536723Y-106965704D01*
X154679580Y-106432371D02*
X154679580Y-106965704D01*
X154489104Y-106127609D02*
X154298628Y-106699038D01*
X154793866Y-106699038D01*
X153517676Y-96043800D02*
X153441485Y-96005704D01*
X153327200Y-96005704D01*
X153212914Y-96043800D01*
X153136723Y-96119990D01*
X153098628Y-96196180D01*
X153060533Y-96348561D01*
X153060533Y-96462847D01*
X153098628Y-96615228D01*
X153136723Y-96691419D01*
X153212914Y-96767609D01*
X153327200Y-96805704D01*
X153403390Y-96805704D01*
X153517676Y-96767609D01*
X153555771Y-96729514D01*
X153555771Y-96462847D01*
X153403390Y-96462847D01*
X153898628Y-96805704D02*
X153898628Y-96005704D01*
X154355771Y-96805704D01*
X154355771Y-96005704D01*
X154736723Y-96805704D02*
X154736723Y-96005704D01*
X154927200Y-96005704D01*
X155041485Y-96043800D01*
X155117676Y-96119990D01*
X155155771Y-96196180D01*
X155193866Y-96348561D01*
X155193866Y-96462847D01*
X155155771Y-96615228D01*
X155117676Y-96691419D01*
X155041485Y-96767609D01*
X154927200Y-96805704D01*
X154736723Y-96805704D01*
X153517676Y-98583800D02*
X153441485Y-98545704D01*
X153327200Y-98545704D01*
X153212914Y-98583800D01*
X153136723Y-98659990D01*
X153098628Y-98736180D01*
X153060533Y-98888561D01*
X153060533Y-99002847D01*
X153098628Y-99155228D01*
X153136723Y-99231419D01*
X153212914Y-99307609D01*
X153327200Y-99345704D01*
X153403390Y-99345704D01*
X153517676Y-99307609D01*
X153555771Y-99269514D01*
X153555771Y-99002847D01*
X153403390Y-99002847D01*
X153898628Y-99345704D02*
X153898628Y-98545704D01*
X154355771Y-99345704D01*
X154355771Y-98545704D01*
X154736723Y-99345704D02*
X154736723Y-98545704D01*
X154927200Y-98545704D01*
X155041485Y-98583800D01*
X155117676Y-98659990D01*
X155155771Y-98736180D01*
X155193866Y-98888561D01*
X155193866Y-99002847D01*
X155155771Y-99155228D01*
X155117676Y-99231419D01*
X155041485Y-99307609D01*
X154927200Y-99345704D01*
X154736723Y-99345704D01*
X153536723Y-101885704D02*
X153536723Y-101085704D01*
X153727200Y-101085704D01*
X153841485Y-101123800D01*
X153917676Y-101199990D01*
X153955771Y-101276180D01*
X153993866Y-101428561D01*
X153993866Y-101542847D01*
X153955771Y-101695228D01*
X153917676Y-101771419D01*
X153841485Y-101847609D01*
X153727200Y-101885704D01*
X153536723Y-101885704D01*
X154755771Y-101885704D02*
X154298628Y-101885704D01*
X154527200Y-101885704D02*
X154527200Y-101085704D01*
X154451009Y-101199990D01*
X154374819Y-101276180D01*
X154298628Y-101314276D01*
X153536723Y-104425704D02*
X153536723Y-103625704D01*
X153727200Y-103625704D01*
X153841485Y-103663800D01*
X153917676Y-103739990D01*
X153955771Y-103816180D01*
X153993866Y-103968561D01*
X153993866Y-104082847D01*
X153955771Y-104235228D01*
X153917676Y-104311419D01*
X153841485Y-104387609D01*
X153727200Y-104425704D01*
X153536723Y-104425704D01*
X154489104Y-103625704D02*
X154565295Y-103625704D01*
X154641485Y-103663800D01*
X154679580Y-103701895D01*
X154717676Y-103778085D01*
X154755771Y-103930466D01*
X154755771Y-104120942D01*
X154717676Y-104273323D01*
X154679580Y-104349514D01*
X154641485Y-104387609D01*
X154565295Y-104425704D01*
X154489104Y-104425704D01*
X154412914Y-104387609D01*
X154374819Y-104349514D01*
X154336723Y-104273323D01*
X154298628Y-104120942D01*
X154298628Y-103930466D01*
X154336723Y-103778085D01*
X154374819Y-103701895D01*
X154412914Y-103663800D01*
X154489104Y-103625704D01*
X153536723Y-94265704D02*
X153536723Y-93465704D01*
X153727200Y-93465704D01*
X153841485Y-93503800D01*
X153917676Y-93579990D01*
X153955771Y-93656180D01*
X153993866Y-93808561D01*
X153993866Y-93922847D01*
X153955771Y-94075228D01*
X153917676Y-94151419D01*
X153841485Y-94227609D01*
X153727200Y-94265704D01*
X153536723Y-94265704D01*
X154298628Y-93541895D02*
X154336723Y-93503800D01*
X154412914Y-93465704D01*
X154603390Y-93465704D01*
X154679580Y-93503800D01*
X154717676Y-93541895D01*
X154755771Y-93618085D01*
X154755771Y-93694276D01*
X154717676Y-93808561D01*
X154260533Y-94265704D01*
X154755771Y-94265704D01*
D12*
X134573122Y-103048899D02*
X134687886Y-102854255D01*
X134781801Y-102503762D01*
X134760951Y-102347913D01*
X134721318Y-102262162D01*
X134623270Y-102160758D01*
X134506439Y-102129453D01*
X134370825Y-102168247D01*
X134293627Y-102222693D01*
X134197645Y-102347238D01*
X134064098Y-102611980D01*
X133968117Y-102736525D01*
X133890919Y-102790971D01*
X133755305Y-102829765D01*
X133638474Y-102798460D01*
X133540426Y-102697057D01*
X133500793Y-102611306D01*
X133479943Y-102455456D01*
X133573858Y-102104963D01*
X133688622Y-101910320D01*
X133761686Y-101403977D02*
X135082326Y-101382184D01*
X134281225Y-100867004D01*
X135232589Y-100821395D01*
X134099778Y-100142202D01*
X135009443Y-99784894D02*
X135309968Y-98663316D01*
X136190516Y-97246366D02*
X135474880Y-97580532D01*
X135965121Y-98087549D02*
X134738395Y-97758849D01*
X134888658Y-97198060D01*
X134984640Y-97073515D01*
X135061838Y-97019069D01*
X135197452Y-96980275D01*
X135372698Y-97027232D01*
X135470747Y-97128636D01*
X135510379Y-97214387D01*
X135531229Y-97370236D01*
X135380966Y-97931025D01*
X136282363Y-96669925D02*
X136397127Y-96475281D01*
X136491041Y-96124788D01*
X136470192Y-95968938D01*
X136430559Y-95883187D01*
X136332511Y-95781784D01*
X136215680Y-95750479D01*
X136080066Y-95789273D01*
X136002868Y-95843719D01*
X135906886Y-95968264D01*
X135773339Y-96233006D01*
X135677358Y-96357551D01*
X135600160Y-96411997D01*
X135464546Y-96450791D01*
X135347715Y-96419486D01*
X135249667Y-96318083D01*
X135210034Y-96232332D01*
X135189184Y-96076482D01*
X135283099Y-95725989D01*
X135397863Y-95531346D01*
X135452144Y-95095102D02*
X135677539Y-94253918D01*
X136791567Y-95003210D02*
X135564842Y-94674510D01*
X137242356Y-93320843D02*
X137016962Y-94162027D01*
X137129659Y-93741435D02*
X135902933Y-93412735D01*
X136040614Y-93599889D01*
X136119879Y-93771391D01*
X136140729Y-93927241D01*
X211109337Y-108465506D02*
X210780637Y-107238780D01*
X211131130Y-107144866D01*
X211357079Y-107146933D01*
X211528581Y-107226198D01*
X211629984Y-107324247D01*
X211762692Y-107539126D01*
X211809649Y-107714372D01*
X211802160Y-107966817D01*
X211763366Y-108102431D01*
X211654474Y-108256828D01*
X211459831Y-108371592D01*
X211109337Y-108465506D01*
X212651507Y-108052283D02*
X212931901Y-107977152D01*
X213056446Y-107881170D01*
X213110893Y-107803972D01*
X213204133Y-107591160D01*
X213211622Y-107338715D01*
X213086403Y-106871391D01*
X212984999Y-106773343D01*
X212899248Y-106733710D01*
X212743399Y-106712860D01*
X212463004Y-106787992D01*
X212338459Y-106883973D01*
X212284013Y-106961171D01*
X212245219Y-107096785D01*
X212323481Y-107388863D01*
X212424885Y-107486911D01*
X212510636Y-107526544D01*
X212666485Y-107547393D01*
X212946880Y-107472262D01*
X213071424Y-107376281D01*
X213125871Y-107299082D01*
X213164665Y-107163468D01*
X213858162Y-107228085D02*
X214979740Y-106927559D01*
X216217699Y-106220191D02*
X216436832Y-107038008D01*
X215741987Y-105846781D02*
X215626279Y-106816928D01*
X216537561Y-106572751D01*
X206161700Y-90076487D02*
X205833000Y-88849761D01*
X206183493Y-88755847D01*
X206409442Y-88757914D01*
X206580944Y-88837179D01*
X206682347Y-88935228D01*
X206815055Y-89150107D01*
X206862012Y-89325353D01*
X206854523Y-89577798D01*
X206815729Y-89713412D01*
X206706837Y-89867809D01*
X206512194Y-89982573D01*
X206161700Y-90076487D01*
X207703870Y-89663264D02*
X207984264Y-89588133D01*
X208108809Y-89492151D01*
X208163256Y-89414953D01*
X208256496Y-89202141D01*
X208263985Y-88949696D01*
X208138766Y-88482372D01*
X208037362Y-88384324D01*
X207951611Y-88344691D01*
X207795762Y-88323841D01*
X207515367Y-88398973D01*
X207390822Y-88494954D01*
X207336376Y-88572152D01*
X207297582Y-88707766D01*
X207375844Y-88999844D01*
X207477248Y-89097892D01*
X207562999Y-89137525D01*
X207718848Y-89158374D01*
X207999243Y-89083243D01*
X208123787Y-88987262D01*
X208178234Y-88910063D01*
X208217028Y-88774449D01*
X208910525Y-88839066D02*
X210032103Y-88538540D01*
X210389410Y-87628875D02*
X211300692Y-87384698D01*
X210935221Y-87983502D01*
X211145517Y-87927153D01*
X211301367Y-87948003D01*
X211387118Y-87987636D01*
X211488521Y-88085684D01*
X211566783Y-88377762D01*
X211527989Y-88513375D01*
X211473543Y-88590574D01*
X211348998Y-88686555D01*
X210928406Y-88799252D01*
X210772557Y-88778403D01*
X210686806Y-88738770D01*
X201005500Y-72067887D02*
X200676800Y-70841161D01*
X201027293Y-70747247D01*
X201253242Y-70749314D01*
X201424744Y-70828579D01*
X201526147Y-70926628D01*
X201658855Y-71141507D01*
X201705812Y-71316753D01*
X201698323Y-71569198D01*
X201659529Y-71704812D01*
X201550637Y-71859209D01*
X201355994Y-71973973D01*
X201005500Y-72067887D01*
X202547670Y-71654664D02*
X202828064Y-71579533D01*
X202952609Y-71483551D01*
X203007056Y-71406353D01*
X203100296Y-71193541D01*
X203107785Y-70941096D01*
X202982566Y-70473772D01*
X202881162Y-70375724D01*
X202795411Y-70336091D01*
X202639562Y-70315241D01*
X202359167Y-70390373D01*
X202234622Y-70486354D01*
X202180176Y-70563552D01*
X202141382Y-70699166D01*
X202219644Y-70991244D01*
X202321048Y-71089292D01*
X202406799Y-71128925D01*
X202562648Y-71149774D01*
X202843043Y-71074643D01*
X202967587Y-70978662D01*
X203022034Y-70901463D01*
X203060828Y-70765849D01*
X203754325Y-70830466D02*
X204875903Y-70529940D01*
X205334614Y-69718323D02*
X205389060Y-69641125D01*
X205513605Y-69545144D01*
X205864098Y-69451229D01*
X206019948Y-69472079D01*
X206105699Y-69511712D01*
X206207102Y-69609760D01*
X206238407Y-69726591D01*
X206215265Y-69920620D01*
X205561911Y-70847001D01*
X206473193Y-70602824D01*
X196458900Y-53246487D02*
X196130200Y-52019761D01*
X196480693Y-51925847D01*
X196706642Y-51927914D01*
X196878144Y-52007179D01*
X196979547Y-52105228D01*
X197112255Y-52320107D01*
X197159212Y-52495353D01*
X197151723Y-52747798D01*
X197112929Y-52883412D01*
X197004037Y-53037809D01*
X196809394Y-53152573D01*
X196458900Y-53246487D01*
X198001070Y-52833264D02*
X198281464Y-52758133D01*
X198406009Y-52662151D01*
X198460456Y-52584953D01*
X198553696Y-52372141D01*
X198561185Y-52119696D01*
X198435966Y-51652372D01*
X198334562Y-51554324D01*
X198248811Y-51514691D01*
X198092962Y-51493841D01*
X197812567Y-51568973D01*
X197688022Y-51664954D01*
X197633576Y-51742152D01*
X197594782Y-51877766D01*
X197673044Y-52169844D01*
X197774448Y-52267892D01*
X197860199Y-52307525D01*
X198016048Y-52328374D01*
X198296443Y-52253243D01*
X198420987Y-52157262D01*
X198475434Y-52080063D01*
X198514228Y-51944449D01*
X199207725Y-52009066D02*
X200329303Y-51708540D01*
X201926593Y-51781424D02*
X201085409Y-52006818D01*
X201506001Y-51894121D02*
X201177301Y-50667395D01*
X201084061Y-50880207D01*
X200975168Y-51034604D01*
X200850623Y-51130585D01*
X194807900Y-117610087D02*
X194479200Y-116383361D01*
X194829693Y-116289447D01*
X195055642Y-116291514D01*
X195227144Y-116370779D01*
X195328547Y-116468828D01*
X195461255Y-116683707D01*
X195508212Y-116858953D01*
X195500723Y-117111398D01*
X195461929Y-117247012D01*
X195353037Y-117401409D01*
X195158394Y-117516173D01*
X194807900Y-117610087D01*
X196302439Y-116458312D02*
X196146589Y-116437463D01*
X196060838Y-116397830D01*
X195959435Y-116299782D01*
X195943782Y-116241366D01*
X195982576Y-116105752D01*
X196037022Y-116028554D01*
X196161567Y-115932573D01*
X196441962Y-115857441D01*
X196597811Y-115878291D01*
X196683562Y-115917924D01*
X196784966Y-116015972D01*
X196800618Y-116074387D01*
X196761824Y-116210001D01*
X196707378Y-116287200D01*
X196582833Y-116383181D01*
X196302439Y-116458312D01*
X196177894Y-116554294D01*
X196123448Y-116631492D01*
X196084654Y-116767106D01*
X196147263Y-117000768D01*
X196248667Y-117098816D01*
X196334418Y-117138449D01*
X196490267Y-117159298D01*
X196770662Y-117084167D01*
X196895207Y-116988186D01*
X196949653Y-116910987D01*
X196988447Y-116775373D01*
X196925837Y-116541711D01*
X196824434Y-116443663D01*
X196738683Y-116404031D01*
X196582833Y-116383181D01*
X197556725Y-116372666D02*
X198678303Y-116072140D01*
X199916262Y-115364772D02*
X200135395Y-116182589D01*
X199440550Y-114991362D02*
X199324842Y-115961509D01*
X200236124Y-115717332D01*
X190746723Y-99419188D02*
X190418023Y-98192462D01*
X190768516Y-98098548D01*
X190994465Y-98100615D01*
X191165967Y-98179880D01*
X191267370Y-98277929D01*
X191400078Y-98492808D01*
X191447035Y-98668054D01*
X191439546Y-98920499D01*
X191400752Y-99056113D01*
X191291860Y-99210510D01*
X191097217Y-99325274D01*
X190746723Y-99419188D01*
X192241262Y-98267413D02*
X192085412Y-98246564D01*
X191999661Y-98206931D01*
X191898258Y-98108883D01*
X191882605Y-98050467D01*
X191921399Y-97914853D01*
X191975845Y-97837655D01*
X192100390Y-97741674D01*
X192380785Y-97666542D01*
X192536634Y-97687392D01*
X192622385Y-97727025D01*
X192723789Y-97825073D01*
X192739441Y-97883488D01*
X192700647Y-98019102D01*
X192646201Y-98096301D01*
X192521656Y-98192282D01*
X192241262Y-98267413D01*
X192116717Y-98363395D01*
X192062271Y-98440593D01*
X192023477Y-98576207D01*
X192086086Y-98809869D01*
X192187490Y-98907917D01*
X192273241Y-98947550D01*
X192429090Y-98968399D01*
X192709485Y-98893268D01*
X192834030Y-98797287D01*
X192888476Y-98720088D01*
X192927270Y-98584474D01*
X192864660Y-98350812D01*
X192763257Y-98252764D01*
X192677506Y-98213132D01*
X192521656Y-98192282D01*
X193495548Y-98181767D02*
X194617126Y-97881241D01*
X194974433Y-96971576D02*
X195885715Y-96727399D01*
X195520244Y-97326203D01*
X195730540Y-97269854D01*
X195886390Y-97290704D01*
X195972141Y-97330337D01*
X196073544Y-97428385D01*
X196151806Y-97720463D01*
X196113012Y-97856076D01*
X196058566Y-97933275D01*
X195934021Y-98029256D01*
X195513429Y-98141953D01*
X195357580Y-98121104D01*
X195271829Y-98081471D01*
X184927300Y-80957887D02*
X184598600Y-79731161D01*
X184949093Y-79637247D01*
X185175042Y-79639314D01*
X185346544Y-79718579D01*
X185447947Y-79816628D01*
X185580655Y-80031507D01*
X185627612Y-80206753D01*
X185620123Y-80459198D01*
X185581329Y-80594812D01*
X185472437Y-80749209D01*
X185277794Y-80863973D01*
X184927300Y-80957887D01*
X186421839Y-79806112D02*
X186265989Y-79785263D01*
X186180238Y-79745630D01*
X186078835Y-79647582D01*
X186063182Y-79589166D01*
X186101976Y-79453552D01*
X186156422Y-79376354D01*
X186280967Y-79280373D01*
X186561362Y-79205241D01*
X186717211Y-79226091D01*
X186802962Y-79265724D01*
X186904366Y-79363772D01*
X186920018Y-79422187D01*
X186881224Y-79557801D01*
X186826778Y-79635000D01*
X186702233Y-79730981D01*
X186421839Y-79806112D01*
X186297294Y-79902094D01*
X186242848Y-79979292D01*
X186204054Y-80114906D01*
X186266663Y-80348568D01*
X186368067Y-80446616D01*
X186453818Y-80486249D01*
X186609667Y-80507098D01*
X186890062Y-80431967D01*
X187014607Y-80335986D01*
X187069053Y-80258787D01*
X187107847Y-80123173D01*
X187045237Y-79889511D01*
X186943834Y-79791463D01*
X186858083Y-79751831D01*
X186702233Y-79730981D01*
X187676125Y-79720466D02*
X188797703Y-79419940D01*
X189256414Y-78608323D02*
X189310860Y-78531125D01*
X189435405Y-78435144D01*
X189785898Y-78341229D01*
X189941748Y-78362079D01*
X190027499Y-78401712D01*
X190128902Y-78499760D01*
X190160207Y-78616591D01*
X190137065Y-78810620D01*
X189483711Y-79737001D01*
X190394993Y-79492824D01*
X179796500Y-62923887D02*
X179467800Y-61697161D01*
X179818293Y-61603247D01*
X180044242Y-61605314D01*
X180215744Y-61684579D01*
X180317147Y-61782628D01*
X180449855Y-61997507D01*
X180496812Y-62172753D01*
X180489323Y-62425198D01*
X180450529Y-62560812D01*
X180341637Y-62715209D01*
X180146994Y-62829973D01*
X179796500Y-62923887D01*
X181291039Y-61772112D02*
X181135189Y-61751263D01*
X181049438Y-61711630D01*
X180948035Y-61613582D01*
X180932382Y-61555166D01*
X180971176Y-61419552D01*
X181025622Y-61342354D01*
X181150167Y-61246373D01*
X181430562Y-61171241D01*
X181586411Y-61192091D01*
X181672162Y-61231724D01*
X181773566Y-61329772D01*
X181789218Y-61388187D01*
X181750424Y-61523801D01*
X181695978Y-61601000D01*
X181571433Y-61696981D01*
X181291039Y-61772112D01*
X181166494Y-61868094D01*
X181112048Y-61945292D01*
X181073254Y-62080906D01*
X181135863Y-62314568D01*
X181237267Y-62412616D01*
X181323018Y-62452249D01*
X181478867Y-62473098D01*
X181759262Y-62397967D01*
X181883807Y-62301986D01*
X181938253Y-62224787D01*
X181977047Y-62089173D01*
X181914437Y-61855511D01*
X181813034Y-61757463D01*
X181727283Y-61717831D01*
X181571433Y-61696981D01*
X182545325Y-61686466D02*
X183666903Y-61385940D01*
X185264193Y-61458824D02*
X184423009Y-61684218D01*
X184843601Y-61571521D02*
X184514901Y-60344795D01*
X184421661Y-60557607D01*
X184312768Y-60712004D01*
X184188223Y-60807985D01*
X176850100Y-127592287D02*
X176521400Y-126365561D01*
X176871893Y-126271647D01*
X177097842Y-126273714D01*
X177269344Y-126352979D01*
X177370747Y-126451028D01*
X177503455Y-126665907D01*
X177550412Y-126841153D01*
X177542923Y-127093598D01*
X177504129Y-127229212D01*
X177395237Y-127383609D01*
X177200594Y-127498373D01*
X176850100Y-127592287D01*
X177853274Y-126008687D02*
X178834655Y-125745727D01*
X178532467Y-127141498D01*
X179598925Y-126354866D02*
X180720503Y-126054340D01*
X181958462Y-125346972D02*
X182177595Y-126164789D01*
X181482750Y-124973562D02*
X181367042Y-125943709D01*
X182278324Y-125699532D01*
X173040100Y-109024887D02*
X172711400Y-107798161D01*
X173061893Y-107704247D01*
X173287842Y-107706314D01*
X173459344Y-107785579D01*
X173560747Y-107883628D01*
X173693455Y-108098507D01*
X173740412Y-108273753D01*
X173732923Y-108526198D01*
X173694129Y-108661812D01*
X173585237Y-108816209D01*
X173390594Y-108930973D01*
X173040100Y-109024887D01*
X174043274Y-107441287D02*
X175024655Y-107178327D01*
X174722467Y-108574098D01*
X175788925Y-107787466D02*
X176910503Y-107486940D01*
X177267810Y-106577275D02*
X178179092Y-106333098D01*
X177813621Y-106931902D01*
X178023917Y-106875553D01*
X178179767Y-106896403D01*
X178265518Y-106936036D01*
X178366921Y-107034084D01*
X178445183Y-107326162D01*
X178406389Y-107461775D01*
X178351943Y-107538974D01*
X178227398Y-107634955D01*
X177806806Y-107747652D01*
X177650957Y-107726803D01*
X177565206Y-107687170D01*
X167706100Y-90559087D02*
X167377400Y-89332361D01*
X167727893Y-89238447D01*
X167953842Y-89240514D01*
X168125344Y-89319779D01*
X168226747Y-89417828D01*
X168359455Y-89632707D01*
X168406412Y-89807953D01*
X168398923Y-90060398D01*
X168360129Y-90196012D01*
X168251237Y-90350409D01*
X168056594Y-90465173D01*
X167706100Y-90559087D01*
X168709274Y-88975487D02*
X169690655Y-88712527D01*
X169388467Y-90108298D01*
X170454925Y-89321666D02*
X171576503Y-89021140D01*
X172035214Y-88209523D02*
X172089660Y-88132325D01*
X172214205Y-88036344D01*
X172564698Y-87942429D01*
X172720548Y-87963279D01*
X172806299Y-88002912D01*
X172907702Y-88100960D01*
X172939007Y-88217791D01*
X172915865Y-88411820D01*
X172262511Y-89338201D01*
X173173793Y-89094024D01*
X162956300Y-72042487D02*
X162627600Y-70815761D01*
X162978093Y-70721847D01*
X163204042Y-70723914D01*
X163375544Y-70803179D01*
X163476947Y-70901228D01*
X163609655Y-71116107D01*
X163656612Y-71291353D01*
X163649123Y-71543798D01*
X163610329Y-71679412D01*
X163501437Y-71833809D01*
X163306794Y-71948573D01*
X162956300Y-72042487D01*
X163959474Y-70458887D02*
X164940855Y-70195927D01*
X164638667Y-71591698D01*
X165705125Y-70805066D02*
X166826703Y-70504540D01*
X168423993Y-70577424D02*
X167582809Y-70802818D01*
X168003401Y-70690121D02*
X167674701Y-69463395D01*
X167581461Y-69676207D01*
X167472568Y-69830604D01*
X167348023Y-69926585D01*
X126636017Y-153654180D02*
X126201651Y-152460770D01*
X126542626Y-152336665D01*
X126767894Y-152319032D01*
X126945652Y-152383048D01*
X127055215Y-152471885D01*
X127206146Y-152674381D01*
X127268198Y-152844868D01*
X127282740Y-153097005D01*
X127255913Y-153235484D01*
X127160892Y-153398783D01*
X126976991Y-153530075D01*
X126636017Y-153654180D01*
X128247497Y-151716143D02*
X127974717Y-151815427D01*
X127859012Y-151921898D01*
X127811501Y-152003548D01*
X127737163Y-152223676D01*
X127751705Y-152475813D01*
X127917177Y-152930446D01*
X128026740Y-153019283D01*
X128115619Y-153051291D01*
X128272693Y-153058478D01*
X128545472Y-152959195D01*
X128661178Y-152852724D01*
X128708689Y-152771074D01*
X128735515Y-152632595D01*
X128632095Y-152348450D01*
X128522532Y-152259613D01*
X128433653Y-152227604D01*
X128276579Y-152220417D01*
X128003800Y-152319701D01*
X127888095Y-152426172D01*
X127840584Y-152507822D01*
X127813757Y-152646300D01*
X129266533Y-152181891D02*
X130357650Y-151784757D01*
X130634316Y-150847412D02*
X131520849Y-150524740D01*
X131208957Y-151153119D01*
X131413542Y-151078656D01*
X131570616Y-151085844D01*
X131659495Y-151117852D01*
X131769058Y-151206689D01*
X131872478Y-151490834D01*
X131845651Y-151629313D01*
X131798140Y-151710963D01*
X131682435Y-151817434D01*
X131273266Y-151966359D01*
X131116192Y-151959172D01*
X131027313Y-151927164D01*
X152372000Y-149139471D02*
X152806365Y-147946061D01*
X153147339Y-148070166D01*
X153331240Y-148201458D01*
X153426261Y-148364757D01*
X153453088Y-148503236D01*
X153438547Y-148755373D01*
X153376494Y-148925860D01*
X153225563Y-149128356D01*
X153116000Y-149217193D01*
X152938242Y-149281209D01*
X152712974Y-149263575D01*
X152372000Y-149139471D01*
X154852210Y-148690688D02*
X154579431Y-148591405D01*
X154422357Y-148598592D01*
X154333478Y-148630600D01*
X154135036Y-148751445D01*
X153984105Y-148953940D01*
X153818633Y-149408573D01*
X153845459Y-149547052D01*
X153892970Y-149628702D01*
X154008676Y-149735172D01*
X154281455Y-149834456D01*
X154438529Y-149827269D01*
X154527408Y-149795261D01*
X154636971Y-149706423D01*
X154740391Y-149422278D01*
X154713564Y-149283799D01*
X154666054Y-149202149D01*
X154550348Y-149095679D01*
X154277569Y-148996395D01*
X154120495Y-149003582D01*
X154031616Y-149035590D01*
X153922053Y-149124428D01*
X155333460Y-149702495D02*
X156424578Y-150099630D01*
X157265856Y-149697898D02*
X157354735Y-149665890D01*
X157511809Y-149658703D01*
X157852783Y-149782807D01*
X157968489Y-149889278D01*
X158015999Y-149970928D01*
X158042826Y-150109407D01*
X158001458Y-150223065D01*
X157871211Y-150368731D01*
X156804664Y-150752829D01*
X157691197Y-151075500D01*
X170224291Y-155321754D02*
X170658656Y-154128344D01*
X170999630Y-154252449D01*
X171183531Y-154383741D01*
X171278552Y-154547040D01*
X171305379Y-154685519D01*
X171290838Y-154937656D01*
X171228785Y-155108143D01*
X171077854Y-155310639D01*
X170968291Y-155399476D01*
X170790533Y-155463492D01*
X170565265Y-155445858D01*
X170224291Y-155321754D01*
X172704501Y-154872971D02*
X172431722Y-154773688D01*
X172274648Y-154780875D01*
X172185769Y-154812883D01*
X171987327Y-154933728D01*
X171836396Y-155136223D01*
X171670924Y-155590856D01*
X171697750Y-155729335D01*
X171745261Y-155810985D01*
X171860967Y-155917455D01*
X172133746Y-156016739D01*
X172290820Y-156009552D01*
X172379699Y-155977544D01*
X172489262Y-155888706D01*
X172592682Y-155604561D01*
X172565855Y-155466082D01*
X172518345Y-155384432D01*
X172402639Y-155277962D01*
X172129860Y-155178678D01*
X171972786Y-155185865D01*
X171883907Y-155217873D01*
X171774344Y-155306711D01*
X173185751Y-155884778D02*
X174276869Y-156281913D01*
X175543488Y-157257783D02*
X174725150Y-156959933D01*
X175134319Y-157108858D02*
X175568684Y-155915448D01*
X175370242Y-156036294D01*
X175192485Y-156100310D01*
X175035411Y-156107497D01*
X112798705Y-126679406D02*
X113127405Y-125452681D01*
X113477898Y-125546595D01*
X113672542Y-125661359D01*
X113781434Y-125815756D01*
X113820228Y-125951370D01*
X113827717Y-126203815D01*
X113780760Y-126379061D01*
X113648052Y-126593940D01*
X113546648Y-126691989D01*
X113375146Y-126771254D01*
X113149198Y-126773321D01*
X112798705Y-126679406D01*
X115300462Y-126034950D02*
X114599476Y-125847121D01*
X114372854Y-126412493D01*
X114458605Y-126372861D01*
X114614454Y-126352011D01*
X114964947Y-126445925D01*
X115089492Y-126541906D01*
X115143938Y-126619105D01*
X115182732Y-126754719D01*
X115104470Y-127046796D01*
X115003067Y-127144844D01*
X114917316Y-127184477D01*
X114761466Y-127205327D01*
X114410973Y-127111412D01*
X114286428Y-127015431D01*
X114231982Y-126938233D01*
X115797967Y-126982180D02*
X116919545Y-127282706D01*
X118345333Y-127289087D02*
X118126200Y-128106904D01*
X118120059Y-126727849D02*
X117534780Y-127510167D01*
X118446063Y-127754344D01*
X118183505Y-108137406D02*
X118512205Y-106910681D01*
X118862698Y-107004595D01*
X119057342Y-107119359D01*
X119166234Y-107273756D01*
X119205028Y-107409370D01*
X119212517Y-107661815D01*
X119165560Y-107837061D01*
X119032852Y-108051940D01*
X118931448Y-108149989D01*
X118759946Y-108229254D01*
X118533998Y-108231321D01*
X118183505Y-108137406D01*
X120685262Y-107492950D02*
X119984276Y-107305121D01*
X119757654Y-107870493D01*
X119843405Y-107830861D01*
X119999254Y-107810011D01*
X120349747Y-107903925D01*
X120474292Y-107999906D01*
X120528738Y-108077105D01*
X120567532Y-108212719D01*
X120489270Y-108504796D01*
X120387867Y-108602844D01*
X120302116Y-108642477D01*
X120146266Y-108663327D01*
X119795773Y-108569412D01*
X119671228Y-108473431D01*
X119616782Y-108396233D01*
X121182767Y-108440180D02*
X122304345Y-108740706D01*
X123068615Y-108131567D02*
X123979897Y-108375744D01*
X123363988Y-108711588D01*
X123574284Y-108767937D01*
X123698829Y-108863918D01*
X123753275Y-108941117D01*
X123792069Y-109076731D01*
X123713807Y-109368808D01*
X123612403Y-109466856D01*
X123526652Y-109506489D01*
X123370803Y-109527339D01*
X122950211Y-109414641D01*
X122825666Y-109318660D01*
X122771220Y-109241462D01*
X123517505Y-89697006D02*
X123846205Y-88470281D01*
X124196698Y-88564195D01*
X124391342Y-88678959D01*
X124500234Y-88833356D01*
X124539028Y-88968970D01*
X124546517Y-89221415D01*
X124499560Y-89396661D01*
X124366852Y-89611540D01*
X124265448Y-89709589D01*
X124093946Y-89788854D01*
X123867998Y-89790921D01*
X123517505Y-89697006D01*
X126019262Y-89052550D02*
X125318276Y-88864721D01*
X125091654Y-89430093D01*
X125177405Y-89390461D01*
X125333254Y-89369611D01*
X125683747Y-89463525D01*
X125808292Y-89559506D01*
X125862738Y-89636705D01*
X125901532Y-89772319D01*
X125823270Y-90064396D01*
X125721867Y-90162444D01*
X125636116Y-90202077D01*
X125480266Y-90222927D01*
X125129773Y-90129012D01*
X125005228Y-90033031D01*
X124950782Y-89955833D01*
X126516767Y-89999780D02*
X127638345Y-90300306D01*
X128441409Y-89826781D02*
X128527160Y-89787148D01*
X128683010Y-89766299D01*
X129033503Y-89860213D01*
X129158048Y-89956194D01*
X129212494Y-90033393D01*
X129251288Y-90169006D01*
X129219983Y-90285837D01*
X129102927Y-90442301D01*
X128073915Y-90917893D01*
X128985197Y-91162070D01*
X127835505Y-71231206D02*
X128164205Y-70004481D01*
X128514698Y-70098395D01*
X128709342Y-70213159D01*
X128818234Y-70367556D01*
X128857028Y-70503170D01*
X128864517Y-70755615D01*
X128817560Y-70930861D01*
X128684852Y-71145740D01*
X128583448Y-71243789D01*
X128411946Y-71323054D01*
X128185998Y-71325121D01*
X127835505Y-71231206D01*
X130337262Y-70586750D02*
X129636276Y-70398921D01*
X129409654Y-70964293D01*
X129495405Y-70924661D01*
X129651254Y-70903811D01*
X130001747Y-70997725D01*
X130126292Y-71093706D01*
X130180738Y-71170905D01*
X130219532Y-71306519D01*
X130141270Y-71598596D01*
X130039867Y-71696644D01*
X129954116Y-71736277D01*
X129798266Y-71757127D01*
X129447773Y-71663212D01*
X129323228Y-71567231D01*
X129268782Y-71490033D01*
X130834767Y-71533980D02*
X131956345Y-71834506D01*
X133303197Y-72696270D02*
X132462014Y-72470876D01*
X132882605Y-72583573D02*
X133211306Y-71356847D01*
X133024151Y-71494528D01*
X132852649Y-71573793D01*
X132696800Y-71594643D01*
X96085505Y-116925806D02*
X96414205Y-115699081D01*
X96764698Y-115792995D01*
X96959342Y-115907759D01*
X97068234Y-116062156D01*
X97107028Y-116197770D01*
X97114517Y-116450215D01*
X97067560Y-116625461D01*
X96934852Y-116840340D01*
X96833448Y-116938389D01*
X96661946Y-117017654D01*
X96435998Y-117019721D01*
X96085505Y-116925806D01*
X98407597Y-116671475D02*
X98188464Y-117489293D01*
X98182323Y-116110237D02*
X97597044Y-116892555D01*
X98508326Y-117136733D01*
X99084767Y-117228580D02*
X100206345Y-117529106D01*
X101632133Y-117535487D02*
X101413000Y-118353304D01*
X101406859Y-116974249D02*
X100821580Y-117756567D01*
X101732863Y-118000744D01*
X100962305Y-98434606D02*
X101291005Y-97207881D01*
X101641498Y-97301795D01*
X101836142Y-97416559D01*
X101945034Y-97570956D01*
X101983828Y-97706570D01*
X101991317Y-97959015D01*
X101944360Y-98134261D01*
X101811652Y-98349140D01*
X101710248Y-98447189D01*
X101538746Y-98526454D01*
X101312798Y-98528521D01*
X100962305Y-98434606D01*
X103284397Y-98180275D02*
X103065264Y-98998093D01*
X103059123Y-97619037D02*
X102473844Y-98401355D01*
X103385126Y-98645533D01*
X103961567Y-98737380D02*
X105083145Y-99037906D01*
X105847415Y-98428767D02*
X106758697Y-98672944D01*
X106142788Y-99008788D01*
X106353084Y-99065137D01*
X106477629Y-99161118D01*
X106532075Y-99238317D01*
X106570869Y-99373931D01*
X106492607Y-99666008D01*
X106391203Y-99764056D01*
X106305452Y-99803689D01*
X106149603Y-99824539D01*
X105729011Y-99711841D01*
X105604466Y-99615860D01*
X105550020Y-99538662D01*
X105737505Y-80095806D02*
X106066205Y-78869081D01*
X106416698Y-78962995D01*
X106611342Y-79077759D01*
X106720234Y-79232156D01*
X106759028Y-79367770D01*
X106766517Y-79620215D01*
X106719560Y-79795461D01*
X106586852Y-80010340D01*
X106485448Y-80108389D01*
X106313946Y-80187654D01*
X106087998Y-80189721D01*
X105737505Y-80095806D01*
X108059597Y-79841475D02*
X107840464Y-80659293D01*
X107834323Y-79280237D02*
X107249044Y-80062555D01*
X108160326Y-80306733D01*
X108736767Y-80398580D02*
X109858345Y-80699106D01*
X110661409Y-80225581D02*
X110747160Y-80185948D01*
X110903010Y-80165099D01*
X111253503Y-80259013D01*
X111378048Y-80354994D01*
X111432494Y-80432193D01*
X111471288Y-80567806D01*
X111439983Y-80684637D01*
X111322927Y-80841101D01*
X110293915Y-81316693D01*
X111205197Y-81560870D01*
X110385705Y-61503006D02*
X110714405Y-60276281D01*
X111064898Y-60370195D01*
X111259542Y-60484959D01*
X111368434Y-60639356D01*
X111407228Y-60774970D01*
X111414717Y-61027415D01*
X111367760Y-61202661D01*
X111235052Y-61417540D01*
X111133648Y-61515589D01*
X110962146Y-61594854D01*
X110736198Y-61596921D01*
X110385705Y-61503006D01*
X112707797Y-61248675D02*
X112488664Y-62066493D01*
X112482523Y-60687437D02*
X111897244Y-61469755D01*
X112808526Y-61713933D01*
X113384967Y-61805780D02*
X114506545Y-62106306D01*
X115853397Y-62968070D02*
X115012214Y-62742676D01*
X115432805Y-62855373D02*
X115761506Y-61628647D01*
X115574351Y-61766328D01*
X115402849Y-61845593D01*
X115247000Y-61866443D01*
X78305505Y-107273806D02*
X78634205Y-106047081D01*
X78984698Y-106140995D01*
X79179342Y-106255759D01*
X79288234Y-106410156D01*
X79327028Y-106545770D01*
X79334517Y-106798215D01*
X79287560Y-106973461D01*
X79154852Y-107188340D01*
X79053448Y-107286389D01*
X78881946Y-107365654D01*
X78655998Y-107367721D01*
X78305505Y-107273806D01*
X79966079Y-106403955D02*
X80877361Y-106648132D01*
X80261452Y-106983976D01*
X80471747Y-107040325D01*
X80596292Y-107136306D01*
X80650738Y-107213505D01*
X80689532Y-107349119D01*
X80611270Y-107641196D01*
X80509867Y-107739244D01*
X80424116Y-107778877D01*
X80268266Y-107799727D01*
X79847675Y-107687030D01*
X79723130Y-107591048D01*
X79668684Y-107513850D01*
X81304767Y-107576580D02*
X82426345Y-107877106D01*
X83852133Y-107883487D02*
X83633000Y-108701304D01*
X83626859Y-107322249D02*
X83041580Y-108104567D01*
X83952863Y-108348744D01*
X83436305Y-89087406D02*
X83765005Y-87860681D01*
X84115498Y-87954595D01*
X84310142Y-88069359D01*
X84419034Y-88223756D01*
X84457828Y-88359370D01*
X84465317Y-88611815D01*
X84418360Y-88787061D01*
X84285652Y-89001940D01*
X84184248Y-89099989D01*
X84012746Y-89179254D01*
X83786798Y-89181321D01*
X83436305Y-89087406D01*
X85096879Y-88217555D02*
X86008161Y-88461732D01*
X85392252Y-88797576D01*
X85602547Y-88853925D01*
X85727092Y-88949906D01*
X85781538Y-89027105D01*
X85820332Y-89162719D01*
X85742070Y-89454796D01*
X85640667Y-89552844D01*
X85554916Y-89592477D01*
X85399066Y-89613327D01*
X84978475Y-89500630D01*
X84853930Y-89404648D01*
X84799484Y-89327450D01*
X86435567Y-89390180D02*
X87557145Y-89690706D01*
X88321415Y-89081567D02*
X89232697Y-89325744D01*
X88616788Y-89661588D01*
X88827084Y-89717937D01*
X88951629Y-89813918D01*
X89006075Y-89891117D01*
X89044869Y-90026731D01*
X88966607Y-90318808D01*
X88865203Y-90416856D01*
X88779452Y-90456489D01*
X88623603Y-90477339D01*
X88203011Y-90364641D01*
X88078466Y-90268660D01*
X88024020Y-90191462D01*
X88211505Y-70443806D02*
X88540205Y-69217081D01*
X88890698Y-69310995D01*
X89085342Y-69425759D01*
X89194234Y-69580156D01*
X89233028Y-69715770D01*
X89240517Y-69968215D01*
X89193560Y-70143461D01*
X89060852Y-70358340D01*
X88959448Y-70456389D01*
X88787946Y-70535654D01*
X88561998Y-70537721D01*
X88211505Y-70443806D01*
X89872079Y-69573955D02*
X90783361Y-69818132D01*
X90167452Y-70153976D01*
X90377747Y-70210325D01*
X90502292Y-70306306D01*
X90556738Y-70383505D01*
X90595532Y-70519119D01*
X90517270Y-70811196D01*
X90415867Y-70909244D01*
X90330116Y-70948877D01*
X90174266Y-70969727D01*
X89753675Y-70857030D01*
X89629130Y-70761048D01*
X89574684Y-70683850D01*
X91210767Y-70746580D02*
X92332345Y-71047106D01*
X93135409Y-70573581D02*
X93221160Y-70533948D01*
X93377010Y-70513099D01*
X93727503Y-70607013D01*
X93852048Y-70702994D01*
X93906494Y-70780193D01*
X93945288Y-70915806D01*
X93913983Y-71032637D01*
X93796927Y-71189101D01*
X92767915Y-71664693D01*
X93679197Y-71908870D01*
X93621705Y-52282806D02*
X93950405Y-51056081D01*
X94300898Y-51149995D01*
X94495542Y-51264759D01*
X94604434Y-51419156D01*
X94643228Y-51554770D01*
X94650717Y-51807215D01*
X94603760Y-51982461D01*
X94471052Y-52197340D01*
X94369648Y-52295389D01*
X94198146Y-52374654D01*
X93972198Y-52376721D01*
X93621705Y-52282806D01*
X95282279Y-51412955D02*
X96193561Y-51657132D01*
X95577652Y-51992976D01*
X95787947Y-52049325D01*
X95912492Y-52145306D01*
X95966938Y-52222505D01*
X96005732Y-52358119D01*
X95927470Y-52650196D01*
X95826067Y-52748244D01*
X95740316Y-52787877D01*
X95584466Y-52808727D01*
X95163875Y-52696030D01*
X95039330Y-52600048D01*
X94984884Y-52522850D01*
X96620967Y-52585580D02*
X97742545Y-52886106D01*
X99089397Y-53747870D02*
X98248214Y-53522476D01*
X98668805Y-53635173D02*
X98997506Y-52408447D01*
X98810351Y-52546128D01*
X98638849Y-52625393D01*
X98483000Y-52646243D01*
X59563128Y-107075105D02*
X59891828Y-105848380D01*
X60242321Y-105942294D01*
X60436965Y-106057058D01*
X60545857Y-106211455D01*
X60584651Y-106347069D01*
X60592140Y-106599514D01*
X60545183Y-106774760D01*
X60412475Y-106989639D01*
X60311071Y-107087688D01*
X60139569Y-107166953D01*
X59913621Y-107169020D01*
X59563128Y-107075105D01*
X61262496Y-106340868D02*
X61348247Y-106301235D01*
X61504096Y-106280386D01*
X61854590Y-106374300D01*
X61979134Y-106470281D01*
X62033581Y-106547480D01*
X62072374Y-106683094D01*
X62041070Y-106799925D01*
X61924014Y-106956388D01*
X60895002Y-107431980D01*
X61806284Y-107676157D01*
X62562390Y-107377879D02*
X63683968Y-107678405D01*
X65109756Y-107684786D02*
X64890623Y-108502603D01*
X64884482Y-107123548D02*
X64299203Y-107905866D01*
X65210486Y-108150043D01*
X63421105Y-88757206D02*
X63749805Y-87530481D01*
X64100298Y-87624395D01*
X64294942Y-87739159D01*
X64403834Y-87893556D01*
X64442628Y-88029170D01*
X64450117Y-88281615D01*
X64403160Y-88456861D01*
X64270452Y-88671740D01*
X64169048Y-88769789D01*
X63997546Y-88849054D01*
X63771598Y-88851121D01*
X63421105Y-88757206D01*
X65120473Y-88022969D02*
X65206224Y-87983336D01*
X65362073Y-87962487D01*
X65712567Y-88056401D01*
X65837111Y-88152382D01*
X65891558Y-88229581D01*
X65930351Y-88365195D01*
X65899047Y-88482026D01*
X65781991Y-88638489D01*
X64752979Y-89114081D01*
X65664261Y-89358258D01*
X66420367Y-89059980D02*
X67541945Y-89360506D01*
X68306215Y-88751367D02*
X69217497Y-88995544D01*
X68601588Y-89331388D01*
X68811884Y-89387737D01*
X68936429Y-89483718D01*
X68990875Y-89560917D01*
X69029669Y-89696531D01*
X68951407Y-89988608D01*
X68850003Y-90086656D01*
X68764252Y-90126289D01*
X68608403Y-90147139D01*
X68187811Y-90034441D01*
X68063266Y-89938460D01*
X68008820Y-89861262D01*
X68323305Y-70342206D02*
X68652005Y-69115481D01*
X69002498Y-69209395D01*
X69197142Y-69324159D01*
X69306034Y-69478556D01*
X69344828Y-69614170D01*
X69352317Y-69866615D01*
X69305360Y-70041861D01*
X69172652Y-70256740D01*
X69071248Y-70354789D01*
X68899746Y-70434054D01*
X68673798Y-70436121D01*
X68323305Y-70342206D01*
X70022673Y-69607969D02*
X70108424Y-69568336D01*
X70264273Y-69547487D01*
X70614767Y-69641401D01*
X70739311Y-69737382D01*
X70793758Y-69814581D01*
X70832551Y-69950195D01*
X70801247Y-70067026D01*
X70684191Y-70223489D01*
X69655179Y-70699081D01*
X70566461Y-70943258D01*
X71322567Y-70644980D02*
X72444145Y-70945506D01*
X73247209Y-70471981D02*
X73332960Y-70432348D01*
X73488810Y-70411499D01*
X73839303Y-70505413D01*
X73963848Y-70601394D01*
X74018294Y-70678593D01*
X74057088Y-70814206D01*
X74025783Y-70931037D01*
X73908727Y-71087501D01*
X72879715Y-71563093D01*
X73790997Y-71807270D01*
X73174705Y-52079606D02*
X73503405Y-50852881D01*
X73853898Y-50946795D01*
X74048542Y-51061559D01*
X74157434Y-51215956D01*
X74196228Y-51351570D01*
X74203717Y-51604015D01*
X74156760Y-51779261D01*
X74024052Y-51994140D01*
X73922648Y-52092189D01*
X73751146Y-52171454D01*
X73525198Y-52173521D01*
X73174705Y-52079606D01*
X74874073Y-51345369D02*
X74959824Y-51305736D01*
X75115673Y-51284887D01*
X75466167Y-51378801D01*
X75590711Y-51474782D01*
X75645158Y-51551981D01*
X75683951Y-51687595D01*
X75652647Y-51804426D01*
X75535591Y-51960889D01*
X74506579Y-52436481D01*
X75417861Y-52680658D01*
X76173967Y-52382380D02*
X77295545Y-52682906D01*
X78642397Y-53544670D02*
X77801214Y-53319276D01*
X78221805Y-53431973D02*
X78550506Y-52205247D01*
X78363351Y-52342928D01*
X78191849Y-52422193D01*
X78036000Y-52443043D01*
X273880411Y-106395275D02*
X273551711Y-105168549D01*
X273902204Y-105074635D01*
X274128152Y-105076702D01*
X274299654Y-105155967D01*
X274401058Y-105254015D01*
X274533766Y-105468894D01*
X274580723Y-105644141D01*
X274573234Y-105896586D01*
X274534440Y-106032200D01*
X274425548Y-106186597D01*
X274230904Y-106301361D01*
X273880411Y-106395275D01*
X276123567Y-105794223D02*
X275282384Y-106019618D01*
X275702975Y-105906920D02*
X275374275Y-104680195D01*
X275281035Y-104893007D01*
X275172143Y-105047404D01*
X275047598Y-105143385D01*
X276386961Y-104534065D02*
X276441407Y-104456867D01*
X276565952Y-104360886D01*
X276916445Y-104266972D01*
X277072294Y-104287821D01*
X277158045Y-104327454D01*
X277259449Y-104425502D01*
X277290754Y-104542333D01*
X277267612Y-104736363D01*
X276614257Y-105662743D01*
X277525539Y-105418566D01*
X278031208Y-104782196D02*
X279152786Y-104481670D01*
X280390745Y-103774302D02*
X280609879Y-104592120D01*
X279915033Y-103400893D02*
X279799326Y-104371040D01*
X280710608Y-104126862D01*
X269519514Y-88130716D02*
X269190814Y-86903990D01*
X269541307Y-86810076D01*
X269767255Y-86812143D01*
X269938757Y-86891408D01*
X270040161Y-86989456D01*
X270172869Y-87204335D01*
X270219826Y-87379582D01*
X270212337Y-87632027D01*
X270173543Y-87767641D01*
X270064651Y-87922038D01*
X269870007Y-88036802D01*
X269519514Y-88130716D01*
X271762670Y-87529664D02*
X270921487Y-87755059D01*
X271342078Y-87642361D02*
X271013378Y-86415636D01*
X270920138Y-86628448D01*
X270811246Y-86782845D01*
X270686701Y-86878826D01*
X272026064Y-86269506D02*
X272080510Y-86192308D01*
X272205055Y-86096327D01*
X272555548Y-86002413D01*
X272711397Y-86023262D01*
X272797148Y-86062895D01*
X272898552Y-86160943D01*
X272929857Y-86277774D01*
X272906715Y-86471804D01*
X272253360Y-87398184D01*
X273164642Y-87154007D01*
X273670311Y-86517637D02*
X274791889Y-86217111D01*
X275149197Y-85307446D02*
X276060479Y-85063269D01*
X275695007Y-85662073D01*
X275905303Y-85605725D01*
X276061153Y-85626574D01*
X276146904Y-85666207D01*
X276248307Y-85764255D01*
X276326569Y-86056333D01*
X276287775Y-86191947D01*
X276233329Y-86269145D01*
X276108784Y-86365126D01*
X275688193Y-86477824D01*
X275532343Y-86456974D01*
X275446592Y-86417341D01*
X264134714Y-69893516D02*
X263806014Y-68666790D01*
X264156507Y-68572876D01*
X264382455Y-68574943D01*
X264553957Y-68654208D01*
X264655361Y-68752256D01*
X264788069Y-68967135D01*
X264835026Y-69142382D01*
X264827537Y-69394827D01*
X264788743Y-69530441D01*
X264679851Y-69684838D01*
X264485207Y-69799602D01*
X264134714Y-69893516D01*
X266377870Y-69292464D02*
X265536687Y-69517859D01*
X265957278Y-69405161D02*
X265628578Y-68178436D01*
X265535338Y-68391248D01*
X265426446Y-68545645D01*
X265301901Y-68641626D01*
X266641264Y-68032306D02*
X266695710Y-67955108D01*
X266820255Y-67859127D01*
X267170748Y-67765213D01*
X267326597Y-67786062D01*
X267412348Y-67825695D01*
X267513752Y-67923743D01*
X267545057Y-68040574D01*
X267521915Y-68234604D01*
X266868560Y-69160984D01*
X267779842Y-68916807D01*
X268285511Y-68280437D02*
X269407089Y-67979911D01*
X269865800Y-67168295D02*
X269920246Y-67091096D01*
X270044791Y-66995115D01*
X270395284Y-66901201D01*
X270551134Y-66922050D01*
X270636885Y-66961683D01*
X270738288Y-67059731D01*
X270769593Y-67176562D01*
X270746451Y-67370592D01*
X270093097Y-68296972D01*
X271004379Y-68052795D01*
X260324714Y-51097516D02*
X259996014Y-49870790D01*
X260346507Y-49776876D01*
X260572455Y-49778943D01*
X260743957Y-49858208D01*
X260845361Y-49956256D01*
X260978069Y-50171135D01*
X261025026Y-50346382D01*
X261017537Y-50598827D01*
X260978743Y-50734441D01*
X260869851Y-50888838D01*
X260675207Y-51003602D01*
X260324714Y-51097516D01*
X262567870Y-50496464D02*
X261726687Y-50721859D01*
X262147278Y-50609161D02*
X261818578Y-49382436D01*
X261725338Y-49595248D01*
X261616446Y-49749645D01*
X261491901Y-49845626D01*
X262831264Y-49236306D02*
X262885710Y-49159108D01*
X263010255Y-49063127D01*
X263360748Y-48969213D01*
X263516597Y-48990062D01*
X263602348Y-49029695D01*
X263703752Y-49127743D01*
X263735057Y-49244574D01*
X263711915Y-49438604D01*
X263058560Y-50364984D01*
X263969842Y-50120807D01*
X264475511Y-49484437D02*
X265597089Y-49183911D01*
X267194379Y-49256795D02*
X266353195Y-49482189D01*
X266773787Y-49369492D02*
X266445087Y-48142766D01*
X266351847Y-48355579D01*
X266242954Y-48509975D01*
X266118409Y-48605957D01*
X246248914Y-94075916D02*
X245920214Y-92849190D01*
X246270707Y-92755276D01*
X246496655Y-92757343D01*
X246668157Y-92836608D01*
X246769561Y-92934656D01*
X246902269Y-93149535D01*
X246949226Y-93324782D01*
X246941737Y-93577227D01*
X246902943Y-93712841D01*
X246794051Y-93867238D01*
X246599407Y-93982002D01*
X246248914Y-94075916D01*
X248492070Y-93474864D02*
X247650887Y-93700259D01*
X248071478Y-93587561D02*
X247742778Y-92360836D01*
X247649538Y-92573648D01*
X247540646Y-92728045D01*
X247416101Y-92824026D01*
X249894042Y-93099207D02*
X249052859Y-93324601D01*
X249473451Y-93211904D02*
X249144750Y-91985178D01*
X249051510Y-92197991D01*
X248942618Y-92352387D01*
X248818073Y-92448369D01*
X250399711Y-92462837D02*
X251521289Y-92162311D01*
X251878597Y-91252646D02*
X252789879Y-91008469D01*
X252424407Y-91607273D01*
X252634703Y-91550925D01*
X252790553Y-91571774D01*
X252876304Y-91611407D01*
X252977707Y-91709455D01*
X253055969Y-92001533D01*
X253017175Y-92137147D01*
X252962729Y-92214345D01*
X252838184Y-92310326D01*
X252417593Y-92423024D01*
X252261743Y-92402174D01*
X252175992Y-92362541D01*
X242214514Y-75633916D02*
X241885814Y-74407190D01*
X242236307Y-74313276D01*
X242462255Y-74315343D01*
X242633757Y-74394608D01*
X242735161Y-74492656D01*
X242867869Y-74707535D01*
X242914826Y-74882782D01*
X242907337Y-75135227D01*
X242868543Y-75270841D01*
X242759651Y-75425238D01*
X242565007Y-75540002D01*
X242214514Y-75633916D01*
X244457670Y-75032864D02*
X243616487Y-75258259D01*
X244037078Y-75145561D02*
X243708378Y-73918836D01*
X243615138Y-74131648D01*
X243506246Y-74286045D01*
X243381701Y-74382026D01*
X245859642Y-74657207D02*
X245018459Y-74882601D01*
X245439051Y-74769904D02*
X245110350Y-73543178D01*
X245017110Y-73755991D01*
X244908218Y-73910387D01*
X244783673Y-74006369D01*
X246365311Y-74020837D02*
X247486889Y-73720311D01*
X247945600Y-72908695D02*
X248000046Y-72831496D01*
X248124591Y-72735515D01*
X248475084Y-72641601D01*
X248630934Y-72662450D01*
X248716685Y-72702083D01*
X248818088Y-72800131D01*
X248849393Y-72916962D01*
X248826251Y-73110992D01*
X248172897Y-74037372D01*
X249084179Y-73793195D01*
X237439314Y-57295116D02*
X237110614Y-56068390D01*
X237461107Y-55974476D01*
X237687055Y-55976543D01*
X237858557Y-56055808D01*
X237959961Y-56153856D01*
X238092669Y-56368735D01*
X238139626Y-56543982D01*
X238132137Y-56796427D01*
X238093343Y-56932041D01*
X237984451Y-57086438D01*
X237789807Y-57201202D01*
X237439314Y-57295116D01*
X239682470Y-56694064D02*
X238841287Y-56919459D01*
X239261878Y-56806761D02*
X238933178Y-55580036D01*
X238839938Y-55792848D01*
X238731046Y-55947245D01*
X238606501Y-56043226D01*
X241084442Y-56318407D02*
X240243259Y-56543801D01*
X240663851Y-56431104D02*
X240335150Y-55204378D01*
X240241910Y-55417191D01*
X240133018Y-55571587D01*
X240008473Y-55667569D01*
X241590111Y-55682037D02*
X242711689Y-55381511D01*
X244308979Y-55454395D02*
X243467795Y-55679789D01*
X243888387Y-55567092D02*
X243559687Y-54340366D01*
X243466447Y-54553179D01*
X243357554Y-54707575D01*
X243233009Y-54803557D01*
X231340491Y-107904035D02*
X231011791Y-106677309D01*
X231362284Y-106583395D01*
X231588232Y-106585462D01*
X231759734Y-106664727D01*
X231861138Y-106762775D01*
X231993846Y-106977654D01*
X232040803Y-107152901D01*
X232033314Y-107405346D01*
X231994520Y-107540960D01*
X231885628Y-107695357D01*
X231690984Y-107810121D01*
X231340491Y-107904035D01*
X233583647Y-107302983D02*
X232742464Y-107528378D01*
X233163055Y-107415680D02*
X232834355Y-106188955D01*
X232741115Y-106401767D01*
X232632223Y-106556164D01*
X232507678Y-106652145D01*
X234166229Y-105832080D02*
X234306426Y-105794514D01*
X234462276Y-105815364D01*
X234548027Y-105854997D01*
X234649430Y-105953045D01*
X234782138Y-106167924D01*
X234860400Y-106460002D01*
X234852911Y-106712447D01*
X234814117Y-106848061D01*
X234759671Y-106925259D01*
X234635126Y-107021240D01*
X234494929Y-107058806D01*
X234339079Y-107037956D01*
X234253328Y-106998323D01*
X234151925Y-106900275D01*
X234019217Y-106685396D01*
X233940955Y-106393319D01*
X233948444Y-106140874D01*
X233987238Y-106005260D01*
X234041684Y-105928061D01*
X234166229Y-105832080D01*
X235491288Y-106290956D02*
X236612866Y-105990430D01*
X237850825Y-105283062D02*
X238069959Y-106100880D01*
X237375113Y-104909653D02*
X237259406Y-105879800D01*
X238170688Y-105635622D01*
X226085514Y-89680116D02*
X225756814Y-88453390D01*
X226107307Y-88359476D01*
X226333255Y-88361543D01*
X226504757Y-88440808D01*
X226606161Y-88538856D01*
X226738869Y-88753735D01*
X226785826Y-88928982D01*
X226778337Y-89181427D01*
X226739543Y-89317041D01*
X226630651Y-89471438D01*
X226436007Y-89586202D01*
X226085514Y-89680116D01*
X228328670Y-89079064D02*
X227487487Y-89304459D01*
X227908078Y-89191761D02*
X227579378Y-87965036D01*
X227486138Y-88177848D01*
X227377246Y-88332245D01*
X227252701Y-88428226D01*
X228911252Y-87608161D02*
X229051449Y-87570595D01*
X229207299Y-87591445D01*
X229293050Y-87631078D01*
X229394453Y-87729126D01*
X229527161Y-87944005D01*
X229605423Y-88236083D01*
X229597934Y-88488528D01*
X229559140Y-88624142D01*
X229504694Y-88701340D01*
X229380149Y-88797321D01*
X229239952Y-88834887D01*
X229084102Y-88814037D01*
X228998351Y-88774404D01*
X228896948Y-88676356D01*
X228764240Y-88461477D01*
X228685978Y-88169400D01*
X228693467Y-87916955D01*
X228732261Y-87781341D01*
X228786707Y-87704142D01*
X228911252Y-87608161D01*
X230236311Y-88067037D02*
X231357889Y-87766511D01*
X231715197Y-86856846D02*
X232626479Y-86612669D01*
X232261007Y-87211473D01*
X232471303Y-87155125D01*
X232627153Y-87175974D01*
X232712904Y-87215607D01*
X232814307Y-87313655D01*
X232892569Y-87605733D01*
X232853775Y-87741347D01*
X232799329Y-87818545D01*
X232674784Y-87914526D01*
X232254193Y-88027224D01*
X232098343Y-88006374D01*
X232012592Y-87966741D01*
X221107114Y-71595316D02*
X220778414Y-70368590D01*
X221128907Y-70274676D01*
X221354855Y-70276743D01*
X221526357Y-70356008D01*
X221627761Y-70454056D01*
X221760469Y-70668935D01*
X221807426Y-70844182D01*
X221799937Y-71096627D01*
X221761143Y-71232241D01*
X221652251Y-71386638D01*
X221457607Y-71501402D01*
X221107114Y-71595316D01*
X223350270Y-70994264D02*
X222509087Y-71219659D01*
X222929678Y-71106961D02*
X222600978Y-69880236D01*
X222507738Y-70093048D01*
X222398846Y-70247445D01*
X222274301Y-70343426D01*
X223932852Y-69523361D02*
X224073049Y-69485795D01*
X224228899Y-69506645D01*
X224314650Y-69546278D01*
X224416053Y-69644326D01*
X224548761Y-69859205D01*
X224627023Y-70151283D01*
X224619534Y-70403728D01*
X224580740Y-70539342D01*
X224526294Y-70616540D01*
X224401749Y-70712521D01*
X224261552Y-70750087D01*
X224105702Y-70729237D01*
X224019951Y-70689604D01*
X223918548Y-70591556D01*
X223785840Y-70376677D01*
X223707578Y-70084600D01*
X223715067Y-69832155D01*
X223753861Y-69696541D01*
X223808307Y-69619342D01*
X223932852Y-69523361D01*
X225257911Y-69982237D02*
X226379489Y-69681711D01*
X226838200Y-68870095D02*
X226892646Y-68792896D01*
X227017191Y-68696915D01*
X227367684Y-68603001D01*
X227523534Y-68623850D01*
X227609285Y-68663483D01*
X227710688Y-68761531D01*
X227741993Y-68878362D01*
X227718851Y-69072392D01*
X227065497Y-69998772D01*
X227976779Y-69754595D01*
X215849314Y-52926316D02*
X215520614Y-51699590D01*
X215871107Y-51605676D01*
X216097055Y-51607743D01*
X216268557Y-51687008D01*
X216369961Y-51785056D01*
X216502669Y-51999935D01*
X216549626Y-52175182D01*
X216542137Y-52427627D01*
X216503343Y-52563241D01*
X216394451Y-52717638D01*
X216199807Y-52832402D01*
X215849314Y-52926316D01*
X218092470Y-52325264D02*
X217251287Y-52550659D01*
X217671878Y-52437961D02*
X217343178Y-51211236D01*
X217249938Y-51424048D01*
X217141046Y-51578445D01*
X217016501Y-51674426D01*
X218675052Y-50854361D02*
X218815249Y-50816795D01*
X218971099Y-50837645D01*
X219056850Y-50877278D01*
X219158253Y-50975326D01*
X219290961Y-51190205D01*
X219369223Y-51482283D01*
X219361734Y-51734728D01*
X219322940Y-51870342D01*
X219268494Y-51947540D01*
X219143949Y-52043521D01*
X219003752Y-52081087D01*
X218847902Y-52060237D01*
X218762151Y-52020604D01*
X218660748Y-51922556D01*
X218528040Y-51707677D01*
X218449778Y-51415600D01*
X218457267Y-51163155D01*
X218496061Y-51027541D01*
X218550507Y-50950342D01*
X218675052Y-50854361D01*
X220000111Y-51313237D02*
X221121689Y-51012711D01*
X222718979Y-51085595D02*
X221877795Y-51310989D01*
X222298387Y-51198292D02*
X221969687Y-49971566D01*
X221876447Y-50184379D01*
X221767554Y-50338775D01*
X221643009Y-50434757D01*
X42247948Y-92597105D02*
X42576648Y-91370380D01*
X42927141Y-91464294D01*
X43121785Y-91579058D01*
X43230677Y-91733455D01*
X43269471Y-91869069D01*
X43276960Y-92121514D01*
X43230003Y-92296760D01*
X43097295Y-92511639D01*
X42995891Y-92609688D01*
X42824389Y-92688953D01*
X42598441Y-92691020D01*
X42247948Y-92597105D01*
X44491104Y-93198157D02*
X43649920Y-92972763D01*
X44070512Y-93085460D02*
X44399212Y-91858734D01*
X44212058Y-91996415D01*
X44040556Y-92075680D01*
X43884706Y-92096530D01*
X45247210Y-92899879D02*
X46368788Y-93200405D01*
X47133058Y-92591266D02*
X48044340Y-92835443D01*
X47428431Y-93171287D01*
X47638727Y-93227636D01*
X47763272Y-93323617D01*
X47817718Y-93400816D01*
X47856512Y-93536430D01*
X47778250Y-93828507D01*
X47676846Y-93926555D01*
X47591095Y-93966188D01*
X47435246Y-93987038D01*
X47014654Y-93874340D01*
X46890109Y-93778359D01*
X46835663Y-93701161D01*
X47647705Y-74584006D02*
X47976405Y-73357281D01*
X48326898Y-73451195D01*
X48521542Y-73565959D01*
X48630434Y-73720356D01*
X48669228Y-73855970D01*
X48676717Y-74108415D01*
X48629760Y-74283661D01*
X48497052Y-74498540D01*
X48395648Y-74596589D01*
X48224146Y-74675854D01*
X47998198Y-74677921D01*
X47647705Y-74584006D01*
X49890861Y-75185058D02*
X49049677Y-74959664D01*
X49470269Y-75072361D02*
X49798969Y-73845635D01*
X49611815Y-73983316D01*
X49440313Y-74062581D01*
X49284463Y-74083431D01*
X50646967Y-74886780D02*
X51768545Y-75187306D01*
X52571609Y-74713781D02*
X52657360Y-74674148D01*
X52813210Y-74653299D01*
X53163703Y-74747213D01*
X53288248Y-74843194D01*
X53342694Y-74920393D01*
X53381488Y-75056006D01*
X53350183Y-75172837D01*
X53233127Y-75329301D01*
X52204115Y-75804893D01*
X53115397Y-76049070D01*
X53007105Y-56321406D02*
X53335805Y-55094681D01*
X53686298Y-55188595D01*
X53880942Y-55303359D01*
X53989834Y-55457756D01*
X54028628Y-55593370D01*
X54036117Y-55845815D01*
X53989160Y-56021061D01*
X53856452Y-56235940D01*
X53755048Y-56333989D01*
X53583546Y-56413254D01*
X53357598Y-56415321D01*
X53007105Y-56321406D01*
X55250261Y-56922458D02*
X54409077Y-56697064D01*
X54829669Y-56809761D02*
X55158369Y-55583035D01*
X54971215Y-55720716D01*
X54799713Y-55799981D01*
X54643863Y-55820831D01*
X56006367Y-56624180D02*
X57127945Y-56924706D01*
X58474797Y-57786470D02*
X57633614Y-57561076D01*
X58054205Y-57673773D02*
X58382906Y-56447047D01*
X58195751Y-56584728D01*
X58024249Y-56663993D01*
X57868400Y-56684843D01*
X13982828Y-104748465D02*
X14311528Y-103521740D01*
X14662021Y-103615654D01*
X14856665Y-103730418D01*
X14965557Y-103884815D01*
X15004351Y-104020429D01*
X15011840Y-104272874D01*
X14964883Y-104448120D01*
X14832175Y-104662999D01*
X14730771Y-104761048D01*
X14559269Y-104840313D01*
X14333321Y-104842380D01*
X13982828Y-104748465D01*
X16063994Y-103991311D02*
X16204191Y-104028877D01*
X16328736Y-104124858D01*
X16383182Y-104202057D01*
X16421976Y-104337671D01*
X16429465Y-104590116D01*
X16351203Y-104882193D01*
X16218495Y-105097072D01*
X16117091Y-105195120D01*
X16031340Y-105234753D01*
X15875491Y-105255603D01*
X15735293Y-105218037D01*
X15610749Y-105122056D01*
X15556302Y-105044858D01*
X15517509Y-104909244D01*
X15510019Y-104656799D01*
X15588281Y-104364721D01*
X15720990Y-104149842D01*
X15822393Y-104051794D01*
X15908144Y-104012161D01*
X16063994Y-103991311D01*
X16982090Y-105051239D02*
X18103668Y-105351765D01*
X19529456Y-105358146D02*
X19310323Y-106175963D01*
X19304182Y-104796908D02*
X18718903Y-105579226D01*
X19630186Y-105823403D01*
X19961705Y-86776006D02*
X20290405Y-85549281D01*
X20640898Y-85643195D01*
X20835542Y-85757959D01*
X20944434Y-85912356D01*
X20983228Y-86047970D01*
X20990717Y-86300415D01*
X20943760Y-86475661D01*
X20811052Y-86690540D01*
X20709648Y-86788589D01*
X20538146Y-86867854D01*
X20312198Y-86869921D01*
X19961705Y-86776006D01*
X22042871Y-86018852D02*
X22183068Y-86056418D01*
X22307613Y-86152399D01*
X22362059Y-86229598D01*
X22400853Y-86365212D01*
X22408342Y-86617657D01*
X22330080Y-86909734D01*
X22197372Y-87124613D01*
X22095968Y-87222661D01*
X22010217Y-87262294D01*
X21854368Y-87283144D01*
X21714170Y-87245578D01*
X21589626Y-87149597D01*
X21535179Y-87072399D01*
X21496386Y-86936785D01*
X21488896Y-86684340D01*
X21567158Y-86392262D01*
X21699867Y-86177383D01*
X21801270Y-86079335D01*
X21887021Y-86039702D01*
X22042871Y-86018852D01*
X22960967Y-87078780D02*
X24082545Y-87379306D01*
X24846815Y-86770167D02*
X25758097Y-87014344D01*
X25142188Y-87350188D01*
X25352484Y-87406537D01*
X25477029Y-87502518D01*
X25531475Y-87579717D01*
X25570269Y-87715331D01*
X25492007Y-88007408D01*
X25390603Y-88105456D01*
X25304852Y-88145089D01*
X25149003Y-88165939D01*
X24728411Y-88053241D01*
X24603866Y-87957260D01*
X24549420Y-87880062D01*
X24609905Y-68564206D02*
X24938605Y-67337481D01*
X25289098Y-67431395D01*
X25483742Y-67546159D01*
X25592634Y-67700556D01*
X25631428Y-67836170D01*
X25638917Y-68088615D01*
X25591960Y-68263861D01*
X25459252Y-68478740D01*
X25357848Y-68576789D01*
X25186346Y-68656054D01*
X24960398Y-68658121D01*
X24609905Y-68564206D01*
X26691071Y-67807052D02*
X26831268Y-67844618D01*
X26955813Y-67940599D01*
X27010259Y-68017798D01*
X27049053Y-68153412D01*
X27056542Y-68405857D01*
X26978280Y-68697934D01*
X26845572Y-68912813D01*
X26744168Y-69010861D01*
X26658417Y-69050494D01*
X26502568Y-69071344D01*
X26362370Y-69033778D01*
X26237826Y-68937797D01*
X26183379Y-68860599D01*
X26144586Y-68724985D01*
X26137096Y-68472540D01*
X26215358Y-68180462D01*
X26348067Y-67965583D01*
X26449470Y-67867535D01*
X26535221Y-67827902D01*
X26691071Y-67807052D01*
X27609167Y-68866980D02*
X28730745Y-69167506D01*
X29533809Y-68693981D02*
X29619560Y-68654348D01*
X29775410Y-68633499D01*
X30125903Y-68727413D01*
X30250448Y-68823394D01*
X30304894Y-68900593D01*
X30343688Y-69036206D01*
X30312383Y-69153037D01*
X30195327Y-69309501D01*
X29166315Y-69785093D01*
X30077597Y-70029270D01*
X29054905Y-49920606D02*
X29383605Y-48693881D01*
X29734098Y-48787795D01*
X29928742Y-48902559D01*
X30037634Y-49056956D01*
X30076428Y-49192570D01*
X30083917Y-49445015D01*
X30036960Y-49620261D01*
X29904252Y-49835140D01*
X29802848Y-49933189D01*
X29631346Y-50012454D01*
X29405398Y-50014521D01*
X29054905Y-49920606D01*
X31136071Y-49163452D02*
X31276268Y-49201018D01*
X31400813Y-49296999D01*
X31455259Y-49374198D01*
X31494053Y-49509812D01*
X31501542Y-49762257D01*
X31423280Y-50054334D01*
X31290572Y-50269213D01*
X31189168Y-50367261D01*
X31103417Y-50406894D01*
X30947568Y-50427744D01*
X30807370Y-50390178D01*
X30682826Y-50294197D01*
X30628379Y-50216999D01*
X30589586Y-50081385D01*
X30582096Y-49828940D01*
X30660358Y-49536862D01*
X30793067Y-49321983D01*
X30894470Y-49223935D01*
X30980221Y-49184302D01*
X31136071Y-49163452D01*
X32054167Y-50223380D02*
X33175745Y-50523906D01*
X34522597Y-51385670D02*
X33681414Y-51160276D01*
X34102005Y-51272973D02*
X34430706Y-50046247D01*
X34243551Y-50183928D01*
X34072049Y-50263193D01*
X33916200Y-50284043D01*
M02*
