G04 #@! TF.GenerationSoftware,KiCad,Pcbnew,(5.99.0-562-g7b80b2dc7)*
G04 #@! TF.CreationDate,2019-12-24T23:11:15-08:00*
G04 #@! TF.ProjectId,arch_40,61726368-5f34-4302-9e6b-696361645f70,rev?*
G04 #@! TF.SameCoordinates,Original*
G04 #@! TF.FileFunction,Profile,NP*
%FSLAX46Y46*%
G04 Gerber Fmt 4.6, Leading zero omitted, Abs format (unit mm)*
G04 Created by KiCad (PCBNEW (5.99.0-562-g7b80b2dc7)) date 2019-12-24 23:11:15*
%MOMM*%
%LPD*%
G04 APERTURE LIST*
%ADD10C,0.050000*%
G04 APERTURE END LIST*
D10*
X160850580Y-152636220D02*
X132933440Y-151998680D01*
X69916040Y-41742360D02*
X25448260Y-29989780D01*
X72362060Y-32633920D02*
X69916040Y-41742360D01*
X90731340Y-37536120D02*
X72359520Y-32633920D01*
X91937840Y-32933640D02*
X90731340Y-37536120D01*
X110091220Y-37802820D02*
X91935300Y-32933640D01*
X108869480Y-42349420D02*
X110091220Y-37802820D01*
X127261620Y-47287180D02*
X108866940Y-42349420D01*
X126014480Y-51927760D02*
X127261620Y-47287180D01*
X144396460Y-56860440D02*
X126011940Y-51927760D01*
X150820120Y-56509920D02*
X144396460Y-56860440D01*
X169456100Y-51523900D02*
X150820120Y-56509920D01*
X168247060Y-46997620D02*
X169456100Y-51521360D01*
X186593480Y-42100500D02*
X168247060Y-46995080D01*
X185389520Y-37574220D02*
X186593480Y-42100500D01*
X203484480Y-32748220D02*
X185389520Y-37571680D01*
X204716380Y-37279580D02*
X203487020Y-32748220D01*
X223174560Y-32367220D02*
X204716380Y-37279580D01*
X225630740Y-41544240D02*
X223174560Y-32367220D01*
X270372840Y-29517340D02*
X225630740Y-41541700D01*
X289953700Y-102633780D02*
X270372840Y-29517340D01*
X264482580Y-109583220D02*
X289953700Y-102636320D01*
X259633720Y-91163140D02*
X264482580Y-109583220D01*
X240342420Y-96431100D02*
X259636260Y-91163140D01*
X242745260Y-105450640D02*
X240342420Y-96431100D01*
X224688400Y-110342680D02*
X242745260Y-105450640D01*
X223497140Y-105874820D02*
X224688400Y-110345220D01*
X204812900Y-110891320D02*
X223497140Y-105874820D01*
X206044800Y-115463320D02*
X204812900Y-110888780D01*
X187799980Y-120342660D02*
X206044800Y-115465860D01*
X189026800Y-142684500D02*
X187799980Y-120342660D01*
X182514240Y-160525460D02*
X189026800Y-142687040D01*
X160850580Y-152636220D02*
X182514240Y-160528000D01*
X111239300Y-159877760D02*
X132933440Y-151996140D01*
X104917240Y-142364460D02*
X111239300Y-159877760D01*
X107929680Y-120812560D02*
X104917240Y-142364460D01*
X89463880Y-115864640D02*
X107929680Y-120810020D01*
X90726260Y-111178340D02*
X89463880Y-115864640D01*
X72036940Y-106156760D02*
X90726260Y-111178340D01*
X70797420Y-110807500D02*
X72036940Y-106156760D01*
X52697380Y-105918000D02*
X70797420Y-110804960D01*
X55201820Y-96781620D02*
X52699920Y-105918000D01*
X35933380Y-91498420D02*
X55201820Y-96781620D01*
X30810200Y-109788960D02*
X35933380Y-91495880D01*
X5788660Y-103146860D02*
X30810200Y-109791500D01*
X25448260Y-29987240D02*
X5788660Y-103146860D01*
M02*
