G04 #@! TF.GenerationSoftware,KiCad,Pcbnew,(5.99.0-562-g7b80b2dc7)*
G04 #@! TF.CreationDate,2019-12-24T23:11:14-08:00*
G04 #@! TF.ProjectId,arch_40,61726368-5f34-4302-9e6b-696361645f70,rev?*
G04 #@! TF.SameCoordinates,Original*
G04 #@! TF.FileFunction,Legend,Bot*
G04 #@! TF.FilePolarity,Positive*
%FSLAX46Y46*%
G04 Gerber Fmt 4.6, Leading zero omitted, Abs format (unit mm)*
G04 Created by KiCad (PCBNEW (5.99.0-562-g7b80b2dc7)) date 2019-12-24 23:11:14*
%MOMM*%
%LPD*%
G04 APERTURE LIST*
%ADD10C,0.150000*%
%ADD11C,0.381000*%
G04 APERTURE END LIST*
D10*
X150540952Y-123861666D02*
X150064761Y-123861666D01*
X150636190Y-124147380D02*
X150302857Y-123147380D01*
X149969523Y-124147380D01*
X149636190Y-124147380D02*
X149636190Y-123480714D01*
X149636190Y-123671190D02*
X149588571Y-123575952D01*
X149540952Y-123528333D01*
X149445714Y-123480714D01*
X149350476Y-123480714D01*
X148588571Y-124099761D02*
X148683809Y-124147380D01*
X148874285Y-124147380D01*
X148969523Y-124099761D01*
X149017142Y-124052142D01*
X149064761Y-123956904D01*
X149064761Y-123671190D01*
X149017142Y-123575952D01*
X148969523Y-123528333D01*
X148874285Y-123480714D01*
X148683809Y-123480714D01*
X148588571Y-123528333D01*
X148160000Y-124147380D02*
X148160000Y-123147380D01*
X147731428Y-124147380D02*
X147731428Y-123623571D01*
X147779047Y-123528333D01*
X147874285Y-123480714D01*
X148017142Y-123480714D01*
X148112380Y-123528333D01*
X148160000Y-123575952D01*
X146826666Y-123480714D02*
X146826666Y-124147380D01*
X147064761Y-123099761D02*
X147302857Y-123814047D01*
X146683809Y-123814047D01*
X146112380Y-123147380D02*
X146017142Y-123147380D01*
X145921904Y-123195000D01*
X145874285Y-123242619D01*
X145826666Y-123337857D01*
X145779047Y-123528333D01*
X145779047Y-123766428D01*
X145826666Y-123956904D01*
X145874285Y-124052142D01*
X145921904Y-124099761D01*
X146017142Y-124147380D01*
X146112380Y-124147380D01*
X146207619Y-124099761D01*
X146255238Y-124052142D01*
X146302857Y-123956904D01*
X146350476Y-123766428D01*
X146350476Y-123528333D01*
X146302857Y-123337857D01*
X146255238Y-123242619D01*
X146207619Y-123195000D01*
X146112380Y-123147380D01*
X150612380Y-125757380D02*
X150612380Y-125090714D01*
X150612380Y-125281190D02*
X150564761Y-125185952D01*
X150517142Y-125138333D01*
X150421904Y-125090714D01*
X150326666Y-125090714D01*
X149612380Y-125709761D02*
X149707619Y-125757380D01*
X149898095Y-125757380D01*
X149993333Y-125709761D01*
X150040952Y-125614523D01*
X150040952Y-125233571D01*
X149993333Y-125138333D01*
X149898095Y-125090714D01*
X149707619Y-125090714D01*
X149612380Y-125138333D01*
X149564761Y-125233571D01*
X149564761Y-125328809D01*
X150040952Y-125424047D01*
X149231428Y-125090714D02*
X148993333Y-125757380D01*
X148755238Y-125090714D01*
X147088571Y-125757380D02*
X147660000Y-125757380D01*
X147374285Y-125757380D02*
X147374285Y-124757380D01*
X147469523Y-124900238D01*
X147564761Y-124995476D01*
X147660000Y-125043095D01*
X146660000Y-125662142D02*
X146612380Y-125709761D01*
X146660000Y-125757380D01*
X146707619Y-125709761D01*
X146660000Y-125662142D01*
X146660000Y-125757380D01*
X145660000Y-125757380D02*
X146231428Y-125757380D01*
X145945714Y-125757380D02*
X145945714Y-124757380D01*
X146040952Y-124900238D01*
X146136190Y-124995476D01*
X146231428Y-125043095D01*
D11*
X155016200Y-90093800D02*
X157556200Y-90093800D01*
X157556200Y-87553800D02*
X157556200Y-90093800D01*
X139776200Y-87553800D02*
X157556200Y-87553800D01*
X139776200Y-90093800D02*
X139776200Y-87553800D01*
G36*
X143834632Y-96773160D02*
G01*
X143734632Y-96773160D01*
X143734632Y-96573160D01*
X143834632Y-96573160D01*
X143834632Y-96773160D01*
G37*
D10*
X143834632Y-96773160D02*
X143734632Y-96773160D01*
X143734632Y-96573160D01*
X143834632Y-96573160D01*
X143834632Y-96773160D01*
G36*
X144234632Y-96773160D02*
G01*
X144134632Y-96773160D01*
X144134632Y-95973160D01*
X144234632Y-95973160D01*
X144234632Y-96773160D01*
G37*
X144234632Y-96773160D02*
X144134632Y-96773160D01*
X144134632Y-95973160D01*
X144234632Y-95973160D01*
X144234632Y-96773160D01*
G36*
X144234632Y-96073160D02*
G01*
X143734632Y-96073160D01*
X143734632Y-95973160D01*
X144234632Y-95973160D01*
X144234632Y-96073160D01*
G37*
X144234632Y-96073160D02*
X143734632Y-96073160D01*
X143734632Y-95973160D01*
X144234632Y-95973160D01*
X144234632Y-96073160D01*
G36*
X144034632Y-96473160D02*
G01*
X143934632Y-96473160D01*
X143934632Y-96373160D01*
X144034632Y-96373160D01*
X144034632Y-96473160D01*
G37*
X144034632Y-96473160D02*
X143934632Y-96473160D01*
X143934632Y-96373160D01*
X144034632Y-96373160D01*
X144034632Y-96473160D01*
G36*
X143834632Y-96273160D02*
G01*
X143734632Y-96273160D01*
X143734632Y-95973160D01*
X143834632Y-95973160D01*
X143834632Y-96273160D01*
G37*
X143834632Y-96273160D02*
X143734632Y-96273160D01*
X143734632Y-95973160D01*
X143834632Y-95973160D01*
X143834632Y-96273160D01*
D11*
X155016200Y-92633800D02*
X157556200Y-92633800D01*
X155016200Y-90093800D02*
X155016200Y-92633800D01*
X139776200Y-120573800D02*
X139776200Y-90093800D01*
X157556200Y-120573800D02*
X139776200Y-120573800D01*
X157556200Y-90093800D02*
X157556200Y-120573800D01*
D10*
X122980571Y-142097455D02*
X123696528Y-141836868D01*
X125367390Y-141228724D02*
X126083347Y-140968137D01*
X125855662Y-141456409D02*
X125595075Y-140740452D01*
X113959209Y-70291916D02*
X113808895Y-70300938D01*
X113578913Y-70239315D01*
X113499245Y-70168669D01*
X113465573Y-70110348D01*
X113444226Y-70006030D01*
X113468875Y-69914037D01*
X113539521Y-69834369D01*
X113597842Y-69800697D01*
X113702160Y-69779350D01*
X113898471Y-69782652D01*
X114002788Y-69761305D01*
X114061109Y-69727634D01*
X114131755Y-69647965D01*
X114156405Y-69555973D01*
X114135058Y-69451655D01*
X114101386Y-69393334D01*
X114021718Y-69322688D01*
X113791735Y-69261064D01*
X113641421Y-69270087D01*
X113331771Y-69137817D02*
X112842969Y-70042119D01*
X112843854Y-69302873D01*
X112474998Y-69943522D01*
X112503834Y-68915972D01*
X111635621Y-69028427D02*
X111463075Y-69672378D01*
X111964201Y-68722079D02*
X112009313Y-69473650D01*
X111411359Y-69313428D01*
X111055712Y-69168834D02*
X110319768Y-68971639D01*
X110041372Y-68354755D02*
X110007700Y-68296434D01*
X109928032Y-68225788D01*
X109698050Y-68164164D01*
X109593732Y-68185511D01*
X109535411Y-68219183D01*
X109464765Y-68298851D01*
X109440116Y-68390844D01*
X109449138Y-68541159D01*
X109853199Y-69241013D01*
X109255245Y-69080791D01*
X72100009Y-78953316D02*
X71949695Y-78962338D01*
X71719713Y-78900715D01*
X71640045Y-78830069D01*
X71606373Y-78771748D01*
X71585026Y-78667430D01*
X71609675Y-78575437D01*
X71680321Y-78495769D01*
X71738642Y-78462097D01*
X71842960Y-78440750D01*
X72039271Y-78444052D01*
X72143588Y-78422705D01*
X72201909Y-78389034D01*
X72272555Y-78309365D01*
X72297205Y-78217373D01*
X72275858Y-78113055D01*
X72242186Y-78054734D01*
X72162518Y-77984088D01*
X71932535Y-77922464D01*
X71782221Y-77931487D01*
X71472571Y-77799217D02*
X70983769Y-78703519D01*
X70984654Y-77964273D01*
X70615798Y-78604922D01*
X70644634Y-77577372D01*
X70298010Y-77583092D02*
X70264338Y-77524771D01*
X70184670Y-77454125D01*
X69954687Y-77392501D01*
X69850370Y-77413848D01*
X69792048Y-77447520D01*
X69721403Y-77527188D01*
X69696753Y-77619181D01*
X69705775Y-77769495D01*
X70109836Y-78469350D01*
X69511882Y-78309128D01*
X69196512Y-77830234D02*
X68460568Y-77633039D01*
X68252818Y-76936487D02*
X67654864Y-76776266D01*
X67878241Y-77230510D01*
X67740252Y-77193536D01*
X67635934Y-77214883D01*
X67577613Y-77248555D01*
X67506967Y-77328223D01*
X67445344Y-77558206D01*
X67466691Y-77662523D01*
X67500362Y-77720844D01*
X67580031Y-77791490D01*
X67856010Y-77865439D01*
X67960327Y-77844092D01*
X68018648Y-77810420D01*
X239527994Y-44578348D02*
X239402329Y-44661318D01*
X239172347Y-44722942D01*
X239068029Y-44701595D01*
X239009708Y-44667923D01*
X238939062Y-44588255D01*
X238914413Y-44496262D01*
X238935760Y-44391944D01*
X238969432Y-44333623D01*
X239049100Y-44262977D01*
X239220761Y-44167682D01*
X239300429Y-44097036D01*
X239334101Y-44038715D01*
X239355448Y-43934397D01*
X239330799Y-43842404D01*
X239260153Y-43762736D01*
X239201832Y-43729064D01*
X239097514Y-43707717D01*
X238867532Y-43769341D01*
X238741867Y-43852311D01*
X238407567Y-43892588D02*
X238436404Y-44920137D01*
X238067547Y-44279489D01*
X238068432Y-45018735D01*
X237579630Y-44114433D01*
X236964517Y-45314528D02*
X237516474Y-45166632D01*
X237240495Y-45240580D02*
X236981676Y-44274654D01*
X237110643Y-44387994D01*
X237227286Y-44455338D01*
X237331604Y-44476685D01*
X236044587Y-45561023D02*
X236596545Y-45413126D01*
X236320566Y-45487074D02*
X236061747Y-44521149D01*
X236190714Y-44634489D01*
X236307357Y-44701832D01*
X236411674Y-44723179D01*
X235532021Y-45303973D02*
X234796078Y-45501169D01*
X233928750Y-46127960D02*
X234480707Y-45980063D01*
X234204729Y-46054011D02*
X233945910Y-45088086D01*
X234074877Y-45201425D01*
X234191519Y-45268769D01*
X234295837Y-45290116D01*
X277297794Y-93600348D02*
X277172129Y-93683318D01*
X276942147Y-93744942D01*
X276837829Y-93723595D01*
X276779508Y-93689923D01*
X276708862Y-93610255D01*
X276684213Y-93518262D01*
X276705560Y-93413944D01*
X276739232Y-93355623D01*
X276818900Y-93284977D01*
X276990561Y-93189682D01*
X277070229Y-93119036D01*
X277103901Y-93060715D01*
X277125248Y-92956397D01*
X277100599Y-92864404D01*
X277029953Y-92784736D01*
X276971632Y-92751064D01*
X276867314Y-92729717D01*
X276637332Y-92791341D01*
X276511667Y-92874311D01*
X276177367Y-92914588D02*
X276206204Y-93942137D01*
X275837347Y-93301489D01*
X275838232Y-94040735D01*
X275349430Y-93136433D01*
X274734317Y-94336528D02*
X275286274Y-94188632D01*
X275010295Y-94262580D02*
X274751476Y-93296654D01*
X274880443Y-93409994D01*
X274997086Y-93477338D01*
X275101404Y-93498685D01*
X274132175Y-93561193D02*
X274073854Y-93527521D01*
X273969536Y-93506174D01*
X273739554Y-93567798D01*
X273659886Y-93638444D01*
X273626214Y-93696765D01*
X273604867Y-93801083D01*
X273629517Y-93893076D01*
X273712487Y-94018740D01*
X274412341Y-94422801D01*
X273814387Y-94583023D01*
X273301821Y-94325973D02*
X272565878Y-94523169D01*
X271617997Y-94481360D02*
X271790543Y-95125310D01*
X271749381Y-94051764D02*
X272164234Y-94680088D01*
X271566280Y-94840309D01*
X272344794Y-75185348D02*
X272219129Y-75268318D01*
X271989147Y-75329942D01*
X271884829Y-75308595D01*
X271826508Y-75274923D01*
X271755862Y-75195255D01*
X271731213Y-75103262D01*
X271752560Y-74998944D01*
X271786232Y-74940623D01*
X271865900Y-74869977D01*
X272037561Y-74774682D01*
X272117229Y-74704036D01*
X272150901Y-74645715D01*
X272172248Y-74541397D01*
X272147599Y-74449404D01*
X272076953Y-74369736D01*
X272018632Y-74336064D01*
X271914314Y-74314717D01*
X271684332Y-74376341D01*
X271558667Y-74459311D01*
X271224367Y-74499588D02*
X271253204Y-75527137D01*
X270884347Y-74886489D01*
X270885232Y-75625735D01*
X270396430Y-74721433D01*
X269781317Y-75921528D02*
X270333274Y-75773632D01*
X270057295Y-75847580D02*
X269798476Y-74881654D01*
X269927443Y-74994994D01*
X270044086Y-75062338D01*
X270148404Y-75083685D01*
X269179175Y-75146193D02*
X269120854Y-75112521D01*
X269016536Y-75091174D01*
X268786554Y-75152798D01*
X268706886Y-75223444D01*
X268673214Y-75281765D01*
X268651867Y-75386083D01*
X268676517Y-75478076D01*
X268759487Y-75603740D01*
X269459341Y-76007801D01*
X268861387Y-76168023D01*
X268348821Y-75910973D02*
X267612878Y-76108169D01*
X267084685Y-75608813D02*
X266486731Y-75769034D01*
X266907304Y-76050733D01*
X266769314Y-76087707D01*
X266689646Y-76158353D01*
X266655974Y-76216674D01*
X266634627Y-76320991D01*
X266696251Y-76550974D01*
X266766897Y-76630642D01*
X266825218Y-76664314D01*
X266929536Y-76685661D01*
X267205514Y-76611712D01*
X267285183Y-76541067D01*
X267318854Y-76482745D01*
X267569594Y-56852397D02*
X267443929Y-56935367D01*
X267213947Y-56996991D01*
X267109629Y-56975644D01*
X267051308Y-56941972D01*
X266980662Y-56862304D01*
X266956013Y-56770311D01*
X266977360Y-56665993D01*
X267011032Y-56607672D01*
X267090700Y-56537026D01*
X267262361Y-56441731D01*
X267342029Y-56371085D01*
X267375701Y-56312764D01*
X267397048Y-56208446D01*
X267372399Y-56116453D01*
X267301753Y-56036785D01*
X267243432Y-56003113D01*
X267139114Y-55981766D01*
X266909132Y-56043390D01*
X266783467Y-56126360D01*
X266449167Y-56166637D02*
X266478004Y-57194186D01*
X266109147Y-56553538D01*
X266110032Y-57292784D01*
X265621230Y-56388482D01*
X265006117Y-57588577D02*
X265558074Y-57440681D01*
X265282095Y-57514629D02*
X265023276Y-56548703D01*
X265152243Y-56662043D01*
X265268886Y-56729387D01*
X265373204Y-56750734D01*
X264403975Y-56813242D02*
X264345654Y-56779570D01*
X264241336Y-56758223D01*
X264011354Y-56819847D01*
X263931686Y-56890493D01*
X263898014Y-56948814D01*
X263876667Y-57053132D01*
X263901317Y-57145125D01*
X263984287Y-57270789D01*
X264684141Y-57674850D01*
X264086187Y-57835072D01*
X263573621Y-57578022D02*
X262837678Y-57775218D01*
X262288138Y-57380179D02*
X262229817Y-57346507D01*
X262125499Y-57325160D01*
X261895517Y-57386784D01*
X261815848Y-57457430D01*
X261782177Y-57515751D01*
X261760830Y-57620069D01*
X261785479Y-57712062D01*
X261868450Y-57837726D01*
X262568304Y-58241787D01*
X261970350Y-58402009D01*
X262565794Y-38380748D02*
X262440129Y-38463718D01*
X262210147Y-38525342D01*
X262105829Y-38503995D01*
X262047508Y-38470323D01*
X261976862Y-38390655D01*
X261952213Y-38298662D01*
X261973560Y-38194344D01*
X262007232Y-38136023D01*
X262086900Y-38065377D01*
X262258561Y-37970082D01*
X262338229Y-37899436D01*
X262371901Y-37841115D01*
X262393248Y-37736797D01*
X262368599Y-37644804D01*
X262297953Y-37565136D01*
X262239632Y-37531464D01*
X262135314Y-37510117D01*
X261905332Y-37571741D01*
X261779667Y-37654711D01*
X261445367Y-37694988D02*
X261474204Y-38722537D01*
X261105347Y-38081889D01*
X261106232Y-38821135D01*
X260617430Y-37916833D01*
X260002317Y-39116928D02*
X260554274Y-38969032D01*
X260278295Y-39042980D02*
X260019476Y-38077054D01*
X260148443Y-38190394D01*
X260265086Y-38257738D01*
X260369404Y-38279085D01*
X259400175Y-38341593D02*
X259341854Y-38307921D01*
X259237536Y-38286574D01*
X259007554Y-38348198D01*
X258927886Y-38418844D01*
X258894214Y-38477165D01*
X258872867Y-38581483D01*
X258897517Y-38673476D01*
X258980487Y-38799140D01*
X259680341Y-39203201D01*
X259082387Y-39363423D01*
X258569821Y-39106373D02*
X257833878Y-39303569D01*
X256966550Y-39930360D02*
X257518507Y-39782463D01*
X257242529Y-39856411D02*
X256983710Y-38890486D01*
X257112677Y-39003825D01*
X257229319Y-39071169D01*
X257333637Y-39092516D01*
X23332009Y-95361716D02*
X23181695Y-95370738D01*
X22951713Y-95309115D01*
X22872045Y-95238469D01*
X22838373Y-95180148D01*
X22817026Y-95075830D01*
X22841675Y-94983837D01*
X22912321Y-94904169D01*
X22970642Y-94870497D01*
X23074960Y-94849150D01*
X23271271Y-94852452D01*
X23375588Y-94831105D01*
X23433909Y-94797434D01*
X23504555Y-94717765D01*
X23529205Y-94625773D01*
X23507858Y-94521455D01*
X23474186Y-94463134D01*
X23394518Y-94392488D01*
X23164535Y-94330864D01*
X23014221Y-94339887D01*
X22704571Y-94207617D02*
X22215769Y-95111919D01*
X22216654Y-94372673D01*
X21847798Y-95013322D01*
X21876634Y-93985772D01*
X21324677Y-93837876D02*
X21232684Y-93813226D01*
X21128366Y-93834573D01*
X21070045Y-93868245D01*
X20999399Y-93947913D01*
X20904104Y-94119574D01*
X20842480Y-94349557D01*
X20839178Y-94545867D01*
X20860525Y-94650185D01*
X20894196Y-94708506D01*
X20973865Y-94779152D01*
X21065858Y-94803801D01*
X21170175Y-94782454D01*
X21228496Y-94748783D01*
X21299142Y-94669114D01*
X21394438Y-94497453D01*
X21456061Y-94267471D01*
X21459364Y-94071160D01*
X21438017Y-93966843D01*
X21404345Y-93908521D01*
X21324677Y-93837876D01*
X20428512Y-94238634D02*
X19692568Y-94041439D01*
X18892584Y-93531290D02*
X18720038Y-94175241D01*
X19221164Y-93224942D02*
X19266275Y-93976513D01*
X18668321Y-93816291D01*
X28285009Y-76972116D02*
X28134695Y-76981138D01*
X27904713Y-76919515D01*
X27825045Y-76848869D01*
X27791373Y-76790548D01*
X27770026Y-76686230D01*
X27794675Y-76594237D01*
X27865321Y-76514569D01*
X27923642Y-76480897D01*
X28027960Y-76459550D01*
X28224271Y-76462852D01*
X28328588Y-76441505D01*
X28386909Y-76407834D01*
X28457555Y-76328165D01*
X28482205Y-76236173D01*
X28460858Y-76131855D01*
X28427186Y-76073534D01*
X28347518Y-76002888D01*
X28117535Y-75941264D01*
X27967221Y-75950287D01*
X27657571Y-75818017D02*
X27168769Y-76722319D01*
X27169654Y-75983073D01*
X26800798Y-76623722D01*
X26829634Y-75596172D01*
X26277677Y-75448276D02*
X26185684Y-75423626D01*
X26081366Y-75444973D01*
X26023045Y-75478645D01*
X25952399Y-75558313D01*
X25857104Y-75729974D01*
X25795480Y-75959957D01*
X25792178Y-76156267D01*
X25813525Y-76260585D01*
X25847196Y-76318906D01*
X25926865Y-76389552D01*
X26018858Y-76414201D01*
X26123175Y-76392854D01*
X26181496Y-76359183D01*
X26252142Y-76279514D01*
X26347438Y-76107853D01*
X26409061Y-75877871D01*
X26412364Y-75681560D01*
X26391017Y-75577243D01*
X26357345Y-75518921D01*
X26277677Y-75448276D01*
X25381512Y-75849034D02*
X24645568Y-75651839D01*
X24437818Y-74955287D02*
X23839864Y-74795066D01*
X24063241Y-75249310D01*
X23925252Y-75212336D01*
X23820934Y-75233683D01*
X23762613Y-75267355D01*
X23691967Y-75347023D01*
X23630344Y-75577006D01*
X23651691Y-75681323D01*
X23685362Y-75739644D01*
X23765031Y-75810290D01*
X24041010Y-75884239D01*
X24145327Y-75862892D01*
X24203648Y-75829220D01*
X33187209Y-58582516D02*
X33036895Y-58591538D01*
X32806913Y-58529915D01*
X32727245Y-58459269D01*
X32693573Y-58400948D01*
X32672226Y-58296630D01*
X32696875Y-58204637D01*
X32767521Y-58124969D01*
X32825842Y-58091297D01*
X32930160Y-58069950D01*
X33126471Y-58073252D01*
X33230788Y-58051905D01*
X33289109Y-58018234D01*
X33359755Y-57938565D01*
X33384405Y-57846573D01*
X33363058Y-57742255D01*
X33329386Y-57683934D01*
X33249718Y-57613288D01*
X33019735Y-57551664D01*
X32869421Y-57560687D01*
X32559771Y-57428417D02*
X32070969Y-58332719D01*
X32071854Y-57593473D01*
X31702998Y-58234122D01*
X31731834Y-57206572D01*
X31179877Y-57058676D02*
X31087884Y-57034026D01*
X30983566Y-57055373D01*
X30925245Y-57089045D01*
X30854599Y-57168713D01*
X30759304Y-57340374D01*
X30697680Y-57570357D01*
X30694378Y-57766667D01*
X30715725Y-57870985D01*
X30749396Y-57929306D01*
X30829065Y-57999952D01*
X30921058Y-58024601D01*
X31025375Y-58003254D01*
X31083696Y-57969583D01*
X31154342Y-57889914D01*
X31249638Y-57718253D01*
X31311261Y-57488271D01*
X31314564Y-57291960D01*
X31293217Y-57187643D01*
X31259545Y-57129321D01*
X31179877Y-57058676D01*
X30283712Y-57459434D02*
X29547768Y-57262239D01*
X29269372Y-56645355D02*
X29235700Y-56587034D01*
X29156032Y-56516388D01*
X28926050Y-56454764D01*
X28821732Y-56476111D01*
X28763411Y-56509783D01*
X28692765Y-56589451D01*
X28668116Y-56681444D01*
X28677138Y-56831759D01*
X29081199Y-57531613D01*
X28483245Y-57371391D01*
X38114809Y-40142116D02*
X37964495Y-40151138D01*
X37734513Y-40089515D01*
X37654845Y-40018869D01*
X37621173Y-39960548D01*
X37599826Y-39856230D01*
X37624475Y-39764237D01*
X37695121Y-39684569D01*
X37753442Y-39650897D01*
X37857760Y-39629550D01*
X38054071Y-39632852D01*
X38158388Y-39611505D01*
X38216709Y-39577834D01*
X38287355Y-39498165D01*
X38312005Y-39406173D01*
X38290658Y-39301855D01*
X38256986Y-39243534D01*
X38177318Y-39172888D01*
X37947335Y-39111264D01*
X37797021Y-39120287D01*
X37487371Y-38988017D02*
X36998569Y-39892319D01*
X36999454Y-39153073D01*
X36630598Y-39793722D01*
X36659434Y-38766172D01*
X36107477Y-38618276D02*
X36015484Y-38593626D01*
X35911166Y-38614973D01*
X35852845Y-38648645D01*
X35782199Y-38728313D01*
X35686904Y-38899974D01*
X35625280Y-39129957D01*
X35621978Y-39326267D01*
X35643325Y-39430585D01*
X35676996Y-39488906D01*
X35756665Y-39559552D01*
X35848658Y-39584201D01*
X35952975Y-39562854D01*
X36011296Y-39529183D01*
X36081942Y-39449514D01*
X36177238Y-39277853D01*
X36238861Y-39047871D01*
X36242164Y-38851560D01*
X36220817Y-38747243D01*
X36187145Y-38688921D01*
X36107477Y-38618276D01*
X35211312Y-39019034D02*
X34475368Y-38821839D01*
X33410845Y-38930991D02*
X33962802Y-39078888D01*
X33686824Y-39004940D02*
X33945643Y-38039014D01*
X34000661Y-38201653D01*
X34068005Y-38318295D01*
X34147673Y-38388941D01*
X213388629Y-96009595D02*
X213262965Y-96092566D01*
X213032982Y-96154189D01*
X212928665Y-96132842D01*
X212870344Y-96099170D01*
X212799698Y-96019502D01*
X212775048Y-95927509D01*
X212796395Y-95823192D01*
X212830067Y-95764870D01*
X212909735Y-95694224D01*
X213081396Y-95598929D01*
X213161065Y-95528283D01*
X213194736Y-95469962D01*
X213216083Y-95365644D01*
X213191434Y-95273651D01*
X213120788Y-95193983D01*
X213062467Y-95160311D01*
X212958149Y-95138964D01*
X212728167Y-95200588D01*
X212602502Y-95283559D01*
X212268202Y-95323835D02*
X212297039Y-96351385D01*
X211928182Y-95710736D01*
X211929067Y-96449982D01*
X211440266Y-95545680D01*
X211285117Y-96622528D02*
X211101131Y-96671827D01*
X210996813Y-96650480D01*
X210938492Y-96616808D01*
X210809525Y-96503468D01*
X210714230Y-96331807D01*
X210615632Y-95963836D01*
X210636979Y-95859518D01*
X210670651Y-95801197D01*
X210750319Y-95730551D01*
X210934305Y-95681252D01*
X211038622Y-95702599D01*
X211096944Y-95736271D01*
X211167589Y-95815939D01*
X211229213Y-96045921D01*
X211207866Y-96150239D01*
X211174194Y-96208560D01*
X211094526Y-96279206D01*
X210910540Y-96328505D01*
X210806222Y-96307158D01*
X210747901Y-96273486D01*
X210677255Y-96193818D01*
X210312586Y-96488726D02*
X209576643Y-96685922D01*
X208628761Y-96644112D02*
X208801307Y-97288063D01*
X208760146Y-96214517D02*
X209174999Y-96842841D01*
X208577045Y-97003062D01*
X208410229Y-77492995D02*
X208284565Y-77575966D01*
X208054582Y-77637589D01*
X207950265Y-77616242D01*
X207891944Y-77582570D01*
X207821298Y-77502902D01*
X207796648Y-77410909D01*
X207817995Y-77306592D01*
X207851667Y-77248270D01*
X207931335Y-77177624D01*
X208102996Y-77082329D01*
X208182665Y-77011683D01*
X208216336Y-76953362D01*
X208237683Y-76849044D01*
X208213034Y-76757051D01*
X208142388Y-76677383D01*
X208084067Y-76643711D01*
X207979749Y-76622364D01*
X207749767Y-76683988D01*
X207624102Y-76766959D01*
X207289802Y-76807235D02*
X207318639Y-77834785D01*
X206949782Y-77194136D01*
X206950667Y-77933382D01*
X206461866Y-77029080D01*
X206306717Y-78105928D02*
X206122731Y-78155227D01*
X206018413Y-78133880D01*
X205960092Y-78100208D01*
X205831125Y-77986868D01*
X205735830Y-77815207D01*
X205637232Y-77447236D01*
X205658579Y-77342918D01*
X205692251Y-77284597D01*
X205771919Y-77213951D01*
X205955905Y-77164652D01*
X206060222Y-77185999D01*
X206118544Y-77219671D01*
X206189189Y-77299339D01*
X206250813Y-77529321D01*
X206229466Y-77633639D01*
X206195794Y-77691960D01*
X206116126Y-77762606D01*
X205932140Y-77811905D01*
X205827822Y-77790558D01*
X205769501Y-77756886D01*
X205698855Y-77677218D01*
X205334186Y-77972126D02*
X204598243Y-78169322D01*
X204070049Y-77669965D02*
X203472095Y-77830187D01*
X203892668Y-78111885D01*
X203754679Y-78148860D01*
X203675011Y-78219505D01*
X203641339Y-78277827D01*
X203619992Y-78382144D01*
X203681616Y-78612127D01*
X203752261Y-78691795D01*
X203810583Y-78725467D01*
X203914900Y-78746814D01*
X204190879Y-78672865D01*
X204270547Y-78602219D01*
X204304219Y-78543898D01*
X203482629Y-59179595D02*
X203356965Y-59262566D01*
X203126982Y-59324189D01*
X203022665Y-59302842D01*
X202964344Y-59269170D01*
X202893698Y-59189502D01*
X202869048Y-59097509D01*
X202890395Y-58993192D01*
X202924067Y-58934870D01*
X203003735Y-58864224D01*
X203175396Y-58768929D01*
X203255065Y-58698283D01*
X203288736Y-58639962D01*
X203310083Y-58535644D01*
X203285434Y-58443651D01*
X203214788Y-58363983D01*
X203156467Y-58330311D01*
X203052149Y-58308964D01*
X202822167Y-58370588D01*
X202696502Y-58453559D01*
X202362202Y-58493835D02*
X202391039Y-59521385D01*
X202022182Y-58880736D01*
X202023067Y-59619982D01*
X201534266Y-58715680D01*
X201379117Y-59792528D02*
X201195131Y-59841827D01*
X201090813Y-59820480D01*
X201032492Y-59786808D01*
X200903525Y-59673468D01*
X200808230Y-59501807D01*
X200709632Y-59133836D01*
X200730979Y-59029518D01*
X200764651Y-58971197D01*
X200844319Y-58900551D01*
X201028305Y-58851252D01*
X201132622Y-58872599D01*
X201190944Y-58906271D01*
X201261589Y-58985939D01*
X201323213Y-59215921D01*
X201301866Y-59320239D01*
X201268194Y-59378560D01*
X201188526Y-59449206D01*
X201004540Y-59498505D01*
X200900222Y-59477158D01*
X200841901Y-59443486D01*
X200771255Y-59363818D01*
X200406586Y-59658726D02*
X199670643Y-59855922D01*
X199121102Y-59460883D02*
X199062781Y-59427211D01*
X198958464Y-59405864D01*
X198728481Y-59467488D01*
X198648813Y-59538134D01*
X198615141Y-59596455D01*
X198593794Y-59700773D01*
X198618444Y-59792765D01*
X198701414Y-59918430D01*
X199401269Y-60322491D01*
X198803314Y-60482712D01*
X198504229Y-40891595D02*
X198378565Y-40974566D01*
X198148582Y-41036189D01*
X198044265Y-41014842D01*
X197985944Y-40981170D01*
X197915298Y-40901502D01*
X197890648Y-40809509D01*
X197911995Y-40705192D01*
X197945667Y-40646870D01*
X198025335Y-40576224D01*
X198196996Y-40480929D01*
X198276665Y-40410283D01*
X198310336Y-40351962D01*
X198331683Y-40247644D01*
X198307034Y-40155651D01*
X198236388Y-40075983D01*
X198178067Y-40042311D01*
X198073749Y-40020964D01*
X197843767Y-40082588D01*
X197718102Y-40165559D01*
X197383802Y-40205835D02*
X197412639Y-41233385D01*
X197043782Y-40592736D01*
X197044667Y-41331982D01*
X196555866Y-40427680D01*
X196400717Y-41504528D02*
X196216731Y-41553827D01*
X196112413Y-41532480D01*
X196054092Y-41498808D01*
X195925125Y-41385468D01*
X195829830Y-41213807D01*
X195731232Y-40845836D01*
X195752579Y-40741518D01*
X195786251Y-40683197D01*
X195865919Y-40612551D01*
X196049905Y-40563252D01*
X196154222Y-40584599D01*
X196212544Y-40618271D01*
X196283189Y-40697939D01*
X196344813Y-40927921D01*
X196323466Y-41032239D01*
X196289794Y-41090560D01*
X196210126Y-41161206D01*
X196026140Y-41210505D01*
X195921822Y-41189158D01*
X195863501Y-41155486D01*
X195792855Y-41075818D01*
X195428186Y-41370726D02*
X194692243Y-41567922D01*
X193824914Y-42194712D02*
X194376872Y-42046816D01*
X194100893Y-42120764D02*
X193842074Y-41154838D01*
X193971041Y-41268178D01*
X194087684Y-41335522D01*
X194192001Y-41356869D01*
X196192829Y-105534595D02*
X196067165Y-105617566D01*
X195837182Y-105679189D01*
X195732865Y-105657842D01*
X195674544Y-105624170D01*
X195603898Y-105544502D01*
X195579248Y-105452509D01*
X195600595Y-105348192D01*
X195634267Y-105289870D01*
X195713935Y-105219224D01*
X195885596Y-105123929D01*
X195965265Y-105053283D01*
X195998936Y-104994962D01*
X196020283Y-104890644D01*
X195995634Y-104798651D01*
X195924988Y-104718983D01*
X195866667Y-104685311D01*
X195762349Y-104663964D01*
X195532367Y-104725588D01*
X195406702Y-104808559D01*
X195072402Y-104848835D02*
X195101239Y-105876385D01*
X194732382Y-105235736D01*
X194733267Y-105974982D01*
X194244466Y-105070680D01*
X193849427Y-105620220D02*
X193929095Y-105549574D01*
X193962767Y-105491253D01*
X193984114Y-105386935D01*
X193971789Y-105340939D01*
X193901144Y-105261271D01*
X193842822Y-105227599D01*
X193738505Y-105206252D01*
X193554519Y-105255551D01*
X193474851Y-105326197D01*
X193441179Y-105384518D01*
X193419832Y-105488836D01*
X193432157Y-105534832D01*
X193502802Y-105614500D01*
X193561124Y-105648172D01*
X193665441Y-105669519D01*
X193849427Y-105620220D01*
X193953745Y-105641567D01*
X194012066Y-105675239D01*
X194082712Y-105754907D01*
X194132011Y-105938893D01*
X194110664Y-106043211D01*
X194076992Y-106101532D01*
X193997324Y-106172178D01*
X193813338Y-106221477D01*
X193709020Y-106200130D01*
X193650699Y-106166458D01*
X193580053Y-106086790D01*
X193530754Y-105902804D01*
X193552101Y-105798486D01*
X193585773Y-105740165D01*
X193665441Y-105669519D01*
X193116786Y-106013726D02*
X192380843Y-106210922D01*
X191432961Y-106169112D02*
X191605507Y-106813063D01*
X191564346Y-105739517D02*
X191979199Y-106367841D01*
X191381245Y-106528062D01*
X191265229Y-87195795D02*
X191139565Y-87278766D01*
X190909582Y-87340389D01*
X190805265Y-87319042D01*
X190746944Y-87285370D01*
X190676298Y-87205702D01*
X190651648Y-87113709D01*
X190672995Y-87009392D01*
X190706667Y-86951070D01*
X190786335Y-86880424D01*
X190957996Y-86785129D01*
X191037665Y-86714483D01*
X191071336Y-86656162D01*
X191092683Y-86551844D01*
X191068034Y-86459851D01*
X190997388Y-86380183D01*
X190939067Y-86346511D01*
X190834749Y-86325164D01*
X190604767Y-86386788D01*
X190479102Y-86469759D01*
X190144802Y-86510035D02*
X190173639Y-87537585D01*
X189804782Y-86896936D01*
X189805667Y-87636182D01*
X189316866Y-86731880D01*
X188921827Y-87281420D02*
X189001495Y-87210774D01*
X189035167Y-87152453D01*
X189056514Y-87048135D01*
X189044189Y-87002139D01*
X188973544Y-86922471D01*
X188915222Y-86888799D01*
X188810905Y-86867452D01*
X188626919Y-86916751D01*
X188547251Y-86987397D01*
X188513579Y-87045718D01*
X188492232Y-87150036D01*
X188504557Y-87196032D01*
X188575202Y-87275700D01*
X188633524Y-87309372D01*
X188737841Y-87330719D01*
X188921827Y-87281420D01*
X189026145Y-87302767D01*
X189084466Y-87336439D01*
X189155112Y-87416107D01*
X189204411Y-87600093D01*
X189183064Y-87704411D01*
X189149392Y-87762732D01*
X189069724Y-87833378D01*
X188885738Y-87882677D01*
X188781420Y-87861330D01*
X188723099Y-87827658D01*
X188652453Y-87747990D01*
X188603154Y-87564004D01*
X188624501Y-87459686D01*
X188658173Y-87401365D01*
X188737841Y-87330719D01*
X188189186Y-87674926D02*
X187453243Y-87872122D01*
X186925049Y-87372765D02*
X186327095Y-87532987D01*
X186747668Y-87814685D01*
X186609679Y-87851660D01*
X186530011Y-87922305D01*
X186496339Y-87980627D01*
X186474992Y-88084944D01*
X186536616Y-88314927D01*
X186607261Y-88394595D01*
X186665583Y-88428267D01*
X186769900Y-88449614D01*
X187045879Y-88375665D01*
X187125547Y-88305019D01*
X187159219Y-88246698D01*
X186312229Y-68729995D02*
X186186565Y-68812966D01*
X185956582Y-68874589D01*
X185852265Y-68853242D01*
X185793944Y-68819570D01*
X185723298Y-68739902D01*
X185698648Y-68647909D01*
X185719995Y-68543592D01*
X185753667Y-68485270D01*
X185833335Y-68414624D01*
X186004996Y-68319329D01*
X186084665Y-68248683D01*
X186118336Y-68190362D01*
X186139683Y-68086044D01*
X186115034Y-67994051D01*
X186044388Y-67914383D01*
X185986067Y-67880711D01*
X185881749Y-67859364D01*
X185651767Y-67920988D01*
X185526102Y-68003959D01*
X185191802Y-68044235D02*
X185220639Y-69071785D01*
X184851782Y-68431136D01*
X184852667Y-69170382D01*
X184363866Y-68266080D01*
X183968827Y-68815620D02*
X184048495Y-68744974D01*
X184082167Y-68686653D01*
X184103514Y-68582335D01*
X184091189Y-68536339D01*
X184020544Y-68456671D01*
X183962222Y-68422999D01*
X183857905Y-68401652D01*
X183673919Y-68450951D01*
X183594251Y-68521597D01*
X183560579Y-68579918D01*
X183539232Y-68684236D01*
X183551557Y-68730232D01*
X183622202Y-68809900D01*
X183680524Y-68843572D01*
X183784841Y-68864919D01*
X183968827Y-68815620D01*
X184073145Y-68836967D01*
X184131466Y-68870639D01*
X184202112Y-68950307D01*
X184251411Y-69134293D01*
X184230064Y-69238611D01*
X184196392Y-69296932D01*
X184116724Y-69367578D01*
X183932738Y-69416877D01*
X183828420Y-69395530D01*
X183770099Y-69361858D01*
X183699453Y-69282190D01*
X183650154Y-69098204D01*
X183671501Y-68993886D01*
X183705173Y-68935565D01*
X183784841Y-68864919D01*
X183236186Y-69209126D02*
X182500243Y-69406322D01*
X181950702Y-69011283D02*
X181892381Y-68977611D01*
X181788064Y-68956264D01*
X181558081Y-69017888D01*
X181478413Y-69088534D01*
X181444741Y-69146855D01*
X181423394Y-69251173D01*
X181448044Y-69343165D01*
X181531014Y-69468830D01*
X182230869Y-69872891D01*
X181632914Y-70033112D01*
X181384629Y-50340395D02*
X181258965Y-50423366D01*
X181028982Y-50484989D01*
X180924665Y-50463642D01*
X180866344Y-50429970D01*
X180795698Y-50350302D01*
X180771048Y-50258309D01*
X180792395Y-50153992D01*
X180826067Y-50095670D01*
X180905735Y-50025024D01*
X181077396Y-49929729D01*
X181157065Y-49859083D01*
X181190736Y-49800762D01*
X181212083Y-49696444D01*
X181187434Y-49604451D01*
X181116788Y-49524783D01*
X181058467Y-49491111D01*
X180954149Y-49469764D01*
X180724167Y-49531388D01*
X180598502Y-49614359D01*
X180264202Y-49654635D02*
X180293039Y-50682185D01*
X179924182Y-50041536D01*
X179925067Y-50780782D01*
X179436266Y-49876480D01*
X179041227Y-50426020D02*
X179120895Y-50355374D01*
X179154567Y-50297053D01*
X179175914Y-50192735D01*
X179163589Y-50146739D01*
X179092944Y-50067071D01*
X179034622Y-50033399D01*
X178930305Y-50012052D01*
X178746319Y-50061351D01*
X178666651Y-50131997D01*
X178632979Y-50190318D01*
X178611632Y-50294636D01*
X178623957Y-50340632D01*
X178694602Y-50420300D01*
X178752924Y-50453972D01*
X178857241Y-50475319D01*
X179041227Y-50426020D01*
X179145545Y-50447367D01*
X179203866Y-50481039D01*
X179274512Y-50560707D01*
X179323811Y-50744693D01*
X179302464Y-50849011D01*
X179268792Y-50907332D01*
X179189124Y-50977978D01*
X179005138Y-51027277D01*
X178900820Y-51005930D01*
X178842499Y-50972258D01*
X178771853Y-50892590D01*
X178722554Y-50708604D01*
X178743901Y-50604286D01*
X178777573Y-50545965D01*
X178857241Y-50475319D01*
X178308586Y-50819526D02*
X177572643Y-51016722D01*
X176705314Y-51643512D02*
X177257272Y-51495616D01*
X176981293Y-51569564D02*
X176722474Y-50603638D01*
X176851441Y-50716978D01*
X176968084Y-50784322D01*
X177072401Y-50805669D01*
X179047829Y-115110395D02*
X178922165Y-115193366D01*
X178692182Y-115254989D01*
X178587865Y-115233642D01*
X178529544Y-115199970D01*
X178458898Y-115120302D01*
X178434248Y-115028309D01*
X178455595Y-114923992D01*
X178489267Y-114865670D01*
X178568935Y-114795024D01*
X178740596Y-114699729D01*
X178820265Y-114629083D01*
X178853936Y-114570762D01*
X178875283Y-114466444D01*
X178850634Y-114374451D01*
X178779988Y-114294783D01*
X178721667Y-114261111D01*
X178617349Y-114239764D01*
X178387367Y-114301388D01*
X178261702Y-114384359D01*
X177927402Y-114424635D02*
X177956239Y-115452185D01*
X177587382Y-114811536D01*
X177588267Y-115550782D01*
X177099466Y-114646480D01*
X176823487Y-114720428D02*
X176179536Y-114892974D01*
X176852324Y-115747978D01*
X175971786Y-115589526D02*
X175235843Y-115786722D01*
X174287961Y-115744912D02*
X174460507Y-116388863D01*
X174419346Y-115315317D02*
X174834199Y-115943641D01*
X174236245Y-116103862D01*
X174120229Y-96644595D02*
X173994565Y-96727566D01*
X173764582Y-96789189D01*
X173660265Y-96767842D01*
X173601944Y-96734170D01*
X173531298Y-96654502D01*
X173506648Y-96562509D01*
X173527995Y-96458192D01*
X173561667Y-96399870D01*
X173641335Y-96329224D01*
X173812996Y-96233929D01*
X173892665Y-96163283D01*
X173926336Y-96104962D01*
X173947683Y-96000644D01*
X173923034Y-95908651D01*
X173852388Y-95828983D01*
X173794067Y-95795311D01*
X173689749Y-95773964D01*
X173459767Y-95835588D01*
X173334102Y-95918559D01*
X172999802Y-95958835D02*
X173028639Y-96986385D01*
X172659782Y-96345736D01*
X172660667Y-97084982D01*
X172171866Y-96180680D01*
X171895887Y-96254628D02*
X171251936Y-96427174D01*
X171924724Y-97282178D01*
X171044186Y-97123726D02*
X170308243Y-97320922D01*
X169780049Y-96821565D02*
X169182095Y-96981787D01*
X169602668Y-97263485D01*
X169464679Y-97300460D01*
X169385011Y-97371105D01*
X169351339Y-97429427D01*
X169329992Y-97533744D01*
X169391616Y-97763727D01*
X169462261Y-97843395D01*
X169520583Y-97877067D01*
X169624900Y-97898414D01*
X169900879Y-97824465D01*
X169980547Y-97753819D01*
X170014219Y-97695498D01*
X169167229Y-78178795D02*
X169041565Y-78261766D01*
X168811582Y-78323389D01*
X168707265Y-78302042D01*
X168648944Y-78268370D01*
X168578298Y-78188702D01*
X168553648Y-78096709D01*
X168574995Y-77992392D01*
X168608667Y-77934070D01*
X168688335Y-77863424D01*
X168859996Y-77768129D01*
X168939665Y-77697483D01*
X168973336Y-77639162D01*
X168994683Y-77534844D01*
X168970034Y-77442851D01*
X168899388Y-77363183D01*
X168841067Y-77329511D01*
X168736749Y-77308164D01*
X168506767Y-77369788D01*
X168381102Y-77452759D01*
X168046802Y-77493035D02*
X168075639Y-78520585D01*
X167706782Y-77879936D01*
X167707667Y-78619182D01*
X167218866Y-77714880D01*
X166942887Y-77788828D02*
X166298936Y-77961374D01*
X166971724Y-78816378D01*
X166091186Y-78657926D02*
X165355243Y-78855122D01*
X164805702Y-78460083D02*
X164747381Y-78426411D01*
X164643064Y-78405064D01*
X164413081Y-78466688D01*
X164333413Y-78537334D01*
X164299741Y-78595655D01*
X164278394Y-78699973D01*
X164303044Y-78791965D01*
X164386014Y-78917630D01*
X165085869Y-79321691D01*
X164487914Y-79481912D01*
X164239629Y-59789195D02*
X164113965Y-59872166D01*
X163883982Y-59933789D01*
X163779665Y-59912442D01*
X163721344Y-59878770D01*
X163650698Y-59799102D01*
X163626048Y-59707109D01*
X163647395Y-59602792D01*
X163681067Y-59544470D01*
X163760735Y-59473824D01*
X163932396Y-59378529D01*
X164012065Y-59307883D01*
X164045736Y-59249562D01*
X164067083Y-59145244D01*
X164042434Y-59053251D01*
X163971788Y-58973583D01*
X163913467Y-58939911D01*
X163809149Y-58918564D01*
X163579167Y-58980188D01*
X163453502Y-59063159D01*
X163119202Y-59103435D02*
X163148039Y-60130985D01*
X162779182Y-59490336D01*
X162780067Y-60229582D01*
X162291266Y-59325280D01*
X162015287Y-59399228D02*
X161371336Y-59571774D01*
X162044124Y-60426778D01*
X161163586Y-60268326D02*
X160427643Y-60465522D01*
X159560314Y-61092312D02*
X160112272Y-60944416D01*
X159836293Y-61018364D02*
X159577474Y-60052438D01*
X159706441Y-60165778D01*
X159823084Y-60233122D01*
X159927401Y-60254469D01*
X162131987Y-140238848D02*
X161981459Y-140234735D01*
X161757723Y-140153302D01*
X161684515Y-140075981D01*
X161656054Y-140014947D01*
X161643880Y-139909166D01*
X161676454Y-139819671D01*
X161753774Y-139746463D01*
X161814808Y-139718003D01*
X161920589Y-139705829D01*
X162115865Y-139726228D01*
X162221646Y-139714054D01*
X162282680Y-139685594D01*
X162360001Y-139612386D01*
X162392574Y-139522891D01*
X162380400Y-139417110D01*
X162351940Y-139356076D01*
X162278732Y-139278756D01*
X162054995Y-139197322D01*
X161904467Y-139193209D01*
X161607523Y-139034455D02*
X161041766Y-139892715D01*
X161107077Y-139156359D01*
X160683788Y-139762421D01*
X160802072Y-138741295D01*
X160041368Y-138464422D02*
X160220358Y-138529569D01*
X160293565Y-138606889D01*
X160322026Y-138667923D01*
X160362660Y-138834738D01*
X160342261Y-139030014D01*
X160211968Y-139387992D01*
X160134647Y-139461200D01*
X160073613Y-139489661D01*
X159967832Y-139501835D01*
X159788843Y-139436688D01*
X159715635Y-139359367D01*
X159687174Y-139298333D01*
X159675000Y-139192552D01*
X159756434Y-138968816D01*
X159833754Y-138895608D01*
X159894788Y-138867147D01*
X160000570Y-138854973D01*
X160179559Y-138920120D01*
X160252767Y-138997441D01*
X160281227Y-139058475D01*
X160293401Y-139164256D01*
X159337422Y-138866983D02*
X158621465Y-138606396D01*
X158397893Y-137967596D02*
X158369433Y-137906562D01*
X158296225Y-137829242D01*
X158072489Y-137747808D01*
X157966707Y-137759982D01*
X157905674Y-137788443D01*
X157828353Y-137861651D01*
X157795780Y-137951145D01*
X157791667Y-138101674D01*
X158133194Y-138834081D01*
X157551479Y-138622354D01*
X180140587Y-146766648D02*
X179990059Y-146762535D01*
X179766323Y-146681102D01*
X179693115Y-146603781D01*
X179664654Y-146542747D01*
X179652480Y-146436966D01*
X179685054Y-146347471D01*
X179762374Y-146274263D01*
X179823408Y-146245803D01*
X179929189Y-146233629D01*
X180124465Y-146254028D01*
X180230246Y-146241854D01*
X180291280Y-146213394D01*
X180368601Y-146140186D01*
X180401174Y-146050691D01*
X180389000Y-145944910D01*
X180360540Y-145883876D01*
X180287332Y-145806556D01*
X180063595Y-145725122D01*
X179913067Y-145721009D01*
X179616123Y-145562255D02*
X179050366Y-146420515D01*
X179115677Y-145684159D01*
X178692388Y-146290221D01*
X178810672Y-145269095D01*
X178049968Y-144992222D02*
X178228958Y-145057369D01*
X178302165Y-145134689D01*
X178330626Y-145195723D01*
X178371260Y-145362538D01*
X178350861Y-145557814D01*
X178220568Y-145915792D01*
X178143247Y-145989000D01*
X178082213Y-146017461D01*
X177976432Y-146029635D01*
X177797443Y-145964488D01*
X177724235Y-145887167D01*
X177695774Y-145826133D01*
X177683600Y-145720352D01*
X177765034Y-145496616D01*
X177842354Y-145423408D01*
X177903388Y-145394947D01*
X178009170Y-145382773D01*
X178188159Y-145447920D01*
X178261367Y-145525241D01*
X178289827Y-145586275D01*
X178302001Y-145692056D01*
X177346022Y-145394783D02*
X176630065Y-145134196D01*
X175560079Y-145150154D02*
X176097047Y-145345594D01*
X175828563Y-145247874D02*
X176170583Y-144308182D01*
X176211218Y-144474997D01*
X176268139Y-144597065D01*
X176341347Y-144674385D01*
X121274409Y-116723116D02*
X121124095Y-116732138D01*
X120894113Y-116670515D01*
X120814445Y-116599869D01*
X120780773Y-116541548D01*
X120759426Y-116437230D01*
X120784075Y-116345237D01*
X120854721Y-116265569D01*
X120913042Y-116231897D01*
X121017360Y-116210550D01*
X121213671Y-116213852D01*
X121317988Y-116192505D01*
X121376309Y-116158834D01*
X121446955Y-116079165D01*
X121471605Y-115987173D01*
X121450258Y-115882855D01*
X121416586Y-115824534D01*
X121336918Y-115753888D01*
X121106935Y-115692264D01*
X120956621Y-115701287D01*
X120646971Y-115569017D02*
X120158169Y-116473319D01*
X120159054Y-115734073D01*
X119790198Y-116374722D01*
X119819034Y-115347172D01*
X118991098Y-115125327D02*
X119451063Y-115248574D01*
X119373812Y-115720864D01*
X119340140Y-115662543D01*
X119260472Y-115591897D01*
X119030490Y-115530273D01*
X118926172Y-115551620D01*
X118867851Y-115585292D01*
X118797205Y-115664960D01*
X118735581Y-115894942D01*
X118756928Y-115999260D01*
X118790600Y-116057581D01*
X118870268Y-116128227D01*
X119100251Y-116189851D01*
X119204568Y-116168504D01*
X119262889Y-116134832D01*
X118370912Y-115600034D02*
X117634968Y-115402839D01*
X116834984Y-114892690D02*
X116662438Y-115536641D01*
X117163564Y-114586342D02*
X117208675Y-115337913D01*
X116610721Y-115177691D01*
X126100409Y-98257316D02*
X125950095Y-98266338D01*
X125720113Y-98204715D01*
X125640445Y-98134069D01*
X125606773Y-98075748D01*
X125585426Y-97971430D01*
X125610075Y-97879437D01*
X125680721Y-97799769D01*
X125739042Y-97766097D01*
X125843360Y-97744750D01*
X126039671Y-97748052D01*
X126143988Y-97726705D01*
X126202309Y-97693034D01*
X126272955Y-97613365D01*
X126297605Y-97521373D01*
X126276258Y-97417055D01*
X126242586Y-97358734D01*
X126162918Y-97288088D01*
X125932935Y-97226464D01*
X125782621Y-97235487D01*
X125472971Y-97103217D02*
X124984169Y-98007519D01*
X124985054Y-97268273D01*
X124616198Y-97908922D01*
X124645034Y-96881372D01*
X123817098Y-96659527D02*
X124277063Y-96782774D01*
X124199812Y-97255064D01*
X124166140Y-97196743D01*
X124086472Y-97126097D01*
X123856490Y-97064473D01*
X123752172Y-97085820D01*
X123693851Y-97119492D01*
X123623205Y-97199160D01*
X123561581Y-97429142D01*
X123582928Y-97533460D01*
X123616600Y-97591781D01*
X123696268Y-97662427D01*
X123926251Y-97724051D01*
X124030568Y-97702704D01*
X124088889Y-97669032D01*
X123196912Y-97134234D02*
X122460968Y-96937039D01*
X122253218Y-96240487D02*
X121655264Y-96080266D01*
X121878641Y-96534510D01*
X121740652Y-96497536D01*
X121636334Y-96518883D01*
X121578013Y-96552555D01*
X121507367Y-96632223D01*
X121445744Y-96862206D01*
X121467091Y-96966523D01*
X121500762Y-97024844D01*
X121580431Y-97095490D01*
X121856410Y-97169439D01*
X121960727Y-97148092D01*
X122019048Y-97114420D01*
X131104209Y-79791516D02*
X130953895Y-79800538D01*
X130723913Y-79738915D01*
X130644245Y-79668269D01*
X130610573Y-79609948D01*
X130589226Y-79505630D01*
X130613875Y-79413637D01*
X130684521Y-79333969D01*
X130742842Y-79300297D01*
X130847160Y-79278950D01*
X131043471Y-79282252D01*
X131147788Y-79260905D01*
X131206109Y-79227234D01*
X131276755Y-79147565D01*
X131301405Y-79055573D01*
X131280058Y-78951255D01*
X131246386Y-78892934D01*
X131166718Y-78822288D01*
X130936735Y-78760664D01*
X130786421Y-78769687D01*
X130476771Y-78637417D02*
X129987969Y-79541719D01*
X129988854Y-78802473D01*
X129619998Y-79443122D01*
X129648834Y-78415572D01*
X128820898Y-78193727D02*
X129280863Y-78316974D01*
X129203612Y-78789264D01*
X129169940Y-78730943D01*
X129090272Y-78660297D01*
X128860290Y-78598673D01*
X128755972Y-78620020D01*
X128697651Y-78653692D01*
X128627005Y-78733360D01*
X128565381Y-78963342D01*
X128586728Y-79067660D01*
X128620400Y-79125981D01*
X128700068Y-79196627D01*
X128930051Y-79258251D01*
X129034368Y-79236904D01*
X129092689Y-79203232D01*
X128200712Y-78668434D02*
X127464768Y-78471239D01*
X127186372Y-77854355D02*
X127152700Y-77796034D01*
X127073032Y-77725388D01*
X126843050Y-77663764D01*
X126738732Y-77685111D01*
X126680411Y-77718783D01*
X126609765Y-77798451D01*
X126585116Y-77890444D01*
X126594138Y-78040759D01*
X126998199Y-78740613D01*
X126400245Y-78580391D01*
X135981009Y-61452716D02*
X135830695Y-61461738D01*
X135600713Y-61400115D01*
X135521045Y-61329469D01*
X135487373Y-61271148D01*
X135466026Y-61166830D01*
X135490675Y-61074837D01*
X135561321Y-60995169D01*
X135619642Y-60961497D01*
X135723960Y-60940150D01*
X135920271Y-60943452D01*
X136024588Y-60922105D01*
X136082909Y-60888434D01*
X136153555Y-60808765D01*
X136178205Y-60716773D01*
X136156858Y-60612455D01*
X136123186Y-60554134D01*
X136043518Y-60483488D01*
X135813535Y-60421864D01*
X135663221Y-60430887D01*
X135353571Y-60298617D02*
X134864769Y-61202919D01*
X134865654Y-60463673D01*
X134496798Y-61104322D01*
X134525634Y-60076772D01*
X133697698Y-59854927D02*
X134157663Y-59978174D01*
X134080412Y-60450464D01*
X134046740Y-60392143D01*
X133967072Y-60321497D01*
X133737090Y-60259873D01*
X133632772Y-60281220D01*
X133574451Y-60314892D01*
X133503805Y-60394560D01*
X133442181Y-60624542D01*
X133463528Y-60728860D01*
X133497200Y-60787181D01*
X133576868Y-60857827D01*
X133806851Y-60919451D01*
X133911168Y-60898104D01*
X133969489Y-60864432D01*
X133077512Y-60329634D02*
X132341568Y-60132439D01*
X131277045Y-60241591D02*
X131829002Y-60389488D01*
X131553024Y-60315540D02*
X131811843Y-59349614D01*
X131866861Y-59512253D01*
X131934205Y-59628895D01*
X132013873Y-59699541D01*
X104027809Y-107172716D02*
X103877495Y-107181738D01*
X103647513Y-107120115D01*
X103567845Y-107049469D01*
X103534173Y-106991148D01*
X103512826Y-106886830D01*
X103537475Y-106794837D01*
X103608121Y-106715169D01*
X103666442Y-106681497D01*
X103770760Y-106660150D01*
X103967071Y-106663452D01*
X104071388Y-106642105D01*
X104129709Y-106608434D01*
X104200355Y-106528765D01*
X104225005Y-106436773D01*
X104203658Y-106332455D01*
X104169986Y-106274134D01*
X104090318Y-106203488D01*
X103860335Y-106141864D01*
X103710021Y-106150887D01*
X103400371Y-106018617D02*
X102911569Y-106922919D01*
X102912454Y-106183673D01*
X102543598Y-106824322D01*
X102572434Y-105796772D01*
X101704221Y-105909227D02*
X101531675Y-106553178D01*
X102032801Y-105602879D02*
X102077913Y-106354450D01*
X101479959Y-106194228D01*
X101124312Y-106049634D02*
X100388368Y-105852439D01*
X99588384Y-105342290D02*
X99415838Y-105986241D01*
X99916964Y-105035942D02*
X99962075Y-105787513D01*
X99364121Y-105627291D01*
X109057009Y-88706916D02*
X108906695Y-88715938D01*
X108676713Y-88654315D01*
X108597045Y-88583669D01*
X108563373Y-88525348D01*
X108542026Y-88421030D01*
X108566675Y-88329037D01*
X108637321Y-88249369D01*
X108695642Y-88215697D01*
X108799960Y-88194350D01*
X108996271Y-88197652D01*
X109100588Y-88176305D01*
X109158909Y-88142634D01*
X109229555Y-88062965D01*
X109254205Y-87970973D01*
X109232858Y-87866655D01*
X109199186Y-87808334D01*
X109119518Y-87737688D01*
X108889535Y-87676064D01*
X108739221Y-87685087D01*
X108429571Y-87552817D02*
X107940769Y-88457119D01*
X107941654Y-87717873D01*
X107572798Y-88358522D01*
X107601634Y-87330972D01*
X106733421Y-87443427D02*
X106560875Y-88087378D01*
X107062001Y-87137079D02*
X107107113Y-87888650D01*
X106509159Y-87728428D01*
X106153512Y-87583834D02*
X105417568Y-87386639D01*
X105209818Y-86690087D02*
X104611864Y-86529866D01*
X104835241Y-86984110D01*
X104697252Y-86947136D01*
X104592934Y-86968483D01*
X104534613Y-87002155D01*
X104463967Y-87081823D01*
X104402344Y-87311806D01*
X104423691Y-87416123D01*
X104457362Y-87474444D01*
X104537031Y-87545090D01*
X104813010Y-87619039D01*
X104917327Y-87597692D01*
X104975648Y-87564020D01*
X118836009Y-51876916D02*
X118685695Y-51885938D01*
X118455713Y-51824315D01*
X118376045Y-51753669D01*
X118342373Y-51695348D01*
X118321026Y-51591030D01*
X118345675Y-51499037D01*
X118416321Y-51419369D01*
X118474642Y-51385697D01*
X118578960Y-51364350D01*
X118775271Y-51367652D01*
X118879588Y-51346305D01*
X118937909Y-51312634D01*
X119008555Y-51232965D01*
X119033205Y-51140973D01*
X119011858Y-51036655D01*
X118978186Y-50978334D01*
X118898518Y-50907688D01*
X118668535Y-50846064D01*
X118518221Y-50855087D01*
X118208571Y-50722817D02*
X117719769Y-51627119D01*
X117720654Y-50887873D01*
X117351798Y-51528522D01*
X117380634Y-50500972D01*
X116512421Y-50613427D02*
X116339875Y-51257378D01*
X116841001Y-50307079D02*
X116886113Y-51058650D01*
X116288159Y-50898428D01*
X115932512Y-50753834D02*
X115196568Y-50556639D01*
X114132045Y-50665791D02*
X114684002Y-50813688D01*
X114408024Y-50739740D02*
X114666843Y-49773814D01*
X114721861Y-49936453D01*
X114789205Y-50053095D01*
X114868873Y-50123741D01*
X86832009Y-97546116D02*
X86681695Y-97555138D01*
X86451713Y-97493515D01*
X86372045Y-97422869D01*
X86338373Y-97364548D01*
X86317026Y-97260230D01*
X86341675Y-97168237D01*
X86412321Y-97088569D01*
X86470642Y-97054897D01*
X86574960Y-97033550D01*
X86771271Y-97036852D01*
X86875588Y-97015505D01*
X86933909Y-96981834D01*
X87004555Y-96902165D01*
X87029205Y-96810173D01*
X87007858Y-96705855D01*
X86974186Y-96647534D01*
X86894518Y-96576888D01*
X86664535Y-96515264D01*
X86514221Y-96524287D01*
X86204571Y-96392017D02*
X85715769Y-97296319D01*
X85716654Y-96557073D01*
X85347798Y-97197722D01*
X85376634Y-96170172D01*
X85100655Y-96096224D02*
X84502701Y-95936003D01*
X84726079Y-96390247D01*
X84588090Y-96353273D01*
X84483772Y-96374620D01*
X84425451Y-96408292D01*
X84354805Y-96487960D01*
X84293181Y-96717942D01*
X84314528Y-96822260D01*
X84348200Y-96880581D01*
X84427868Y-96951227D01*
X84703847Y-97025176D01*
X84808165Y-97003828D01*
X84866486Y-96970157D01*
X83928512Y-96423034D02*
X83192568Y-96225839D01*
X82392584Y-95715690D02*
X82220038Y-96359641D01*
X82721164Y-95409342D02*
X82766275Y-96160913D01*
X82168321Y-96000691D01*
X91861209Y-79131116D02*
X91710895Y-79140138D01*
X91480913Y-79078515D01*
X91401245Y-79007869D01*
X91367573Y-78949548D01*
X91346226Y-78845230D01*
X91370875Y-78753237D01*
X91441521Y-78673569D01*
X91499842Y-78639897D01*
X91604160Y-78618550D01*
X91800471Y-78621852D01*
X91904788Y-78600505D01*
X91963109Y-78566834D01*
X92033755Y-78487165D01*
X92058405Y-78395173D01*
X92037058Y-78290855D01*
X92003386Y-78232534D01*
X91923718Y-78161888D01*
X91693735Y-78100264D01*
X91543421Y-78109287D01*
X91233771Y-77977017D02*
X90744969Y-78881319D01*
X90745854Y-78142073D01*
X90376998Y-78782722D01*
X90405834Y-77755172D01*
X90129855Y-77681224D02*
X89531901Y-77521003D01*
X89755279Y-77975247D01*
X89617290Y-77938273D01*
X89512972Y-77959620D01*
X89454651Y-77993292D01*
X89384005Y-78072960D01*
X89322381Y-78302942D01*
X89343728Y-78407260D01*
X89377400Y-78465581D01*
X89457068Y-78536227D01*
X89733047Y-78610176D01*
X89837365Y-78588828D01*
X89895686Y-78555157D01*
X88957712Y-78008034D02*
X88221768Y-77810839D01*
X88014018Y-77114287D02*
X87416064Y-76954066D01*
X87639441Y-77408310D01*
X87501452Y-77371336D01*
X87397134Y-77392683D01*
X87338813Y-77426355D01*
X87268167Y-77506023D01*
X87206544Y-77736006D01*
X87227891Y-77840323D01*
X87261562Y-77898644D01*
X87341231Y-77969290D01*
X87617210Y-78043239D01*
X87721527Y-78021892D01*
X87779848Y-77988220D01*
X96763409Y-60741516D02*
X96613095Y-60750538D01*
X96383113Y-60688915D01*
X96303445Y-60618269D01*
X96269773Y-60559948D01*
X96248426Y-60455630D01*
X96273075Y-60363637D01*
X96343721Y-60283969D01*
X96402042Y-60250297D01*
X96506360Y-60228950D01*
X96702671Y-60232252D01*
X96806988Y-60210905D01*
X96865309Y-60177234D01*
X96935955Y-60097565D01*
X96960605Y-60005573D01*
X96939258Y-59901255D01*
X96905586Y-59842934D01*
X96825918Y-59772288D01*
X96595935Y-59710664D01*
X96445621Y-59719687D01*
X96135971Y-59587417D02*
X95647169Y-60491719D01*
X95648054Y-59752473D01*
X95279198Y-60393122D01*
X95308034Y-59365572D01*
X95032055Y-59291624D02*
X94434101Y-59131403D01*
X94657479Y-59585647D01*
X94519490Y-59548673D01*
X94415172Y-59570020D01*
X94356851Y-59603692D01*
X94286205Y-59683360D01*
X94224581Y-59913342D01*
X94245928Y-60017660D01*
X94279600Y-60075981D01*
X94359268Y-60146627D01*
X94635247Y-60220576D01*
X94739565Y-60199228D01*
X94797886Y-60165557D01*
X93859912Y-59618434D02*
X93123968Y-59421239D01*
X92845572Y-58804355D02*
X92811900Y-58746034D01*
X92732232Y-58675388D01*
X92502250Y-58613764D01*
X92397932Y-58635111D01*
X92339611Y-58668783D01*
X92268965Y-58748451D01*
X92244316Y-58840444D01*
X92253338Y-58990759D01*
X92657399Y-59690613D01*
X92059445Y-59530391D01*
X101640209Y-42402716D02*
X101489895Y-42411738D01*
X101259913Y-42350115D01*
X101180245Y-42279469D01*
X101146573Y-42221148D01*
X101125226Y-42116830D01*
X101149875Y-42024837D01*
X101220521Y-41945169D01*
X101278842Y-41911497D01*
X101383160Y-41890150D01*
X101579471Y-41893452D01*
X101683788Y-41872105D01*
X101742109Y-41838434D01*
X101812755Y-41758765D01*
X101837405Y-41666773D01*
X101816058Y-41562455D01*
X101782386Y-41504134D01*
X101702718Y-41433488D01*
X101472735Y-41371864D01*
X101322421Y-41380887D01*
X101012771Y-41248617D02*
X100523969Y-42152919D01*
X100524854Y-41413673D01*
X100155998Y-42054322D01*
X100184834Y-41026772D01*
X99908855Y-40952824D02*
X99310901Y-40792603D01*
X99534279Y-41246847D01*
X99396290Y-41209873D01*
X99291972Y-41231220D01*
X99233651Y-41264892D01*
X99163005Y-41344560D01*
X99101381Y-41574542D01*
X99122728Y-41678860D01*
X99156400Y-41737181D01*
X99236068Y-41807827D01*
X99512047Y-41881776D01*
X99616365Y-41860428D01*
X99674686Y-41826757D01*
X98736712Y-41279634D02*
X98000768Y-41082439D01*
X96936245Y-41191591D02*
X97488202Y-41339488D01*
X97212224Y-41265540D02*
X97471043Y-40299614D01*
X97526061Y-40462253D01*
X97593405Y-40578895D01*
X97673073Y-40649541D01*
X67223209Y-97266716D02*
X67072895Y-97275738D01*
X66842913Y-97214115D01*
X66763245Y-97143469D01*
X66729573Y-97085148D01*
X66708226Y-96980830D01*
X66732875Y-96888837D01*
X66803521Y-96809169D01*
X66861842Y-96775497D01*
X66966160Y-96754150D01*
X67162471Y-96757452D01*
X67266788Y-96736105D01*
X67325109Y-96702434D01*
X67395755Y-96622765D01*
X67420405Y-96530773D01*
X67399058Y-96426455D01*
X67365386Y-96368134D01*
X67285718Y-96297488D01*
X67055735Y-96235864D01*
X66905421Y-96244887D01*
X66595771Y-96112617D02*
X66106969Y-97016919D01*
X66107854Y-96277673D01*
X65738998Y-96918322D01*
X65767834Y-95890772D01*
X65421210Y-95896492D02*
X65387538Y-95838171D01*
X65307870Y-95767525D01*
X65077887Y-95705901D01*
X64973570Y-95727248D01*
X64915248Y-95760920D01*
X64844603Y-95840588D01*
X64819953Y-95932581D01*
X64828975Y-96082895D01*
X65233036Y-96782750D01*
X64635082Y-96622528D01*
X64319712Y-96143634D02*
X63583768Y-95946439D01*
X62783784Y-95436290D02*
X62611238Y-96080241D01*
X63112364Y-95129942D02*
X63157475Y-95881513D01*
X62559521Y-95721291D01*
X77154609Y-60462116D02*
X77004295Y-60471138D01*
X76774313Y-60409515D01*
X76694645Y-60338869D01*
X76660973Y-60280548D01*
X76639626Y-60176230D01*
X76664275Y-60084237D01*
X76734921Y-60004569D01*
X76793242Y-59970897D01*
X76897560Y-59949550D01*
X77093871Y-59952852D01*
X77198188Y-59931505D01*
X77256509Y-59897834D01*
X77327155Y-59818165D01*
X77351805Y-59726173D01*
X77330458Y-59621855D01*
X77296786Y-59563534D01*
X77217118Y-59492888D01*
X76987135Y-59431264D01*
X76836821Y-59440287D01*
X76527171Y-59308017D02*
X76038369Y-60212319D01*
X76039254Y-59473073D01*
X75670398Y-60113722D01*
X75699234Y-59086172D01*
X75352610Y-59091892D02*
X75318938Y-59033571D01*
X75239270Y-58962925D01*
X75009287Y-58901301D01*
X74904970Y-58922648D01*
X74846648Y-58956320D01*
X74776003Y-59035988D01*
X74751353Y-59127981D01*
X74760375Y-59278295D01*
X75164436Y-59978150D01*
X74566482Y-59817928D01*
X74251112Y-59339034D02*
X73515168Y-59141839D01*
X73236772Y-58524955D02*
X73203100Y-58466634D01*
X73123432Y-58395988D01*
X72893450Y-58334364D01*
X72789132Y-58355711D01*
X72730811Y-58389383D01*
X72660165Y-58469051D01*
X72635516Y-58561044D01*
X72644538Y-58711359D01*
X73048599Y-59411213D01*
X72450645Y-59250991D01*
X82056809Y-42072516D02*
X81906495Y-42081538D01*
X81676513Y-42019915D01*
X81596845Y-41949269D01*
X81563173Y-41890948D01*
X81541826Y-41786630D01*
X81566475Y-41694637D01*
X81637121Y-41614969D01*
X81695442Y-41581297D01*
X81799760Y-41559950D01*
X81996071Y-41563252D01*
X82100388Y-41541905D01*
X82158709Y-41508234D01*
X82229355Y-41428565D01*
X82254005Y-41336573D01*
X82232658Y-41232255D01*
X82198986Y-41173934D01*
X82119318Y-41103288D01*
X81889335Y-41041664D01*
X81739021Y-41050687D01*
X81429371Y-40918417D02*
X80940569Y-41822719D01*
X80941454Y-41083473D01*
X80572598Y-41724122D01*
X80601434Y-40696572D01*
X80254810Y-40702292D02*
X80221138Y-40643971D01*
X80141470Y-40573325D01*
X79911487Y-40511701D01*
X79807170Y-40533048D01*
X79748848Y-40566720D01*
X79678203Y-40646388D01*
X79653553Y-40738381D01*
X79662575Y-40888695D01*
X80066636Y-41588550D01*
X79468682Y-41428328D01*
X79153312Y-40949434D02*
X78417368Y-40752239D01*
X77352845Y-40861391D02*
X77904802Y-41009288D01*
X77628824Y-40935340D02*
X77887643Y-39969414D01*
X77942661Y-40132053D01*
X78010005Y-40248695D01*
X78089673Y-40319341D01*
X249408594Y-81433748D02*
X249282929Y-81516718D01*
X249052947Y-81578342D01*
X248948629Y-81556995D01*
X248890308Y-81523323D01*
X248819662Y-81443655D01*
X248795013Y-81351662D01*
X248816360Y-81247344D01*
X248850032Y-81189023D01*
X248929700Y-81118377D01*
X249101361Y-81023082D01*
X249181029Y-80952436D01*
X249214701Y-80894115D01*
X249236048Y-80789797D01*
X249211399Y-80697804D01*
X249140753Y-80618136D01*
X249082432Y-80584464D01*
X248978114Y-80563117D01*
X248748132Y-80624741D01*
X248622467Y-80707711D01*
X248288167Y-80747988D02*
X248317004Y-81775537D01*
X247948147Y-81134889D01*
X247949032Y-81874135D01*
X247460230Y-80969833D01*
X246845117Y-82169928D02*
X247397074Y-82022032D01*
X247121095Y-82095980D02*
X246862276Y-81130054D01*
X246991243Y-81243394D01*
X247107886Y-81310738D01*
X247212204Y-81332085D01*
X245925187Y-82416423D02*
X246477145Y-82268526D01*
X246201166Y-82342474D02*
X245942347Y-81376549D01*
X246071314Y-81489889D01*
X246187957Y-81557232D01*
X246292274Y-81578579D01*
X245412621Y-82159373D02*
X244676678Y-82356569D01*
X244148485Y-81857213D02*
X243550531Y-82017434D01*
X243971104Y-82299133D01*
X243833114Y-82336107D01*
X243753446Y-82406753D01*
X243719774Y-82465074D01*
X243698427Y-82569391D01*
X243760051Y-82799374D01*
X243830697Y-82879042D01*
X243889018Y-82912714D01*
X243993336Y-82934061D01*
X244269314Y-82860112D01*
X244348983Y-82789467D01*
X244382654Y-82731145D01*
X244455594Y-63044148D02*
X244329929Y-63127118D01*
X244099947Y-63188742D01*
X243995629Y-63167395D01*
X243937308Y-63133723D01*
X243866662Y-63054055D01*
X243842013Y-62962062D01*
X243863360Y-62857744D01*
X243897032Y-62799423D01*
X243976700Y-62728777D01*
X244148361Y-62633482D01*
X244228029Y-62562836D01*
X244261701Y-62504515D01*
X244283048Y-62400197D01*
X244258399Y-62308204D01*
X244187753Y-62228536D01*
X244129432Y-62194864D01*
X244025114Y-62173517D01*
X243795132Y-62235141D01*
X243669467Y-62318111D01*
X243335167Y-62358388D02*
X243364004Y-63385937D01*
X242995147Y-62745289D01*
X242996032Y-63484535D01*
X242507230Y-62580233D01*
X241892117Y-63780328D02*
X242444074Y-63632432D01*
X242168095Y-63706380D02*
X241909276Y-62740454D01*
X242038243Y-62853794D01*
X242154886Y-62921138D01*
X242259204Y-62942485D01*
X240972187Y-64026823D02*
X241524145Y-63878926D01*
X241248166Y-63952874D02*
X240989347Y-62986949D01*
X241118314Y-63100289D01*
X241234957Y-63167632D01*
X241339274Y-63188979D01*
X240459621Y-63769773D02*
X239723678Y-63966969D01*
X239174138Y-63571930D02*
X239115817Y-63538258D01*
X239011499Y-63516911D01*
X238781517Y-63578535D01*
X238701848Y-63649181D01*
X238668177Y-63707502D01*
X238646830Y-63811820D01*
X238671479Y-63903813D01*
X238754450Y-64029477D01*
X239454304Y-64433538D01*
X238856350Y-64593760D01*
X233406594Y-95429148D02*
X233280929Y-95512118D01*
X233050947Y-95573742D01*
X232946629Y-95552395D01*
X232888308Y-95518723D01*
X232817662Y-95439055D01*
X232793013Y-95347062D01*
X232814360Y-95242744D01*
X232848032Y-95184423D01*
X232927700Y-95113777D01*
X233099361Y-95018482D01*
X233179029Y-94947836D01*
X233212701Y-94889515D01*
X233234048Y-94785197D01*
X233209399Y-94693204D01*
X233138753Y-94613536D01*
X233080432Y-94579864D01*
X232976114Y-94558517D01*
X232746132Y-94620141D01*
X232620467Y-94703111D01*
X232286167Y-94743388D02*
X232315004Y-95770937D01*
X231946147Y-95130289D01*
X231947032Y-95869535D01*
X231458230Y-94965233D01*
X230843117Y-96165328D02*
X231395074Y-96017432D01*
X231119095Y-96091380D02*
X230860276Y-95125454D01*
X230989243Y-95238794D01*
X231105886Y-95306138D01*
X231210204Y-95327485D01*
X229986344Y-95359624D02*
X229894351Y-95384273D01*
X229814682Y-95454919D01*
X229781011Y-95513240D01*
X229759664Y-95617558D01*
X229762966Y-95813869D01*
X229824590Y-96043851D01*
X229919885Y-96215512D01*
X229990531Y-96295180D01*
X230048852Y-96328852D01*
X230153170Y-96350199D01*
X230245163Y-96325550D01*
X230324831Y-96254904D01*
X230358503Y-96196583D01*
X230379850Y-96092265D01*
X230376547Y-95895954D01*
X230314924Y-95665972D01*
X230219628Y-95494311D01*
X230148982Y-95414643D01*
X230090661Y-95380971D01*
X229986344Y-95359624D01*
X229410621Y-96154773D02*
X228674678Y-96351969D01*
X227726797Y-96310160D02*
X227899343Y-96954110D01*
X227858181Y-95880564D02*
X228273034Y-96508888D01*
X227675080Y-96669109D01*
X228555194Y-77115748D02*
X228429529Y-77198718D01*
X228199547Y-77260342D01*
X228095229Y-77238995D01*
X228036908Y-77205323D01*
X227966262Y-77125655D01*
X227941613Y-77033662D01*
X227962960Y-76929344D01*
X227996632Y-76871023D01*
X228076300Y-76800377D01*
X228247961Y-76705082D01*
X228327629Y-76634436D01*
X228361301Y-76576115D01*
X228382648Y-76471797D01*
X228357999Y-76379804D01*
X228287353Y-76300136D01*
X228229032Y-76266464D01*
X228124714Y-76245117D01*
X227894732Y-76306741D01*
X227769067Y-76389711D01*
X227434767Y-76429988D02*
X227463604Y-77457537D01*
X227094747Y-76816889D01*
X227095632Y-77556135D01*
X226606830Y-76651833D01*
X225991717Y-77851928D02*
X226543674Y-77704032D01*
X226267695Y-77777980D02*
X226008876Y-76812054D01*
X226137843Y-76925394D01*
X226254486Y-76992738D01*
X226358804Y-77014085D01*
X225134944Y-77046224D02*
X225042951Y-77070873D01*
X224963282Y-77141519D01*
X224929611Y-77199840D01*
X224908264Y-77304158D01*
X224911566Y-77500469D01*
X224973190Y-77730451D01*
X225068485Y-77902112D01*
X225139131Y-77981780D01*
X225197452Y-78015452D01*
X225301770Y-78036799D01*
X225393763Y-78012150D01*
X225473431Y-77941504D01*
X225507103Y-77883183D01*
X225528450Y-77778865D01*
X225525147Y-77582554D01*
X225463524Y-77352572D01*
X225368228Y-77180911D01*
X225297582Y-77101243D01*
X225239261Y-77067571D01*
X225134944Y-77046224D01*
X224559221Y-77841373D02*
X223823278Y-78038569D01*
X223295085Y-77539213D02*
X222697131Y-77699434D01*
X223117704Y-77981133D01*
X222979714Y-78018107D01*
X222900046Y-78088753D01*
X222866374Y-78147074D01*
X222845027Y-78251391D01*
X222906651Y-78481374D01*
X222977297Y-78561042D01*
X223035618Y-78594714D01*
X223139936Y-78616061D01*
X223415914Y-78542112D01*
X223495583Y-78471467D01*
X223529254Y-78413145D01*
X223627594Y-58700748D02*
X223501929Y-58783718D01*
X223271947Y-58845342D01*
X223167629Y-58823995D01*
X223109308Y-58790323D01*
X223038662Y-58710655D01*
X223014013Y-58618662D01*
X223035360Y-58514344D01*
X223069032Y-58456023D01*
X223148700Y-58385377D01*
X223320361Y-58290082D01*
X223400029Y-58219436D01*
X223433701Y-58161115D01*
X223455048Y-58056797D01*
X223430399Y-57964804D01*
X223359753Y-57885136D01*
X223301432Y-57851464D01*
X223197114Y-57830117D01*
X222967132Y-57891741D01*
X222841467Y-57974711D01*
X222507167Y-58014988D02*
X222536004Y-59042537D01*
X222167147Y-58401889D01*
X222168032Y-59141135D01*
X221679230Y-58236833D01*
X221064117Y-59436928D02*
X221616074Y-59289032D01*
X221340095Y-59362980D02*
X221081276Y-58397054D01*
X221210243Y-58510394D01*
X221326886Y-58577738D01*
X221431204Y-58599085D01*
X220207344Y-58631224D02*
X220115351Y-58655873D01*
X220035682Y-58726519D01*
X220002011Y-58784840D01*
X219980664Y-58889158D01*
X219983966Y-59085469D01*
X220045590Y-59315451D01*
X220140885Y-59487112D01*
X220211531Y-59566780D01*
X220269852Y-59600452D01*
X220374170Y-59621799D01*
X220466163Y-59597150D01*
X220545831Y-59526504D01*
X220579503Y-59468183D01*
X220600850Y-59363865D01*
X220597547Y-59167554D01*
X220535924Y-58937572D01*
X220440628Y-58765911D01*
X220369982Y-58686243D01*
X220311661Y-58652571D01*
X220207344Y-58631224D01*
X219631621Y-59426373D02*
X218895678Y-59623569D01*
X218346138Y-59228530D02*
X218287817Y-59194858D01*
X218183499Y-59173511D01*
X217953517Y-59235135D01*
X217873848Y-59305781D01*
X217840177Y-59364102D01*
X217818830Y-59468420D01*
X217843479Y-59560413D01*
X217926450Y-59686077D01*
X218626304Y-60090138D01*
X218028350Y-60250360D01*
X218649194Y-40336548D02*
X218523529Y-40419518D01*
X218293547Y-40481142D01*
X218189229Y-40459795D01*
X218130908Y-40426123D01*
X218060262Y-40346455D01*
X218035613Y-40254462D01*
X218056960Y-40150144D01*
X218090632Y-40091823D01*
X218170300Y-40021177D01*
X218341961Y-39925882D01*
X218421629Y-39855236D01*
X218455301Y-39796915D01*
X218476648Y-39692597D01*
X218451999Y-39600604D01*
X218381353Y-39520936D01*
X218323032Y-39487264D01*
X218218714Y-39465917D01*
X217988732Y-39527541D01*
X217863067Y-39610511D01*
X217528767Y-39650788D02*
X217557604Y-40678337D01*
X217188747Y-40037689D01*
X217189632Y-40776935D01*
X216700830Y-39872633D01*
X216085717Y-41072728D02*
X216637674Y-40924832D01*
X216361695Y-40998780D02*
X216102876Y-40032854D01*
X216231843Y-40146194D01*
X216348486Y-40213538D01*
X216452804Y-40234885D01*
X215228944Y-40267024D02*
X215136951Y-40291673D01*
X215057282Y-40362319D01*
X215023611Y-40420640D01*
X215002264Y-40524958D01*
X215005566Y-40721269D01*
X215067190Y-40951251D01*
X215162485Y-41122912D01*
X215233131Y-41202580D01*
X215291452Y-41236252D01*
X215395770Y-41257599D01*
X215487763Y-41232950D01*
X215567431Y-41162304D01*
X215601103Y-41103983D01*
X215622450Y-40999665D01*
X215619147Y-40803354D01*
X215557524Y-40573372D01*
X215462228Y-40401711D01*
X215391582Y-40322043D01*
X215333261Y-40288371D01*
X215228944Y-40267024D01*
X214653221Y-41062173D02*
X213917278Y-41259369D01*
X213049950Y-41886160D02*
X213601907Y-41738263D01*
X213325929Y-41812211D02*
X213067110Y-40846286D01*
X213196077Y-40959625D01*
X213312719Y-41026969D01*
X213417037Y-41048316D01*
X51322809Y-83144316D02*
X51172495Y-83153338D01*
X50942513Y-83091715D01*
X50862845Y-83021069D01*
X50829173Y-82962748D01*
X50807826Y-82858430D01*
X50832475Y-82766437D01*
X50903121Y-82686769D01*
X50961442Y-82653097D01*
X51065760Y-82631750D01*
X51262071Y-82635052D01*
X51366388Y-82613705D01*
X51424709Y-82580034D01*
X51495355Y-82500365D01*
X51520005Y-82408373D01*
X51498658Y-82304055D01*
X51464986Y-82245734D01*
X51385318Y-82175088D01*
X51155335Y-82113464D01*
X51005021Y-82122487D01*
X50695371Y-81990217D02*
X50206569Y-82894519D01*
X50207454Y-82155273D01*
X49838598Y-82795922D01*
X49867434Y-81768372D01*
X48734682Y-82500128D02*
X49286640Y-82648025D01*
X49010661Y-82574077D02*
X49269480Y-81608151D01*
X49324499Y-81770790D01*
X49391842Y-81887432D01*
X49471511Y-81958078D01*
X48419312Y-82021234D02*
X47683368Y-81824039D01*
X47475618Y-81127487D02*
X46877664Y-80967266D01*
X47101041Y-81421510D01*
X46963052Y-81384536D01*
X46858734Y-81405883D01*
X46800413Y-81439555D01*
X46729767Y-81519223D01*
X46668144Y-81749206D01*
X46689491Y-81853523D01*
X46723162Y-81911844D01*
X46802831Y-81982490D01*
X47078810Y-82056439D01*
X47183127Y-82035092D01*
X47241448Y-82001420D01*
X56174209Y-64754716D02*
X56023895Y-64763738D01*
X55793913Y-64702115D01*
X55714245Y-64631469D01*
X55680573Y-64573148D01*
X55659226Y-64468830D01*
X55683875Y-64376837D01*
X55754521Y-64297169D01*
X55812842Y-64263497D01*
X55917160Y-64242150D01*
X56113471Y-64245452D01*
X56217788Y-64224105D01*
X56276109Y-64190434D01*
X56346755Y-64110765D01*
X56371405Y-64018773D01*
X56350058Y-63914455D01*
X56316386Y-63856134D01*
X56236718Y-63785488D01*
X56006735Y-63723864D01*
X55856421Y-63732887D01*
X55546771Y-63600617D02*
X55057969Y-64504919D01*
X55058854Y-63765673D01*
X54689998Y-64406322D01*
X54718834Y-63378772D01*
X53586082Y-64110528D02*
X54138040Y-64258425D01*
X53862061Y-64184477D02*
X54120880Y-63218551D01*
X54175899Y-63381190D01*
X54243242Y-63497832D01*
X54322911Y-63568478D01*
X53270712Y-63631634D02*
X52534768Y-63434439D01*
X52256372Y-62817555D02*
X52222700Y-62759234D01*
X52143032Y-62688588D01*
X51913050Y-62626964D01*
X51808732Y-62648311D01*
X51750411Y-62681983D01*
X51679765Y-62761651D01*
X51655116Y-62853644D01*
X51664138Y-63003959D01*
X52068199Y-63703813D01*
X51470245Y-63543591D01*
X61152609Y-46263516D02*
X61002295Y-46272538D01*
X60772313Y-46210915D01*
X60692645Y-46140269D01*
X60658973Y-46081948D01*
X60637626Y-45977630D01*
X60662275Y-45885637D01*
X60732921Y-45805969D01*
X60791242Y-45772297D01*
X60895560Y-45750950D01*
X61091871Y-45754252D01*
X61196188Y-45732905D01*
X61254509Y-45699234D01*
X61325155Y-45619565D01*
X61349805Y-45527573D01*
X61328458Y-45423255D01*
X61294786Y-45364934D01*
X61215118Y-45294288D01*
X60985135Y-45232664D01*
X60834821Y-45241687D01*
X60525171Y-45109417D02*
X60036369Y-46013719D01*
X60037254Y-45274473D01*
X59668398Y-45915122D01*
X59697234Y-44887572D01*
X58564482Y-45619328D02*
X59116440Y-45767225D01*
X58840461Y-45693277D02*
X59099280Y-44727351D01*
X59154299Y-44889990D01*
X59221642Y-45006632D01*
X59301311Y-45077278D01*
X58249112Y-45140434D02*
X57513168Y-44943239D01*
X56448645Y-45052391D02*
X57000602Y-45200288D01*
X56724624Y-45126340D02*
X56983443Y-44160414D01*
X57038461Y-44323053D01*
X57105805Y-44439695D01*
X57185473Y-44510341D01*
X154428548Y-90925704D02*
X153971405Y-90925704D01*
X154199976Y-91725704D02*
X154199976Y-90925704D01*
X153780929Y-90925704D02*
X153247595Y-91725704D01*
X153247595Y-90925704D02*
X153780929Y-91725704D01*
X152790452Y-90925704D02*
X152714262Y-90925704D01*
X152638072Y-90963800D01*
X152599976Y-91001895D01*
X152561881Y-91078085D01*
X152523786Y-91230466D01*
X152523786Y-91420942D01*
X152561881Y-91573323D01*
X152599976Y-91649514D01*
X152638072Y-91687609D01*
X152714262Y-91725704D01*
X152790452Y-91725704D01*
X152866643Y-91687609D01*
X152904738Y-91649514D01*
X152942833Y-91573323D01*
X152980929Y-91420942D01*
X152980929Y-91230466D01*
X152942833Y-91078085D01*
X152904738Y-91001895D01*
X152866643Y-90963800D01*
X152790452Y-90925704D01*
X151609500Y-90887609D02*
X152295214Y-91916180D01*
X151342833Y-91725704D02*
X151342833Y-90925704D01*
X151152357Y-90925704D01*
X151038072Y-90963800D01*
X150961881Y-91039990D01*
X150923786Y-91116180D01*
X150885691Y-91268561D01*
X150885691Y-91382847D01*
X150923786Y-91535228D01*
X150961881Y-91611419D01*
X151038072Y-91687609D01*
X151152357Y-91725704D01*
X151342833Y-91725704D01*
X150619024Y-90925704D02*
X150123786Y-90925704D01*
X150390452Y-91230466D01*
X150276167Y-91230466D01*
X150199976Y-91268561D01*
X150161881Y-91306657D01*
X150123786Y-91382847D01*
X150123786Y-91573323D01*
X150161881Y-91649514D01*
X150199976Y-91687609D01*
X150276167Y-91725704D01*
X150504738Y-91725704D01*
X150580929Y-91687609D01*
X150619024Y-91649514D01*
X154717676Y-94265704D02*
X154717676Y-93465704D01*
X154527200Y-93465704D01*
X154412914Y-93503800D01*
X154336723Y-93579990D01*
X154298628Y-93656180D01*
X154260533Y-93808561D01*
X154260533Y-93922847D01*
X154298628Y-94075228D01*
X154336723Y-94151419D01*
X154412914Y-94227609D01*
X154527200Y-94265704D01*
X154717676Y-94265704D01*
X153955771Y-93541895D02*
X153917676Y-93503800D01*
X153841485Y-93465704D01*
X153651009Y-93465704D01*
X153574819Y-93503800D01*
X153536723Y-93541895D01*
X153498628Y-93618085D01*
X153498628Y-93694276D01*
X153536723Y-93808561D01*
X153993866Y-94265704D01*
X153498628Y-94265704D01*
X154717676Y-104425704D02*
X154717676Y-103625704D01*
X154527200Y-103625704D01*
X154412914Y-103663800D01*
X154336723Y-103739990D01*
X154298628Y-103816180D01*
X154260533Y-103968561D01*
X154260533Y-104082847D01*
X154298628Y-104235228D01*
X154336723Y-104311419D01*
X154412914Y-104387609D01*
X154527200Y-104425704D01*
X154717676Y-104425704D01*
X153765295Y-103625704D02*
X153689104Y-103625704D01*
X153612914Y-103663800D01*
X153574819Y-103701895D01*
X153536723Y-103778085D01*
X153498628Y-103930466D01*
X153498628Y-104120942D01*
X153536723Y-104273323D01*
X153574819Y-104349514D01*
X153612914Y-104387609D01*
X153689104Y-104425704D01*
X153765295Y-104425704D01*
X153841485Y-104387609D01*
X153879580Y-104349514D01*
X153917676Y-104273323D01*
X153955771Y-104120942D01*
X153955771Y-103930466D01*
X153917676Y-103778085D01*
X153879580Y-103701895D01*
X153841485Y-103663800D01*
X153765295Y-103625704D01*
X154717676Y-101885704D02*
X154717676Y-101085704D01*
X154527200Y-101085704D01*
X154412914Y-101123800D01*
X154336723Y-101199990D01*
X154298628Y-101276180D01*
X154260533Y-101428561D01*
X154260533Y-101542847D01*
X154298628Y-101695228D01*
X154336723Y-101771419D01*
X154412914Y-101847609D01*
X154527200Y-101885704D01*
X154717676Y-101885704D01*
X153498628Y-101885704D02*
X153955771Y-101885704D01*
X153727200Y-101885704D02*
X153727200Y-101085704D01*
X153803390Y-101199990D01*
X153879580Y-101276180D01*
X153955771Y-101314276D01*
X154736723Y-98583800D02*
X154812914Y-98545704D01*
X154927200Y-98545704D01*
X155041485Y-98583800D01*
X155117676Y-98659990D01*
X155155771Y-98736180D01*
X155193866Y-98888561D01*
X155193866Y-99002847D01*
X155155771Y-99155228D01*
X155117676Y-99231419D01*
X155041485Y-99307609D01*
X154927200Y-99345704D01*
X154851009Y-99345704D01*
X154736723Y-99307609D01*
X154698628Y-99269514D01*
X154698628Y-99002847D01*
X154851009Y-99002847D01*
X154355771Y-99345704D02*
X154355771Y-98545704D01*
X153898628Y-99345704D01*
X153898628Y-98545704D01*
X153517676Y-99345704D02*
X153517676Y-98545704D01*
X153327200Y-98545704D01*
X153212914Y-98583800D01*
X153136723Y-98659990D01*
X153098628Y-98736180D01*
X153060533Y-98888561D01*
X153060533Y-99002847D01*
X153098628Y-99155228D01*
X153136723Y-99231419D01*
X153212914Y-99307609D01*
X153327200Y-99345704D01*
X153517676Y-99345704D01*
X154736723Y-96043800D02*
X154812914Y-96005704D01*
X154927200Y-96005704D01*
X155041485Y-96043800D01*
X155117676Y-96119990D01*
X155155771Y-96196180D01*
X155193866Y-96348561D01*
X155193866Y-96462847D01*
X155155771Y-96615228D01*
X155117676Y-96691419D01*
X155041485Y-96767609D01*
X154927200Y-96805704D01*
X154851009Y-96805704D01*
X154736723Y-96767609D01*
X154698628Y-96729514D01*
X154698628Y-96462847D01*
X154851009Y-96462847D01*
X154355771Y-96805704D02*
X154355771Y-96005704D01*
X153898628Y-96805704D01*
X153898628Y-96005704D01*
X153517676Y-96805704D02*
X153517676Y-96005704D01*
X153327200Y-96005704D01*
X153212914Y-96043800D01*
X153136723Y-96119990D01*
X153098628Y-96196180D01*
X153060533Y-96348561D01*
X153060533Y-96462847D01*
X153098628Y-96615228D01*
X153136723Y-96691419D01*
X153212914Y-96767609D01*
X153327200Y-96805704D01*
X153517676Y-96805704D01*
X154717676Y-106965704D02*
X154717676Y-106165704D01*
X154527200Y-106165704D01*
X154412914Y-106203800D01*
X154336723Y-106279990D01*
X154298628Y-106356180D01*
X154260533Y-106508561D01*
X154260533Y-106622847D01*
X154298628Y-106775228D01*
X154336723Y-106851419D01*
X154412914Y-106927609D01*
X154527200Y-106965704D01*
X154717676Y-106965704D01*
X153574819Y-106432371D02*
X153574819Y-106965704D01*
X153765295Y-106127609D02*
X153955771Y-106699038D01*
X153460533Y-106699038D01*
X154260533Y-109429514D02*
X154298628Y-109467609D01*
X154412914Y-109505704D01*
X154489104Y-109505704D01*
X154603390Y-109467609D01*
X154679580Y-109391419D01*
X154717676Y-109315228D01*
X154755771Y-109162847D01*
X154755771Y-109048561D01*
X154717676Y-108896180D01*
X154679580Y-108819990D01*
X154603390Y-108743800D01*
X154489104Y-108705704D01*
X154412914Y-108705704D01*
X154298628Y-108743800D01*
X154260533Y-108781895D01*
X153574819Y-108705704D02*
X153727200Y-108705704D01*
X153803390Y-108743800D01*
X153841485Y-108781895D01*
X153917676Y-108896180D01*
X153955771Y-109048561D01*
X153955771Y-109353323D01*
X153917676Y-109429514D01*
X153879580Y-109467609D01*
X153803390Y-109505704D01*
X153651009Y-109505704D01*
X153574819Y-109467609D01*
X153536723Y-109429514D01*
X153498628Y-109353323D01*
X153498628Y-109162847D01*
X153536723Y-109086657D01*
X153574819Y-109048561D01*
X153651009Y-109010466D01*
X153803390Y-109010466D01*
X153879580Y-109048561D01*
X153917676Y-109086657D01*
X153955771Y-109162847D01*
X154717676Y-112045704D02*
X154717676Y-111245704D01*
X154527200Y-111245704D01*
X154412914Y-111283800D01*
X154336723Y-111359990D01*
X154298628Y-111436180D01*
X154260533Y-111588561D01*
X154260533Y-111702847D01*
X154298628Y-111855228D01*
X154336723Y-111931419D01*
X154412914Y-112007609D01*
X154527200Y-112045704D01*
X154717676Y-112045704D01*
X153993866Y-111245704D02*
X153460533Y-111245704D01*
X153803390Y-112045704D01*
X154679580Y-114166657D02*
X154412914Y-114166657D01*
X154298628Y-114585704D02*
X154679580Y-114585704D01*
X154679580Y-113785704D01*
X154298628Y-113785704D01*
X153612914Y-113785704D02*
X153765295Y-113785704D01*
X153841485Y-113823800D01*
X153879580Y-113861895D01*
X153955771Y-113976180D01*
X153993866Y-114128561D01*
X153993866Y-114433323D01*
X153955771Y-114509514D01*
X153917676Y-114547609D01*
X153841485Y-114585704D01*
X153689104Y-114585704D01*
X153612914Y-114547609D01*
X153574819Y-114509514D01*
X153536723Y-114433323D01*
X153536723Y-114242847D01*
X153574819Y-114166657D01*
X153612914Y-114128561D01*
X153689104Y-114090466D01*
X153841485Y-114090466D01*
X153917676Y-114128561D01*
X153955771Y-114166657D01*
X153993866Y-114242847D01*
X154451009Y-116706657D02*
X154336723Y-116744752D01*
X154298628Y-116782847D01*
X154260533Y-116859038D01*
X154260533Y-116973323D01*
X154298628Y-117049514D01*
X154336723Y-117087609D01*
X154412914Y-117125704D01*
X154717676Y-117125704D01*
X154717676Y-116325704D01*
X154451009Y-116325704D01*
X154374819Y-116363800D01*
X154336723Y-116401895D01*
X154298628Y-116478085D01*
X154298628Y-116554276D01*
X154336723Y-116630466D01*
X154374819Y-116668561D01*
X154451009Y-116706657D01*
X154717676Y-116706657D01*
X153574819Y-116592371D02*
X153574819Y-117125704D01*
X153765295Y-116287609D02*
X153955771Y-116859038D01*
X153460533Y-116859038D01*
X154451009Y-119246657D02*
X154336723Y-119284752D01*
X154298628Y-119322847D01*
X154260533Y-119399038D01*
X154260533Y-119513323D01*
X154298628Y-119589514D01*
X154336723Y-119627609D01*
X154412914Y-119665704D01*
X154717676Y-119665704D01*
X154717676Y-118865704D01*
X154451009Y-118865704D01*
X154374819Y-118903800D01*
X154336723Y-118941895D01*
X154298628Y-119018085D01*
X154298628Y-119094276D01*
X154336723Y-119170466D01*
X154374819Y-119208561D01*
X154451009Y-119246657D01*
X154717676Y-119246657D01*
X153536723Y-118865704D02*
X153917676Y-118865704D01*
X153955771Y-119246657D01*
X153917676Y-119208561D01*
X153841485Y-119170466D01*
X153651009Y-119170466D01*
X153574819Y-119208561D01*
X153536723Y-119246657D01*
X153498628Y-119322847D01*
X153498628Y-119513323D01*
X153536723Y-119589514D01*
X153574819Y-119627609D01*
X153651009Y-119665704D01*
X153841485Y-119665704D01*
X153917676Y-119627609D01*
X153955771Y-119589514D01*
X143529009Y-119246657D02*
X143414723Y-119284752D01*
X143376628Y-119322847D01*
X143338533Y-119399038D01*
X143338533Y-119513323D01*
X143376628Y-119589514D01*
X143414723Y-119627609D01*
X143490914Y-119665704D01*
X143795676Y-119665704D01*
X143795676Y-118865704D01*
X143529009Y-118865704D01*
X143452819Y-118903800D01*
X143414723Y-118941895D01*
X143376628Y-119018085D01*
X143376628Y-119094276D01*
X143414723Y-119170466D01*
X143452819Y-119208561D01*
X143529009Y-119246657D01*
X143795676Y-119246657D01*
X142652819Y-118865704D02*
X142805200Y-118865704D01*
X142881390Y-118903800D01*
X142919485Y-118941895D01*
X142995676Y-119056180D01*
X143033771Y-119208561D01*
X143033771Y-119513323D01*
X142995676Y-119589514D01*
X142957580Y-119627609D01*
X142881390Y-119665704D01*
X142729009Y-119665704D01*
X142652819Y-119627609D01*
X142614723Y-119589514D01*
X142576628Y-119513323D01*
X142576628Y-119322847D01*
X142614723Y-119246657D01*
X142652819Y-119208561D01*
X142729009Y-119170466D01*
X142881390Y-119170466D01*
X142957580Y-119208561D01*
X142995676Y-119246657D01*
X143033771Y-119322847D01*
X143529009Y-114166657D02*
X143414723Y-114204752D01*
X143376628Y-114242847D01*
X143338533Y-114319038D01*
X143338533Y-114433323D01*
X143376628Y-114509514D01*
X143414723Y-114547609D01*
X143490914Y-114585704D01*
X143795676Y-114585704D01*
X143795676Y-113785704D01*
X143529009Y-113785704D01*
X143452819Y-113823800D01*
X143414723Y-113861895D01*
X143376628Y-113938085D01*
X143376628Y-114014276D01*
X143414723Y-114090466D01*
X143452819Y-114128561D01*
X143529009Y-114166657D01*
X143795676Y-114166657D01*
X143071866Y-113785704D02*
X142576628Y-113785704D01*
X142843295Y-114090466D01*
X142729009Y-114090466D01*
X142652819Y-114128561D01*
X142614723Y-114166657D01*
X142576628Y-114242847D01*
X142576628Y-114433323D01*
X142614723Y-114509514D01*
X142652819Y-114547609D01*
X142729009Y-114585704D01*
X142957580Y-114585704D01*
X143033771Y-114547609D01*
X143071866Y-114509514D01*
X143529009Y-111626657D02*
X143414723Y-111664752D01*
X143376628Y-111702847D01*
X143338533Y-111779038D01*
X143338533Y-111893323D01*
X143376628Y-111969514D01*
X143414723Y-112007609D01*
X143490914Y-112045704D01*
X143795676Y-112045704D01*
X143795676Y-111245704D01*
X143529009Y-111245704D01*
X143452819Y-111283800D01*
X143414723Y-111321895D01*
X143376628Y-111398085D01*
X143376628Y-111474276D01*
X143414723Y-111550466D01*
X143452819Y-111588561D01*
X143529009Y-111626657D01*
X143795676Y-111626657D01*
X142576628Y-112045704D02*
X143033771Y-112045704D01*
X142805200Y-112045704D02*
X142805200Y-111245704D01*
X142881390Y-111359990D01*
X142957580Y-111436180D01*
X143033771Y-111474276D01*
X143471866Y-101466657D02*
X143738533Y-101466657D01*
X143738533Y-101885704D02*
X143738533Y-101085704D01*
X143357580Y-101085704D01*
X142709961Y-101352371D02*
X142709961Y-101885704D01*
X142900438Y-101047609D02*
X143090914Y-101619038D01*
X142595676Y-101619038D01*
X144271866Y-98545704D02*
X144005200Y-99345704D01*
X143738533Y-98545704D01*
X143014723Y-99269514D02*
X143052819Y-99307609D01*
X143167104Y-99345704D01*
X143243295Y-99345704D01*
X143357580Y-99307609D01*
X143433771Y-99231419D01*
X143471866Y-99155228D01*
X143509961Y-99002847D01*
X143509961Y-98888561D01*
X143471866Y-98736180D01*
X143433771Y-98659990D01*
X143357580Y-98583800D01*
X143243295Y-98545704D01*
X143167104Y-98545704D01*
X143052819Y-98583800D01*
X143014723Y-98621895D01*
X142214723Y-99269514D02*
X142252819Y-99307609D01*
X142367104Y-99345704D01*
X142443295Y-99345704D01*
X142557580Y-99307609D01*
X142633771Y-99231419D01*
X142671866Y-99155228D01*
X142709961Y-99002847D01*
X142709961Y-98888561D01*
X142671866Y-98736180D01*
X142633771Y-98659990D01*
X142557580Y-98583800D01*
X142443295Y-98545704D01*
X142367104Y-98545704D01*
X142252819Y-98583800D01*
X142214723Y-98621895D01*
X143466413Y-96737609D02*
X143352127Y-96775704D01*
X143161651Y-96775704D01*
X143085460Y-96737609D01*
X143047365Y-96699514D01*
X143009270Y-96623323D01*
X143009270Y-96547133D01*
X143047365Y-96470942D01*
X143085460Y-96432847D01*
X143161651Y-96394752D01*
X143314032Y-96356657D01*
X143390222Y-96318561D01*
X143428318Y-96280466D01*
X143466413Y-96204276D01*
X143466413Y-96128085D01*
X143428318Y-96051895D01*
X143390222Y-96013800D01*
X143314032Y-95975704D01*
X143123556Y-95975704D01*
X143009270Y-96013800D01*
X142780699Y-95975704D02*
X142323556Y-95975704D01*
X142552127Y-96775704D02*
X142552127Y-95975704D01*
X143814723Y-93503800D02*
X143890914Y-93465704D01*
X144005200Y-93465704D01*
X144119485Y-93503800D01*
X144195676Y-93579990D01*
X144233771Y-93656180D01*
X144271866Y-93808561D01*
X144271866Y-93922847D01*
X144233771Y-94075228D01*
X144195676Y-94151419D01*
X144119485Y-94227609D01*
X144005200Y-94265704D01*
X143929009Y-94265704D01*
X143814723Y-94227609D01*
X143776628Y-94189514D01*
X143776628Y-93922847D01*
X143929009Y-93922847D01*
X143433771Y-94265704D02*
X143433771Y-93465704D01*
X142976628Y-94265704D01*
X142976628Y-93465704D01*
X142595676Y-94265704D02*
X142595676Y-93465704D01*
X142405200Y-93465704D01*
X142290914Y-93503800D01*
X142214723Y-93579990D01*
X142176628Y-93656180D01*
X142138533Y-93808561D01*
X142138533Y-93922847D01*
X142176628Y-94075228D01*
X142214723Y-94151419D01*
X142290914Y-94227609D01*
X142405200Y-94265704D01*
X142595676Y-94265704D01*
X143757580Y-91725704D02*
X144024247Y-91344752D01*
X144214723Y-91725704D02*
X144214723Y-90925704D01*
X143909961Y-90925704D01*
X143833771Y-90963800D01*
X143795676Y-91001895D01*
X143757580Y-91078085D01*
X143757580Y-91192371D01*
X143795676Y-91268561D01*
X143833771Y-91306657D01*
X143909961Y-91344752D01*
X144214723Y-91344752D01*
X143452819Y-91497133D02*
X143071866Y-91497133D01*
X143529009Y-91725704D02*
X143262342Y-90925704D01*
X142995676Y-91725704D01*
X142805200Y-90925704D02*
X142614723Y-91725704D01*
X142462342Y-91154276D01*
X142309961Y-91725704D01*
X142119485Y-90925704D01*
X143471866Y-104006657D02*
X143738533Y-104006657D01*
X143738533Y-104425704D02*
X143738533Y-103625704D01*
X143357580Y-103625704D01*
X142671866Y-103625704D02*
X143052819Y-103625704D01*
X143090914Y-104006657D01*
X143052819Y-103968561D01*
X142976628Y-103930466D01*
X142786152Y-103930466D01*
X142709961Y-103968561D01*
X142671866Y-104006657D01*
X142633771Y-104082847D01*
X142633771Y-104273323D01*
X142671866Y-104349514D01*
X142709961Y-104387609D01*
X142786152Y-104425704D01*
X142976628Y-104425704D01*
X143052819Y-104387609D01*
X143090914Y-104349514D01*
X143471866Y-106546657D02*
X143738533Y-106546657D01*
X143738533Y-106965704D02*
X143738533Y-106165704D01*
X143357580Y-106165704D01*
X142709961Y-106165704D02*
X142862342Y-106165704D01*
X142938533Y-106203800D01*
X142976628Y-106241895D01*
X143052819Y-106356180D01*
X143090914Y-106508561D01*
X143090914Y-106813323D01*
X143052819Y-106889514D01*
X143014723Y-106927609D01*
X142938533Y-106965704D01*
X142786152Y-106965704D01*
X142709961Y-106927609D01*
X142671866Y-106889514D01*
X142633771Y-106813323D01*
X142633771Y-106622847D01*
X142671866Y-106546657D01*
X142709961Y-106508561D01*
X142786152Y-106470466D01*
X142938533Y-106470466D01*
X143014723Y-106508561D01*
X143052819Y-106546657D01*
X143090914Y-106622847D01*
X143471866Y-109086657D02*
X143738533Y-109086657D01*
X143738533Y-109505704D02*
X143738533Y-108705704D01*
X143357580Y-108705704D01*
X143129009Y-108705704D02*
X142595676Y-108705704D01*
X142938533Y-109505704D01*
X143529009Y-116706657D02*
X143414723Y-116744752D01*
X143376628Y-116782847D01*
X143338533Y-116859038D01*
X143338533Y-116973323D01*
X143376628Y-117049514D01*
X143414723Y-117087609D01*
X143490914Y-117125704D01*
X143795676Y-117125704D01*
X143795676Y-116325704D01*
X143529009Y-116325704D01*
X143452819Y-116363800D01*
X143414723Y-116401895D01*
X143376628Y-116478085D01*
X143376628Y-116554276D01*
X143414723Y-116630466D01*
X143452819Y-116668561D01*
X143529009Y-116706657D01*
X143795676Y-116706657D01*
X143033771Y-116401895D02*
X142995676Y-116363800D01*
X142919485Y-116325704D01*
X142729009Y-116325704D01*
X142652819Y-116363800D01*
X142614723Y-116401895D01*
X142576628Y-116478085D01*
X142576628Y-116554276D01*
X142614723Y-116668561D01*
X143071866Y-117125704D01*
X142576628Y-117125704D01*
M02*
