M48
; DRILL file {KiCad (5.99.0-562-g7b80b2dc7)} date Tue 24 Dec 2019 11:11:11 PM PST
; FORMAT={-:-/ absolute / inch / decimal}
; #@! TF.CreationDate,2019-12-24T23:11:11-08:00
; #@! TF.GenerationSoftware,Kicad,Pcbnew,(5.99.0-562-g7b80b2dc7)
; #@! TF.FileFunction,NonPlated,1,2,NPTH
FMAT,2
INCH
T1C0.0472
T2C0.0669
T3C0.0689
T4C0.1200
T5C0.1570
T6C0.1693
%
G90
G05
T1
X1.2343Y-3.0045
X3.9303Y-2.3655
X4.2163Y-4.1935
X10.6077Y-2.1603
X2.9593Y-3.0825
X9.2627Y-3.6791
X5.0856Y-5.4733
X5.2823Y-3.1155
X4.8953Y-4.5695
X2.5283Y-1.7955
X10.4107Y-1.4331
X6.5057Y-5.5059
X2.1413Y-3.2475
X3.5393Y-3.8145
X8.8777Y-2.2331
X6.9467Y-3.7221
X7.9067Y-1.5271
X3.1583Y-2.3545
X8.2967Y-2.9681
X4.1223Y-1.6435
X10.9907Y-3.6071
X3.7373Y-3.0895
X4.4143Y-3.4665
X1.4273Y-2.2805
X7.6217Y-3.3501
X9.8927Y-3.1281
X1.0393Y-3.7285
X1.6213Y-1.5545
X6.7517Y-2.9951
X7.2327Y-1.8991
X10.7957Y-2.8821
X5.4743Y-2.3935
X5.0853Y-3.8425
X7.2147Y-5.7629
X2.3323Y-2.5235
X4.7993Y-2.0165
X9.5037Y-1.6771
X7.4267Y-2.6231
X9.6977Y-2.4041
X7.8157Y-4.0721
X3.3513Y-1.6305
X4.6073Y-2.7415
X8.1027Y-2.2471
X2.7673Y-3.8035
X8.4927Y-3.6971
X6.5577Y-2.2711
X9.0717Y-2.9581
X8.6817Y-1.5101
X7.1407Y-4.4491
T2
X4.3488Y-2.067
X4.7672Y-2.179
X9.1388Y-1.946
X9.5572Y-1.834
X7.0618Y-2.892
X7.4802Y-2.78
X9.3328Y-2.673
X9.7512Y-2.561
X7.4508Y-4.341
X7.8692Y-4.229
X2.9008Y-1.681
X3.3192Y-1.793
X4.1568Y-2.792
X4.5752Y-2.904
X7.7378Y-2.516
X8.1562Y-2.404
X2.3168Y-3.854
X2.7352Y-3.966
X8.1278Y-3.966
X8.5462Y-3.854
X6.1928Y-2.54
X6.6112Y-2.428
X8.7068Y-3.227
X9.1252Y-3.115
X8.3168Y-1.779
X8.7352Y-1.667
X6.7758Y-4.718
X7.1942Y-4.606
X0.7838Y-3.055
X1.2022Y-3.167
X3.4798Y-2.416
X3.8982Y-2.528
X3.7658Y-4.244
X4.1842Y-4.356
X10.2428Y-2.4293
X10.6612Y-2.3172
X2.5088Y-3.133
X2.9272Y-3.245
X8.8978Y-3.948
X9.3162Y-3.836
X4.7455Y-5.7731
X5.1525Y-5.6249
X4.8318Y-3.166
X5.2502Y-3.278
X4.4448Y-4.62
X4.8632Y-4.732
X2.0778Y-1.846
X2.4962Y-1.958
X10.0458Y-1.702
X10.4642Y-1.59
X6.0525Y-5.5169
X6.4595Y-5.6651
X1.6908Y-3.298
X2.1092Y-3.41
X3.0888Y-3.865
X3.5072Y-3.977
X8.5128Y-2.502
X8.9312Y-2.39
X6.5818Y-3.991
X7.0002Y-3.879
X7.5418Y-1.796
X7.9602Y-1.684
X2.7078Y-2.405
X3.1262Y-2.517
X7.9318Y-3.237
X8.3502Y-3.125
X3.6718Y-1.694
X4.0902Y-1.806
X10.6258Y-3.876
X11.0442Y-3.764
X3.2868Y-3.14
X3.7052Y-3.252
X3.9638Y-3.517
X4.3822Y-3.629
X0.9768Y-2.331
X1.3952Y-2.443
X7.2568Y-3.619
X7.6752Y-3.507
X9.5278Y-3.397
X9.9462Y-3.285
X0.5888Y-3.779
X1.0072Y-3.891
X1.1708Y-1.605
X1.5892Y-1.717
X6.3868Y-3.264
X6.8052Y-3.152
X6.8678Y-2.168
X7.2862Y-2.056
X10.4308Y-3.151
X10.8492Y-3.039
X5.0238Y-2.444
X5.4422Y-2.556
X4.6348Y-3.893
X5.0532Y-4.005
X6.7615Y-5.7739
X7.1685Y-5.9221
X1.8818Y-2.574
X2.3002Y-2.686
T3
X4.3648Y-2.0712
X4.7512Y-2.1748
X9.1548Y-1.9418
X9.5412Y-1.8382
X7.0778Y-2.8878
X7.4642Y-2.7842
X9.3488Y-2.6688
X9.7352Y-2.5652
X7.4668Y-4.3368
X7.8532Y-4.2332
X2.9168Y-1.6852
X3.3032Y-1.7888
X4.1728Y-2.7962
X4.5592Y-2.8998
X7.7538Y-2.5118
X8.1402Y-2.4082
X2.3328Y-3.8582
X2.7192Y-3.9618
X8.1438Y-3.9618
X8.5302Y-3.8582
X6.2088Y-2.5358
X6.5952Y-2.4322
X8.7228Y-3.2228
X9.1092Y-3.1192
X8.3328Y-1.7748
X8.7192Y-1.6712
X6.7918Y-4.7138
X7.1782Y-4.6102
X0.7998Y-3.0592
X1.1862Y-3.1628
X3.4958Y-2.4202
X3.8822Y-2.5238
X3.7818Y-4.2482
X4.1682Y-4.3518
X10.2588Y-2.425
X10.6452Y-2.3215
X2.5248Y-3.1372
X2.9112Y-3.2408
X8.9138Y-3.9438
X9.3002Y-3.8402
X4.7611Y-5.7674
X5.1369Y-5.6306
X4.8478Y-3.1702
X5.2342Y-3.2738
X4.4608Y-4.6242
X4.8472Y-4.7278
X2.0938Y-1.8502
X2.4802Y-1.9538
X10.0618Y-1.6978
X10.4482Y-1.5942
X6.0681Y-5.5226
X6.4439Y-5.6594
X1.7068Y-3.3022
X2.0932Y-3.4058
X3.1048Y-3.8692
X3.4912Y-3.9728
X8.5288Y-2.4978
X8.9152Y-2.3942
X6.5978Y-3.9868
X6.9842Y-3.8832
X7.5578Y-1.7918
X7.9442Y-1.6882
X2.7238Y-2.4092
X3.1102Y-2.5128
X7.9478Y-3.2328
X8.3342Y-3.1292
X3.6878Y-1.6982
X4.0742Y-1.8018
X10.6418Y-3.8718
X11.0282Y-3.7682
X3.3028Y-3.1442
X3.6892Y-3.2478
X3.9798Y-3.5212
X4.3662Y-3.6248
X0.9928Y-2.3352
X1.3792Y-2.4388
X7.2728Y-3.6148
X7.6592Y-3.5112
X9.5438Y-3.3928
X9.9302Y-3.2892
X0.6048Y-3.7832
X0.9912Y-3.8868
X1.1868Y-1.6092
X1.5732Y-1.7128
X6.4028Y-3.2598
X6.7892Y-3.1562
X6.8838Y-2.1638
X7.2702Y-2.0602
X10.4468Y-3.1468
X10.8332Y-3.0432
X5.0398Y-2.4482
X5.4262Y-2.5518
X4.6508Y-3.8972
X5.0372Y-4.0008
X6.7771Y-5.7796
X7.1529Y-5.9164
X1.8978Y-2.5782
X2.2842Y-2.6818
T4
X4.6014Y-6.1182
X5.4847Y-5.7967
T5
X6.965Y-5.848
X2.091Y-2.63
X4.558Y-2.123
X9.348Y-1.89
X7.271Y-2.836
X9.542Y-2.617
X7.66Y-4.285
X3.11Y-1.737
X4.366Y-2.848
X7.947Y-2.46
X2.526Y-3.91
X8.337Y-3.91
X6.402Y-2.484
X8.916Y-3.171
X8.526Y-1.723
X6.985Y-4.662
X0.993Y-3.111
X3.689Y-2.472
X3.975Y-4.3
X10.452Y-2.3732
X2.718Y-3.189
X9.107Y-3.892
X4.3962Y-5.5543
X4.949Y-5.699
X5.2795Y-5.2329
X5.041Y-3.222
X4.654Y-4.676
X2.287Y-1.902
X10.255Y-1.646
X6.256Y-5.591
X1.9Y-3.354
X3.298Y-3.921
X8.722Y-2.446
X6.791Y-3.935
X7.751Y-1.74
X2.917Y-2.461
X8.141Y-3.181
X3.881Y-1.75
X10.835Y-3.82
X3.496Y-3.196
X4.173Y-3.573
X1.186Y-2.387
X7.466Y-3.563
X9.737Y-3.341
X0.798Y-3.835
X1.38Y-1.661
X6.596Y-3.208
X7.077Y-2.112
X10.64Y-3.095
X5.233Y-2.5
X4.844Y-3.949
T6
X6.3845Y-4.484
X5.5993Y-3.035
X6.0335Y-3.022
X5.2354Y-4.4941
T0
M30
