<?xml version="1.0" encoding="utf-8"?>
<!-- Generator: Adobe Illustrator 23.0.1, SVG Export Plug-In . SVG Version: 6.00 Build 0)  -->
<svg version="1.1" id="_x30_" xmlns="http://www.w3.org/2000/svg" xmlns:xlink="http://www.w3.org/1999/xlink" x="0px" y="0px"
	 viewBox="0 0 1088.5 2239.37" style="enable-background:new 0 0 1088.5 2239.37;" xml:space="preserve">
<style type="text/css">
	.st0{fill:none;stroke:#0000FF;stroke-width:0.01;stroke-linecap:round;stroke-linejoin:round;stroke-miterlimit:10;}
</style>
<g id="CIRCLE">
	<path class="st0" d="M557.01,1065.95c0-1.45,1.17-2.62,2.62-2.62s2.62,1.17,2.62,2.62s-1.17,2.62-2.62,2.62
		S557.01,1067.4,557.01,1065.95L557.01,1065.95z"/>
</g>
<g id="CIRCLE_1_">
	<path class="st0" d="M582.29,1171.19c0-1.45,1.17-2.62,2.62-2.62c1.45,0,2.62,1.17,2.62,2.62s-1.17,2.62-2.62,2.62
		C583.46,1173.81,582.29,1172.64,582.29,1171.19L582.29,1171.19z"/>
</g>
<g id="CIRCLE_2_">
	<path class="st0" d="M350.67,1166.25c0-1.45,1.17-2.62,2.62-2.62s2.62,1.17,2.62,2.62s-1.17,2.62-2.62,2.62
		S350.67,1167.7,350.67,1166.25L350.67,1166.25z"/>
</g>
<g id="CIRCLE_3_">
	<path class="st0" d="M126.2,1148.03c0-1.45,1.17-2.62,2.62-2.62c1.45,0,2.62,1.17,2.62,2.62s-1.17,2.62-2.62,2.62
		C127.37,1150.65,126.2,1149.48,126.2,1148.03L126.2,1148.03z"/>
</g>
<g id="CIRCLE_4_">
	<path class="st0" d="M411.52,939.17c0-1.45,1.17-2.62,2.62-2.62s2.62,1.17,2.62,2.62s-1.17,2.62-2.62,2.62
		S411.52,940.62,411.52,939.17L411.52,939.17z"/>
</g>
<g id="CIRCLE_5_">
	<path class="st0" d="M645.59,1316.44c0-1.45,1.17-2.62,2.62-2.62c1.45,0,2.62,1.17,2.62,2.62s-1.17,2.62-2.62,2.62
		C646.77,1319.06,645.59,1317.89,645.59,1316.44L645.59,1316.44z"/>
</g>
<g id="CIRCLE_6_">
	<path class="st0" d="M187.04,920.95c0-1.45,1.17-2.62,2.62-2.62s2.62,1.17,2.62,2.62s-1.17,2.62-2.62,2.62
		S187.04,922.4,187.04,920.95L187.04,920.95z"/>
</g>
<g id="LINE">
	<line class="st0" x1="182.56" y1="912.64" x2="118.51" y2="1151.67"/>
</g>
<g id="ARC">
	<path class="st0" d="M118.51,1151.67c-0.41,1.51,0.49,3.07,2,3.47"/>
</g>
<g id="LINE_1_">
	<line class="st0" x1="120.51" y1="1155.14" x2="221.41" y2="1182.18"/>
</g>
<g id="ARC_1_">
	<path class="st0" d="M221.41,1182.18c1.51,0.41,3.07-0.49,3.47-2"/>
</g>
<g id="LINE_2_">
	<line class="st0" x1="224.88" y1="1180.17" x2="238.12" y2="1130.76"/>
</g>
<g id="LINE_3_">
	<line class="st0" x1="238.12" y1="1130.76" x2="258.79" y2="1136.29"/>
</g>
<g id="LINE_4_">
	<line class="st0" x1="258.79" y1="1136.29" x2="252.54" y2="1159.64"/>
</g>
<g id="ARC_2_">
	<path class="st0" d="M252.54,1159.64c-0.41,1.51,0.49,3.07,2,3.47"/>
</g>
<g id="LINE_5_">
	<line class="st0" x1="254.54" y1="1163.11" x2="336.07" y2="1184.95"/>
</g>
<g id="ARC_3_">
	<path class="st0" d="M336.07,1184.95c1.51,0.41,3.07-0.49,3.47-2"/>
</g>
<g id="LINE_6_">
	<line class="st0" x1="339.55" y1="1182.95" x2="342.3" y2="1172.65"/>
</g>
<g id="LINE_7_">
	<line class="st0" x1="342.3" y1="1172.65" x2="359.62" y2="1177.29"/>
</g>
<g id="LINE_8_">
	<line class="st0" x1="359.62" y1="1177.29" x2="356.86" y2="1187.59"/>
</g>
<g id="ARC_4_">
	<path class="st0" d="M356.86,1187.59c-0.41,1.51,0.49,3.07,2,3.47"/>
</g>
<g id="LINE_9_">
	<line class="st0" x1="358.86" y1="1191.06" x2="407.43" y2="1204.07"/>
</g>
<g id="LINE_10_">
	<line class="st0" x1="407.43" y1="1204.07" x2="402.11" y2="1253.07"/>
</g>
<g id="LINE_11_">
	<line class="st0" x1="402.11" y1="1253.07" x2="427.84" y2="1323.79"/>
</g>
<g id="ARC_5_">
	<path class="st0" d="M427.84,1323.79c0.54,1.47,2.16,2.23,3.63,1.69"/>
</g>
<g id="LINE_12_">
	<line class="st0" x1="431.47" y1="1325.48" x2="499.78" y2="1300.63"/>
</g>
<g id="LINE_13_">
	<line class="st0" x1="499.78" y1="1300.63" x2="582.35" y2="1302.07"/>
</g>
<g id="LINE_14_">
	<line class="st0" x1="582.35" y1="1302.07" x2="650.94" y2="1327.03"/>
</g>
<g id="ARC_6_">
	<path class="st0" d="M650.94,1327.03c1.47,0.54,3.1-0.22,3.63-1.69"/>
</g>
<g id="LINE_15_">
	<line class="st0" x1="654.57" y1="1325.34" x2="679.98" y2="1255.54"/>
</g>
<g id="LINE_16_">
	<line class="st0" x1="679.98" y1="1255.54" x2="680.07" y2="1203.09"/>
</g>
<g id="LINE_17_">
	<line class="st0" x1="680.07" y1="1203.09" x2="729.14" y2="1189.94"/>
</g>
<g id="ARC_7_">
	<path class="st0" d="M729.14,1189.94c1.51-0.41,2.41-1.96,2-3.47"/>
</g>
<g id="LINE_18_">
	<line class="st0" x1="731.14" y1="1186.47" x2="728.38" y2="1176.17"/>
</g>
<g id="LINE_19_">
	<line class="st0" x1="728.38" y1="1176.17" x2="745.69" y2="1171.53"/>
</g>
<g id="LINE_20_">
	<line class="st0" x1="745.69" y1="1171.53" x2="748.45" y2="1181.83"/>
</g>
<g id="ARC_8_">
	<path class="st0" d="M748.45,1181.83c0.41,1.51,1.96,2.41,3.47,2"/>
</g>
<g id="LINE_21_">
	<line class="st0" x1="751.93" y1="1183.84" x2="833.46" y2="1161.99"/>
</g>
<g id="ARC_9_">
	<path class="st0" d="M833.46,1161.99c1.51-0.41,2.41-1.96,2-3.47"/>
</g>
<g id="LINE_22_">
	<line class="st0" x1="835.46" y1="1158.52" x2="829.21" y2="1135.18"/>
</g>
<g id="LINE_23_">
	<line class="st0" x1="829.21" y1="1135.18" x2="849.88" y2="1129.64"/>
</g>
<g id="LINE_24_">
	<line class="st0" x1="849.88" y1="1129.64" x2="863.12" y2="1179.06"/>
</g>
<g id="ARC_10_">
	<path class="st0" d="M863.12,1179.06c0.41,1.51,1.96,2.41,3.47,2"/>
</g>
<g id="LINE_25_">
	<line class="st0" x1="866.59" y1="1181.06" x2="967.49" y2="1154.03"/>
</g>
<g id="ARC_11_">
	<path class="st0" d="M967.49,1154.03c1.51-0.41,2.41-1.96,2-3.47"/>
</g>
<g id="LINE_26_">
	<line class="st0" x1="969.49" y1="1150.56" x2="905.89" y2="913.21"/>
</g>
<g id="ARC_12_">
	<path class="st0" d="M905.89,913.21c-0.41-1.51-1.96-2.41-3.47-2"/>
</g>
<g id="LINE_27_">
	<line class="st0" x1="902.42" y1="911.21" x2="777.12" y2="944.78"/>
</g>
<g id="LINE_28_">
	<line class="st0" x1="777.12" y1="944.78" x2="770.42" y2="919.76"/>
</g>
<g id="ARC_13_">
	<path class="st0" d="M770.42,919.76c-0.41-1.51-1.96-2.41-3.47-2"/>
</g>
<g id="LINE_29_">
	<line class="st0" x1="766.95" y1="917.75" x2="717.53" y2="930.99"/>
</g>
<g id="LINE_30_">
	<line class="st0" x1="717.53" y1="930.99" x2="714.76" y2="920.69"/>
</g>
<g id="ARC_14_">
	<path class="st0" d="M714.76,920.69c-0.41-1.51-1.96-2.41-3.47-2"/>
</g>
<g id="LINE_31_">
	<line class="st0" x1="711.29" y1="918.68" x2="631.75" y2="940"/>
</g>
<g id="ARC_15_">
	<path class="st0" d="M631.75,940c-1.51,0.41-2.41,1.96-2,3.47"/>
</g>
<g id="LINE_32_">
	<line class="st0" x1="629.75" y1="943.47" x2="632.51" y2="953.77"/>
</g>
<g id="LINE_33_">
	<line class="st0" x1="632.51" y1="953.77" x2="583.09" y2="967.01"/>
</g>
<g id="ARC_16_">
	<path class="st0" d="M583.09,967.01c-1.51,0.41-2.41,1.96-2,3.47"/>
</g>
<g id="LINE_34_">
	<line class="st0" x1="581.08" y1="970.49" x2="583.84" y2="980.79"/>
</g>
<g id="LINE_35_">
	<line class="st0" x1="583.84" y1="980.79" x2="559.12" y2="990.72"/>
</g>
<g id="LINE_36_">
	<line class="st0" x1="559.12" y1="990.72" x2="527.87" y2="991.83"/>
</g>
<g id="LINE_37_">
	<line class="st0" x1="527.87" y1="991.83" x2="504.15" y2="981.9"/>
</g>
<g id="LINE_38_">
	<line class="st0" x1="504.15" y1="981.9" x2="506.91" y2="971.6"/>
</g>
<g id="ARC_17_">
	<path class="st0" d="M506.91,971.6c0.41-1.51-0.49-3.07-2-3.47"/>
</g>
<g id="LINE_39_">
	<line class="st0" x1="504.91" y1="968.13" x2="455.49" y2="954.88"/>
</g>
<g id="LINE_40_">
	<line class="st0" x1="455.49" y1="954.88" x2="458.25" y2="944.59"/>
</g>
<g id="ARC_18_">
	<path class="st0" d="M458.25,944.59c0.41-1.51-0.49-3.07-2-3.47"/>
</g>
<g id="LINE_41_">
	<line class="st0" x1="456.25" y1="941.12" x2="376.71" y2="919.8"/>
</g>
<g id="ARC_19_">
	<path class="st0" d="M376.71,919.8c-1.51-0.41-3.07,0.49-3.47,2"/>
</g>
<g id="LINE_42_">
	<line class="st0" x1="373.24" y1="921.8" x2="370.48" y2="932.11"/>
</g>
<g id="LINE_43_">
	<line class="st0" x1="370.48" y1="932.11" x2="321.06" y2="918.86"/>
</g>
<g id="ARC_20_">
	<path class="st0" d="M321.06,918.86c-1.51-0.41-3.07,0.49-3.47,2"/>
</g>
<g id="LINE_44_">
	<line class="st0" x1="317.59" y1="920.87" x2="311.33" y2="944.21"/>
</g>
<g id="LINE_45_">
	<line class="st0" x1="311.33" y1="944.21" x2="186.03" y2="910.64"/>
</g>
<g id="ARC_21_">
	<path class="st0" d="M186.03,910.64c-1.51-0.41-3.07,0.49-3.47,2"/>
</g>
<g id="CIRCLE_7_">
	<path class="st0" d="M431.58,1314.89c0-1.45,1.17-2.62,2.62-2.62s2.62,1.17,2.62,2.62s-1.17,2.62-2.62,2.62
		S431.58,1316.34,431.58,1314.89L431.58,1314.89z"/>
</g>
<g id="CIRCLE_8_">
	<path class="st0" d="M671.24,938.05c0-1.45,1.17-2.62,2.62-2.62s2.62,1.17,2.62,2.62s-1.17,2.62-2.62,2.62
		S671.24,939.5,671.24,938.05L671.24,938.05z"/>
</g>
<g id="CIRCLE_9_">
	<path class="st0" d="M896.16,921.52c0-1.45,1.17-2.62,2.62-2.62s2.62,1.17,2.62,2.62s-1.17,2.62-2.62,2.62
		S896.16,922.97,896.16,921.52L896.16,921.52z"/>
</g>
<g id="CIRCLE_10_">
	<path class="st0" d="M956.56,1146.92c0-1.45,1.17-2.62,2.62-2.62s2.62,1.17,2.62,2.62s-1.17,2.62-2.62,2.62
		S956.56,1148.37,956.56,1146.92L956.56,1146.92z"/>
</g>
<g id="CIRCLE_11_">
	<path class="st0" d="M499.55,1171.92c0-1.45,1.17-2.62,2.62-2.62c1.45,0,2.62,1.17,2.62,2.62s-1.17,2.62-2.62,2.62
		C500.73,1174.55,499.55,1173.37,499.55,1171.92L499.55,1171.92z"/>
</g>
<g id="CIRCLE_12_">
	<path class="st0" d="M525.75,1066.5c0-1.45,1.17-2.62,2.62-2.62s2.62,1.17,2.62,2.62s-1.17,2.62-2.62,2.62
		S525.75,1067.95,525.75,1066.5L525.75,1066.5z"/>
</g>
<g id="CIRCLE_13_">
	<path class="st0" d="M732.08,1165.14c0-1.45,1.17-2.62,2.62-2.62s2.62,1.17,2.62,2.62s-1.17,2.62-2.62,2.62
		S732.08,1166.59,732.08,1165.14L732.08,1165.14z"/>
</g>
</svg>
