<?xml version="1.0" encoding="utf-8"?>
<!-- Generator: Adobe Illustrator 23.0.1, SVG Export Plug-In . SVG Version: 6.00 Build 0)  -->
<svg version="1.1" id="_x30_" xmlns="http://www.w3.org/2000/svg" xmlns:xlink="http://www.w3.org/1999/xlink" x="0px" y="0px"
	 viewBox="0 0 1088.5 2239.37" style="enable-background:new 0 0 1088.5 2239.37;" xml:space="preserve">
<style type="text/css">
	.st0{fill:none;stroke:#0000FF;stroke-width:0.01;stroke-linecap:round;stroke-linejoin:round;stroke-miterlimit:10;}
</style>
<g id="CIRCLE">
	<path class="st0" d="M730.24,1165.14c0-2.47,2-4.46,4.46-4.46s4.46,2,4.46,4.46s-2,4.46-4.46,4.46S730.24,1167.6,730.24,1165.14
		L730.24,1165.14z"/>
</g>
<g id="CIRCLE_1_">
	<path class="st0" d="M348.83,1166.25c0-2.47,2-4.46,4.46-4.46c2.47,0,4.46,2,4.46,4.46c0,2.47-2,4.46-4.46,4.46
		C350.83,1170.72,348.83,1168.72,348.83,1166.25L348.83,1166.25z"/>
</g>
<g id="CIRCLE_2_">
	<path class="st0" d="M954.72,1146.92c0-2.47,2-4.46,4.46-4.46s4.46,2,4.46,4.46s-2,4.46-4.46,4.46S954.72,1149.39,954.72,1146.92
		L954.72,1146.92z"/>
</g>
<g id="CIRCLE_3_">
	<path class="st0" d="M124.36,1148.03c0-2.47,2-4.46,4.46-4.46c2.47,0,4.46,2,4.46,4.46s-2,4.46-4.46,4.46
		C126.35,1152.5,124.36,1150.5,124.36,1148.03L124.36,1148.03z"/>
</g>
<g id="CIRCLE_4_">
	<path class="st0" d="M894.32,921.53c0-2.47,2-4.46,4.46-4.46c2.47,0,4.46,2,4.46,4.46s-2,4.46-4.46,4.46
		C896.32,925.99,894.32,923.99,894.32,921.53L894.32,921.53z"/>
</g>
<g id="CIRCLE_5_">
	<path class="st0" d="M409.68,939.17c0-2.47,2-4.46,4.46-4.46c2.47,0,4.46,2,4.46,4.46c0,2.47-2,4.46-4.46,4.46
		C411.68,943.63,409.68,941.64,409.68,939.17L409.68,939.17z"/>
</g>
<g id="CIRCLE_6_">
	<path class="st0" d="M669.39,938.05c0-2.47,2-4.46,4.46-4.46s4.46,2,4.46,4.46s-2,4.46-4.46,4.46S669.39,940.52,669.39,938.05
		L669.39,938.05z"/>
</g>
<g id="CIRCLE_7_">
	<path class="st0" d="M643.75,1316.44c0-2.47,2-4.46,4.46-4.46c2.47,0,4.46,2,4.46,4.46s-2,4.46-4.46,4.46
		C645.75,1320.9,643.75,1318.9,643.75,1316.44L643.75,1316.44z"/>
</g>
<g id="CIRCLE_8_">
	<path class="st0" d="M429.74,1314.89c0-2.47,2-4.46,4.46-4.46c2.47,0,4.46,2,4.46,4.46s-2,4.46-4.46,4.46
		C431.74,1319.36,429.74,1317.36,429.74,1314.89L429.74,1314.89z"/>
</g>
<g id="CIRCLE_9_">
	<path class="st0" d="M185.2,920.95c0-2.47,2-4.46,4.46-4.46s4.46,2,4.46,4.46s-2,4.46-4.46,4.46S185.2,923.41,185.2,920.95
		L185.2,920.95z"/>
</g>
<g id="LINE">
	<line class="st0" x1="120.51" y1="1155.14" x2="221.41" y2="1182.18"/>
</g>
<g id="ARC">
	<path class="st0" d="M221.41,1182.18c1.51,0.41,3.07-0.49,3.47-2"/>
</g>
<g id="LINE_1_">
	<line class="st0" x1="224.88" y1="1180.17" x2="238.12" y2="1130.76"/>
</g>
<g id="LINE_2_">
	<line class="st0" x1="238.12" y1="1130.76" x2="258.79" y2="1136.29"/>
</g>
<g id="LINE_3_">
	<line class="st0" x1="258.79" y1="1136.29" x2="252.54" y2="1159.64"/>
</g>
<g id="ARC_1_">
	<path class="st0" d="M252.54,1159.64c-0.41,1.51,0.49,3.07,2,3.47"/>
</g>
<g id="LINE_4_">
	<line class="st0" x1="254.54" y1="1163.11" x2="336.07" y2="1184.95"/>
</g>
<g id="ARC_2_">
	<path class="st0" d="M336.07,1184.95c1.51,0.41,3.07-0.49,3.47-2"/>
</g>
<g id="LINE_5_">
	<line class="st0" x1="339.55" y1="1182.95" x2="342.3" y2="1172.65"/>
</g>
<g id="LINE_6_">
	<line class="st0" x1="342.3" y1="1172.65" x2="359.62" y2="1177.29"/>
</g>
<g id="LINE_7_">
	<line class="st0" x1="359.62" y1="1177.29" x2="356.86" y2="1187.59"/>
</g>
<g id="ARC_3_">
	<path class="st0" d="M356.86,1187.59c-0.41,1.51,0.49,3.07,2,3.47"/>
</g>
<g id="LINE_8_">
	<line class="st0" x1="358.86" y1="1191.06" x2="407.43" y2="1204.07"/>
</g>
<g id="LINE_9_">
	<line class="st0" x1="407.43" y1="1204.07" x2="402.11" y2="1253.07"/>
</g>
<g id="LINE_10_">
	<line class="st0" x1="402.11" y1="1253.07" x2="427.84" y2="1323.79"/>
</g>
<g id="ARC_4_">
	<path class="st0" d="M427.84,1323.79c0.54,1.47,2.16,2.23,3.63,1.69"/>
</g>
<g id="LINE_11_">
	<line class="st0" x1="431.47" y1="1325.48" x2="499.78" y2="1300.63"/>
</g>
<g id="LINE_12_">
	<line class="st0" x1="499.78" y1="1300.63" x2="582.35" y2="1302.07"/>
</g>
<g id="LINE_13_">
	<line class="st0" x1="582.35" y1="1302.07" x2="650.94" y2="1327.03"/>
</g>
<g id="ARC_5_">
	<path class="st0" d="M650.94,1327.03c1.47,0.54,3.1-0.22,3.63-1.69"/>
</g>
<g id="LINE_14_">
	<line class="st0" x1="654.57" y1="1325.34" x2="679.98" y2="1255.54"/>
</g>
<g id="LINE_15_">
	<line class="st0" x1="679.98" y1="1255.54" x2="680.07" y2="1203.09"/>
</g>
<g id="LINE_16_">
	<line class="st0" x1="680.07" y1="1203.09" x2="729.14" y2="1189.94"/>
</g>
<g id="ARC_6_">
	<path class="st0" d="M729.14,1189.94c1.51-0.41,2.41-1.96,2-3.47"/>
</g>
<g id="LINE_17_">
	<line class="st0" x1="731.14" y1="1186.47" x2="728.38" y2="1176.17"/>
</g>
<g id="LINE_18_">
	<line class="st0" x1="728.38" y1="1176.17" x2="745.69" y2="1171.53"/>
</g>
<g id="LINE_19_">
	<line class="st0" x1="745.69" y1="1171.53" x2="748.45" y2="1181.83"/>
</g>
<g id="ARC_7_">
	<path class="st0" d="M748.45,1181.83c0.41,1.51,1.96,2.41,3.47,2"/>
</g>
<g id="LINE_20_">
	<line class="st0" x1="751.93" y1="1183.84" x2="833.46" y2="1161.99"/>
</g>
<g id="ARC_8_">
	<path class="st0" d="M833.46,1161.99c1.51-0.41,2.41-1.96,2-3.47"/>
</g>
<g id="LINE_21_">
	<line class="st0" x1="835.46" y1="1158.52" x2="829.21" y2="1135.18"/>
</g>
<g id="LINE_22_">
	<line class="st0" x1="829.21" y1="1135.18" x2="849.88" y2="1129.64"/>
</g>
<g id="LINE_23_">
	<line class="st0" x1="849.88" y1="1129.64" x2="863.12" y2="1179.06"/>
</g>
<g id="ARC_9_">
	<path class="st0" d="M863.12,1179.06c0.41,1.51,1.96,2.41,3.47,2"/>
</g>
<g id="LINE_24_">
	<line class="st0" x1="866.59" y1="1181.06" x2="967.49" y2="1154.03"/>
</g>
<g id="ARC_10_">
	<path class="st0" d="M967.49,1154.03c1.51-0.41,2.41-1.96,2-3.47"/>
</g>
<g id="LINE_25_">
	<line class="st0" x1="969.49" y1="1150.56" x2="905.9" y2="913.22"/>
</g>
<g id="ARC_11_">
	<path class="st0" d="M905.9,913.22c-0.41-1.51-1.96-2.41-3.47-2"/>
</g>
<g id="LINE_26_">
	<line class="st0" x1="902.42" y1="911.21" x2="777.12" y2="944.78"/>
</g>
<g id="LINE_27_">
	<line class="st0" x1="777.12" y1="944.78" x2="770.42" y2="919.76"/>
</g>
<g id="ARC_12_">
	<path class="st0" d="M770.42,919.76c-0.41-1.51-1.96-2.41-3.47-2"/>
</g>
<g id="LINE_28_">
	<line class="st0" x1="766.95" y1="917.75" x2="717.53" y2="930.99"/>
</g>
<g id="LINE_29_">
	<line class="st0" x1="717.53" y1="930.99" x2="714.76" y2="920.69"/>
</g>
<g id="ARC_13_">
	<path class="st0" d="M714.76,920.69c-0.41-1.51-1.96-2.41-3.47-2"/>
</g>
<g id="LINE_30_">
	<line class="st0" x1="711.29" y1="918.68" x2="631.75" y2="940"/>
</g>
<g id="ARC_14_">
	<path class="st0" d="M631.75,940c-1.51,0.41-2.41,1.96-2,3.47"/>
</g>
<g id="LINE_31_">
	<line class="st0" x1="629.75" y1="943.47" x2="632.51" y2="953.77"/>
</g>
<g id="LINE_32_">
	<line class="st0" x1="632.51" y1="953.77" x2="583.09" y2="967.01"/>
</g>
<g id="ARC_15_">
	<path class="st0" d="M583.09,967.01c-1.51,0.41-2.41,1.96-2,3.47"/>
</g>
<g id="LINE_33_">
	<line class="st0" x1="581.08" y1="970.49" x2="583.84" y2="980.79"/>
</g>
<g id="LINE_34_">
	<line class="st0" x1="583.84" y1="980.79" x2="559.12" y2="990.72"/>
</g>
<g id="LINE_35_">
	<line class="st0" x1="559.12" y1="990.72" x2="559.63" y2="1004.89"/>
</g>
<g id="LINE_36_">
	<line class="st0" x1="559.63" y1="1004.89" x2="604.67" y2="992.81"/>
</g>
<g id="LINE_37_">
	<line class="st0" x1="604.67" y1="992.81" x2="601.18" y2="979.78"/>
</g>
<g id="LINE_38_">
	<line class="st0" x1="601.18" y1="979.78" x2="653.34" y2="965.8"/>
</g>
<g id="LINE_39_">
	<line class="st0" x1="653.34" y1="965.8" x2="649.85" y2="952.76"/>
</g>
<g id="LINE_40_">
	<line class="st0" x1="649.85" y1="952.76" x2="702" y2="938.78"/>
</g>
<g id="LINE_41_">
	<line class="st0" x1="702" y1="938.78" x2="705.5" y2="951.82"/>
</g>
<g id="LINE_42_">
	<line class="st0" x1="705.5" y1="951.82" x2="757.66" y2="937.85"/>
</g>
<g id="LINE_43_">
	<line class="st0" x1="757.66" y1="937.85" x2="765.09" y2="965.61"/>
</g>
<g id="LINE_44_">
	<line class="st0" x1="765.09" y1="965.61" x2="893.13" y2="931.31"/>
</g>
<g id="LINE_45_">
	<line class="st0" x1="893.13" y1="931.31" x2="949.4" y2="1141.27"/>
</g>
<g id="LINE_46_">
	<line class="st0" x1="949.4" y1="1141.27" x2="875.88" y2="1160.97"/>
</g>
<g id="LINE_47_">
	<line class="st0" x1="875.88" y1="1160.97" x2="861.9" y2="1108.81"/>
</g>
<g id="LINE_48_">
	<line class="st0" x1="861.9" y1="1108.81" x2="808.38" y2="1123.15"/>
</g>
<g id="LINE_49_">
	<line class="st0" x1="808.38" y1="1123.15" x2="815.36" y2="1149.23"/>
</g>
<g id="LINE_50_">
	<line class="st0" x1="815.36" y1="1149.23" x2="761.21" y2="1163.74"/>
</g>
<g id="LINE_51_">
	<line class="st0" x1="761.21" y1="1163.74" x2="757.72" y2="1150.7"/>
</g>
<g id="LINE_52_">
	<line class="st0" x1="757.72" y1="1150.7" x2="707.55" y2="1164.14"/>
</g>
<g id="LINE_53_">
	<line class="st0" x1="707.55" y1="1164.14" x2="711.04" y2="1177.18"/>
</g>
<g id="LINE_54_">
	<line class="st0" x1="711.04" y1="1177.18" x2="659.39" y2="1191.03"/>
</g>
<g id="LINE_55_">
	<line class="st0" x1="659.39" y1="1191.03" x2="663.06" y2="1204.72"/>
</g>
<g id="LINE_56_">
	<line class="st0" x1="663.06" y1="1204.72" x2="662.98" y2="1252.53"/>
</g>
<g id="LINE_57_">
	<line class="st0" x1="662.98" y1="1252.53" x2="643.44" y2="1306.2"/>
</g>
<g id="LINE_58_">
	<line class="st0" x1="643.44" y1="1306.2" x2="585.49" y2="1285.11"/>
</g>
<g id="LINE_59_">
	<line class="st0" x1="585.49" y1="1285.11" x2="496.92" y2="1283.57"/>
</g>
<g id="LINE_60_">
	<line class="st0" x1="496.92" y1="1283.57" x2="438.98" y2="1304.65"/>
</g>
<g id="LINE_61_">
	<line class="st0" x1="438.98" y1="1304.65" x2="419.45" y2="1250.98"/>
</g>
<g id="LINE_62_">
	<line class="st0" x1="419.45" y1="1250.98" x2="424.32" y2="1206.13"/>
</g>
<g id="LINE_63_">
	<line class="st0" x1="424.32" y1="1206.13" x2="428.1" y2="1192"/>
</g>
<g id="LINE_64_">
	<line class="st0" x1="428.1" y1="1192" x2="376.96" y2="1178.3"/>
</g>
<g id="LINE_65_">
	<line class="st0" x1="376.96" y1="1178.3" x2="380.45" y2="1165.26"/>
</g>
<g id="LINE_66_">
	<line class="st0" x1="380.45" y1="1165.26" x2="330.28" y2="1151.82"/>
</g>
<g id="LINE_67_">
	<line class="st0" x1="330.28" y1="1151.82" x2="326.79" y2="1164.85"/>
</g>
<g id="LINE_68_">
	<line class="st0" x1="326.79" y1="1164.85" x2="272.64" y2="1150.35"/>
</g>
<g id="LINE_69_">
	<line class="st0" x1="272.64" y1="1150.35" x2="279.62" y2="1124.27"/>
</g>
<g id="LINE_70_">
	<line class="st0" x1="279.62" y1="1124.27" x2="226.1" y2="1109.93"/>
</g>
<g id="LINE_71_">
	<line class="st0" x1="226.1" y1="1109.93" x2="212.12" y2="1162.08"/>
</g>
<g id="LINE_72_">
	<line class="st0" x1="212.12" y1="1162.08" x2="138.6" y2="1142.38"/>
</g>
<g id="LINE_73_">
	<line class="st0" x1="138.6" y1="1142.38" x2="195.32" y2="930.73"/>
</g>
<g id="LINE_74_">
	<line class="st0" x1="195.32" y1="930.73" x2="323.36" y2="965.04"/>
</g>
<g id="LINE_75_">
	<line class="st0" x1="323.36" y1="965.04" x2="330.35" y2="938.96"/>
</g>
<g id="LINE_76_">
	<line class="st0" x1="330.35" y1="938.96" x2="382.5" y2="952.94"/>
</g>
<g id="LINE_77_">
	<line class="st0" x1="382.5" y1="952.94" x2="386" y2="939.9"/>
</g>
<g id="LINE_78_">
	<line class="st0" x1="386" y1="939.9" x2="438.15" y2="953.88"/>
</g>
<g id="LINE_79_">
	<line class="st0" x1="438.15" y1="953.88" x2="434.66" y2="966.91"/>
</g>
<g id="LINE_80_">
	<line class="st0" x1="434.66" y1="966.91" x2="486.81" y2="980.89"/>
</g>
<g id="LINE_81_">
	<line class="st0" x1="486.81" y1="980.89" x2="483.32" y2="993.92"/>
</g>
<g id="LINE_82_">
	<line class="st0" x1="483.32" y1="993.92" x2="528.37" y2="1006"/>
</g>
<g id="LINE_83_">
	<line class="st0" x1="528.37" y1="1006" x2="527.87" y2="991.83"/>
</g>
<g id="LINE_84_">
	<line class="st0" x1="527.87" y1="991.83" x2="504.15" y2="981.9"/>
</g>
<g id="LINE_85_">
	<line class="st0" x1="504.15" y1="981.9" x2="506.91" y2="971.6"/>
</g>
<g id="ARC_16_">
	<path class="st0" d="M506.91,971.6c0.41-1.51-0.49-3.07-2-3.47"/>
</g>
<g id="LINE_86_">
	<line class="st0" x1="504.91" y1="968.13" x2="455.49" y2="954.88"/>
</g>
<g id="LINE_87_">
	<line class="st0" x1="455.49" y1="954.88" x2="458.25" y2="944.59"/>
</g>
<g id="ARC_17_">
	<path class="st0" d="M458.25,944.59c0.41-1.51-0.49-3.07-2-3.47"/>
</g>
<g id="LINE_88_">
	<line class="st0" x1="456.25" y1="941.12" x2="376.71" y2="919.8"/>
</g>
<g id="ARC_18_">
	<path class="st0" d="M376.71,919.8c-1.51-0.41-3.07,0.49-3.47,2"/>
</g>
<g id="LINE_89_">
	<line class="st0" x1="373.24" y1="921.8" x2="371.21" y2="929.37"/>
</g>
<g id="ARC_19_">
	<path class="st0" d="M367.74,931.37c1.51,0.41,3.07-0.49,3.47-2"/>
</g>
<g id="LINE_90_">
	<line class="st0" x1="367.74" y1="931.37" x2="321.06" y2="918.86"/>
</g>
<g id="ARC_20_">
	<path class="st0" d="M321.06,918.86c-1.51-0.41-3.07,0.49-3.47,2"/>
</g>
<g id="LINE_91_">
	<line class="st0" x1="317.59" y1="920.87" x2="312.06" y2="941.47"/>
</g>
<g id="ARC_21_">
	<path class="st0" d="M308.59,943.48c1.51,0.41,3.07-0.49,3.47-2"/>
</g>
<g id="LINE_92_">
	<line class="st0" x1="308.59" y1="943.48" x2="186.03" y2="910.64"/>
</g>
<g id="ARC_22_">
	<path class="st0" d="M186.03,910.64c-1.51-0.41-3.07,0.49-3.47,2"/>
</g>
<g id="LINE_93_">
	<line class="st0" x1="182.56" y1="912.64" x2="118.51" y2="1151.67"/>
</g>
<g id="ARC_23_">
	<path class="st0" d="M118.51,1151.67c-0.41,1.51,0.49,3.07,2,3.47"/>
</g>
</svg>
