<?xml version="1.0" encoding="utf-8"?>
<!-- Generator: Adobe Illustrator 23.0.1, SVG Export Plug-In . SVG Version: 6.00 Build 0)  -->
<svg version="1.1" id="_x30_" xmlns="http://www.w3.org/2000/svg" xmlns:xlink="http://www.w3.org/1999/xlink" x="0px" y="0px"
	 viewBox="0 0 962.84 909" style="enable-background:new 0 0 962.84 909;" xml:space="preserve">
<style type="text/css">
	.st0{fill:none;stroke:#0000FF;stroke-width:0.01;stroke-linecap:round;stroke-linejoin:round;stroke-miterlimit:10;}
</style>
<g id="SPLINE">
	<path class="st0" d="M685.16,558.77c0-0.94-0.5-1.8-1.31-2.27"/>
</g>
<g id="SPLINE_1_">
	<path class="st0" d="M683.85,556.5c-0.81-0.47-1.81-0.47-2.62,0"/>
</g>
<g id="SPLINE_2_">
	<path class="st0" d="M681.23,556.5c-0.81,0.47-1.31,1.33-1.31,2.27"/>
</g>
<g id="SPLINE_3_">
	<path class="st0" d="M679.92,558.77c0,0.94,0.5,1.8,1.31,2.27"/>
</g>
<g id="SPLINE_4_">
	<path class="st0" d="M681.23,561.04c0.81,0.47,1.81,0.47,2.62,0"/>
</g>
<g id="SPLINE_5_">
	<path class="st0" d="M683.85,561.04c0.81-0.47,1.31-1.33,1.31-2.27"/>
</g>
<g id="SPLINE_6_">
	<path class="st0" d="M510.09,459.58c0-0.94-0.5-1.8-1.31-2.27"/>
</g>
<g id="SPLINE_7_">
	<path class="st0" d="M508.78,457.31c-0.81-0.47-1.81-0.47-2.62,0"/>
</g>
<g id="SPLINE_8_">
	<path class="st0" d="M506.15,457.31c-0.81,0.47-1.31,1.33-1.31,2.27"/>
</g>
<g id="SPLINE_9_">
	<path class="st0" d="M504.84,459.58c0,0.94,0.5,1.8,1.31,2.27"/>
</g>
<g id="SPLINE_10_">
	<path class="st0" d="M506.15,461.85c0.81,0.47,1.81,0.47,2.62,0"/>
</g>
<g id="SPLINE_11_">
	<path class="st0" d="M508.78,461.85c0.81-0.47,1.31-1.33,1.31-2.27"/>
</g>
<g id="LWPOLYLINE">
	<path class="st0" d="M685.16,558.77"/>
</g>
<g id="SPLINE_12_">
	<path class="st0" d="M478.83,460.13c0-0.94-0.5-1.8-1.31-2.27"/>
</g>
<g id="SPLINE_13_">
	<path class="st0" d="M477.52,457.86c-0.81-0.47-1.81-0.47-2.62,0"/>
</g>
<g id="SPLINE_14_">
	<path class="st0" d="M474.9,457.86c-0.81,0.47-1.31,1.33-1.31,2.27"/>
</g>
<g id="SPLINE_15_">
	<path class="st0" d="M473.58,460.13c0,0.94,0.5,1.8,1.31,2.27"/>
</g>
<g id="SPLINE_16_">
	<path class="st0" d="M474.9,462.4c0.81,0.47,1.81,0.47,2.62,0"/>
</g>
<g id="SPLINE_17_">
	<path class="st0" d="M477.52,462.4c0.81-0.47,1.31-1.33,1.31-2.27"/>
</g>
<g id="LWPOLYLINE_1_">
	<path class="st0" d="M510.09,459.58"/>
</g>
<g id="SPLINE_18_">
	<path class="st0" d="M535.37,564.82c0-0.94-0.5-1.8-1.31-2.27"/>
</g>
<g id="SPLINE_19_">
	<path class="st0" d="M534.06,562.55c-0.81-0.47-1.81-0.47-2.62,0"/>
</g>
<g id="SPLINE_20_">
	<path class="st0" d="M531.44,562.55c-0.81,0.47-1.31,1.33-1.31,2.27"/>
</g>
<g id="SPLINE_21_">
	<path class="st0" d="M530.13,564.82c0,0.94,0.5,1.8,1.31,2.27"/>
</g>
<g id="SPLINE_22_">
	<path class="st0" d="M531.44,567.09c0.81,0.47,1.81,0.47,2.62,0"/>
</g>
<g id="SPLINE_23_">
	<path class="st0" d="M534.06,567.09c0.81-0.47,1.31-1.33,1.31-2.27"/>
</g>
<g id="LWPOLYLINE_2_">
	<path class="st0" d="M478.83,460.13"/>
</g>
<g id="SPLINE_24_">
	<path class="st0" d="M452.63,565.55c0-0.94-0.5-1.8-1.31-2.27"/>
</g>
<g id="SPLINE_25_">
	<path class="st0" d="M451.32,563.28c-0.81-0.47-1.81-0.47-2.62,0"/>
</g>
<g id="SPLINE_26_">
	<path class="st0" d="M448.7,563.28c-0.81,0.47-1.31,1.33-1.31,2.27"/>
</g>
<g id="SPLINE_27_">
	<path class="st0" d="M447.39,565.55c0,0.94,0.5,1.8,1.31,2.27"/>
</g>
<g id="SPLINE_28_">
	<path class="st0" d="M448.7,567.83c0.81,0.47,1.81,0.47,2.62,0"/>
</g>
<g id="SPLINE_29_">
	<path class="st0" d="M451.32,567.83c0.81-0.47,1.31-1.33,1.31-2.27"/>
</g>
<g id="LWPOLYLINE_3_">
	<path class="st0" d="M535.37,564.82"/>
</g>
<g id="SPLINE_30_">
	<path class="st0" d="M303.76,559.89c0-0.94-0.5-1.8-1.31-2.27"/>
</g>
<g id="SPLINE_31_">
	<path class="st0" d="M302.44,557.61c-0.81-0.47-1.81-0.47-2.62,0"/>
</g>
<g id="SPLINE_32_">
	<path class="st0" d="M299.82,557.61c-0.81,0.47-1.31,1.33-1.31,2.27"/>
</g>
<g id="SPLINE_33_">
	<path class="st0" d="M298.51,559.89c0,0.94,0.5,1.8,1.31,2.27"/>
</g>
<g id="SPLINE_34_">
	<path class="st0" d="M299.82,562.16c0.81,0.47,1.81,0.47,2.62,0"/>
</g>
<g id="SPLINE_35_">
	<path class="st0" d="M302.44,562.16c0.81-0.47,1.31-1.33,1.31-2.27"/>
</g>
<g id="LWPOLYLINE_4_">
	<path class="st0" d="M452.63,565.55"/>
</g>
<g id="SPLINE_36_">
	<path class="st0" d="M909.5,540.55c0-0.89-0.47-1.71-1.24-2.15"/>
</g>
<g id="SPLINE_37_">
	<path class="st0" d="M908.26,538.4c-0.77-0.44-1.71-0.44-2.48,0"/>
</g>
<g id="SPLINE_38_">
	<path class="st0" d="M905.78,538.4c-0.77,0.44-1.24,1.26-1.24,2.15"/>
</g>
<g id="SPLINE_39_">
	<path class="st0" d="M904.54,540.55c0,0.89,0.47,1.71,1.24,2.15"/>
</g>
<g id="SPLINE_40_">
	<path class="st0" d="M905.78,542.7c0.77,0.44,1.71,0.44,2.48,0"/>
</g>
<g id="SPLINE_41_">
	<path class="st0" d="M908.26,542.7c0.77-0.44,1.24-1.26,1.24-2.15"/>
</g>
<g id="LWPOLYLINE_5_">
	<path class="st0" d="M303.76,559.89"/>
</g>
<g id="SPLINE_42_">
	<path class="st0" d="M79.28,541.66c0-0.94-0.5-1.8-1.31-2.27"/>
</g>
<g id="SPLINE_43_">
	<path class="st0" d="M77.97,539.39c-0.81-0.47-1.81-0.47-2.62,0"/>
</g>
<g id="SPLINE_44_">
	<path class="st0" d="M75.35,539.39c-0.81,0.47-1.31,1.33-1.31,2.27"/>
</g>
<g id="SPLINE_45_">
	<path class="st0" d="M74.04,541.66c0,0.94,0.5,1.8,1.31,2.27"/>
</g>
<g id="SPLINE_46_">
	<path class="st0" d="M75.35,543.93c0.81,0.47,1.81,0.47,2.62,0"/>
</g>
<g id="SPLINE_47_">
	<path class="st0" d="M77.97,543.93c0.81-0.47,1.31-1.33,1.31-2.27"/>
</g>
<g id="LWPOLYLINE_6_">
	<path class="st0" d="M909.5,540.55"/>
</g>
<g id="SPLINE_48_">
	<path class="st0" d="M849.1,315.16c0-0.89-0.47-1.71-1.24-2.15"/>
</g>
<g id="SPLINE_49_">
	<path class="st0" d="M847.86,313.01c-0.77-0.44-1.71-0.44-2.48,0"/>
</g>
<g id="SPLINE_50_">
	<path class="st0" d="M845.38,313.01c-0.77,0.44-1.24,1.26-1.24,2.15"/>
</g>
<g id="SPLINE_51_">
	<path class="st0" d="M844.14,315.16c0,0.89,0.47,1.71,1.24,2.15"/>
</g>
<g id="SPLINE_52_">
	<path class="st0" d="M845.38,317.31c0.77,0.44,1.71,0.44,2.48,0"/>
</g>
<g id="SPLINE_53_">
	<path class="st0" d="M847.86,317.31c0.77-0.44,1.24-1.26,1.24-2.15"/>
</g>
<g id="LWPOLYLINE_7_">
	<path class="st0" d="M79.28,541.66"/>
</g>
<g id="SPLINE_54_">
	<path class="st0" d="M364.6,332.8c0-0.94-0.5-1.8-1.31-2.27"/>
</g>
<g id="SPLINE_55_">
	<path class="st0" d="M363.29,330.53c-0.81-0.47-1.81-0.47-2.62,0"/>
</g>
<g id="SPLINE_56_">
	<path class="st0" d="M360.67,330.53c-0.81,0.47-1.31,1.33-1.31,2.27"/>
</g>
<g id="SPLINE_57_">
	<path class="st0" d="M359.36,332.8c0,0.94,0.5,1.8,1.31,2.27"/>
</g>
<g id="SPLINE_58_">
	<path class="st0" d="M360.67,335.07c0.81,0.47,1.81,0.47,2.62,0"/>
</g>
<g id="SPLINE_59_">
	<path class="st0" d="M363.29,335.07c0.81-0.47,1.31-1.33,1.31-2.27"/>
</g>
<g id="LWPOLYLINE_8_">
	<path class="st0" d="M849.1,315.16"/>
</g>
<g id="SPLINE_60_">
	<path class="st0" d="M624.32,331.69c0-0.94-0.5-1.8-1.31-2.27"/>
</g>
<g id="SPLINE_61_">
	<path class="st0" d="M623.01,329.41c-0.81-0.47-1.81-0.47-2.62,0"/>
</g>
<g id="SPLINE_62_">
	<path class="st0" d="M620.38,329.41c-0.81,0.47-1.31,1.33-1.31,2.27"/>
</g>
<g id="SPLINE_63_">
	<path class="st0" d="M619.07,331.69c0,0.94,0.5,1.8,1.31,2.27"/>
</g>
<g id="SPLINE_64_">
	<path class="st0" d="M620.38,333.96c0.81,0.47,1.81,0.47,2.62,0"/>
</g>
<g id="SPLINE_65_">
	<path class="st0" d="M623.01,333.96c0.81-0.47,1.31-1.33,1.31-2.27"/>
</g>
<g id="LWPOLYLINE_9_">
	<path class="st0" d="M364.6,332.8"/>
</g>
<g id="SPLINE_66_">
	<path class="st0" d="M598.67,710.07c0-0.94-0.5-1.8-1.31-2.27"/>
</g>
<g id="SPLINE_67_">
	<path class="st0" d="M597.36,707.8c-0.81-0.47-1.81-0.47-2.62,0"/>
</g>
<g id="SPLINE_68_">
	<path class="st0" d="M594.74,707.8c-0.81,0.47-1.31,1.33-1.31,2.27"/>
</g>
<g id="SPLINE_69_">
	<path class="st0" d="M593.43,710.07c0,0.94,0.5,1.8,1.31,2.27"/>
</g>
<g id="SPLINE_70_">
	<path class="st0" d="M594.74,712.34c0.81,0.47,1.81,0.47,2.62,0"/>
</g>
<g id="SPLINE_71_">
	<path class="st0" d="M597.36,712.34c0.81-0.47,1.31-1.33,1.31-2.27"/>
</g>
<g id="LWPOLYLINE_10_">
	<path class="st0" d="M624.32,331.69"/>
</g>
<g id="SPLINE_72_">
	<path class="st0" d="M384.66,708.52c0-0.94-0.5-1.8-1.31-2.27"/>
</g>
<g id="SPLINE_73_">
	<path class="st0" d="M383.35,706.25c-0.81-0.47-1.81-0.47-2.62,0"/>
</g>
<g id="SPLINE_74_">
	<path class="st0" d="M380.73,706.25c-0.81,0.47-1.31,1.33-1.31,2.27"/>
</g>
<g id="SPLINE_75_">
	<path class="st0" d="M379.42,708.52c0,0.94,0.5,1.8,1.31,2.27"/>
</g>
<g id="SPLINE_76_">
	<path class="st0" d="M380.73,710.79c0.81,0.47,1.81,0.47,2.62,0"/>
</g>
<g id="SPLINE_77_">
	<path class="st0" d="M383.35,710.79c0.81-0.47,1.31-1.33,1.31-2.27"/>
</g>
<g id="LWPOLYLINE_11_">
	<path class="st0" d="M598.67,710.07"/>
</g>
<g id="SPLINE_78_">
	<path class="st0" d="M140.13,314.58c0-0.94-0.5-1.8-1.31-2.27"/>
</g>
<g id="SPLINE_79_">
	<path class="st0" d="M138.82,312.31c-0.81-0.47-1.81-0.47-2.62,0"/>
</g>
<g id="SPLINE_80_">
	<path class="st0" d="M136.19,312.31c-0.81,0.47-1.31,1.33-1.31,2.27"/>
</g>
<g id="SPLINE_81_">
	<path class="st0" d="M134.88,314.58c0,0.94,0.5,1.8,1.31,2.27"/>
</g>
<g id="SPLINE_82_">
	<path class="st0" d="M136.19,316.85c0.81,0.47,1.81,0.47,2.62,0"/>
</g>
<g id="SPLINE_83_">
	<path class="st0" d="M138.82,316.85c0.81-0.47,1.31-1.33,1.31-2.27"/>
</g>
<g id="LWPOLYLINE_12_">
	<path class="st0" d="M384.66,708.52"/>
</g>
<g id="LWPOLYLINE_13_">
	<path class="st0" d="M140.13,314.58"/>
</g>
<g id="SPLINE_84_">
	<path class="st0" d="M488,651.39c0.2,0.56,0.74,0.93,1.33,0.93"/>
</g>
<g id="SPLINE_85_">
	<path class="st0" d="M489.33,652.32c0.6,0,1.13-0.37,1.33-0.93"/>
</g>
<g id="LWPOLYLINE_14_">
	<line class="st0" x1="488" y1="651.39" x2="471.7" y2="606.6"/>
</g>
<g id="LWPOLYLINE_15_">
	<line class="st0" x1="506.4" y1="608.15" x2="490.66" y2="651.39"/>
</g>
<g id="LWPOLYLINE_16_">
	<line class="st0" x1="610.82" y1="646.16" x2="506.4" y2="608.15"/>
</g>
<g id="LWPOLYLINE_17_">
	<line class="st0" x1="591.28" y1="699.83" x2="610.82" y2="646.16"/>
</g>
<g id="LWPOLYLINE_18_">
	<line class="st0" x1="486.93" y1="661.86" x2="591.28" y2="699.83"/>
</g>
<g id="LWPOLYLINE_19_">
	<line class="st0" x1="386.81" y1="698.29" x2="486.93" y2="661.86"/>
</g>
<g id="LWPOLYLINE_20_">
	<line class="st0" x1="367.28" y1="644.61" x2="386.81" y2="698.29"/>
</g>
<g id="LWPOLYLINE_21_">
	<line class="st0" x1="471.7" y1="606.6" x2="367.28" y2="644.61"/>
</g>
<g id="LWPOLYLINE_22_">
	<line class="st0" x1="83.7" y1="535.28" x2="162.7" y2="556.45"/>
</g>
<g id="LWPOLYLINE_23_">
	<line class="st0" x1="140.41" y1="323.63" x2="83.7" y2="535.28"/>
</g>
<g id="LWPOLYLINE_24_">
	<line class="st0" x1="271.19" y1="358.67" x2="140.41" y2="323.63"/>
</g>
<g id="LWPOLYLINE_25_">
	<line class="st0" x1="278.18" y1="332.59" x2="271.19" y2="358.67"/>
</g>
<g id="LWPOLYLINE_26_">
	<line class="st0" x1="330.34" y1="346.57" x2="278.18" y2="332.59"/>
</g>
<g id="LWPOLYLINE_27_">
	<line class="st0" x1="333.83" y1="333.53" x2="330.34" y2="346.57"/>
</g>
<g id="LWPOLYLINE_28_">
	<line class="st0" x1="385.99" y1="347.51" x2="333.83" y2="333.53"/>
</g>
<g id="LWPOLYLINE_29_">
	<line class="st0" x1="382.5" y1="360.54" x2="385.99" y2="347.51"/>
</g>
<g id="LWPOLYLINE_30_">
	<line class="st0" x1="434.65" y1="374.52" x2="382.5" y2="360.54"/>
</g>
<g id="LWPOLYLINE_31_">
	<line class="st0" x1="431.16" y1="387.55" x2="434.65" y2="374.52"/>
</g>
<g id="LWPOLYLINE_32_">
	<line class="st0" x1="484.31" y1="401.8" x2="431.16" y2="387.55"/>
</g>
<g id="LWPOLYLINE_33_">
	<line class="st0" x1="427.29" y1="614.53" x2="484.31" y2="401.8"/>
</g>
<g id="LWPOLYLINE_34_">
	<line class="st0" x1="372.15" y1="599.76" x2="427.29" y2="614.53"/>
</g>
<g id="LWPOLYLINE_35_">
	<line class="st0" x1="375.94" y1="585.63" x2="372.15" y2="599.76"/>
</g>
<g id="LWPOLYLINE_36_">
	<line class="st0" x1="324.79" y1="571.93" x2="375.94" y2="585.63"/>
</g>
<g id="LWPOLYLINE_37_">
	<line class="st0" x1="328.29" y1="558.89" x2="324.79" y2="571.93"/>
</g>
<g id="LWPOLYLINE_38_">
	<line class="st0" x1="278.11" y1="545.45" x2="328.29" y2="558.89"/>
</g>
<g id="LWPOLYLINE_39_">
	<line class="st0" x1="274.62" y1="558.48" x2="278.11" y2="545.45"/>
</g>
<g id="LWPOLYLINE_40_">
	<line class="st0" x1="220.47" y1="543.98" x2="274.62" y2="558.48"/>
</g>
<g id="LWPOLYLINE_41_">
	<line class="st0" x1="227.46" y1="517.9" x2="220.47" y2="543.98"/>
</g>
<g id="LWPOLYLINE_42_">
	<line class="st0" x1="176.67" y1="504.29" x2="227.46" y2="517.9"/>
</g>
<g id="LWPOLYLINE_43_">
	<line class="st0" x1="162.7" y1="556.45" x2="176.67" y2="504.29"/>
</g>
<g id="LWPOLYLINE_44_">
	<line class="st0" x1="820.98" y1="555.33" x2="899.97" y2="534.17"/>
</g>
<g id="LWPOLYLINE_45_">
	<line class="st0" x1="807" y1="503.18" x2="820.98" y2="555.33"/>
</g>
<g id="LWPOLYLINE_46_">
	<line class="st0" x1="756.21" y1="516.78" x2="807" y2="503.18"/>
</g>
<g id="LWPOLYLINE_47_">
	<line class="st0" x1="763.2" y1="542.86" x2="756.21" y2="516.78"/>
</g>
<g id="LWPOLYLINE_48_">
	<line class="st0" x1="709.05" y1="557.37" x2="763.2" y2="542.86"/>
</g>
<g id="LWPOLYLINE_49_">
	<line class="st0" x1="705.56" y1="544.33" x2="709.05" y2="557.37"/>
</g>
<g id="LWPOLYLINE_50_">
	<line class="st0" x1="655.39" y1="557.77" x2="705.56" y2="544.33"/>
</g>
<g id="LWPOLYLINE_51_">
	<line class="st0" x1="658.88" y1="570.82" x2="655.39" y2="557.77"/>
</g>
<g id="LWPOLYLINE_52_">
	<line class="st0" x1="607.23" y1="584.66" x2="658.88" y2="570.82"/>
</g>
<g id="LWPOLYLINE_53_">
	<line class="st0" x1="610.9" y1="598.35" x2="607.23" y2="584.66"/>
</g>
<g id="LWPOLYLINE_54_">
	<line class="st0" x1="556.27" y1="612.98" x2="610.9" y2="598.35"/>
</g>
<g id="LWPOLYLINE_55_">
	<line class="st0" x1="499.36" y1="400.69" x2="556.27" y2="612.98"/>
</g>
<g id="LWPOLYLINE_56_">
	<line class="st0" x1="552.51" y1="386.45" x2="499.36" y2="400.69"/>
</g>
<g id="LWPOLYLINE_57_">
	<line class="st0" x1="549.01" y1="373.41" x2="552.51" y2="386.45"/>
</g>
<g id="LWPOLYLINE_58_">
	<line class="st0" x1="601.18" y1="359.43" x2="549.01" y2="373.41"/>
</g>
<g id="LWPOLYLINE_59_">
	<line class="st0" x1="597.68" y1="346.39" x2="601.18" y2="359.43"/>
</g>
<g id="LWPOLYLINE_60_">
	<line class="st0" x1="649.84" y1="332.41" x2="597.68" y2="346.39"/>
</g>
<g id="LWPOLYLINE_61_">
	<line class="st0" x1="653.34" y1="345.45" x2="649.84" y2="332.41"/>
</g>
<g id="LWPOLYLINE_62_">
	<line class="st0" x1="705.49" y1="331.48" x2="653.34" y2="345.45"/>
</g>
<g id="LWPOLYLINE_63_">
	<line class="st0" x1="712.93" y1="359.24" x2="705.49" y2="331.48"/>
</g>
<g id="LWPOLYLINE_64_">
	<line class="st0" x1="843.71" y1="324.21" x2="712.93" y2="359.24"/>
</g>
<g id="LWPOLYLINE_65_">
	<line class="st0" x1="899.97" y1="534.17" x2="843.71" y2="324.21"/>
</g>
<g id="SPLINE_86_">
	<path class="st0" d="M406.09,338.22c0.41-1.51-0.49-3.07-2-3.47"/>
</g>
<g id="LWPOLYLINE_66_">
	<line class="st0" x1="403.33" y1="348.52" x2="406.09" y2="338.22"/>
</g>
<g id="SPLINE_87_">
	<path class="st0" d="M324.55,313.43c-0.73-0.19-1.5-0.09-2.15,0.28"/>
</g>
<g id="SPLINE_88_">
	<path class="st0" d="M322.4,313.71c-0.65,0.38-1.13,0.99-1.32,1.72"/>
</g>
<g id="LWPOLYLINE_67_">
	<line class="st0" x1="404.08" y1="334.75" x2="324.55" y2="313.43"/>
</g>
<g id="SPLINE_89_">
	<path class="st0" d="M268.9,312.49c-0.73-0.19-1.5-0.09-2.15,0.28"/>
</g>
<g id="SPLINE_90_">
	<path class="st0" d="M266.74,312.78c-0.65,0.38-1.13,0.99-1.32,1.72"/>
</g>
<g id="LWPOLYLINE_68_">
	<polyline class="st0" points="321.08,315.43 318.31,325.74 268.9,312.49 	"/>
</g>
<g id="SPLINE_91_">
	<path class="st0" d="M133.86,304.27c-1.51-0.41-3.07,0.49-3.47,2"/>
</g>
<g id="LWPOLYLINE_69_">
	<polyline class="st0" points="265.42,314.5 259.17,337.84 133.86,304.27 	"/>
</g>
<g id="SPLINE_92_">
	<path class="st0" d="M66.34,545.3c-0.19,0.73-0.09,1.5,0.28,2.15"/>
</g>
<g id="SPLINE_93_">
	<path class="st0" d="M66.63,547.45c0.38,0.65,1,1.13,1.72,1.32"/>
</g>
<g id="LWPOLYLINE_70_">
	<line class="st0" x1="130.39" y1="306.27" x2="66.34" y2="545.3"/>
</g>
<g id="SPLINE_94_">
	<path class="st0" d="M169.25,575.81c1.51,0.41,3.07-0.49,3.47-2"/>
</g>
<g id="LWPOLYLINE_71_">
	<line class="st0" x1="68.35" y1="548.78" x2="169.25" y2="575.81"/>
</g>
<g id="SPLINE_95_">
	<path class="st0" d="M200.38,553.27c-0.19,0.73-0.09,1.5,0.28,2.15"/>
</g>
<g id="SPLINE_96_">
	<path class="st0" d="M200.66,555.42c0.38,0.65,1,1.13,1.72,1.32"/>
</g>
<g id="LWPOLYLINE_72_">
	<polyline class="st0" points="172.72,573.8 185.96,524.39 206.63,529.93 200.38,553.27 	"/>
</g>
<g id="SPLINE_97_">
	<path class="st0" d="M283.91,578.58c1.51,0.41,3.07-0.49,3.47-2"/>
</g>
<g id="LWPOLYLINE_73_">
	<line class="st0" x1="202.38" y1="556.74" x2="283.91" y2="578.58"/>
</g>
<g id="SPLINE_98_">
	<path class="st0" d="M304.7,581.22c-0.41,1.51,0.49,3.07,2,3.47"/>
</g>
<g id="LWPOLYLINE_74_">
	<polyline class="st0" points="287.38,576.58 290.14,566.28 307.46,570.92 304.7,581.22 	"/>
</g>
<g id="SPLINE_99_">
	<path class="st0" d="M375.68,717.42c0.54,1.47,2.16,2.23,3.63,1.69"/>
</g>
<g id="LWPOLYLINE_75_">
	<polyline class="st0" points="306.7,584.69 355.27,597.7 349.95,646.71 375.68,717.42 	"/>
</g>
<g id="SPLINE_100_">
	<path class="st0" d="M598.78,720.66c1.47,0.54,3.1-0.22,3.63-1.69"/>
</g>
<g id="LWPOLYLINE_76_">
	<polyline class="st0" points="379.31,719.11 447.62,694.26 530.19,695.7 598.78,720.66 	"/>
</g>
<g id="SPLINE_101_">
	<path class="st0" d="M676.97,583.57c1.51-0.41,2.41-1.96,2-3.47"/>
</g>
<g id="LWPOLYLINE_77_">
	<polyline class="st0" points="602.41,718.97 627.82,649.17 627.91,596.72 676.97,583.57 	"/>
</g>
<g id="SPLINE_102_">
	<path class="st0" d="M696.29,575.46c0.41,1.51,1.96,2.41,3.47,2"/>
</g>
<g id="LWPOLYLINE_78_">
	<polyline class="st0" points="678.98,580.1 676.22,569.8 693.53,565.16 696.29,575.46 	"/>
</g>
<g id="SPLINE_103_">
	<path class="st0" d="M781.29,555.62c1.51-0.41,2.41-1.96,2-3.47"/>
</g>
<g id="LWPOLYLINE_79_">
	<line class="st0" x1="699.76" y1="577.47" x2="781.29" y2="555.62"/>
</g>
<g id="SPLINE_104_">
	<path class="st0" d="M810.95,572.69c0.41,1.51,1.96,2.41,3.47,2"/>
</g>
<g id="LWPOLYLINE_80_">
	<polyline class="st0" points="783.3,552.15 777.04,528.81 797.72,523.27 810.95,572.69 	"/>
</g>
<g id="SPLINE_105_">
	<path class="st0" d="M915.33,547.66c0.73-0.19,1.35-0.67,1.72-1.32"/>
</g>
<g id="SPLINE_106_">
	<path class="st0" d="M917.05,546.34c0.38-0.65,0.48-1.42,0.28-2.15"/>
</g>
<g id="LWPOLYLINE_81_">
	<line class="st0" x1="814.43" y1="574.7" x2="915.33" y2="547.66"/>
</g>
<g id="SPLINE_107_">
	<path class="st0" d="M853.73,306.85c-0.41-1.51-1.96-2.41-3.47-2"/>
</g>
<g id="LWPOLYLINE_82_">
	<line class="st0" x1="917.33" y1="544.19" x2="853.73" y2="306.85"/>
</g>
<g id="SPLINE_108_">
	<path class="st0" d="M718.26,313.39c-0.41-1.51-1.96-2.41-3.47-2"/>
</g>
<g id="LWPOLYLINE_83_">
	<polyline class="st0" points="850.26,304.84 724.96,338.41 718.26,313.39 	"/>
</g>
<g id="SPLINE_109_">
	<path class="st0" d="M662.6,314.32c-0.41-1.51-1.96-2.41-3.47-2"/>
</g>
<g id="LWPOLYLINE_84_">
	<polyline class="st0" points="714.78,311.38 665.36,324.62 662.6,314.32 	"/>
</g>
<g id="SPLINE_110_">
	<path class="st0" d="M579.59,333.63c-1.51,0.41-2.41,1.96-2,3.47"/>
</g>
<g id="LWPOLYLINE_85_">
	<line class="st0" x1="659.13" y1="312.32" x2="579.59" y2="333.63"/>
</g>
<g id="SPLINE_111_">
	<path class="st0" d="M530.92,360.65c-1.51,0.41-2.41,1.96-2,3.47"/>
</g>
<g id="LWPOLYLINE_86_">
	<polyline class="st0" points="577.59,337.1 580.35,347.41 530.92,360.65 	"/>
</g>
<g id="SPLINE_112_">
	<path class="st0" d="M454.75,365.23c0.41-1.51-0.49-3.07-2-3.47"/>
</g>
<g id="LWPOLYLINE_87_">
	<polyline class="st0" points="528.92,364.12 531.68,374.42 506.96,384.35 475.7,385.46 451.99,375.53 454.75,365.23 	"/>
</g>
<g id="LWPOLYLINE_88_">
	<line class="st0" x1="452.74" y1="361.76" x2="403.33" y2="348.52"/>
</g>
</svg>
