<?xml version="1.0" encoding="utf-8"?>
<!-- Generator: Adobe Illustrator 23.0.1, SVG Export Plug-In . SVG Version: 6.00 Build 0)  -->
<svg version="1.1" id="_x30_" xmlns="http://www.w3.org/2000/svg" xmlns:xlink="http://www.w3.org/1999/xlink" x="0px" y="0px"
	 viewBox="0 0 1077.17 2267.72" style="enable-background:new 0 0 1077.17 2267.72;" xml:space="preserve">
<style type="text/css">
	.st0{fill:none;stroke:#0000FF;stroke-width:0.01;stroke-linecap:round;stroke-linejoin:round;stroke-miterlimit:10;}
</style>
<g id="LINE">
	<line class="st0" x1="312.59" y1="935.21" x2="306.33" y2="958.56"/>
</g>
<g id="LINE_1_">
	<line class="st0" x1="368.24" y1="936.15" x2="365.48" y2="946.46"/>
</g>
<g id="LINE_2_">
	<line class="st0" x1="451.25" y1="955.46" x2="371.71" y2="934.14"/>
</g>
<g id="LINE_3_">
	<line class="st0" x1="499.91" y1="982.48" x2="450.49" y2="969.23"/>
</g>
<g id="LINE_4_">
	<line class="st0" x1="576.08" y1="984.83" x2="578.84" y2="995.14"/>
</g>
<g id="LINE_5_">
	<line class="st0" x1="624.75" y1="957.82" x2="627.51" y2="968.12"/>
</g>
<g id="LINE_6_">
	<line class="st0" x1="706.29" y1="933.03" x2="626.75" y2="954.35"/>
</g>
<g id="LINE_7_">
	<line class="st0" x1="761.95" y1="932.1" x2="712.53" y2="945.34"/>
</g>
<g id="LINE_8_">
	<line class="st0" x1="897.42" y1="925.56" x2="772.12" y2="959.13"/>
</g>
<g id="LINE_9_">
	<line class="st0" x1="964.49" y1="1164.91" x2="900.89" y2="927.56"/>
</g>
<g id="LINE_10_">
	<line class="st0" x1="830.46" y1="1172.87" x2="824.21" y2="1149.53"/>
</g>
<g id="LINE_11_">
	<line class="st0" x1="861.59" y1="1195.41" x2="962.49" y2="1168.38"/>
</g>
<g id="LINE_12_">
	<line class="st0" x1="649.57" y1="1339.68" x2="674.98" y2="1269.89"/>
</g>
<g id="LINE_13_">
	<line class="st0" x1="726.14" y1="1200.82" x2="723.38" y2="1190.52"/>
</g>
<g id="LINE_14_">
	<line class="st0" x1="746.93" y1="1198.18" x2="828.46" y2="1176.34"/>
</g>
<g id="LINE_15_">
	<line class="st0" x1="426.47" y1="1339.83" x2="494.78" y2="1314.98"/>
</g>
<g id="LINE_16_">
	<line class="st0" x1="353.86" y1="1205.41" x2="402.43" y2="1218.42"/>
</g>
<g id="LINE_17_">
	<line class="st0" x1="334.55" y1="1197.29" x2="337.3" y2="1186.99"/>
</g>
<g id="LINE_18_">
	<line class="st0" x1="219.88" y1="1194.52" x2="233.12" y2="1145.1"/>
</g>
<g id="LINE_19_">
	<line class="st0" x1="249.54" y1="1177.45" x2="331.07" y2="1199.3"/>
</g>
<g id="LINE_20_">
	<line class="st0" x1="115.51" y1="1169.49" x2="216.41" y2="1196.52"/>
</g>
<g id="LINE_21_">
	<line class="st0" x1="177.56" y1="926.99" x2="113.51" y2="1166.02"/>
</g>
<g id="LINE_22_">
	<line class="st0" x1="306.33" y1="958.56" x2="181.03" y2="924.98"/>
</g>
<g id="LINE_23_">
	<line class="st0" x1="365.48" y1="946.46" x2="316.06" y2="933.21"/>
</g>
<g id="LINE_24_">
	<line class="st0" x1="450.49" y1="969.23" x2="453.25" y2="958.94"/>
</g>
<g id="LINE_25_">
	<line class="st0" x1="499.15" y1="996.24" x2="501.91" y2="985.95"/>
</g>
<g id="LINE_26_">
	<line class="st0" x1="522.87" y1="1006.18" x2="499.15" y2="996.24"/>
</g>
<g id="LINE_27_">
	<line class="st0" x1="554.12" y1="1005.07" x2="522.87" y2="1006.18"/>
</g>
<g id="LINE_28_">
	<line class="st0" x1="578.84" y1="995.14" x2="554.12" y2="1005.07"/>
</g>
<g id="LINE_29_">
	<line class="st0" x1="627.51" y1="968.12" x2="578.09" y2="981.36"/>
</g>
<g id="LINE_30_">
	<line class="st0" x1="712.53" y1="945.34" x2="709.76" y2="935.04"/>
</g>
<g id="LINE_31_">
	<line class="st0" x1="772.12" y1="959.13" x2="765.42" y2="934.1"/>
</g>
<g id="LINE_32_">
	<line class="st0" x1="844.88" y1="1143.99" x2="858.12" y2="1193.41"/>
</g>
<g id="LINE_33_">
	<line class="st0" x1="824.21" y1="1149.53" x2="844.88" y2="1143.99"/>
</g>
<g id="LINE_34_">
	<line class="st0" x1="740.69" y1="1185.88" x2="743.45" y2="1196.18"/>
</g>
<g id="LINE_35_">
	<line class="st0" x1="723.38" y1="1190.52" x2="740.69" y2="1185.88"/>
</g>
<g id="LINE_36_">
	<line class="st0" x1="675.07" y1="1217.44" x2="724.14" y2="1204.29"/>
</g>
<g id="LINE_37_">
	<line class="st0" x1="674.98" y1="1269.89" x2="675.07" y2="1217.44"/>
</g>
<g id="LINE_38_">
	<line class="st0" x1="577.35" y1="1316.42" x2="645.94" y2="1341.38"/>
</g>
<g id="LINE_39_">
	<line class="st0" x1="494.78" y1="1314.98" x2="577.35" y2="1316.42"/>
</g>
<g id="LINE_40_">
	<line class="st0" x1="397.11" y1="1267.42" x2="422.84" y2="1338.14"/>
</g>
<g id="LINE_41_">
	<line class="st0" x1="402.43" y1="1218.42" x2="397.11" y2="1267.42"/>
</g>
<g id="LINE_42_">
	<line class="st0" x1="354.62" y1="1191.63" x2="351.86" y2="1201.94"/>
</g>
<g id="LINE_43_">
	<line class="st0" x1="337.3" y1="1186.99" x2="354.62" y2="1191.63"/>
</g>
<g id="LINE_44_">
	<line class="st0" x1="253.79" y1="1150.64" x2="247.54" y2="1173.98"/>
</g>
<g id="LINE_45_">
	<line class="st0" x1="233.12" y1="1145.1" x2="253.79" y2="1150.64"/>
</g>
<g id="LINE_46_">
	<line class="st0" x1="646.53" y1="1272.21" x2="609.64" y2="1258.78"/>
</g>
<g id="LINE_47_">
	<line class="st0" x1="633.1" y1="1309.1" x2="646.53" y2="1272.21"/>
</g>
<g id="LINE_48_">
	<line class="st0" x1="596.21" y1="1295.68" x2="633.1" y2="1309.1"/>
</g>
<g id="LINE_49_">
	<line class="st0" x1="609.64" y1="1258.78" x2="596.21" y2="1295.68"/>
</g>
<g id="LINE_50_">
	<line class="st0" x1="514.76" y1="1252.5" x2="511.62" y2="1243.9"/>
</g>
<g id="LINE_51_">
	<line class="st0" x1="516.95" y1="1251.7" x2="514.76" y2="1252.5"/>
</g>
<g id="LINE_52_">
	<line class="st0" x1="519.52" y1="1258.76" x2="516.95" y2="1251.7"/>
</g>
<g id="LINE_53_">
	<line class="st0" x1="517.32" y1="1259.56" x2="519.52" y2="1258.76"/>
</g>
<g id="LINE_54_">
	<line class="st0" x1="523.4" y1="1276.26" x2="517.32" y2="1259.56"/>
</g>
<g id="LINE_55_">
	<line class="st0" x1="518.81" y1="1277.94" x2="523.4" y2="1276.26"/>
</g>
<g id="LINE_56_">
	<line class="st0" x1="519.97" y1="1281.13" x2="518.81" y2="1277.94"/>
</g>
<g id="LINE_57_">
	<line class="st0" x1="511.58" y1="1284.19" x2="519.97" y2="1281.13"/>
</g>
<g id="LINE_58_">
	<line class="st0" x1="510.42" y1="1280.99" x2="511.58" y2="1284.19"/>
</g>
<g id="LINE_59_">
	<line class="st0" x1="505.82" y1="1282.66" x2="510.42" y2="1280.99"/>
</g>
<g id="LINE_60_">
	<line class="st0" x1="501.49" y1="1270.75" x2="505.82" y2="1282.66"/>
</g>
<g id="LINE_61_">
	<line class="st0" x1="497.03" y1="1272.38" x2="501.49" y2="1270.75"/>
</g>
<g id="LINE_62_">
	<line class="st0" x1="501.58" y1="1284.9" x2="497.03" y2="1272.38"/>
</g>
<g id="LINE_63_">
	<line class="st0" x1="464.69" y1="1298.32" x2="501.58" y2="1284.9"/>
</g>
<g id="LINE_64_">
	<line class="st0" x1="460.14" y1="1285.81" x2="464.69" y2="1298.32"/>
</g>
<g id="LINE_65_">
	<line class="st0" x1="455.67" y1="1287.43" x2="460.14" y2="1285.81"/>
</g>
<g id="LINE_66_">
	<line class="st0" x1="460.01" y1="1299.34" x2="455.67" y2="1287.43"/>
</g>
<g id="LINE_67_">
	<line class="st0" x1="455.41" y1="1301.01" x2="460.01" y2="1299.34"/>
</g>
<g id="LINE_68_">
	<line class="st0" x1="456.58" y1="1304.21" x2="455.41" y2="1301.01"/>
</g>
<g id="LINE_69_">
	<line class="st0" x1="448.19" y1="1307.26" x2="456.58" y2="1304.21"/>
</g>
<g id="LINE_70_">
	<line class="st0" x1="447.02" y1="1304.06" x2="448.19" y2="1307.26"/>
</g>
<g id="LINE_71_">
	<line class="st0" x1="442.43" y1="1305.74" x2="447.02" y2="1304.06"/>
</g>
<g id="LINE_72_">
	<line class="st0" x1="436.34" y1="1289.04" x2="442.43" y2="1305.74"/>
</g>
<g id="LINE_73_">
	<line class="st0" x1="434.15" y1="1289.83" x2="436.34" y2="1289.04"/>
</g>
<g id="LINE_74_">
	<line class="st0" x1="431.58" y1="1282.78" x2="434.15" y2="1289.83"/>
</g>
<g id="LINE_75_">
	<line class="st0" x1="433.78" y1="1281.98" x2="431.58" y2="1282.78"/>
</g>
<g id="LINE_76_">
	<line class="st0" x1="430.65" y1="1273.37" x2="433.78" y2="1281.98"/>
</g>
<g id="LINE_77_">
	<line class="st0" x1="448.22" y1="1266.97" x2="430.65" y2="1273.37"/>
</g>
<g id="LINE_78_">
	<line class="st0" x1="451.36" y1="1275.58" x2="448.22" y2="1266.97"/>
</g>
<g id="LINE_79_">
	<line class="st0" x1="455.82" y1="1273.95" x2="451.36" y2="1275.58"/>
</g>
<g id="LINE_80_">
	<line class="st0" x1="451.26" y1="1261.43" x2="455.82" y2="1273.95"/>
</g>
<g id="LINE_81_">
	<line class="st0" x1="488.15" y1="1248.01" x2="451.26" y2="1261.43"/>
</g>
<g id="LINE_82_">
	<line class="st0" x1="492.71" y1="1260.52" x2="488.15" y2="1248.01"/>
</g>
<g id="LINE_83_">
	<line class="st0" x1="497.17" y1="1258.9" x2="492.71" y2="1260.52"/>
</g>
<g id="LINE_84_">
	<line class="st0" x1="494.04" y1="1250.3" x2="497.17" y2="1258.9"/>
</g>
<g id="LINE_85_">
	<line class="st0" x1="511.62" y1="1243.9" x2="494.04" y2="1250.3"/>
</g>
<g id="LINE_86_">
	<line class="st0" x1="595.79" y1="1253.75" x2="558.9" y2="1240.32"/>
</g>
<g id="LINE_87_">
	<line class="st0" x1="582.36" y1="1290.64" x2="595.79" y2="1253.75"/>
</g>
<g id="LINE_88_">
	<line class="st0" x1="545.47" y1="1277.21" x2="582.36" y2="1290.64"/>
</g>
<g id="LINE_89_">
	<line class="st0" x1="558.9" y1="1240.32" x2="545.47" y2="1277.21"/>
</g>
<g id="LINE_90_">
	<line class="st0" x1="479.13" y1="1185.45" x2="441.21" y2="1175.29"/>
</g>
<g id="LINE_91_">
	<line class="st0" x1="468.97" y1="1223.37" x2="479.13" y2="1185.45"/>
</g>
<g id="LINE_92_">
	<line class="st0" x1="431.04" y1="1213.21" x2="468.97" y2="1223.37"/>
</g>
<g id="LINE_93_">
	<line class="st0" x1="441.21" y1="1175.29" x2="431.04" y2="1213.21"/>
</g>
<g id="LINE_94_">
	<line class="st0" x1="646.95" y1="1212.1" x2="636.79" y2="1174.17"/>
</g>
<g id="LINE_95_">
	<line class="st0" x1="609.03" y1="1222.26" x2="646.95" y2="1212.1"/>
</g>
<g id="LINE_96_">
	<line class="st0" x1="598.87" y1="1184.33" x2="609.03" y2="1222.26"/>
</g>
<g id="LINE_97_">
	<line class="st0" x1="636.79" y1="1174.17" x2="598.87" y2="1184.33"/>
</g>
<g id="LINE_98_">
	<line class="st0" x1="430.46" y1="1158.43" x2="392.54" y2="1148.27"/>
</g>
<g id="LINE_99_">
	<line class="st0" x1="420.3" y1="1196.36" x2="430.46" y2="1158.43"/>
</g>
<g id="LINE_100_">
	<line class="st0" x1="382.38" y1="1186.19" x2="420.3" y2="1196.36"/>
</g>
<g id="LINE_101_">
	<line class="st0" x1="392.54" y1="1148.27" x2="382.38" y2="1186.19"/>
</g>
<g id="LINE_102_">
	<line class="st0" x1="695.62" y1="1185.08" x2="685.46" y2="1147.16"/>
</g>
<g id="LINE_103_">
	<line class="st0" x1="657.7" y1="1195.24" x2="695.62" y2="1185.08"/>
</g>
<g id="LINE_104_">
	<line class="st0" x1="647.54" y1="1157.32" x2="657.7" y2="1195.24"/>
</g>
<g id="LINE_105_">
	<line class="st0" x1="685.46" y1="1147.16" x2="647.54" y2="1157.32"/>
</g>
<g id="LINE_106_">
	<line class="st0" x1="493.1" y1="1133.29" x2="455.18" y2="1123.13"/>
</g>
<g id="LINE_107_">
	<line class="st0" x1="482.94" y1="1171.21" x2="493.1" y2="1133.29"/>
</g>
<g id="LINE_108_">
	<line class="st0" x1="445.02" y1="1161.05" x2="482.94" y2="1171.21"/>
</g>
<g id="LINE_109_">
	<line class="st0" x1="455.18" y1="1123.13" x2="445.02" y2="1161.05"/>
</g>
<g id="LINE_110_">
	<line class="st0" x1="632.98" y1="1159.94" x2="622.81" y2="1122.02"/>
</g>
<g id="LINE_111_">
	<line class="st0" x1="595.06" y1="1170.1" x2="632.98" y2="1159.94"/>
</g>
<g id="LINE_112_">
	<line class="st0" x1="584.89" y1="1132.17" x2="595.06" y2="1170.1"/>
</g>
<g id="LINE_113_">
	<line class="st0" x1="622.81" y1="1122.02" x2="584.89" y2="1132.17"/>
</g>
<g id="LINE_114_">
	<line class="st0" x1="381.8" y1="1131.42" x2="343.87" y2="1121.26"/>
</g>
<g id="LINE_115_">
	<line class="st0" x1="371.63" y1="1169.34" x2="381.8" y2="1131.42"/>
</g>
<g id="LINE_116_">
	<line class="st0" x1="333.71" y1="1159.18" x2="371.63" y2="1169.34"/>
</g>
<g id="LINE_117_">
	<line class="st0" x1="343.87" y1="1121.26" x2="333.71" y2="1159.18"/>
</g>
<g id="LINE_118_">
	<line class="st0" x1="326.14" y1="1130.48" x2="288.22" y2="1120.32"/>
</g>
<g id="LINE_119_">
	<line class="st0" x1="315.98" y1="1168.4" x2="326.14" y2="1130.48"/>
</g>
<g id="LINE_120_">
	<line class="st0" x1="278.06" y1="1158.24" x2="315.98" y2="1168.4"/>
</g>
<g id="LINE_121_">
	<line class="st0" x1="288.22" y1="1120.32" x2="278.06" y2="1158.24"/>
</g>
<g id="LINE_122_">
	<line class="st0" x1="744.29" y1="1158.06" x2="734.12" y2="1120.14"/>
</g>
<g id="LINE_123_">
	<line class="st0" x1="706.36" y1="1168.23" x2="744.29" y2="1158.06"/>
</g>
<g id="LINE_124_">
	<line class="st0" x1="696.2" y1="1130.3" x2="706.36" y2="1168.23"/>
</g>
<g id="LINE_125_">
	<line class="st0" x1="734.12" y1="1120.14" x2="696.2" y2="1130.3"/>
</g>
<g id="LINE_126_">
	<line class="st0" x1="799.94" y1="1157.13" x2="789.78" y2="1119.21"/>
</g>
<g id="LINE_127_">
	<line class="st0" x1="762.02" y1="1167.29" x2="799.94" y2="1157.13"/>
</g>
<g id="LINE_128_">
	<line class="st0" x1="751.86" y1="1129.37" x2="762.02" y2="1167.29"/>
</g>
<g id="LINE_129_">
	<line class="st0" x1="789.78" y1="1119.21" x2="751.86" y2="1129.37"/>
</g>
<g id="LINE_130_">
	<line class="st0" x1="201.79" y1="1125.11" x2="163.87" y2="1114.95"/>
</g>
<g id="LINE_131_">
	<line class="st0" x1="191.63" y1="1163.04" x2="201.79" y2="1125.11"/>
</g>
<g id="LINE_132_">
	<line class="st0" x1="153.71" y1="1152.87" x2="191.63" y2="1163.04"/>
</g>
<g id="LINE_133_">
	<line class="st0" x1="163.87" y1="1114.95" x2="153.71" y2="1152.87"/>
</g>
<g id="LINE_134_">
	<line class="st0" x1="924.29" y1="1151.76" x2="914.13" y2="1113.84"/>
</g>
<g id="LINE_135_">
	<line class="st0" x1="886.36" y1="1161.92" x2="924.29" y2="1151.76"/>
</g>
<g id="LINE_136_">
	<line class="st0" x1="876.21" y1="1124" x2="886.36" y2="1161.92"/>
</g>
<g id="LINE_137_">
	<line class="st0" x1="914.13" y1="1113.84" x2="876.21" y2="1124"/>
</g>
<g id="LINE_138_">
	<line class="st0" x1="444.44" y1="1106.27" x2="406.52" y2="1096.11"/>
</g>
<g id="LINE_139_">
	<line class="st0" x1="434.28" y1="1144.19" x2="444.44" y2="1106.27"/>
</g>
<g id="LINE_140_">
	<line class="st0" x1="396.35" y1="1134.03" x2="434.28" y2="1144.19"/>
</g>
<g id="LINE_141_">
	<line class="st0" x1="406.52" y1="1096.11" x2="396.35" y2="1134.03"/>
</g>
<g id="LINE_142_">
	<line class="st0" x1="681.64" y1="1132.92" x2="671.48" y2="1095"/>
</g>
<g id="LINE_143_">
	<line class="st0" x1="643.72" y1="1143.08" x2="681.64" y2="1132.92"/>
</g>
<g id="LINE_144_">
	<line class="st0" x1="633.56" y1="1105.16" x2="643.72" y2="1143.08"/>
</g>
<g id="LINE_145_">
	<line class="st0" x1="671.48" y1="1095" x2="633.56" y2="1105.16"/>
</g>
<g id="LINE_146_">
	<line class="st0" x1="280.97" y1="1090.43" x2="243.05" y2="1080.27"/>
</g>
<g id="LINE_147_">
	<line class="st0" x1="270.81" y1="1128.35" x2="280.97" y2="1090.43"/>
</g>
<g id="LINE_148_">
	<line class="st0" x1="232.89" y1="1118.19" x2="270.81" y2="1128.35"/>
</g>
<g id="LINE_149_">
	<line class="st0" x1="243.05" y1="1080.27" x2="232.89" y2="1118.19"/>
</g>
<g id="LINE_150_">
	<line class="st0" x1="845.11" y1="1117.07" x2="834.95" y2="1079.15"/>
</g>
<g id="LINE_151_">
	<line class="st0" x1="807.19" y1="1127.23" x2="845.11" y2="1117.07"/>
</g>
<g id="LINE_152_">
	<line class="st0" x1="797.03" y1="1089.31" x2="807.19" y2="1127.23"/>
</g>
<g id="LINE_153_">
	<line class="st0" x1="834.95" y1="1079.15" x2="797.03" y2="1089.31"/>
</g>
<g id="LINE_154_">
	<line class="st0" x1="507.08" y1="1081.13" x2="469.15" y2="1070.97"/>
</g>
<g id="LINE_155_">
	<line class="st0" x1="496.92" y1="1119.05" x2="507.08" y2="1081.13"/>
</g>
<g id="LINE_156_">
	<line class="st0" x1="459" y1="1108.89" x2="496.92" y2="1119.05"/>
</g>
<g id="LINE_157_">
	<line class="st0" x1="469.15" y1="1070.97" x2="459" y2="1108.89"/>
</g>
<g id="LINE_158_">
	<line class="st0" x1="619" y1="1107.78" x2="608.84" y2="1069.85"/>
</g>
<g id="LINE_159_">
	<line class="st0" x1="581.08" y1="1117.94" x2="619" y2="1107.78"/>
</g>
<g id="LINE_160_">
	<line class="st0" x1="570.92" y1="1080.01" x2="581.08" y2="1117.94"/>
</g>
<g id="LINE_161_">
	<line class="st0" x1="608.84" y1="1069.85" x2="570.92" y2="1080.01"/>
</g>
<g id="LINE_162_">
	<line class="st0" x1="395.78" y1="1079.26" x2="357.85" y2="1069.1"/>
</g>
<g id="LINE_163_">
	<line class="st0" x1="385.61" y1="1117.18" x2="395.78" y2="1079.26"/>
</g>
<g id="LINE_164_">
	<line class="st0" x1="347.69" y1="1107.02" x2="385.61" y2="1117.18"/>
</g>
<g id="LINE_165_">
	<line class="st0" x1="357.85" y1="1069.1" x2="347.69" y2="1107.02"/>
</g>
<g id="LINE_166_">
	<line class="st0" x1="340.12" y1="1078.32" x2="302.2" y2="1068.16"/>
</g>
<g id="LINE_167_">
	<line class="st0" x1="329.96" y1="1116.24" x2="340.12" y2="1078.32"/>
</g>
<g id="LINE_168_">
	<line class="st0" x1="292.03" y1="1106.08" x2="329.96" y2="1116.24"/>
</g>
<g id="LINE_169_">
	<line class="st0" x1="302.2" y1="1068.16" x2="292.03" y2="1106.08"/>
</g>
<g id="LINE_170_">
	<line class="st0" x1="730.31" y1="1105.9" x2="720.15" y2="1067.98"/>
</g>
<g id="LINE_171_">
	<line class="st0" x1="692.38" y1="1116.07" x2="730.31" y2="1105.9"/>
</g>
<g id="LINE_172_">
	<line class="st0" x1="682.22" y1="1078.14" x2="692.38" y2="1116.07"/>
</g>
<g id="LINE_173_">
	<line class="st0" x1="720.15" y1="1067.98" x2="682.22" y2="1078.14"/>
</g>
<g id="LINE_174_">
	<line class="st0" x1="785.96" y1="1104.97" x2="775.8" y2="1067.05"/>
</g>
<g id="LINE_175_">
	<line class="st0" x1="748.04" y1="1115.13" x2="785.96" y2="1104.97"/>
</g>
<g id="LINE_176_">
	<line class="st0" x1="737.88" y1="1077.21" x2="748.04" y2="1115.13"/>
</g>
<g id="LINE_177_">
	<line class="st0" x1="775.8" y1="1067.05" x2="737.88" y2="1077.21"/>
</g>
<g id="LINE_178_">
	<line class="st0" x1="215.77" y1="1072.95" x2="177.85" y2="1062.79"/>
</g>
<g id="LINE_179_">
	<line class="st0" x1="205.61" y1="1110.87" x2="215.77" y2="1072.95"/>
</g>
<g id="LINE_180_">
	<line class="st0" x1="167.69" y1="1100.72" x2="205.61" y2="1110.87"/>
</g>
<g id="LINE_181_">
	<line class="st0" x1="177.85" y1="1062.79" x2="167.69" y2="1100.72"/>
</g>
<g id="LINE_182_">
	<line class="st0" x1="910.31" y1="1099.6" x2="900.15" y2="1061.68"/>
</g>
<g id="LINE_183_">
	<line class="st0" x1="872.39" y1="1109.76" x2="910.31" y2="1099.6"/>
</g>
<g id="LINE_184_">
	<line class="st0" x1="862.22" y1="1071.84" x2="872.39" y2="1109.76"/>
</g>
<g id="LINE_185_">
	<line class="st0" x1="900.15" y1="1061.68" x2="862.22" y2="1071.84"/>
</g>
<g id="LINE_186_">
	<line class="st0" x1="458.41" y1="1054.11" x2="420.49" y2="1043.95"/>
</g>
<g id="LINE_187_">
	<line class="st0" x1="448.26" y1="1092.03" x2="458.41" y2="1054.11"/>
</g>
<g id="LINE_188_">
	<line class="st0" x1="410.33" y1="1081.87" x2="448.26" y2="1092.03"/>
</g>
<g id="LINE_189_">
	<line class="st0" x1="420.49" y1="1043.95" x2="410.33" y2="1081.87"/>
</g>
<g id="LINE_190_">
	<line class="st0" x1="667.67" y1="1080.76" x2="657.51" y2="1042.84"/>
</g>
<g id="LINE_191_">
	<line class="st0" x1="629.74" y1="1090.92" x2="667.67" y2="1080.76"/>
</g>
<g id="LINE_192_">
	<line class="st0" x1="619.58" y1="1053" x2="629.74" y2="1090.92"/>
</g>
<g id="LINE_193_">
	<line class="st0" x1="657.51" y1="1042.84" x2="619.58" y2="1053"/>
</g>
<g id="LINE_194_">
	<line class="st0" x1="294.95" y1="1038.26" x2="257.03" y2="1028.11"/>
</g>
<g id="LINE_195_">
	<line class="st0" x1="284.79" y1="1076.19" x2="294.95" y2="1038.26"/>
</g>
<g id="LINE_196_">
	<line class="st0" x1="246.87" y1="1066.03" x2="284.79" y2="1076.19"/>
</g>
<g id="LINE_197_">
	<line class="st0" x1="257.03" y1="1028.11" x2="246.87" y2="1066.03"/>
</g>
<g id="LINE_198_">
	<line class="st0" x1="831.13" y1="1064.91" x2="820.98" y2="1026.99"/>
</g>
<g id="LINE_199_">
	<line class="st0" x1="793.21" y1="1075.07" x2="831.13" y2="1064.91"/>
</g>
<g id="LINE_200_">
	<line class="st0" x1="783.05" y1="1037.15" x2="793.21" y2="1075.07"/>
</g>
<g id="LINE_201_">
	<line class="st0" x1="820.98" y1="1026.99" x2="783.05" y2="1037.15"/>
</g>
<g id="LINE_202_">
	<line class="st0" x1="521.06" y1="1028.97" x2="483.14" y2="1018.81"/>
</g>
<g id="LINE_203_">
	<line class="st0" x1="510.9" y1="1066.89" x2="521.06" y2="1028.97"/>
</g>
<g id="LINE_204_">
	<line class="st0" x1="472.97" y1="1056.73" x2="510.9" y2="1066.89"/>
</g>
<g id="LINE_205_">
	<line class="st0" x1="483.14" y1="1018.81" x2="472.97" y2="1056.73"/>
</g>
<g id="LINE_206_">
	<line class="st0" x1="605.03" y1="1055.61" x2="594.86" y2="1017.69"/>
</g>
<g id="LINE_207_">
	<line class="st0" x1="567.1" y1="1065.78" x2="605.03" y2="1055.61"/>
</g>
<g id="LINE_208_">
	<line class="st0" x1="556.94" y1="1027.86" x2="567.1" y2="1065.78"/>
</g>
<g id="LINE_209_">
	<line class="st0" x1="594.86" y1="1017.69" x2="556.94" y2="1027.86"/>
</g>
<g id="LINE_210_">
	<line class="st0" x1="409.75" y1="1027.1" x2="371.83" y2="1016.94"/>
</g>
<g id="LINE_211_">
	<line class="st0" x1="399.59" y1="1065.02" x2="409.75" y2="1027.1"/>
</g>
<g id="LINE_212_">
	<line class="st0" x1="361.67" y1="1054.86" x2="399.59" y2="1065.02"/>
</g>
<g id="LINE_213_">
	<line class="st0" x1="371.83" y1="1016.94" x2="361.67" y2="1054.86"/>
</g>
<g id="LINE_214_">
	<line class="st0" x1="354.1" y1="1026.16" x2="316.17" y2="1016"/>
</g>
<g id="LINE_215_">
	<line class="st0" x1="343.94" y1="1064.09" x2="354.1" y2="1026.16"/>
</g>
<g id="LINE_216_">
	<line class="st0" x1="306.01" y1="1053.92" x2="343.94" y2="1064.09"/>
</g>
<g id="LINE_217_">
	<line class="st0" x1="316.17" y1="1016" x2="306.01" y2="1053.92"/>
</g>
<g id="LINE_218_">
	<line class="st0" x1="716.33" y1="1053.74" x2="706.17" y2="1015.82"/>
</g>
<g id="LINE_219_">
	<line class="st0" x1="678.41" y1="1063.9" x2="716.33" y2="1053.74"/>
</g>
<g id="LINE_220_">
	<line class="st0" x1="668.25" y1="1025.98" x2="678.41" y2="1063.9"/>
</g>
<g id="LINE_221_">
	<line class="st0" x1="706.17" y1="1015.82" x2="668.25" y2="1025.98"/>
</g>
<g id="LINE_222_">
	<line class="st0" x1="771.99" y1="1052.81" x2="761.83" y2="1014.89"/>
</g>
<g id="LINE_223_">
	<line class="st0" x1="734.06" y1="1062.97" x2="771.99" y2="1052.81"/>
</g>
<g id="LINE_224_">
	<line class="st0" x1="723.91" y1="1025.05" x2="734.06" y2="1062.97"/>
</g>
<g id="LINE_225_">
	<line class="st0" x1="761.83" y1="1014.89" x2="723.91" y2="1025.05"/>
</g>
<g id="LINE_226_">
	<line class="st0" x1="229.74" y1="1020.79" x2="191.82" y2="1010.63"/>
</g>
<g id="LINE_227_">
	<line class="st0" x1="219.59" y1="1058.71" x2="229.74" y2="1020.79"/>
</g>
<g id="LINE_228_">
	<line class="st0" x1="181.67" y1="1048.56" x2="219.59" y2="1058.71"/>
</g>
<g id="LINE_229_">
	<line class="st0" x1="191.82" y1="1010.63" x2="181.67" y2="1048.56"/>
</g>
<g id="LINE_230_">
	<line class="st0" x1="896.33" y1="1047.44" x2="886.17" y2="1009.52"/>
</g>
<g id="LINE_231_">
	<line class="st0" x1="858.41" y1="1057.61" x2="896.33" y2="1047.44"/>
</g>
<g id="LINE_232_">
	<line class="st0" x1="848.25" y1="1019.68" x2="858.41" y2="1057.61"/>
</g>
<g id="LINE_233_">
	<line class="st0" x1="886.17" y1="1009.52" x2="848.25" y2="1019.68"/>
</g>
<g id="LINE_234_">
	<line class="st0" x1="472.39" y1="1001.95" x2="434.47" y2="991.79"/>
</g>
<g id="LINE_235_">
	<line class="st0" x1="462.23" y1="1039.88" x2="472.39" y2="1001.95"/>
</g>
<g id="LINE_236_">
	<line class="st0" x1="424.31" y1="1029.71" x2="462.23" y2="1039.88"/>
</g>
<g id="LINE_237_">
	<line class="st0" x1="434.47" y1="991.79" x2="424.31" y2="1029.71"/>
</g>
<g id="LINE_238_">
	<line class="st0" x1="653.69" y1="1028.6" x2="643.53" y2="990.68"/>
</g>
<g id="LINE_239_">
	<line class="st0" x1="615.77" y1="1038.76" x2="653.69" y2="1028.6"/>
</g>
<g id="LINE_240_">
	<line class="st0" x1="605.61" y1="1000.84" x2="615.77" y2="1038.76"/>
</g>
<g id="LINE_241_">
	<line class="st0" x1="643.53" y1="990.68" x2="605.61" y2="1000.84"/>
</g>
<g id="LINE_242_">
	<line class="st0" x1="308.92" y1="986.11" x2="271" y2="975.95"/>
</g>
<g id="LINE_243_">
	<line class="st0" x1="298.76" y1="1024.03" x2="308.92" y2="986.11"/>
</g>
<g id="LINE_244_">
	<line class="st0" x1="260.84" y1="1013.87" x2="298.76" y2="1024.03"/>
</g>
<g id="LINE_245_">
	<line class="st0" x1="271" y1="975.95" x2="260.84" y2="1013.87"/>
</g>
<g id="LINE_246_">
	<line class="st0" x1="817.16" y1="1012.75" x2="806.99" y2="974.83"/>
</g>
<g id="LINE_247_">
	<line class="st0" x1="779.23" y1="1022.91" x2="817.16" y2="1012.75"/>
</g>
<g id="LINE_248_">
	<line class="st0" x1="769.07" y1="984.99" x2="779.23" y2="1022.91"/>
</g>
<g id="LINE_249_">
	<line class="st0" x1="806.99" y1="974.83" x2="769.07" y2="984.99"/>
</g>
<g id="LINE_250_">
	<line class="st0" x1="423.72" y1="974.94" x2="385.8" y2="964.78"/>
</g>
<g id="LINE_251_">
	<line class="st0" x1="413.56" y1="1012.86" x2="423.72" y2="974.94"/>
</g>
<g id="LINE_252_">
	<line class="st0" x1="375.64" y1="1002.7" x2="413.56" y2="1012.86"/>
</g>
<g id="LINE_253_">
	<line class="st0" x1="385.8" y1="964.78" x2="375.64" y2="1002.7"/>
</g>
<g id="LINE_254_">
	<line class="st0" x1="368.07" y1="974" x2="330.15" y2="963.84"/>
</g>
<g id="LINE_255_">
	<line class="st0" x1="357.91" y1="1011.93" x2="368.07" y2="974"/>
</g>
<g id="LINE_256_">
	<line class="st0" x1="319.99" y1="1001.76" x2="357.91" y2="1011.93"/>
</g>
<g id="LINE_257_">
	<line class="st0" x1="330.15" y1="963.84" x2="319.99" y2="1001.76"/>
</g>
<g id="LINE_258_">
	<line class="st0" x1="702.35" y1="1001.58" x2="692.2" y2="963.66"/>
</g>
<g id="LINE_259_">
	<line class="st0" x1="664.43" y1="1011.74" x2="702.35" y2="1001.58"/>
</g>
<g id="LINE_260_">
	<line class="st0" x1="654.28" y1="973.82" x2="664.43" y2="1011.74"/>
</g>
<g id="LINE_261_">
	<line class="st0" x1="692.2" y1="963.66" x2="654.28" y2="973.82"/>
</g>
<g id="LINE_262_">
	<line class="st0" x1="758.01" y1="1000.65" x2="747.85" y2="962.73"/>
</g>
<g id="LINE_263_">
	<line class="st0" x1="720.09" y1="1010.81" x2="758.01" y2="1000.65"/>
</g>
<g id="LINE_264_">
	<line class="st0" x1="709.93" y1="972.89" x2="720.09" y2="1010.81"/>
</g>
<g id="LINE_265_">
	<line class="st0" x1="747.85" y1="962.73" x2="709.93" y2="972.89"/>
</g>
<g id="LINE_266_">
	<line class="st0" x1="243.72" y1="968.63" x2="205.8" y2="958.47"/>
</g>
<g id="LINE_267_">
	<line class="st0" x1="233.56" y1="1006.55" x2="243.72" y2="968.63"/>
</g>
<g id="LINE_268_">
	<line class="st0" x1="195.64" y1="996.39" x2="233.56" y2="1006.55"/>
</g>
<g id="LINE_269_">
	<line class="st0" x1="205.8" y1="958.47" x2="195.64" y2="996.39"/>
</g>
<g id="LINE_270_">
	<line class="st0" x1="882.36" y1="995.28" x2="872.2" y2="957.36"/>
</g>
<g id="LINE_271_">
	<line class="st0" x1="844.43" y1="1005.44" x2="882.36" y2="995.28"/>
</g>
<g id="LINE_272_">
	<line class="st0" x1="834.28" y1="967.52" x2="844.43" y2="1005.44"/>
</g>
<g id="LINE_273_">
	<line class="st0" x1="872.2" y1="957.36" x2="834.28" y2="967.52"/>
</g>
<g id="CIRCLE">
	<path class="st0" d="M725.24,1179.48c0-2.47,2-4.46,4.46-4.46s4.46,2,4.46,4.46s-2,4.46-4.46,4.46S725.24,1181.95,725.24,1179.48
		L725.24,1179.48z"/>
</g>
<g id="CIRCLE_1_">
	<path class="st0" d="M550.16,1080.3c0-2.47,2-4.46,4.46-4.46s4.46,2,4.46,4.46s-2,4.46-4.46,4.46S550.16,1082.76,550.16,1080.3
		L550.16,1080.3z"/>
</g>
<g id="CIRCLE_2_">
	<path class="st0" d="M518.9,1080.84c0-2.47,2-4.46,4.46-4.46s4.46,2,4.46,4.46s-2,4.46-4.46,4.46S518.9,1083.31,518.9,1080.84
		L518.9,1080.84z"/>
</g>
<g id="CIRCLE_3_">
	<path class="st0" d="M575.45,1185.53c0-2.47,2-4.46,4.46-4.46c2.47,0,4.46,2,4.46,4.46c0,2.47-2,4.46-4.46,4.46
		C577.44,1190,575.45,1188,575.45,1185.53L575.45,1185.53z"/>
</g>
<g id="CIRCLE_4_">
	<path class="st0" d="M492.71,1186.27c0-2.47,2-4.46,4.46-4.46c2.47,0,4.46,2,4.46,4.46s-2,4.46-4.46,4.46
		C494.71,1190.73,492.71,1188.74,492.71,1186.27L492.71,1186.27z"/>
</g>
<g id="CIRCLE_5_">
	<path class="st0" d="M343.83,1180.6c0-2.47,2-4.46,4.46-4.46c2.47,0,4.46,2,4.46,4.46c0,2.47-2,4.46-4.46,4.46
		C345.83,1185.07,343.83,1183.07,343.83,1180.6L343.83,1180.6z"/>
</g>
<g id="CIRCLE_6_">
	<path class="st0" d="M949.67,1161.27c0-2.49,2.02-4.51,4.51-4.51s4.51,2.02,4.51,4.51c0,2.49-2.02,4.51-4.51,4.51
		S949.67,1163.76,949.67,1161.27L949.67,1161.27z"/>
</g>
<g id="CIRCLE_7_">
	<path class="st0" d="M119.36,1162.38c0-2.47,2-4.46,4.46-4.46c2.47,0,4.46,2,4.46,4.46s-2,4.46-4.46,4.46
		C121.35,1166.84,119.36,1164.84,119.36,1162.38L119.36,1162.38z"/>
</g>
<g id="CIRCLE_8_">
	<path class="st0" d="M889.27,935.87c0-2.49,2.02-4.51,4.51-4.51c2.49,0,4.51,2.02,4.51,4.51s-2.02,4.51-4.51,4.51
		C891.29,940.38,889.27,938.36,889.27,935.87L889.27,935.87z"/>
</g>
<g id="CIRCLE_9_">
	<path class="st0" d="M404.68,953.52c0-2.47,2-4.46,4.46-4.46c2.47,0,4.46,2,4.46,4.46s-2,4.46-4.46,4.46
		C406.68,957.98,404.68,955.98,404.68,953.52L404.68,953.52z"/>
</g>
<g id="CIRCLE_10_">
	<path class="st0" d="M664.39,952.4c0-2.47,2-4.46,4.46-4.46s4.46,2,4.46,4.46s-2,4.46-4.46,4.46S664.39,954.87,664.39,952.4
		L664.39,952.4z"/>
</g>
<g id="CIRCLE_11_">
	<path class="st0" d="M638.75,1330.79c0-2.47,2-4.46,4.46-4.46c2.47,0,4.46,2,4.46,4.46s-2,4.46-4.46,4.46
		C640.75,1335.25,638.75,1333.25,638.75,1330.79L638.75,1330.79z"/>
</g>
<g id="CIRCLE_12_">
	<path class="st0" d="M424.74,1329.24c0-2.47,2-4.46,4.46-4.46c2.47,0,4.46,2,4.46,4.46s-2,4.46-4.46,4.46
		C426.74,1333.7,424.74,1331.7,424.74,1329.24L424.74,1329.24z"/>
</g>
<g id="CIRCLE_13_">
	<path class="st0" d="M180.2,935.29c0-2.47,2-4.46,4.46-4.46s4.46,2,4.46,4.46c0,2.47-2,4.46-4.46,4.46S180.2,937.76,180.2,935.29
		L180.2,935.29z"/>
</g>
<g id="ARC">
	<path class="st0" d="M113.51,1166.02c-0.41,1.51,0.49,3.07,2,3.47"/>
</g>
<g id="ARC_1_">
	<path class="st0" d="M216.41,1196.52c1.51,0.41,3.07-0.49,3.47-2"/>
</g>
<g id="ARC_2_">
	<path class="st0" d="M247.54,1173.98c-0.41,1.51,0.49,3.07,2,3.47"/>
</g>
<g id="ARC_3_">
	<path class="st0" d="M331.07,1199.3c1.51,0.41,3.07-0.49,3.47-2"/>
</g>
<g id="ARC_4_">
	<path class="st0" d="M351.86,1201.94c-0.41,1.51,0.49,3.07,2,3.47"/>
</g>
<g id="ARC_5_">
	<path class="st0" d="M422.84,1338.14c0.54,1.47,2.16,2.23,3.63,1.69"/>
</g>
<g id="ARC_6_">
	<path class="st0" d="M645.94,1341.38c1.47,0.54,3.1-0.22,3.63-1.69"/>
</g>
<g id="ARC_7_">
	<path class="st0" d="M724.14,1204.29c1.51-0.41,2.41-1.96,2-3.47"/>
</g>
<g id="ARC_8_">
	<path class="st0" d="M743.45,1196.18c0.41,1.51,1.96,2.41,3.47,2"/>
</g>
<g id="ARC_9_">
	<path class="st0" d="M828.46,1176.34c1.51-0.41,2.41-1.96,2-3.47"/>
</g>
<g id="ARC_10_">
	<path class="st0" d="M858.12,1193.41c0.41,1.51,1.96,2.41,3.47,2"/>
</g>
<g id="ARC_11_">
	<path class="st0" d="M962.49,1168.38c1.51-0.41,2.41-1.96,2-3.47"/>
</g>
<g id="ARC_12_">
	<path class="st0" d="M900.89,927.56c-0.41-1.51-1.96-2.41-3.47-2"/>
</g>
<g id="ARC_13_">
	<path class="st0" d="M765.42,934.1c-0.41-1.51-1.96-2.41-3.47-2"/>
</g>
<g id="ARC_14_">
	<path class="st0" d="M709.76,935.04c-0.41-1.51-1.96-2.41-3.47-2"/>
</g>
<g id="ARC_15_">
	<path class="st0" d="M626.75,954.35c-1.51,0.41-2.41,1.96-2,3.47"/>
</g>
<g id="ARC_16_">
	<path class="st0" d="M578.09,981.36c-1.51,0.41-2.41,1.96-2,3.47"/>
</g>
<g id="ARC_17_">
	<path class="st0" d="M501.91,985.95c0.41-1.51-0.49-3.07-2-3.47"/>
</g>
<g id="ARC_18_">
	<path class="st0" d="M453.25,958.94c0.41-1.51-0.49-3.07-2-3.47"/>
</g>
<g id="ARC_19_">
	<path class="st0" d="M371.71,934.14c-1.51-0.41-3.07,0.49-3.47,2"/>
</g>
<g id="ARC_20_">
	<path class="st0" d="M316.06,933.21c-1.51-0.41-3.07,0.49-3.47,2"/>
</g>
<g id="ARC_21_">
	<path class="st0" d="M181.03,924.98c-1.51-0.41-3.07,0.49-3.47,2"/>
</g>
</svg>
